<?xml version="1.0" standalone="no"?>
<!DOCTYPE svg PUBLIC "-//W3C//DTD SVG 1.1//EN" "http://www.w3.org/Graphics/SVG/1.1/DTD/svg11.dtd" >
<svg xmlns="http://www.w3.org/2000/svg" xmlns:xlink="http://www.w3.org/1999/xlink" version="1.1">
<metadata>
Created by FontForge 20161013 at Thu Jul  4 23:14:06 2013
 By ,,,
Copyright (c) 2013 by Mans Greba:ck. All rights reserved.
</metadata>
<defs>
<font id="TopComicPersonalUseOnly" horiz-adv-x="709" >
  <font-face 
    font-family="Top Comic Personal Use Only"
    font-weight="400"
    font-stretch="normal"
    units-per-em="1000"
    panose-1="2 0 0 0 0 0 0 0 0 0"
    ascent="750"
    descent="-250"
    x-height="554.5"
    cap-height="618.5"
    bbox="-235.113 -233.847 1385.63 794.25"
    underline-thickness="50"
    underline-position="-150"
    unicode-range="U+0020-FB02"
  />
<missing-glyph horiz-adv-x="500" 
 />
    <glyph glyph-name=".notdef" horiz-adv-x="500" 
 />
    <glyph glyph-name=".null" horiz-adv-x="0" 
 />
    <glyph glyph-name="nonmarkingreturn" horiz-adv-x="500" 
 />
    <glyph glyph-name="space" unicode=" " horiz-adv-x="338" 
 />
    <glyph glyph-name="space" unicode="&#xa0;" horiz-adv-x="338" 
 />
    <glyph glyph-name="exclam" unicode="!" horiz-adv-x="203" 
d="M174 573q11 14 33 26t49.5 20t56.5 11.5t54.5 1.5t43.5 -10.5t23 -25.5q4 -15 -15.5 -46.5t-52.5 -70.5t-73.5 -81t-77.5 -78t-65.5 -61t-36.5 -30q-19 -11 -33.5 -6t-22.5 23q-5 12 -0.5 38.5t14.5 59t24 68.5t28.5 68t28 57t22.5 36zM131 145q8 -12 -1 -35.5
t-27.5 -47.5t-43.5 -44.5t-49 -27.5q-47 -14 -76.5 -4.5t-34.5 38.5q-2 15 -0.5 32.5t6 33.5t10.5 29.5t13 21.5q23 24 54.5 32.5t61.5 6.5t54.5 -12t32.5 -23z" />
    <glyph glyph-name="quotedbl" unicode="&#x22;" horiz-adv-x="320" 
d="M486 624q6 -11 -2 -27t-24.5 -35.5t-39 -40.5t-44.5 -41q-18 -17 -36 -38t-35.5 -39.5t-33 -32t-28.5 -13.5q-9 -1 -14.5 7t-8.5 22.5t-3 33.5t2 40q-16 -17 -31.5 -35t-30 -33t-27.5 -25t-24 -10q-13 -1 -19 15t-7 41t3 56t11 61t16 54t20 36q14 15 36.5 22.5t47.5 9.5
t50 -0.5t45 -7.5q24 8 53 9t54.5 -3t44.5 -11t25 -15z" />
    <glyph glyph-name="numbersign" unicode="#" horiz-adv-x="623" 
d="M546 160q8 -5 6.5 -17.5t-11 -26t-27 -24.5t-41.5 -13q-7 -1 -17.5 -1.5t-24.5 -0.5q-31 -31 -52.5 -50.5t-28.5 -21.5q-19 -8 -32 -2t-18 23q-3 12 10 49h-77t-77 1q-30 -30 -51.5 -49.5t-28.5 -21.5q-19 -8 -32 -2t-18 23q-2 6 1.5 20.5t10.5 34.5q-23 2 -28 5
q-10 4 -11 14.5t3.5 22t12.5 21.5t17 14t41 7q9 20 18.5 40.5t20.5 41.5q-23 3 -30 8q-11 7 -12.5 23.5t3 34t13.5 33.5t19 23q8 5 30 10t53 8q14 25 26 42t19 22q18 16 52 23.5t68 6t60.5 -13.5t29.5 -34q1 -9 -13 -35h38q26 42 39 53q18 16 52 23.5t68 6t60.5 -13.5
t29.5 -34q3 -14 -24 -53q6 -2 11 -4t7 -4q13 -15 9.5 -34.5t-21 -38.5t-46.5 -35t-66 -22q-1 0 -2 -0.5t-2 -0.5q-16 -19 -32.5 -37.5t-33.5 -36.5q11 -2 18.5 -3.5t10.5 -3.5zM304 235q-14 -15 -27.5 -30.5t-27.5 -30.5q52 2 102 0l14 30t15 30q-19 0 -38 0.5t-38 0.5z" />
    <glyph glyph-name="dollar" unicode="$" horiz-adv-x="902" 
d="M61 517l131 29l-5 18l20 6l-4 19l20 4l-3 22l20 1v20h18l2 18l19 -3l4 20l21 -3l5 19l19 -5l8 18l19 -8l11 19l17 -9l11 17l18 -12l12 16l17 -13l13 14l13 -12l13 11l13 -14l17 11l11 -18l19 10l9 -17l18 8l8 -20l21 6l6 -19l19 5l4 -21l21 2l1 -13l197 43v-242l-90 -20
l2 -1l-12 -13l12 -14l-16 -13l11 -17l-18 -11l11 -18l-17 -10l7 -18l-19 -8l6 -21l-18 -6l3 -19l-20 -4l1 -21l-19 -2v-19h-17l-3 -18l-19 1l-4 -18l-21 3l-5 -20l-19 6l-7 -19l-21 8l-9 -19l-18 10l-11 -17l-18 11l-12 -16l-15 13l-15 -13l-13 12l-13 -12l-12 15l-17 -11
l-12 18l-18 -10l-9 17l-19 -8l-9 20l-19 -6l-6 18l-20 -4l-4 21l-21 -2l-2 20h-20v17l-17 2l2 20l-20 3l4 21l-20 6l6 18l-14 6l-120 -26v241zM595 466l11 11q-1 -1 -1 -3q0 -3 2 -7q1 -2 5 -4q3 -1 10 1q6 1 12 6l10 7l3.5 3.5l3.5 3.5l6 6v-2q0 -1 -0.5 -1.5t-0.5 -1.5v-3
q-2 -3 0 -5q0 -1 0.5 -1.5t0.5 -1.5q0 -3 3 -3h8l3 2l4 3l6 3l16 13l8 8l-2 -6q-2 -3 -2 -9v-3q1 0 2 -1q0 -1 3 -1q2 0 4 2q4 0 6 3l5 3l6 6q1 0 5 4l4.5 4.5l4.5 4.5l9 10v2q0 1 -1 1q-2 0 -4 -2l-1 -2l-6 -7l-5 -6q-5 -3 -6 -6l-7 -6l-4 -3l-4 -1l-1 -1q-1 0 -2 1h1l4 7
q2 4 4 6l3 6q2 1 4 5l31 45q5 5 6 8l8 8l18 21q5 5 8.5 10t7.5 10l5 9v4q-1 1 -4 1q-1 0 -5 -2q-2 0 -3 -1t-3 -2q-2 0 -5 -3l-4 -3l-11 -9l-8 -9q-3 -3 -5 -5.5t-4 -5.5q-1 -2 -3 -4.5t-4 -5.5l-13 -20l-13 -22l-9 -16l-4 -8h-1l-7 -7q-2 -3 -4 -5l-5 -5l-9 -8l-5 -4l-3 -2
l-2 -1l-2 -2h-5l6 10q0 1 1 2q2 4 4 7t5 6l8 14l7 10l4 6l3 5l1 1l1 1q0 1 0.5 1t0.5 1q3 2 2 4q0 1 -3 1l-5 -2l-5 -3l-9 -6l-7 -6q0 3 -1 5q0 1 -3 3q-6 1 -10 0q-8 -2 -11 -4l-12 -6l-9 -8q-13 -9 -18 -19q-7 -8 -10 -18h-2l-8 -9q-3 -2 -5.5 -4t-5.5 -4q-1 -2 -6 -4
q-2 -2 -5 -2h-1q-1 1 0 2l3 4l3 5l6 7l10 13q2 3 4.5 6.5t4.5 7.5l4 8q2 5 1 8q0 3 -1 3q0 2 -3 2t-4 -1l-6 -2l-6 -4l-5 -4l-5 -4q-4 -4 -6 -4l-10 -11l-4.5 -4.5l-4.5 -4.5l-5 -6l-5 -5l1 2l12 17l13 18q0 1 0.5 1t0.5 1q1 1 1 2q1 1 1 3l-3 3q-1 0 -1.5 0.5t-1.5 0.5
t-2 -0.5t-3 -0.5l-5 -3l-2 -2q-2 -1 -2 -2t-1 -2l-2 -3l-38 -65q-1 -1 -1 -2v-1q1 0 1.5 -0.5t1.5 -0.5q2 0 4 1l4 2q0 1 2 3q1 0 1 0.5t1 0.5l2 3q0 2 2 2l8 11l10 10l8 10l11 10l14 14l5 4l5 4l6 2q1 0 1 -1h-1l-2 -2q-1 -3 -4 -4l-2 -3l-6 -7q-2 -2 -3 -3.5t-3 -3.5
l-7 -11l-7 -10l-3 -9q-2 -5 0 -8q1 -3 4 -3h9q2 1 4.5 2.5t6.5 3.5zM397 418q6 0 12 4q8 4 11 8q3 2 4.5 4t3.5 4l4 9q3 4 3 9v8q0 3 -2 7l-3 8l-3 3q0 2 -2 4q0 1 -1 2v5h-4l-2 -2l-6 -4l-2 -6l-1 -1l-2 -3l-16 -22l-2 -3l-3 -5h-1v-1q-1 0 -2 -1l-2 -4l-3 -4l-7 -9
l-11 -10l-6 -3q-2 -2 -6 -2v1l4 5l3 5l4 5l3 4l4 7l5 7l2 7q1 3 1 7q-1 1 -1 4l-1 2q0 2 -1 3v11l3 5q2 3 -2 6q-2 3 -8 0q-5 -1 -8 -4q-3 -1 -5 -6q-2 -2 -2 -5q0 -4 1 -6l2 -1l2 -2l-6 -6l-11 -15l-10 -11q-2 0 -2 -2v-1l-1 -1q0 -1 -1 -1l-5 -7q-4 -3 -7 -6t-7 -5
q-6 -6 -16 -11l-10 -4q-6 -2 -9 -1q-3 0 -3 2q-1 1 -1 3q0 1 2 5l1 4l5 8q2 -1 6 -1h9q5 1 13 6q3 1 5.5 3t6.5 4l7 8q2 2 3.5 4t1.5 4l4 6q0 6 -2 7q-2 4 -4 5h-9h-4.5t-4.5 -2l-10 -4q-13 -7 -22 -14q-9 -8 -14 -17q-2 -2 -3 -4.5t-3 -5.5q-3 -4 -4 -9v-8q1 -4 5 -6
q5 -5 11 -3q7 0 13 3q5 1 8.5 3t7.5 4t7.5 4.5t7.5 6.5l12 10l7 7q0 1 2 3q0 1 1 2l2 3l8 8l7 10q3 2 5 5t4 5l3 -1l2 -3q0 -1 1 -2v-1q0 -1 -1 -2t-2 -3l-8 -8l-7 -10l-6 -9l-2 -9q-1 -1 -1 -4v-3l2 -4h4q5 0 8 1l8 5q2 2 5 4t5 5q3 2 5 4l4 4l4 6l4 5l2 2l2 3l2 2l6 8
l10 15q0 -2 0.5 -3.5t0.5 -3.5q2 -6 2 -7l2 -4q-8 -2 -12 -6l-10 -7q-2 -2 -3.5 -4.5t-2.5 -4.5q-1 -3 -1 -8q0 -3 5 -5h9zM447 440q0 -4 2 -4l5 -4h5h6q4 1 7 2l6 2l13 7l11 10l9 8l7 10l5 8l3 9q2 5 0 7q0 3 -3 5q0 2 -5 4q-1 0 -3 0.5t-4 0.5q-3 0 -9 -2q-2 0 -3 -0.5
l-3 -1.5l-6 -2l-12 -8l-11 -9l-8 -9l-6 -9q-5 -8 -6 -13v-11zM125 8q-4 3 -8 13q-2 5 -2 16v8q0 2 1 3.5t1 3.5q1 6 7 12q2 3 5 5l6 4q7 3 16 3h3q2 0 4 -0.5t4 -0.5q4 0 7 -3q7 -4 10 -9q2 -2 4 -6q0 -1 0.5 -1.5t0.5 -1.5v-2h-16v1q0 1 -2 3q-1 2 -2 2.5t-3 2.5q-3 2 -9 2
h-7l-7 -6q-5 -3 -5 -7q-2 -4 -2 -14q0 -4 0.5 -7t1.5 -7q1 -5 6 -7q3 -2 5 -3t5 -1h2q6 0 9 2q2 0 3.5 1.5l2.5 2.5q2 3 3 5t1 5h-18v13h32v-41h-10l-2 10q-3 -4 -7 -7q-2 -2 -4.5 -2.5t-4.5 -1.5q-2 0 -4.5 -0.5t-4.5 -0.5q-6 0 -12 3q-7 3 -10 8zM213 -69q3 7 7 10
q4 4 12 4q3 0 9 -2l3.5 -3.5t2.5 -3.5l1 8h12v-49q0 -5 -2 -13q-3 -5 -8 -7q-6 -3 -16 -3q-2 0 -4.5 0.5t-4.5 0.5q-3 1 -9 5q-2 2 -2 4q-1 2 -1 5h13l3 -4q1 -1 6 -1q6 0 7 1q4 3 4 4t0.5 1.5t0.5 1.5v9q-6 -7 -14 -7q-3 0 -5.5 0.5t-5.5 1.5q-5 4 -8 10q-2 3 -3 6.5
t-1 8.5q0 3 1 6zM578 49q2 -2 3 -4.5t3 -5.5q2 -6 2 -12q0 -8 -4 -15q-1 -4 -9 -10q-5 -4 -15 -4t-17 4q-3 2 -5 5l-4 6q-3 6 -3 14q0 3 0.5 5.5t1.5 5.5q1 5 5 9q5 5 10 7q3 2 12 2q8 0 12 -2q2 -2 4 -2.5t4 -2.5zM357 -56h12v-8h2q1 0 2 1l4 4l4 3q1 1 4 1q5 0 8 -2
q4 -2 6 -4q4 -4 5 -10q3 -5 3 -11q0 -2 -0.5 -3t-0.5 -3t-1 -3t-2 -3q-2 -8 -6 -11q-5 -4 -12 -4q-5 0 -7 1l-4 3q-1 1 -3 1l-1 2v-25h-13v71zM799 -56h13v-8q4 9 15 9q4 0 8 -2q3 -2 6 -6q1 4 5 6t8 2q5 0 11 -2q4 -4 5 -7q2 -4 2 -9v-35h-13v31q0 11 -8 11q-9 0 -9 -11
v-31h-13v36q0 2 -2 4t-7 2q-8 0 -8 -11v-31h-13v52zM739 -72q2 6 5 9q3 4 8 6q6 2 12 2q5 0 11 -2l4 -2t4 -3t2.5 -4.5t2.5 -4.5q1 -3 1 -11t-3 -14q-2 -7 -8 -10t-14 -3q-10 0 -15 4q-6 3 -9 10q-2 8 -2 13q0 6 1 10zM124 345l5 5l4 5l5 5q2 4 4 6l31 42l9 15l10 15
q3 4 5.5 7.5t4.5 7.5l8 16q1 2 0 3t-2 1q-4 0 -5 -1l-4 -2l-16 -20q-3 -3 -7 -9l-8 -10l-27 -39l-13 -20l-11 -21l-2 -3v-5h5zM744 -1q-3 0 -4.5 -0.5t-3.5 -0.5t-4 0.5t-4 0.5q-2 2 -3.5 3t-3.5 3q-2 4 -2 10q0 8 4 12q8 4 12 5l13 2q5 0 5 4q0 7 -9 7q-4 0 -6 -2
q-3 -1 -4 -7h-13q0 7 3 12q2 3 8 6q2 2 6 2h6q12 0 16 -2l3.5 -3.5t2.5 -3.5t1 -7v-35q0 -3 4 -3v-3h-16q-1 0 -1 1v1v1q0 2 -0.5 2.5t-0.5 1.5l-4 -4q-1 -1 -1.5 -1t-1.5 -1t-2 -1zM245 22h-38q0 -3 4 -9q3 -3 9 -3q2 0 3.5 0.5t2.5 0.5q4 4 4 5h15l-5 -10l-8 -6l-6 -1.5
t-6 -0.5q-27 0 -27 30q0 10 3 14q2 7 8 10q4 3 7.5 3.5t8.5 0.5q11 0 14 -4q6 -3 9 -11q2 -5 2 -15v-4zM494 317q3 4 3 12q0 5 -2 8q-2 6 -5 8q-2 3 -9 5q-6 3 -11 3q-10 0 -14 -4q-4 -1 -6 -3.5t-4 -4.5q-4 -5 -4 -12t2 -10q2 -2 3 -3.5t3 -3.5q3 -3 9 -5q3 -1 5.5 -1.5
t5.5 -0.5q8 0 13 3q4 2 6.5 4.5zM135 442q-2 -5 0 -8q1 -2 2 -3l3 -3l9 -3q7 0 11 1q2 0 2 1q1 1 1 2t-1 1h-2q-2 0 -2 -1q-7 -1 -14 1q-4 2 -5 4q0 2 -0.5 2.5t-0.5 2.5q0 3 1 6l3 7l8 9q2 2 5 4l6 4t5.5 3.5t6.5 3.5l12 6q4 0 7 1t7 3l14 2q8 2 13 2q3 0 11 -2q5 0 7 -3
l5 -6v-8q0 -6 -1 -10l-5 -9q-2 -3 -3.5 -5.5t-3.5 -4.5q-2 -3 -4.5 -5t-5.5 -5q-2 -3 -10 -9l-11 -7l-12 -5l-7 -3q-1 0 -2.5 -0.5t-3.5 -0.5h-2q-2 0 -3 -1q-1 0 -1 -1q-2 0 -2 -2q0 -1 1 -1h2q2 0 3 1h2l13 4l13 6l13 5l13 8l11 8l10 9l8 10q2 2 3.5 4.5t2.5 5.5q2 6 2 9
q1 5 0 9l-3 7l-7 5q-3 1 -5 1.5t-5 0.5q-4 1 -11 1q-4 0 -12 -2q-7 0 -13.5 -2t-14.5 -4q-14 -4 -26 -11q-3 -2 -6.5 -3.5t-6.5 -3.5l-6 -4t-5 -5l-4.5 -4.5l-4.5 -4.5zM502 -83q5 5 10 5l12 2q4 0 4 3q0 8 -7 8q-5 0 -6 -3q-3 -2 -3 -5h-13q0 7 3 10q3 5 7 6q2 1 5 1
q2 1 7 1t8 -0.5t6 -1.5q4 -3 6 -6q1 -2 1 -7v-27q0 -5 1 -6q0 -1 2 -3v-2h-15v1q0 1 -0.5 1t-0.5 1v3q-2 -1 -2.5 -2t-1.5 -2q-2 -1 -3 -1t-2 -1q-2 -1 -7 -1q-4 0 -7 1l-7 5q-2 4 -2 9q0 8 5 11zM38 -83q5 5 10 5l13 2q5 0 5 3q0 8 -8 8q-5 0 -6 -3q-4 -1 -4 -5h-12
q0 7 3 10q1 4 6 6q2 1 7 1q2 1 6 1q7 0 13 -2q4 -3 6 -6q1 -2 1 -7v-27q0 -5 1 -6q0 -1 2 -3v-2h-14v3q-1 1 -1 3l-4 -4q-2 -1 -3 -1t-2 -1q-2 -1 -6 -1q-6 0 -9 1q-3 2 -5 5q-3 3 -3 9q0 8 4 11zM414 -69q3 7 8 10q5 4 13 4q11 0 15 -4q5 -3 8 -11q2 -8 2 -13v-3h-35
q0 -6 3 -9t8 -3q3 0 7 2l3 4h13q-2 -8 -4 -10t-4 -3l-4 -2q-6 -2 -11 -2q-24 0 -24 28q0 8 2 12zM606 -69q3 7 8 10q5 4 14 4q10 0 14 -4q5 -3 7 -11q3 -6 3 -13v-3h-35q0 -6 3 -9t8 -3q3 0 7 2l3 4h13q-2 -8 -5 -10q-4 -4 -7 -5q-6 -2 -11 -2q-24 0 -24 28q0 4 2 12z
M644 48q2 -6 2 -10v-39h-14v34q0 4 -2 8q-3 3 -8 3q-6 0 -9 -4q-2 -2 -2 -9v-32h-15v56h14v-8q6 9 17 9q7 0 10 -2zM389 7q-3 -4 -7 -6q-6 -3 -10 -3q-10 0 -14 6q-5 4 -5 14v37h14v-34q0 -10 10 -10h5l5 5q0 1 1 2.5t1 3.5v33h13v-56h-13v8zM299 -60l-1 4h16l10 -38l10 38
h15l-17 -50l-1 -1l-4 -11l-3 -6q-3 -3 -5 -3t-3.5 -0.5t-3.5 -0.5h-7v11h8q1 0 3 2v2q1 1 1 3zM155 -56h12v-8q6 9 16 9q4 0 10 -2q3 -2 6 -6q2 -4 2 -10v-35h-14v31q0 6 -1 7q-2 4 -8 4q-4 0 -8 -4q-2 -6 -2 -8v-30h-13v52zM689 -63q6 8 19 8q5 0 11 -2q3 -1 9 -7
q4 -5 4 -11h-14l-3 6q-3 3 -6 3q-5 0 -8 -5q-3 -3 -3 -10q0 -3 0.5 -5t0.5 -4q2 -4 4 -5q1 -2 5 -2q5 0 6 2q3 1 3 6h15q-2 -6 -4 -11q-2 -2 -4 -3.5t-4 -2.5q-5 -3 -12 -3q-10 0 -17 6q-3 1 -5 8q-2 6 -2 12q0 8 5 20zM556 -63q6 8 19 8q5 0 11 -2q4 -1 8 -7q2 -3 3.5 -5.5
t1.5 -5.5h-15q0 2 -2 6q-3 3 -6 3q-5 0 -8 -5q-4 -3 -4 -10q0 -3 0.5 -5t0.5 -4l4 -5q2 -2 6 -2t6 2q3 1 3 6h13q0 -5 -3 -11l-3.5 -3.5t-3.5 -2.5q-6 -3 -12 -3q-11 0 -17 6q-3 1 -5 8q-2 6 -2 12q0 8 5 20zM337 63q-2 0 -2 -2v-6h9v-10h-9v-46h-15v46h-7v10h7v4
q0 16 17 16h7v-12h-7zM515 55h10v-10h-10v-46h-15v46h-7v10h7v4q0 16 17 16h6v-12h-6q-1 0 -2 -2v-6zM806 -1h-9q-7 0 -10 2q-3 0 -4 4q0 1 -1 2.5t-1 3.5v34h-7v10h7v14h16v-14h9v-10h-9v-34q1 0 2 -0.5t3 -0.5l2 1h2v-12zM272 69v-14h8v-10h-8v-30q0 -4 1 -4q0 -1 1 -1h4
l1 1h1v-12h-8q-7 0 -10 2q-3 0 -4 4q-1 1 -1 6v34h-8v10h8v14h15zM461 436q-2 0 -2 1v6q2 7 5 10l7 11l5 6l12 15l4.5 4.5l4.5 4.5l4 4l5 2q2 1 5 1l2 -1q1 -1 1 -4q0 -1 -2 -5l-2 -4l-3 -5l-3 -5l-10 -15l-8 -9l-10 -10q0 -1 -5 -3q-1 -2 -6 -4h-4zM623 478l4 5l3 6l4 5
l9 12l13 16l3 4l8 6q1 1 4 1q2 1 4 1l3 -2q0 -1 0.5 -1.5t0.5 -1.5q0 -2 -1 -4q0 -1 -2 -3l-8 -11l-6 -11l-8 -7l-8 -9l-5 -4l-6 -5l-5 -4q-2 0 -2.5 -1t-2.5 -1q-4 -2 -5 -1h-1q-1 1 -1 2l1 1q0 1 1 2zM685 -1h-10q-7 0 -8 2q-4 0 -5 4v40h-9v10h9v14h13v-14h10v-10h-10
v-30v-3q0 -1 1 -1q2 0 2.5 -0.5t2.5 -0.5l2 1h2v-12zM482 345q0 -2 1 -3.5t2 -4.5q0 -1 0.5 -3.5t0.5 -4.5q0 -6 -2 -12q-2 -2 -3 -4.5t-3 -4.5q-2 -1 -8 -1q-5 0 -6 1q-4 0 -6 5l-3 6q-2 6 -2 10q0 2 0.5 4t0.5 4l3 6l3 5q1 1 2 1t3 1q2 2 6 2q0 -1 1 -1h2l3 -2zM471 -66
h-8v10h8v4q0 14 15 14h6v-11h-6l-1 -1l-1 -4v-2h9v-10h-9v-42h-13v42zM273 -66h-7v10h7v13h14v-13h8v-10h-8v-27q0 -3 1 -4q0 -1 1 -1h3l2 1h1v-11h-8q-6 0 -8 1q-5 2 -5 4q-1 1 -1 6v31zM430 -1h-14v76h14v-76zM455 -1h-14v76h14v-76zM412 352h-50v-2h2q4 0 5 -2q3 0 3 -5
v-28q0 -8 -8 -8h-2v-1h50v19l-3 -6l-5 -7q-3 -3 -4 -3l-5 -1q-2 -1 -6 -1h-7v20h1q4 0 9 -3l2 -3q0 -1 0.5 -1.5t0.5 -1.5v-4h1v29h-1v-4l-2 -5q-5 -5 -9 -5h-2v21h8q8 0 11 -1l4 -3l2 -5l3 -7h2v18zM91 -56h12v-9h1l3 5q1 1 1.5 2t2.5 2q1 1 7 1h3v-14h-4q-13 0 -13 -12
v-27h-13v52zM567 352h-23v-2h4q0 -1 2 -1q3 -2 3 -4q2 -2 2 -7v-19l-32 33h-18v-2q4 0 5 -1q1 0 1.5 -0.5t1.5 -0.5q1 -2 1 -5v-26q0 -3 -1 -5l-3 -4q-2 0 -3.5 -0.5t-2.5 -0.5v-1h24v1q-3 0 -5 1h-4l-2 5q-1 1 -1 6v27l39 -40h2v32q0 4 0.5 6t1.5 4q2 2 8 2v2zM354 327
q-1 2 -6 4l-8 3h-5l-1 1q-2 1 -4 1t-3 1q-3 0 -4 1q-1 0 -3 2q-1 0 -1 2v1v4l2 2l4 2q1 0 2 0.5t3 0.5q3 0 7 -2q4 0 6 -2q4 -2 5 -4q2 -1 2.5 -3.5t2.5 -4.5h1v15h-1q-1 -3 -4 -3h-4q-8 5 -15 5q-4 0 -10 -2l-6 -4q-1 -2 -1.5 -3.5t-0.5 -4.5q0 -1 2 -5q0 -3 3 -3l6 -3
q1 -1 10 -3l4 -1q4 -2 6 -2t4 -2q1 0 1 -1q3 -2 3 -5l-2 -4q-1 -2 -4 -3h-5q-5 0 -8 1l-8 3l-5 5q-5 5 -5 10h-1v-21h1q0 3 2 3q2 2 4 2q1 0 1 -0.5t2 -0.5q1 0 1.5 -0.5t1.5 -0.5l7 -2q2 -1 7 -1q2 0 8 2q1 0 6 3q1 1 1 2t2 2v10zM568 16q3 3 3 11q0 7 -3 12t-10 5
q-8 0 -11 -5q-1 -2 -2 -5t-1 -7t1 -6.5t2 -4.5q2 -5 11 -5q8 0 10 5zM128 -56h14v-52h-14v52zM674 348q0 1 2 1q1 0 1.5 0.5t1.5 0.5h1v2h-23v-2h3q4 0 5 -1q2 -1 2 -3t-3 -5l-9 -13l-12 15l-2 4v1q0 1 1 1q0 1 3 1h4v2h-30v-2h1q5 0 7 -1l2 -2t2 -3l14 -19v-10q0 -5 -1 -6
q-4 -2 -7 -2h-3v-1h33v1h-4q-4 0 -6 2t-2 6v11l12 17l2 3q4 2 5 2zM622 326h-1q-2 -2 -2 -3t-1 -3q-2 -2 -2 -4l-2 -3q-4 -4 -6 -5q-1 0 -3 -0.5t-4 -0.5h-12v36q0 5 3 5q1 2 6 2h3v2h-31v-2h2q8 0 8 -7v-28q0 -8 -8 -8h-2v-1h52v20zM773 -71q-2 5 -9 5q-8 0 -10 -5
q-3 -5 -3 -11q0 -7 3 -11q1 -2 4 -3t6 -1q8 0 9 4q3 4 3 11q0 6 -3 11zM289 425q-3 -1 -6 -1q-5 0 -6 1l7 11l9 10l3 4l5 4l5 5l6 2q4 1 7 0v-5l-3 -4q-3 -3 -3 -5q-2 -2 -2.5 -3t-2.5 -2q0 -1 -4 -5q-1 -1 -1.5 -2t-2.5 -2l-5 -4zM373 -93q3 -4 8 -4q6 0 9 4q2 6 2 11
t-2 11q-2 2 -4 3.5t-5 1.5q-12 0 -12 -17q0 -7 4 -10zM292 310q4 3 4 9q-2 -5 -5 -8l-6 -4h-7q-6 0 -9 1q-1 0 -5 4q-2 2 -2 7v24q0 5 2 5q2 2 7 2h3v2h-31v-2q10 0 10 -7v-24q0 -4 5 -11l8 -2q2 -1 9 -1q6 0 12 2q4 2 5 3zM226 -89q0 -2 3 -5q4 -2 6 -2q12 0 12 14
q0 7 -4 11q-2 2 -4 3.5t-4 1.5q-4 0 -7 -5q-3 -3 -3 -11q0 -4 1 -7zM412 451q0 -2 0.5 -3t0.5 -2q-1 -2 -1 -4v-6l-2 -4l-4 -5l-4 -3q-1 0 -1.5 -0.5t-2.5 -0.5q-1 -1 -4 -1q-2 -2 -4 0q-1 0 -3 2v4l2 5l3 4q4 5 9 9zM733 15q0 -4 2 -4q2 -2 5 -2h4l2 1q5 2 5 3q2 4 2 7v7
q-3 -3 -6 -3l-7 -2q-3 0 -5 -2q-2 -1 -2 -5zM660 -93h15v-15h-15v15zM61 -85l-6 -1q-2 0 -6 -2q-2 -2 -2 -5q0 -2 2 -4q2 -1 3 -2t2 -1q2 0 3 2h2l5 3q2 4 2 6v6q-1 0 -5 -2zM231 33q-2 6 -4 8q-4 4 -7 4q-11 0 -11 -12h22zM524 -85l-7 -1q-2 0 -4 -2t-2 -5q0 -2 2 -4
q3 -3 4 -3q2 0 3 2h2l5 3q1 2 1 6v6zM638 -77q0 5 -3 8q-2 1 -3.5 2t-4.5 1q-8 0 -10 -11h21zM446 -77q0 5 -3 8q-2 1 -3.5 2t-4.5 1q-8 0 -10 -11h21zM128 -38h14v-12h-14v12zM769 575q-2 -4 -4 -5l14 18l6 11l13 17l1 1q0 2 2 2q0 1 1 1q0 -4 -1 -5l-4 -5l-3 -5l-3 -4
l-8 -10l-9 -10zM306 352h-23v-2h5q1 0 2 -1q6 -2 6 -11v7l5 4l1 1h4v2z" />
    <glyph glyph-name="percent" unicode="%" horiz-adv-x="560" 
d="M467 183q10 -14 11 -38t-10 -50t-37 -50t-70 -36q-29 -8 -57.5 -8t-53.5 6t-43.5 17t-25.5 25q-8 14 -10 33q-57 -36 -96 -58.5t-47 -23.5q-22 -3 -31 7t-4 30q3 10 23.5 36.5t53 63t74 81t85.5 90.5q-54 -2 -96.5 15t-56.5 44q-11 21 -12 45t6 47t21 44t32 35
q37 30 82 43.5t88 14t80 -10.5t60 -32q12 -12 18 -27q22 20 37.5 32.5t23.5 16.5q18 8 43.5 10.5t53 -0.5t53.5 -11t45.5 -20t29 -27t3.5 -32q-5 -12 -37.5 -40.5t-82.5 -66.5t-113 -82t-128 -88q31 -4 55 -13t33 -22zM323 430q-8 14 -23.5 17.5t-30 -2t-25 -18t-8.5 -30.5
q3 -15 20 -18t34.5 3t29 19t3.5 29zM381 100q-7 11 -19 14t-24 -1.5t-20.5 -14.5t-6.5 -25q3 -12 16.5 -14.5t27.5 2.5t23 15.5t3 23.5z" />
    <glyph glyph-name="ampersand" unicode="&#x26;" horiz-adv-x="550" 
d="M155 -1q-49 3 -81.5 19t-49 38.5t-18.5 48.5t10 49t37.5 40.5t62.5 22.5q-36 18 -62.5 43t-40.5 56t-14.5 67.5t15.5 75.5q17 43 59 73t98 48.5t120 26.5t124.5 6t111.5 -13.5t82 -30.5q21 -12 29 -33.5t5 -48.5t-14.5 -55.5t-30.5 -53.5t-43.5 -43.5t-52.5 -24.5
q-11 -2 -35 2t-54.5 10t-63.5 11.5t-61.5 6.5t-48.5 -5t-24 -23q-5 -22 12 -32t49 -13q40 -4 73.5 -1t61.5 7.5t51 7.5t42 0q18 -3 18.5 -20t-11 -35t-32 -32.5t-42.5 -13.5q-5 0 -19 0.5t-31 0.5q10 -27 1.5 -60.5t-37 -62t-77.5 -46.5t-119 -13zM198 98q19 0 41 7t39.5 18
t27 25.5t4.5 29.5l-2 4h-33q-46 -5 -77.5 -18.5t-43.5 -28t-2 -26t46 -11.5z" />
    <glyph glyph-name="quotesingle" unicode="'" horiz-adv-x="177" 
d="M349 624q6 -11 -2 -27t-24.5 -35.5t-39 -40.5t-44.5 -41q-18 -17 -36 -38t-35.5 -39.5t-33 -32t-28.5 -13.5q-13 -1 -19 15t-7 41t3 56t11 61t16 54t20 36q19 20 53 27t68.5 5.5t62.5 -10t35 -18.5z" />
    <glyph glyph-name="parenleft" unicode="(" horiz-adv-x="456" 
d="M539 456q-61 -20 -111 -54t-89 -75t-66 -85t-41.5 -84.5t-16.5 -74.5t10 -55q18 -31 10 -49.5t-30.5 -21.5t-55.5 10t-66 45q-43 41 -65.5 109.5t-16 145t46 152t122.5 131.5q55 37 120.5 50.5t127 9.5t111 -20.5t72 -39.5t11 -48.5t-72.5 -45.5z" />
    <glyph glyph-name="parenright" unicode=")" horiz-adv-x="342" 
d="M83 536q-5 31 14.5 50t52.5 26.5t73 4t77 -18t65.5 -40.5t37.5 -63q14 -56 -3 -114.5t-54.5 -114t-92 -106.5t-116 -91.5t-126 -68t-121.5 -37.5q-45 -8 -75.5 -1.5t-42.5 20t-3.5 30.5t41.5 31q26 11 59.5 34t67 56.5t64 76.5t52 94.5t30.5 109.5t0 122z" />
    <glyph glyph-name="asterisk" unicode="*" horiz-adv-x="396" 
d="M110 491q8 -5 14.5 -14.5t12 -20t10 -20t9.5 -13.5q1 11 1 26t0.5 29.5t2 26.5t6.5 17q13 14 35 22.5t47.5 12t53 2.5t50.5 -7.5t40 -17.5t23 -26q2 -7 -2.5 -18t-12.5 -23.5t-18.5 -25.5t-19.5 -25q6 3 15.5 8.5l19 11t18 10t14.5 6.5q29 9 47 -6.5t24 -41t-0.5 -53
t-26.5 -41.5q-18 -13 -52 -13t-87 2q35 -14 60 -30.5t23 -33.5q-3 -20 -16.5 -37.5t-32 -29t-38 -14t-34.5 7.5q-14 8 -30 26.5t-31 41.5q1 -24 -4.5 -45.5t-21.5 -34.5q-12 -9 -26.5 -12.5t-29 -1.5t-25.5 9t-15 19q-7 18 -1.5 39.5t16.5 41.5q-23 -19 -43.5 -35.5
t-32.5 -25.5q-21 -17 -38 -14.5t-28.5 14.5t-17.5 30t-4 33q1 12 11 23t25.5 20t35.5 16t41 13q-19 4 -40.5 8t-39.5 8.5t-31 10.5t-15 15q-5 20 10 48.5t40 52t55 34t54 -4.5z" />
    <glyph glyph-name="plus" unicode="+" horiz-adv-x="471" 
d="M441 292q10 -11 7 -27t-16.5 -31.5t-36.5 -29t-51 -17.5q-13 -2 -37.5 -3.5t-54.5 -2.5q-32 -29 -59.5 -49.5t-37.5 -24.5q-19 -8 -32 -2t-18 23q-2 8 -1.5 23t3.5 33q-35 2 -59.5 4.5t-30.5 7.5q-9 6 -9.5 19t3 28t10.5 28.5t15 18.5q10 6 39 10.5t68 7.5
q9 23 19.5 41.5t20.5 26.5q18 16 52 23.5t68 6t60.5 -13.5t29.5 -34q2 -9 -4.5 -22t-17.5 -29q28 -2 46.5 -6t23.5 -9z" />
    <glyph glyph-name="comma" unicode="," horiz-adv-x="227" 
d="M123 123q6 -11 -2 -27t-24.5 -35.5t-39 -40.5t-44.5 -41q-18 -17 -36 -38t-35.5 -39.5t-33 -32t-28.5 -13.5q-13 -1 -16 15t0.5 41t12 56t20 61t23.5 54t23 36q19 20 47 27t55 5.5t49 -10t29 -18.5z" />
    <glyph glyph-name="hyphen" unicode="-" horiz-adv-x="355" 
d="M320 280q10 -14 7 -34.5t-15.5 -41t-33.5 -37.5t-47 -23q-20 -5 -54.5 -6.5t-69.5 0t-64 6t-36 12.5q-8 7 -9 24.5t3 36.5t10.5 36t13.5 24q9 9 33 15t55 9t65 3.5t63.5 -2t51 -8.5t27.5 -14z" />
    <glyph glyph-name="period" unicode="." horiz-adv-x="185" 
d="M131 145q8 -12 -1 -35.5t-27.5 -47.5t-43.5 -44.5t-49 -27.5q-47 -14 -76.5 -4.5t-34.5 38.5q-2 15 -0.5 32.5t6 33.5t10.5 29.5t13 21.5q23 24 54.5 32.5t61.5 6.5t54.5 -12t32.5 -23z" />
    <glyph glyph-name="slash" unicode="/" horiz-adv-x="435" 
d="M285 570q15 9 40 11t53.5 -1t57 -11t50.5 -20t35.5 -27t11.5 -32q-1 -12 -25 -39t-63.5 -63.5t-89.5 -80t-102.5 -86.5t-104.5 -83.5t-94 -72t-71 -50.5t-36 -20q-21 -3 -33 7t-12 30q0 10 15 37.5t39 65.5t55 83.5t64.5 92t67 91t62 80.5t50 59.5t30.5 28.5z" />
    <glyph glyph-name="zero" unicode="0" horiz-adv-x="902" 
d="M61 517l131 29l-5 18l20 6l-4 19l20 4l-3 22l20 1v20h18l2 18l19 -3l4 20l21 -3l5 19l19 -5l8 18l19 -8l11 19l17 -9l11 17l18 -12l12 16l17 -13l13 14l13 -12l13 11l13 -14l17 11l11 -18l19 10l9 -17l18 8l8 -20l21 6l6 -19l19 5l4 -21l21 2l1 -13l197 43v-242l-90 -20
l2 -1l-12 -13l12 -14l-16 -13l11 -17l-18 -11l11 -18l-17 -10l7 -18l-19 -8l6 -21l-18 -6l3 -19l-20 -4l1 -21l-19 -2v-19h-17l-3 -18l-19 1l-4 -18l-21 3l-5 -20l-19 6l-7 -19l-21 8l-9 -19l-18 10l-11 -17l-18 11l-12 -16l-15 13l-15 -13l-13 12l-13 -12l-12 15l-17 -11
l-12 18l-18 -10l-9 17l-19 -8l-9 20l-19 -6l-6 18l-20 -4l-4 21l-21 -2l-2 20h-20v17l-17 2l2 20l-20 3l4 21l-20 6l6 18l-14 6l-120 -26v241zM595 466l11 11q-1 -1 -1 -3q0 -3 2 -7q1 -2 5 -4q3 -1 10 1q6 1 12 6l10 7l3.5 3.5l3.5 3.5l6 6v-2q0 -1 -0.5 -1.5t-0.5 -1.5v-3
q-2 -3 0 -5q0 -1 0.5 -1.5t0.5 -1.5q0 -3 3 -3h8l3 2l4 3l6 3l16 13l8 8l-2 -6q-2 -3 -2 -9v-3q1 0 2 -1q0 -1 3 -1q2 0 4 2q4 0 6 3l5 3l6 6q1 0 5 4l4.5 4.5l4.5 4.5l9 10v2q0 1 -1 1q-2 0 -4 -2l-1 -2l-6 -7l-5 -6q-5 -3 -6 -6l-7 -6l-4 -3l-4 -1l-1 -1q-1 0 -2 1h1l4 7
q2 4 4 6l3 6q2 1 4 5l31 45q5 5 6 8l8 8l18 21q5 5 8.5 10t7.5 10l5 9v4q-1 1 -4 1q-1 0 -5 -2q-2 0 -3 -1t-3 -2q-2 0 -5 -3l-4 -3l-11 -9l-8 -9q-3 -3 -5 -5.5t-4 -5.5q-1 -2 -3 -4.5t-4 -5.5l-13 -20l-13 -22l-9 -16l-4 -8h-1l-7 -7q-2 -3 -4 -5l-5 -5l-9 -8l-5 -4l-3 -2
l-2 -1l-2 -2h-5l6 10q0 1 1 2q2 4 4 7t5 6l8 14l7 10l4 6l3 5l1 1l1 1q0 1 0.5 1t0.5 1q3 2 2 4q0 1 -3 1l-5 -2l-5 -3l-9 -6l-7 -6q0 3 -1 5q0 1 -3 3q-6 1 -10 0q-8 -2 -11 -4l-12 -6l-9 -8q-13 -9 -18 -19q-7 -8 -10 -18h-2l-8 -9q-3 -2 -5.5 -4t-5.5 -4q-1 -2 -6 -4
q-2 -2 -5 -2h-1q-1 1 0 2l3 4l3 5l6 7l10 13q2 3 4.5 6.5t4.5 7.5l4 8q2 5 1 8q0 3 -1 3q0 2 -3 2t-4 -1l-6 -2l-6 -4l-5 -4l-5 -4q-4 -4 -6 -4l-10 -11l-4.5 -4.5l-4.5 -4.5l-5 -6l-5 -5l1 2l12 17l13 18q0 1 0.5 1t0.5 1q1 1 1 2q1 1 1 3l-3 3q-1 0 -1.5 0.5t-1.5 0.5
t-2 -0.5t-3 -0.5l-5 -3l-2 -2q-2 -1 -2 -2t-1 -2l-2 -3l-38 -65q-1 -1 -1 -2v-1q1 0 1.5 -0.5t1.5 -0.5q2 0 4 1l4 2q0 1 2 3q1 0 1 0.5t1 0.5l2 3q0 2 2 2l8 11l10 10l8 10l11 10l14 14l5 4l5 4l6 2q1 0 1 -1h-1l-2 -2q-1 -3 -4 -4l-2 -3l-6 -7q-2 -2 -3 -3.5t-3 -3.5
l-7 -11l-7 -10l-3 -9q-2 -5 0 -8q1 -3 4 -3h9q2 1 4.5 2.5t6.5 3.5zM397 418q6 0 12 4q8 4 11 8q3 2 4.5 4t3.5 4l4 9q3 4 3 9v8q0 3 -2 7l-3 8l-3 3q0 2 -2 4q0 1 -1 2v5h-4l-2 -2l-6 -4l-2 -6l-1 -1l-2 -3l-16 -22l-2 -3l-3 -5h-1v-1q-1 0 -2 -1l-2 -4l-3 -4l-7 -9
l-11 -10l-6 -3q-2 -2 -6 -2v1l4 5l3 5l4 5l3 4l4 7l5 7l2 7q1 3 1 7q-1 1 -1 4l-1 2q0 2 -1 3v11l3 5q2 3 -2 6q-2 3 -8 0q-5 -1 -8 -4q-3 -1 -5 -6q-2 -2 -2 -5q0 -4 1 -6l2 -1l2 -2l-6 -6l-11 -15l-10 -11q-2 0 -2 -2v-1l-1 -1q0 -1 -1 -1l-5 -7q-4 -3 -7 -6t-7 -5
q-6 -6 -16 -11l-10 -4q-6 -2 -9 -1q-3 0 -3 2q-1 1 -1 3q0 1 2 5l1 4l5 8q2 -1 6 -1h9q5 1 13 6q3 1 5.5 3t6.5 4l7 8q2 2 3.5 4t1.5 4l4 6q0 6 -2 7q-2 4 -4 5h-9h-4.5t-4.5 -2l-10 -4q-13 -7 -22 -14q-9 -8 -14 -17q-2 -2 -3 -4.5t-3 -5.5q-3 -4 -4 -9v-8q1 -4 5 -6
q5 -5 11 -3q7 0 13 3q5 1 8.5 3t7.5 4t7.5 4.5t7.5 6.5l12 10l7 7q0 1 2 3q0 1 1 2l2 3l8 8l7 10q3 2 5 5t4 5l3 -1l2 -3q0 -1 1 -2v-1q0 -1 -1 -2t-2 -3l-8 -8l-7 -10l-6 -9l-2 -9q-1 -1 -1 -4v-3l2 -4h4q5 0 8 1l8 5q2 2 5 4t5 5q3 2 5 4l4 4l4 6l4 5l2 2l2 3l2 2l6 8
l10 15q0 -2 0.5 -3.5t0.5 -3.5q2 -6 2 -7l2 -4q-8 -2 -12 -6l-10 -7q-2 -2 -3.5 -4.5t-2.5 -4.5q-1 -3 -1 -8q0 -3 5 -5h9zM447 440q0 -4 2 -4l5 -4h5h6q4 1 7 2l6 2l13 7l11 10l9 8l7 10l5 8l3 9q2 5 0 7q0 3 -3 5q0 2 -5 4q-1 0 -3 0.5t-4 0.5q-3 0 -9 -2q-2 0 -3 -0.5
l-3 -1.5l-6 -2l-12 -8l-11 -9l-8 -9l-6 -9q-5 -8 -6 -13v-11zM125 8q-4 3 -8 13q-2 5 -2 16v8q0 2 1 3.5t1 3.5q1 6 7 12q2 3 5 5l6 4q7 3 16 3h3q2 0 4 -0.5t4 -0.5q4 0 7 -3q7 -4 10 -9q2 -2 4 -6q0 -1 0.5 -1.5t0.5 -1.5v-2h-16v1q0 1 -2 3q-1 2 -2 2.5t-3 2.5q-3 2 -9 2
h-7l-7 -6q-5 -3 -5 -7q-2 -4 -2 -14q0 -4 0.5 -7t1.5 -7q1 -5 6 -7q3 -2 5 -3t5 -1h2q6 0 9 2q2 0 3.5 1.5l2.5 2.5q2 3 3 5t1 5h-18v13h32v-41h-10l-2 10q-3 -4 -7 -7q-2 -2 -4.5 -2.5t-4.5 -1.5q-2 0 -4.5 -0.5t-4.5 -0.5q-6 0 -12 3q-7 3 -10 8zM213 -69q3 7 7 10
q4 4 12 4q3 0 9 -2l3.5 -3.5t2.5 -3.5l1 8h12v-49q0 -5 -2 -13q-3 -5 -8 -7q-6 -3 -16 -3q-2 0 -4.5 0.5t-4.5 0.5q-3 1 -9 5q-2 2 -2 4q-1 2 -1 5h13l3 -4q1 -1 6 -1q6 0 7 1q4 3 4 4t0.5 1.5t0.5 1.5v9q-6 -7 -14 -7q-3 0 -5.5 0.5t-5.5 1.5q-5 4 -8 10q-2 3 -3 6.5
t-1 8.5q0 3 1 6zM578 49q2 -2 3 -4.5t3 -5.5q2 -6 2 -12q0 -8 -4 -15q-1 -4 -9 -10q-5 -4 -15 -4t-17 4q-3 2 -5 5l-4 6q-3 6 -3 14q0 3 0.5 5.5t1.5 5.5q1 5 5 9q5 5 10 7q3 2 12 2q8 0 12 -2q2 -2 4 -2.5t4 -2.5zM357 -56h12v-8h2q1 0 2 1l4 4l4 3q1 1 4 1q5 0 8 -2
q4 -2 6 -4q4 -4 5 -10q3 -5 3 -11q0 -2 -0.5 -3t-0.5 -3t-1 -3t-2 -3q-2 -8 -6 -11q-5 -4 -12 -4q-5 0 -7 1l-4 3q-1 1 -3 1l-1 2v-25h-13v71zM799 -56h13v-8q4 9 15 9q4 0 8 -2q3 -2 6 -6q1 4 5 6t8 2q5 0 11 -2q4 -4 5 -7q2 -4 2 -9v-35h-13v31q0 11 -8 11q-9 0 -9 -11
v-31h-13v36q0 2 -2 4t-7 2q-8 0 -8 -11v-31h-13v52zM739 -72q2 6 5 9q3 4 8 6q6 2 12 2q5 0 11 -2l4 -2t4 -3t2.5 -4.5t2.5 -4.5q1 -3 1 -11t-3 -14q-2 -7 -8 -10t-14 -3q-10 0 -15 4q-6 3 -9 10q-2 8 -2 13q0 6 1 10zM124 345l5 5l4 5l5 5q2 4 4 6l31 42l9 15l10 15
q3 4 5.5 7.5t4.5 7.5l8 16q1 2 0 3t-2 1q-4 0 -5 -1l-4 -2l-16 -20q-3 -3 -7 -9l-8 -10l-27 -39l-13 -20l-11 -21l-2 -3v-5h5zM744 -1q-3 0 -4.5 -0.5t-3.5 -0.5t-4 0.5t-4 0.5q-2 2 -3.5 3t-3.5 3q-2 4 -2 10q0 8 4 12q8 4 12 5l13 2q5 0 5 4q0 7 -9 7q-4 0 -6 -2
q-3 -1 -4 -7h-13q0 7 3 12q2 3 8 6q2 2 6 2h6q12 0 16 -2l3.5 -3.5t2.5 -3.5t1 -7v-35q0 -3 4 -3v-3h-16q-1 0 -1 1v1v1q0 2 -0.5 2.5t-0.5 1.5l-4 -4q-1 -1 -1.5 -1t-1.5 -1t-2 -1zM245 22h-38q0 -3 4 -9q3 -3 9 -3q2 0 3.5 0.5t2.5 0.5q4 4 4 5h15l-5 -10l-8 -6l-6 -1.5
t-6 -0.5q-27 0 -27 30q0 10 3 14q2 7 8 10q4 3 7.5 3.5t8.5 0.5q11 0 14 -4q6 -3 9 -11q2 -5 2 -15v-4zM494 317q3 4 3 12q0 5 -2 8q-2 6 -5 8q-2 3 -9 5q-6 3 -11 3q-10 0 -14 -4q-4 -1 -6 -3.5t-4 -4.5q-4 -5 -4 -12t2 -10q2 -2 3 -3.5t3 -3.5q3 -3 9 -5q3 -1 5.5 -1.5
t5.5 -0.5q8 0 13 3q4 2 6.5 4.5zM135 442q-2 -5 0 -8q1 -2 2 -3l3 -3l9 -3q7 0 11 1q2 0 2 1q1 1 1 2t-1 1h-2q-2 0 -2 -1q-7 -1 -14 1q-4 2 -5 4q0 2 -0.5 2.5t-0.5 2.5q0 3 1 6l3 7l8 9q2 2 5 4l6 4t5.5 3.5t6.5 3.5l12 6q4 0 7 1t7 3l14 2q8 2 13 2q3 0 11 -2q5 0 7 -3
l5 -6v-8q0 -6 -1 -10l-5 -9q-2 -3 -3.5 -5.5t-3.5 -4.5q-2 -3 -4.5 -5t-5.5 -5q-2 -3 -10 -9l-11 -7l-12 -5l-7 -3q-1 0 -2.5 -0.5t-3.5 -0.5h-2q-2 0 -3 -1q-1 0 -1 -1q-2 0 -2 -2q0 -1 1 -1h2q2 0 3 1h2l13 4l13 6l13 5l13 8l11 8l10 9l8 10q2 2 3.5 4.5t2.5 5.5q2 6 2 9
q1 5 0 9l-3 7l-7 5q-3 1 -5 1.5t-5 0.5q-4 1 -11 1q-4 0 -12 -2q-7 0 -13.5 -2t-14.5 -4q-14 -4 -26 -11q-3 -2 -6.5 -3.5t-6.5 -3.5l-6 -4t-5 -5l-4.5 -4.5l-4.5 -4.5zM502 -83q5 5 10 5l12 2q4 0 4 3q0 8 -7 8q-5 0 -6 -3q-3 -2 -3 -5h-13q0 7 3 10q3 5 7 6q2 1 5 1
q2 1 7 1t8 -0.5t6 -1.5q4 -3 6 -6q1 -2 1 -7v-27q0 -5 1 -6q0 -1 2 -3v-2h-15v1q0 1 -0.5 1t-0.5 1v3q-2 -1 -2.5 -2t-1.5 -2q-2 -1 -3 -1t-2 -1q-2 -1 -7 -1q-4 0 -7 1l-7 5q-2 4 -2 9q0 8 5 11zM38 -83q5 5 10 5l13 2q5 0 5 3q0 8 -8 8q-5 0 -6 -3q-4 -1 -4 -5h-12
q0 7 3 10q1 4 6 6q2 1 7 1q2 1 6 1q7 0 13 -2q4 -3 6 -6q1 -2 1 -7v-27q0 -5 1 -6q0 -1 2 -3v-2h-14v3q-1 1 -1 3l-4 -4q-2 -1 -3 -1t-2 -1q-2 -1 -6 -1q-6 0 -9 1q-3 2 -5 5q-3 3 -3 9q0 8 4 11zM414 -69q3 7 8 10q5 4 13 4q11 0 15 -4q5 -3 8 -11q2 -8 2 -13v-3h-35
q0 -6 3 -9t8 -3q3 0 7 2l3 4h13q-2 -8 -4 -10t-4 -3l-4 -2q-6 -2 -11 -2q-24 0 -24 28q0 8 2 12zM606 -69q3 7 8 10q5 4 14 4q10 0 14 -4q5 -3 7 -11q3 -6 3 -13v-3h-35q0 -6 3 -9t8 -3q3 0 7 2l3 4h13q-2 -8 -5 -10q-4 -4 -7 -5q-6 -2 -11 -2q-24 0 -24 28q0 4 2 12z
M644 48q2 -6 2 -10v-39h-14v34q0 4 -2 8q-3 3 -8 3q-6 0 -9 -4q-2 -2 -2 -9v-32h-15v56h14v-8q6 9 17 9q7 0 10 -2zM389 7q-3 -4 -7 -6q-6 -3 -10 -3q-10 0 -14 6q-5 4 -5 14v37h14v-34q0 -10 10 -10h5l5 5q0 1 1 2.5t1 3.5v33h13v-56h-13v8zM299 -60l-1 4h16l10 -38l10 38
h15l-17 -50l-1 -1l-4 -11l-3 -6q-3 -3 -5 -3t-3.5 -0.5t-3.5 -0.5h-7v11h8q1 0 3 2v2q1 1 1 3zM155 -56h12v-8q6 9 16 9q4 0 10 -2q3 -2 6 -6q2 -4 2 -10v-35h-14v31q0 6 -1 7q-2 4 -8 4q-4 0 -8 -4q-2 -6 -2 -8v-30h-13v52zM689 -63q6 8 19 8q5 0 11 -2q3 -1 9 -7
q4 -5 4 -11h-14l-3 6q-3 3 -6 3q-5 0 -8 -5q-3 -3 -3 -10q0 -3 0.5 -5t0.5 -4q2 -4 4 -5q1 -2 5 -2q5 0 6 2q3 1 3 6h15q-2 -6 -4 -11q-2 -2 -4 -3.5t-4 -2.5q-5 -3 -12 -3q-10 0 -17 6q-3 1 -5 8q-2 6 -2 12q0 8 5 20zM556 -63q6 8 19 8q5 0 11 -2q4 -1 8 -7q2 -3 3.5 -5.5
t1.5 -5.5h-15q0 2 -2 6q-3 3 -6 3q-5 0 -8 -5q-4 -3 -4 -10q0 -3 0.5 -5t0.5 -4l4 -5q2 -2 6 -2t6 2q3 1 3 6h13q0 -5 -3 -11l-3.5 -3.5t-3.5 -2.5q-6 -3 -12 -3q-11 0 -17 6q-3 1 -5 8q-2 6 -2 12q0 8 5 20zM337 63q-2 0 -2 -2v-6h9v-10h-9v-46h-15v46h-7v10h7v4
q0 16 17 16h7v-12h-7zM515 55h10v-10h-10v-46h-15v46h-7v10h7v4q0 16 17 16h6v-12h-6q-1 0 -2 -2v-6zM806 -1h-9q-7 0 -10 2q-3 0 -4 4q0 1 -1 2.5t-1 3.5v34h-7v10h7v14h16v-14h9v-10h-9v-34q1 0 2 -0.5t3 -0.5l2 1h2v-12zM272 69v-14h8v-10h-8v-30q0 -4 1 -4q0 -1 1 -1h4
l1 1h1v-12h-8q-7 0 -10 2q-3 0 -4 4q-1 1 -1 6v34h-8v10h8v14h15zM461 436q-2 0 -2 1v6q2 7 5 10l7 11l5 6l12 15l4.5 4.5l4.5 4.5l4 4l5 2q2 1 5 1l2 -1q1 -1 1 -4q0 -1 -2 -5l-2 -4l-3 -5l-3 -5l-10 -15l-8 -9l-10 -10q0 -1 -5 -3q-1 -2 -6 -4h-4zM623 478l4 5l3 6l4 5
l9 12l13 16l3 4l8 6q1 1 4 1q2 1 4 1l3 -2q0 -1 0.5 -1.5t0.5 -1.5q0 -2 -1 -4q0 -1 -2 -3l-8 -11l-6 -11l-8 -7l-8 -9l-5 -4l-6 -5l-5 -4q-2 0 -2.5 -1t-2.5 -1q-4 -2 -5 -1h-1q-1 1 -1 2l1 1q0 1 1 2zM685 -1h-10q-7 0 -8 2q-4 0 -5 4v40h-9v10h9v14h13v-14h10v-10h-10
v-30v-3q0 -1 1 -1q2 0 2.5 -0.5t2.5 -0.5l2 1h2v-12zM482 345q0 -2 1 -3.5t2 -4.5q0 -1 0.5 -3.5t0.5 -4.5q0 -6 -2 -12q-2 -2 -3 -4.5t-3 -4.5q-2 -1 -8 -1q-5 0 -6 1q-4 0 -6 5l-3 6q-2 6 -2 10q0 2 0.5 4t0.5 4l3 6l3 5q1 1 2 1t3 1q2 2 6 2q0 -1 1 -1h2l3 -2zM471 -66
h-8v10h8v4q0 14 15 14h6v-11h-6l-1 -1l-1 -4v-2h9v-10h-9v-42h-13v42zM273 -66h-7v10h7v13h14v-13h8v-10h-8v-27q0 -3 1 -4q0 -1 1 -1h3l2 1h1v-11h-8q-6 0 -8 1q-5 2 -5 4q-1 1 -1 6v31zM430 -1h-14v76h14v-76zM455 -1h-14v76h14v-76zM412 352h-50v-2h2q4 0 5 -2q3 0 3 -5
v-28q0 -8 -8 -8h-2v-1h50v19l-3 -6l-5 -7q-3 -3 -4 -3l-5 -1q-2 -1 -6 -1h-7v20h1q4 0 9 -3l2 -3q0 -1 0.5 -1.5t0.5 -1.5v-4h1v29h-1v-4l-2 -5q-5 -5 -9 -5h-2v21h8q8 0 11 -1l4 -3l2 -5l3 -7h2v18zM91 -56h12v-9h1l3 5q1 1 1.5 2t2.5 2q1 1 7 1h3v-14h-4q-13 0 -13 -12
v-27h-13v52zM567 352h-23v-2h4q0 -1 2 -1q3 -2 3 -4q2 -2 2 -7v-19l-32 33h-18v-2q4 0 5 -1q1 0 1.5 -0.5t1.5 -0.5q1 -2 1 -5v-26q0 -3 -1 -5l-3 -4q-2 0 -3.5 -0.5t-2.5 -0.5v-1h24v1q-3 0 -5 1h-4l-2 5q-1 1 -1 6v27l39 -40h2v32q0 4 0.5 6t1.5 4q2 2 8 2v2zM354 327
q-1 2 -6 4l-8 3h-5l-1 1q-2 1 -4 1t-3 1q-3 0 -4 1q-1 0 -3 2q-1 0 -1 2v1v4l2 2l4 2q1 0 2 0.5t3 0.5q3 0 7 -2q4 0 6 -2q4 -2 5 -4q2 -1 2.5 -3.5t2.5 -4.5h1v15h-1q-1 -3 -4 -3h-4q-8 5 -15 5q-4 0 -10 -2l-6 -4q-1 -2 -1.5 -3.5t-0.5 -4.5q0 -1 2 -5q0 -3 3 -3l6 -3
q1 -1 10 -3l4 -1q4 -2 6 -2t4 -2q1 0 1 -1q3 -2 3 -5l-2 -4q-1 -2 -4 -3h-5q-5 0 -8 1l-8 3l-5 5q-5 5 -5 10h-1v-21h1q0 3 2 3q2 2 4 2q1 0 1 -0.5t2 -0.5q1 0 1.5 -0.5t1.5 -0.5l7 -2q2 -1 7 -1q2 0 8 2q1 0 6 3q1 1 1 2t2 2v10zM568 16q3 3 3 11q0 7 -3 12t-10 5
q-8 0 -11 -5q-1 -2 -2 -5t-1 -7t1 -6.5t2 -4.5q2 -5 11 -5q8 0 10 5zM128 -56h14v-52h-14v52zM674 348q0 1 2 1q1 0 1.5 0.5t1.5 0.5h1v2h-23v-2h3q4 0 5 -1q2 -1 2 -3t-3 -5l-9 -13l-12 15l-2 4v1q0 1 1 1q0 1 3 1h4v2h-30v-2h1q5 0 7 -1l2 -2t2 -3l14 -19v-10q0 -5 -1 -6
q-4 -2 -7 -2h-3v-1h33v1h-4q-4 0 -6 2t-2 6v11l12 17l2 3q4 2 5 2zM622 326h-1q-2 -2 -2 -3t-1 -3q-2 -2 -2 -4l-2 -3q-4 -4 -6 -5q-1 0 -3 -0.5t-4 -0.5h-12v36q0 5 3 5q1 2 6 2h3v2h-31v-2h2q8 0 8 -7v-28q0 -8 -8 -8h-2v-1h52v20zM773 -71q-2 5 -9 5q-8 0 -10 -5
q-3 -5 -3 -11q0 -7 3 -11q1 -2 4 -3t6 -1q8 0 9 4q3 4 3 11q0 6 -3 11zM289 425q-3 -1 -6 -1q-5 0 -6 1l7 11l9 10l3 4l5 4l5 5l6 2q4 1 7 0v-5l-3 -4q-3 -3 -3 -5q-2 -2 -2.5 -3t-2.5 -2q0 -1 -4 -5q-1 -1 -1.5 -2t-2.5 -2l-5 -4zM373 -93q3 -4 8 -4q6 0 9 4q2 6 2 11
t-2 11q-2 2 -4 3.5t-5 1.5q-12 0 -12 -17q0 -7 4 -10zM292 310q4 3 4 9q-2 -5 -5 -8l-6 -4h-7q-6 0 -9 1q-1 0 -5 4q-2 2 -2 7v24q0 5 2 5q2 2 7 2h3v2h-31v-2q10 0 10 -7v-24q0 -4 5 -11l8 -2q2 -1 9 -1q6 0 12 2q4 2 5 3zM226 -89q0 -2 3 -5q4 -2 6 -2q12 0 12 14
q0 7 -4 11q-2 2 -4 3.5t-4 1.5q-4 0 -7 -5q-3 -3 -3 -11q0 -4 1 -7zM412 451q0 -2 0.5 -3t0.5 -2q-1 -2 -1 -4v-6l-2 -4l-4 -5l-4 -3q-1 0 -1.5 -0.5t-2.5 -0.5q-1 -1 -4 -1q-2 -2 -4 0q-1 0 -3 2v4l2 5l3 4q4 5 9 9zM733 15q0 -4 2 -4q2 -2 5 -2h4l2 1q5 2 5 3q2 4 2 7v7
q-3 -3 -6 -3l-7 -2q-3 0 -5 -2q-2 -1 -2 -5zM660 -93h15v-15h-15v15zM61 -85l-6 -1q-2 0 -6 -2q-2 -2 -2 -5q0 -2 2 -4q2 -1 3 -2t2 -1q2 0 3 2h2l5 3q2 4 2 6v6q-1 0 -5 -2zM231 33q-2 6 -4 8q-4 4 -7 4q-11 0 -11 -12h22zM524 -85l-7 -1q-2 0 -4 -2t-2 -5q0 -2 2 -4
q3 -3 4 -3q2 0 3 2h2l5 3q1 2 1 6v6zM638 -77q0 5 -3 8q-2 1 -3.5 2t-4.5 1q-8 0 -10 -11h21zM446 -77q0 5 -3 8q-2 1 -3.5 2t-4.5 1q-8 0 -10 -11h21zM128 -38h14v-12h-14v12zM769 575q-2 -4 -4 -5l14 18l6 11l13 17l1 1q0 2 2 2q0 1 1 1q0 -4 -1 -5l-4 -5l-3 -5l-3 -4
l-8 -10l-9 -10zM306 352h-23v-2h5q1 0 2 -1q6 -2 6 -11v7l5 4l1 1h4v2z" />
    <glyph glyph-name="one" unicode="1" horiz-adv-x="902" 
d="M61 517l131 29l-5 18l20 6l-4 19l20 4l-3 22l20 1v20h18l2 18l19 -3l4 20l21 -3l5 19l19 -5l8 18l19 -8l11 19l17 -9l11 17l18 -12l12 16l17 -13l13 14l13 -12l13 11l13 -14l17 11l11 -18l19 10l9 -17l18 8l8 -20l21 6l6 -19l19 5l4 -21l21 2l1 -13l197 43v-242l-90 -20
l2 -1l-12 -13l12 -14l-16 -13l11 -17l-18 -11l11 -18l-17 -10l7 -18l-19 -8l6 -21l-18 -6l3 -19l-20 -4l1 -21l-19 -2v-19h-17l-3 -18l-19 1l-4 -18l-21 3l-5 -20l-19 6l-7 -19l-21 8l-9 -19l-18 10l-11 -17l-18 11l-12 -16l-15 13l-15 -13l-13 12l-13 -12l-12 15l-17 -11
l-12 18l-18 -10l-9 17l-19 -8l-9 20l-19 -6l-6 18l-20 -4l-4 21l-21 -2l-2 20h-20v17l-17 2l2 20l-20 3l4 21l-20 6l6 18l-14 6l-120 -26v241zM595 466l11 11q-1 -1 -1 -3q0 -3 2 -7q1 -2 5 -4q3 -1 10 1q6 1 12 6l10 7l3.5 3.5l3.5 3.5l6 6v-2q0 -1 -0.5 -1.5t-0.5 -1.5v-3
q-2 -3 0 -5q0 -1 0.5 -1.5t0.5 -1.5q0 -3 3 -3h8l3 2l4 3l6 3l16 13l8 8l-2 -6q-2 -3 -2 -9v-3q1 0 2 -1q0 -1 3 -1q2 0 4 2q4 0 6 3l5 3l6 6q1 0 5 4l4.5 4.5l4.5 4.5l9 10v2q0 1 -1 1q-2 0 -4 -2l-1 -2l-6 -7l-5 -6q-5 -3 -6 -6l-7 -6l-4 -3l-4 -1l-1 -1q-1 0 -2 1h1l4 7
q2 4 4 6l3 6q2 1 4 5l31 45q5 5 6 8l8 8l18 21q5 5 8.5 10t7.5 10l5 9v4q-1 1 -4 1q-1 0 -5 -2q-2 0 -3 -1t-3 -2q-2 0 -5 -3l-4 -3l-11 -9l-8 -9q-3 -3 -5 -5.5t-4 -5.5q-1 -2 -3 -4.5t-4 -5.5l-13 -20l-13 -22l-9 -16l-4 -8h-1l-7 -7q-2 -3 -4 -5l-5 -5l-9 -8l-5 -4l-3 -2
l-2 -1l-2 -2h-5l6 10q0 1 1 2q2 4 4 7t5 6l8 14l7 10l4 6l3 5l1 1l1 1q0 1 0.5 1t0.5 1q3 2 2 4q0 1 -3 1l-5 -2l-5 -3l-9 -6l-7 -6q0 3 -1 5q0 1 -3 3q-6 1 -10 0q-8 -2 -11 -4l-12 -6l-9 -8q-13 -9 -18 -19q-7 -8 -10 -18h-2l-8 -9q-3 -2 -5.5 -4t-5.5 -4q-1 -2 -6 -4
q-2 -2 -5 -2h-1q-1 1 0 2l3 4l3 5l6 7l10 13q2 3 4.5 6.5t4.5 7.5l4 8q2 5 1 8q0 3 -1 3q0 2 -3 2t-4 -1l-6 -2l-6 -4l-5 -4l-5 -4q-4 -4 -6 -4l-10 -11l-4.5 -4.5l-4.5 -4.5l-5 -6l-5 -5l1 2l12 17l13 18q0 1 0.5 1t0.5 1q1 1 1 2q1 1 1 3l-3 3q-1 0 -1.5 0.5t-1.5 0.5
t-2 -0.5t-3 -0.5l-5 -3l-2 -2q-2 -1 -2 -2t-1 -2l-2 -3l-38 -65q-1 -1 -1 -2v-1q1 0 1.5 -0.5t1.5 -0.5q2 0 4 1l4 2q0 1 2 3q1 0 1 0.5t1 0.5l2 3q0 2 2 2l8 11l10 10l8 10l11 10l14 14l5 4l5 4l6 2q1 0 1 -1h-1l-2 -2q-1 -3 -4 -4l-2 -3l-6 -7q-2 -2 -3 -3.5t-3 -3.5
l-7 -11l-7 -10l-3 -9q-2 -5 0 -8q1 -3 4 -3h9q2 1 4.5 2.5t6.5 3.5zM397 418q6 0 12 4q8 4 11 8q3 2 4.5 4t3.5 4l4 9q3 4 3 9v8q0 3 -2 7l-3 8l-3 3q0 2 -2 4q0 1 -1 2v5h-4l-2 -2l-6 -4l-2 -6l-1 -1l-2 -3l-16 -22l-2 -3l-3 -5h-1v-1q-1 0 -2 -1l-2 -4l-3 -4l-7 -9
l-11 -10l-6 -3q-2 -2 -6 -2v1l4 5l3 5l4 5l3 4l4 7l5 7l2 7q1 3 1 7q-1 1 -1 4l-1 2q0 2 -1 3v11l3 5q2 3 -2 6q-2 3 -8 0q-5 -1 -8 -4q-3 -1 -5 -6q-2 -2 -2 -5q0 -4 1 -6l2 -1l2 -2l-6 -6l-11 -15l-10 -11q-2 0 -2 -2v-1l-1 -1q0 -1 -1 -1l-5 -7q-4 -3 -7 -6t-7 -5
q-6 -6 -16 -11l-10 -4q-6 -2 -9 -1q-3 0 -3 2q-1 1 -1 3q0 1 2 5l1 4l5 8q2 -1 6 -1h9q5 1 13 6q3 1 5.5 3t6.5 4l7 8q2 2 3.5 4t1.5 4l4 6q0 6 -2 7q-2 4 -4 5h-9h-4.5t-4.5 -2l-10 -4q-13 -7 -22 -14q-9 -8 -14 -17q-2 -2 -3 -4.5t-3 -5.5q-3 -4 -4 -9v-8q1 -4 5 -6
q5 -5 11 -3q7 0 13 3q5 1 8.5 3t7.5 4t7.5 4.5t7.5 6.5l12 10l7 7q0 1 2 3q0 1 1 2l2 3l8 8l7 10q3 2 5 5t4 5l3 -1l2 -3q0 -1 1 -2v-1q0 -1 -1 -2t-2 -3l-8 -8l-7 -10l-6 -9l-2 -9q-1 -1 -1 -4v-3l2 -4h4q5 0 8 1l8 5q2 2 5 4t5 5q3 2 5 4l4 4l4 6l4 5l2 2l2 3l2 2l6 8
l10 15q0 -2 0.5 -3.5t0.5 -3.5q2 -6 2 -7l2 -4q-8 -2 -12 -6l-10 -7q-2 -2 -3.5 -4.5t-2.5 -4.5q-1 -3 -1 -8q0 -3 5 -5h9zM447 440q0 -4 2 -4l5 -4h5h6q4 1 7 2l6 2l13 7l11 10l9 8l7 10l5 8l3 9q2 5 0 7q0 3 -3 5q0 2 -5 4q-1 0 -3 0.5t-4 0.5q-3 0 -9 -2q-2 0 -3 -0.5
l-3 -1.5l-6 -2l-12 -8l-11 -9l-8 -9l-6 -9q-5 -8 -6 -13v-11zM125 8q-4 3 -8 13q-2 5 -2 16v8q0 2 1 3.5t1 3.5q1 6 7 12q2 3 5 5l6 4q7 3 16 3h3q2 0 4 -0.5t4 -0.5q4 0 7 -3q7 -4 10 -9q2 -2 4 -6q0 -1 0.5 -1.5t0.5 -1.5v-2h-16v1q0 1 -2 3q-1 2 -2 2.5t-3 2.5q-3 2 -9 2
h-7l-7 -6q-5 -3 -5 -7q-2 -4 -2 -14q0 -4 0.5 -7t1.5 -7q1 -5 6 -7q3 -2 5 -3t5 -1h2q6 0 9 2q2 0 3.5 1.5l2.5 2.5q2 3 3 5t1 5h-18v13h32v-41h-10l-2 10q-3 -4 -7 -7q-2 -2 -4.5 -2.5t-4.5 -1.5q-2 0 -4.5 -0.5t-4.5 -0.5q-6 0 -12 3q-7 3 -10 8zM213 -69q3 7 7 10
q4 4 12 4q3 0 9 -2l3.5 -3.5t2.5 -3.5l1 8h12v-49q0 -5 -2 -13q-3 -5 -8 -7q-6 -3 -16 -3q-2 0 -4.5 0.5t-4.5 0.5q-3 1 -9 5q-2 2 -2 4q-1 2 -1 5h13l3 -4q1 -1 6 -1q6 0 7 1q4 3 4 4t0.5 1.5t0.5 1.5v9q-6 -7 -14 -7q-3 0 -5.5 0.5t-5.5 1.5q-5 4 -8 10q-2 3 -3 6.5
t-1 8.5q0 3 1 6zM578 49q2 -2 3 -4.5t3 -5.5q2 -6 2 -12q0 -8 -4 -15q-1 -4 -9 -10q-5 -4 -15 -4t-17 4q-3 2 -5 5l-4 6q-3 6 -3 14q0 3 0.5 5.5t1.5 5.5q1 5 5 9q5 5 10 7q3 2 12 2q8 0 12 -2q2 -2 4 -2.5t4 -2.5zM357 -56h12v-8h2q1 0 2 1l4 4l4 3q1 1 4 1q5 0 8 -2
q4 -2 6 -4q4 -4 5 -10q3 -5 3 -11q0 -2 -0.5 -3t-0.5 -3t-1 -3t-2 -3q-2 -8 -6 -11q-5 -4 -12 -4q-5 0 -7 1l-4 3q-1 1 -3 1l-1 2v-25h-13v71zM799 -56h13v-8q4 9 15 9q4 0 8 -2q3 -2 6 -6q1 4 5 6t8 2q5 0 11 -2q4 -4 5 -7q2 -4 2 -9v-35h-13v31q0 11 -8 11q-9 0 -9 -11
v-31h-13v36q0 2 -2 4t-7 2q-8 0 -8 -11v-31h-13v52zM739 -72q2 6 5 9q3 4 8 6q6 2 12 2q5 0 11 -2l4 -2t4 -3t2.5 -4.5t2.5 -4.5q1 -3 1 -11t-3 -14q-2 -7 -8 -10t-14 -3q-10 0 -15 4q-6 3 -9 10q-2 8 -2 13q0 6 1 10zM124 345l5 5l4 5l5 5q2 4 4 6l31 42l9 15l10 15
q3 4 5.5 7.5t4.5 7.5l8 16q1 2 0 3t-2 1q-4 0 -5 -1l-4 -2l-16 -20q-3 -3 -7 -9l-8 -10l-27 -39l-13 -20l-11 -21l-2 -3v-5h5zM744 -1q-3 0 -4.5 -0.5t-3.5 -0.5t-4 0.5t-4 0.5q-2 2 -3.5 3t-3.5 3q-2 4 -2 10q0 8 4 12q8 4 12 5l13 2q5 0 5 4q0 7 -9 7q-4 0 -6 -2
q-3 -1 -4 -7h-13q0 7 3 12q2 3 8 6q2 2 6 2h6q12 0 16 -2l3.5 -3.5t2.5 -3.5t1 -7v-35q0 -3 4 -3v-3h-16q-1 0 -1 1v1v1q0 2 -0.5 2.5t-0.5 1.5l-4 -4q-1 -1 -1.5 -1t-1.5 -1t-2 -1zM245 22h-38q0 -3 4 -9q3 -3 9 -3q2 0 3.5 0.5t2.5 0.5q4 4 4 5h15l-5 -10l-8 -6l-6 -1.5
t-6 -0.5q-27 0 -27 30q0 10 3 14q2 7 8 10q4 3 7.5 3.5t8.5 0.5q11 0 14 -4q6 -3 9 -11q2 -5 2 -15v-4zM494 317q3 4 3 12q0 5 -2 8q-2 6 -5 8q-2 3 -9 5q-6 3 -11 3q-10 0 -14 -4q-4 -1 -6 -3.5t-4 -4.5q-4 -5 -4 -12t2 -10q2 -2 3 -3.5t3 -3.5q3 -3 9 -5q3 -1 5.5 -1.5
t5.5 -0.5q8 0 13 3q4 2 6.5 4.5zM135 442q-2 -5 0 -8q1 -2 2 -3l3 -3l9 -3q7 0 11 1q2 0 2 1q1 1 1 2t-1 1h-2q-2 0 -2 -1q-7 -1 -14 1q-4 2 -5 4q0 2 -0.5 2.5t-0.5 2.5q0 3 1 6l3 7l8 9q2 2 5 4l6 4t5.5 3.5t6.5 3.5l12 6q4 0 7 1t7 3l14 2q8 2 13 2q3 0 11 -2q5 0 7 -3
l5 -6v-8q0 -6 -1 -10l-5 -9q-2 -3 -3.5 -5.5t-3.5 -4.5q-2 -3 -4.5 -5t-5.5 -5q-2 -3 -10 -9l-11 -7l-12 -5l-7 -3q-1 0 -2.5 -0.5t-3.5 -0.5h-2q-2 0 -3 -1q-1 0 -1 -1q-2 0 -2 -2q0 -1 1 -1h2q2 0 3 1h2l13 4l13 6l13 5l13 8l11 8l10 9l8 10q2 2 3.5 4.5t2.5 5.5q2 6 2 9
q1 5 0 9l-3 7l-7 5q-3 1 -5 1.5t-5 0.5q-4 1 -11 1q-4 0 -12 -2q-7 0 -13.5 -2t-14.5 -4q-14 -4 -26 -11q-3 -2 -6.5 -3.5t-6.5 -3.5l-6 -4t-5 -5l-4.5 -4.5l-4.5 -4.5zM502 -83q5 5 10 5l12 2q4 0 4 3q0 8 -7 8q-5 0 -6 -3q-3 -2 -3 -5h-13q0 7 3 10q3 5 7 6q2 1 5 1
q2 1 7 1t8 -0.5t6 -1.5q4 -3 6 -6q1 -2 1 -7v-27q0 -5 1 -6q0 -1 2 -3v-2h-15v1q0 1 -0.5 1t-0.5 1v3q-2 -1 -2.5 -2t-1.5 -2q-2 -1 -3 -1t-2 -1q-2 -1 -7 -1q-4 0 -7 1l-7 5q-2 4 -2 9q0 8 5 11zM38 -83q5 5 10 5l13 2q5 0 5 3q0 8 -8 8q-5 0 -6 -3q-4 -1 -4 -5h-12
q0 7 3 10q1 4 6 6q2 1 7 1q2 1 6 1q7 0 13 -2q4 -3 6 -6q1 -2 1 -7v-27q0 -5 1 -6q0 -1 2 -3v-2h-14v3q-1 1 -1 3l-4 -4q-2 -1 -3 -1t-2 -1q-2 -1 -6 -1q-6 0 -9 1q-3 2 -5 5q-3 3 -3 9q0 8 4 11zM414 -69q3 7 8 10q5 4 13 4q11 0 15 -4q5 -3 8 -11q2 -8 2 -13v-3h-35
q0 -6 3 -9t8 -3q3 0 7 2l3 4h13q-2 -8 -4 -10t-4 -3l-4 -2q-6 -2 -11 -2q-24 0 -24 28q0 8 2 12zM606 -69q3 7 8 10q5 4 14 4q10 0 14 -4q5 -3 7 -11q3 -6 3 -13v-3h-35q0 -6 3 -9t8 -3q3 0 7 2l3 4h13q-2 -8 -5 -10q-4 -4 -7 -5q-6 -2 -11 -2q-24 0 -24 28q0 4 2 12z
M644 48q2 -6 2 -10v-39h-14v34q0 4 -2 8q-3 3 -8 3q-6 0 -9 -4q-2 -2 -2 -9v-32h-15v56h14v-8q6 9 17 9q7 0 10 -2zM389 7q-3 -4 -7 -6q-6 -3 -10 -3q-10 0 -14 6q-5 4 -5 14v37h14v-34q0 -10 10 -10h5l5 5q0 1 1 2.5t1 3.5v33h13v-56h-13v8zM299 -60l-1 4h16l10 -38l10 38
h15l-17 -50l-1 -1l-4 -11l-3 -6q-3 -3 -5 -3t-3.5 -0.5t-3.5 -0.5h-7v11h8q1 0 3 2v2q1 1 1 3zM155 -56h12v-8q6 9 16 9q4 0 10 -2q3 -2 6 -6q2 -4 2 -10v-35h-14v31q0 6 -1 7q-2 4 -8 4q-4 0 -8 -4q-2 -6 -2 -8v-30h-13v52zM689 -63q6 8 19 8q5 0 11 -2q3 -1 9 -7
q4 -5 4 -11h-14l-3 6q-3 3 -6 3q-5 0 -8 -5q-3 -3 -3 -10q0 -3 0.5 -5t0.5 -4q2 -4 4 -5q1 -2 5 -2q5 0 6 2q3 1 3 6h15q-2 -6 -4 -11q-2 -2 -4 -3.5t-4 -2.5q-5 -3 -12 -3q-10 0 -17 6q-3 1 -5 8q-2 6 -2 12q0 8 5 20zM556 -63q6 8 19 8q5 0 11 -2q4 -1 8 -7q2 -3 3.5 -5.5
t1.5 -5.5h-15q0 2 -2 6q-3 3 -6 3q-5 0 -8 -5q-4 -3 -4 -10q0 -3 0.5 -5t0.5 -4l4 -5q2 -2 6 -2t6 2q3 1 3 6h13q0 -5 -3 -11l-3.5 -3.5t-3.5 -2.5q-6 -3 -12 -3q-11 0 -17 6q-3 1 -5 8q-2 6 -2 12q0 8 5 20zM337 63q-2 0 -2 -2v-6h9v-10h-9v-46h-15v46h-7v10h7v4
q0 16 17 16h7v-12h-7zM515 55h10v-10h-10v-46h-15v46h-7v10h7v4q0 16 17 16h6v-12h-6q-1 0 -2 -2v-6zM806 -1h-9q-7 0 -10 2q-3 0 -4 4q0 1 -1 2.5t-1 3.5v34h-7v10h7v14h16v-14h9v-10h-9v-34q1 0 2 -0.5t3 -0.5l2 1h2v-12zM272 69v-14h8v-10h-8v-30q0 -4 1 -4q0 -1 1 -1h4
l1 1h1v-12h-8q-7 0 -10 2q-3 0 -4 4q-1 1 -1 6v34h-8v10h8v14h15zM461 436q-2 0 -2 1v6q2 7 5 10l7 11l5 6l12 15l4.5 4.5l4.5 4.5l4 4l5 2q2 1 5 1l2 -1q1 -1 1 -4q0 -1 -2 -5l-2 -4l-3 -5l-3 -5l-10 -15l-8 -9l-10 -10q0 -1 -5 -3q-1 -2 -6 -4h-4zM623 478l4 5l3 6l4 5
l9 12l13 16l3 4l8 6q1 1 4 1q2 1 4 1l3 -2q0 -1 0.5 -1.5t0.5 -1.5q0 -2 -1 -4q0 -1 -2 -3l-8 -11l-6 -11l-8 -7l-8 -9l-5 -4l-6 -5l-5 -4q-2 0 -2.5 -1t-2.5 -1q-4 -2 -5 -1h-1q-1 1 -1 2l1 1q0 1 1 2zM685 -1h-10q-7 0 -8 2q-4 0 -5 4v40h-9v10h9v14h13v-14h10v-10h-10
v-30v-3q0 -1 1 -1q2 0 2.5 -0.5t2.5 -0.5l2 1h2v-12zM482 345q0 -2 1 -3.5t2 -4.5q0 -1 0.5 -3.5t0.5 -4.5q0 -6 -2 -12q-2 -2 -3 -4.5t-3 -4.5q-2 -1 -8 -1q-5 0 -6 1q-4 0 -6 5l-3 6q-2 6 -2 10q0 2 0.5 4t0.5 4l3 6l3 5q1 1 2 1t3 1q2 2 6 2q0 -1 1 -1h2l3 -2zM471 -66
h-8v10h8v4q0 14 15 14h6v-11h-6l-1 -1l-1 -4v-2h9v-10h-9v-42h-13v42zM273 -66h-7v10h7v13h14v-13h8v-10h-8v-27q0 -3 1 -4q0 -1 1 -1h3l2 1h1v-11h-8q-6 0 -8 1q-5 2 -5 4q-1 1 -1 6v31zM430 -1h-14v76h14v-76zM455 -1h-14v76h14v-76zM412 352h-50v-2h2q4 0 5 -2q3 0 3 -5
v-28q0 -8 -8 -8h-2v-1h50v19l-3 -6l-5 -7q-3 -3 -4 -3l-5 -1q-2 -1 -6 -1h-7v20h1q4 0 9 -3l2 -3q0 -1 0.5 -1.5t0.5 -1.5v-4h1v29h-1v-4l-2 -5q-5 -5 -9 -5h-2v21h8q8 0 11 -1l4 -3l2 -5l3 -7h2v18zM91 -56h12v-9h1l3 5q1 1 1.5 2t2.5 2q1 1 7 1h3v-14h-4q-13 0 -13 -12
v-27h-13v52zM567 352h-23v-2h4q0 -1 2 -1q3 -2 3 -4q2 -2 2 -7v-19l-32 33h-18v-2q4 0 5 -1q1 0 1.5 -0.5t1.5 -0.5q1 -2 1 -5v-26q0 -3 -1 -5l-3 -4q-2 0 -3.5 -0.5t-2.5 -0.5v-1h24v1q-3 0 -5 1h-4l-2 5q-1 1 -1 6v27l39 -40h2v32q0 4 0.5 6t1.5 4q2 2 8 2v2zM354 327
q-1 2 -6 4l-8 3h-5l-1 1q-2 1 -4 1t-3 1q-3 0 -4 1q-1 0 -3 2q-1 0 -1 2v1v4l2 2l4 2q1 0 2 0.5t3 0.5q3 0 7 -2q4 0 6 -2q4 -2 5 -4q2 -1 2.5 -3.5t2.5 -4.5h1v15h-1q-1 -3 -4 -3h-4q-8 5 -15 5q-4 0 -10 -2l-6 -4q-1 -2 -1.5 -3.5t-0.5 -4.5q0 -1 2 -5q0 -3 3 -3l6 -3
q1 -1 10 -3l4 -1q4 -2 6 -2t4 -2q1 0 1 -1q3 -2 3 -5l-2 -4q-1 -2 -4 -3h-5q-5 0 -8 1l-8 3l-5 5q-5 5 -5 10h-1v-21h1q0 3 2 3q2 2 4 2q1 0 1 -0.5t2 -0.5q1 0 1.5 -0.5t1.5 -0.5l7 -2q2 -1 7 -1q2 0 8 2q1 0 6 3q1 1 1 2t2 2v10zM568 16q3 3 3 11q0 7 -3 12t-10 5
q-8 0 -11 -5q-1 -2 -2 -5t-1 -7t1 -6.5t2 -4.5q2 -5 11 -5q8 0 10 5zM128 -56h14v-52h-14v52zM674 348q0 1 2 1q1 0 1.5 0.5t1.5 0.5h1v2h-23v-2h3q4 0 5 -1q2 -1 2 -3t-3 -5l-9 -13l-12 15l-2 4v1q0 1 1 1q0 1 3 1h4v2h-30v-2h1q5 0 7 -1l2 -2t2 -3l14 -19v-10q0 -5 -1 -6
q-4 -2 -7 -2h-3v-1h33v1h-4q-4 0 -6 2t-2 6v11l12 17l2 3q4 2 5 2zM622 326h-1q-2 -2 -2 -3t-1 -3q-2 -2 -2 -4l-2 -3q-4 -4 -6 -5q-1 0 -3 -0.5t-4 -0.5h-12v36q0 5 3 5q1 2 6 2h3v2h-31v-2h2q8 0 8 -7v-28q0 -8 -8 -8h-2v-1h52v20zM773 -71q-2 5 -9 5q-8 0 -10 -5
q-3 -5 -3 -11q0 -7 3 -11q1 -2 4 -3t6 -1q8 0 9 4q3 4 3 11q0 6 -3 11zM289 425q-3 -1 -6 -1q-5 0 -6 1l7 11l9 10l3 4l5 4l5 5l6 2q4 1 7 0v-5l-3 -4q-3 -3 -3 -5q-2 -2 -2.5 -3t-2.5 -2q0 -1 -4 -5q-1 -1 -1.5 -2t-2.5 -2l-5 -4zM373 -93q3 -4 8 -4q6 0 9 4q2 6 2 11
t-2 11q-2 2 -4 3.5t-5 1.5q-12 0 -12 -17q0 -7 4 -10zM292 310q4 3 4 9q-2 -5 -5 -8l-6 -4h-7q-6 0 -9 1q-1 0 -5 4q-2 2 -2 7v24q0 5 2 5q2 2 7 2h3v2h-31v-2q10 0 10 -7v-24q0 -4 5 -11l8 -2q2 -1 9 -1q6 0 12 2q4 2 5 3zM226 -89q0 -2 3 -5q4 -2 6 -2q12 0 12 14
q0 7 -4 11q-2 2 -4 3.5t-4 1.5q-4 0 -7 -5q-3 -3 -3 -11q0 -4 1 -7zM412 451q0 -2 0.5 -3t0.5 -2q-1 -2 -1 -4v-6l-2 -4l-4 -5l-4 -3q-1 0 -1.5 -0.5t-2.5 -0.5q-1 -1 -4 -1q-2 -2 -4 0q-1 0 -3 2v4l2 5l3 4q4 5 9 9zM733 15q0 -4 2 -4q2 -2 5 -2h4l2 1q5 2 5 3q2 4 2 7v7
q-3 -3 -6 -3l-7 -2q-3 0 -5 -2q-2 -1 -2 -5zM660 -93h15v-15h-15v15zM61 -85l-6 -1q-2 0 -6 -2q-2 -2 -2 -5q0 -2 2 -4q2 -1 3 -2t2 -1q2 0 3 2h2l5 3q2 4 2 6v6q-1 0 -5 -2zM231 33q-2 6 -4 8q-4 4 -7 4q-11 0 -11 -12h22zM524 -85l-7 -1q-2 0 -4 -2t-2 -5q0 -2 2 -4
q3 -3 4 -3q2 0 3 2h2l5 3q1 2 1 6v6zM638 -77q0 5 -3 8q-2 1 -3.5 2t-4.5 1q-8 0 -10 -11h21zM446 -77q0 5 -3 8q-2 1 -3.5 2t-4.5 1q-8 0 -10 -11h21zM128 -38h14v-12h-14v12zM769 575q-2 -4 -4 -5l14 18l6 11l13 17l1 1q0 2 2 2q0 1 1 1q0 -4 -1 -5l-4 -5l-3 -5l-3 -4
l-8 -10l-9 -10zM306 352h-23v-2h5q1 0 2 -1q6 -2 6 -11v7l5 4l1 1h4v2z" />
    <glyph glyph-name="two" unicode="2" horiz-adv-x="902" 
d="M61 517l131 29l-5 18l20 6l-4 19l20 4l-3 22l20 1v20h18l2 18l19 -3l4 20l21 -3l5 19l19 -5l8 18l19 -8l11 19l17 -9l11 17l18 -12l12 16l17 -13l13 14l13 -12l13 11l13 -14l17 11l11 -18l19 10l9 -17l18 8l8 -20l21 6l6 -19l19 5l4 -21l21 2l1 -13l197 43v-242l-90 -20
l2 -1l-12 -13l12 -14l-16 -13l11 -17l-18 -11l11 -18l-17 -10l7 -18l-19 -8l6 -21l-18 -6l3 -19l-20 -4l1 -21l-19 -2v-19h-17l-3 -18l-19 1l-4 -18l-21 3l-5 -20l-19 6l-7 -19l-21 8l-9 -19l-18 10l-11 -17l-18 11l-12 -16l-15 13l-15 -13l-13 12l-13 -12l-12 15l-17 -11
l-12 18l-18 -10l-9 17l-19 -8l-9 20l-19 -6l-6 18l-20 -4l-4 21l-21 -2l-2 20h-20v17l-17 2l2 20l-20 3l4 21l-20 6l6 18l-14 6l-120 -26v241zM595 466l11 11q-1 -1 -1 -3q0 -3 2 -7q1 -2 5 -4q3 -1 10 1q6 1 12 6l10 7l3.5 3.5l3.5 3.5l6 6v-2q0 -1 -0.5 -1.5t-0.5 -1.5v-3
q-2 -3 0 -5q0 -1 0.5 -1.5t0.5 -1.5q0 -3 3 -3h8l3 2l4 3l6 3l16 13l8 8l-2 -6q-2 -3 -2 -9v-3q1 0 2 -1q0 -1 3 -1q2 0 4 2q4 0 6 3l5 3l6 6q1 0 5 4l4.5 4.5l4.5 4.5l9 10v2q0 1 -1 1q-2 0 -4 -2l-1 -2l-6 -7l-5 -6q-5 -3 -6 -6l-7 -6l-4 -3l-4 -1l-1 -1q-1 0 -2 1h1l4 7
q2 4 4 6l3 6q2 1 4 5l31 45q5 5 6 8l8 8l18 21q5 5 8.5 10t7.5 10l5 9v4q-1 1 -4 1q-1 0 -5 -2q-2 0 -3 -1t-3 -2q-2 0 -5 -3l-4 -3l-11 -9l-8 -9q-3 -3 -5 -5.5t-4 -5.5q-1 -2 -3 -4.5t-4 -5.5l-13 -20l-13 -22l-9 -16l-4 -8h-1l-7 -7q-2 -3 -4 -5l-5 -5l-9 -8l-5 -4l-3 -2
l-2 -1l-2 -2h-5l6 10q0 1 1 2q2 4 4 7t5 6l8 14l7 10l4 6l3 5l1 1l1 1q0 1 0.5 1t0.5 1q3 2 2 4q0 1 -3 1l-5 -2l-5 -3l-9 -6l-7 -6q0 3 -1 5q0 1 -3 3q-6 1 -10 0q-8 -2 -11 -4l-12 -6l-9 -8q-13 -9 -18 -19q-7 -8 -10 -18h-2l-8 -9q-3 -2 -5.5 -4t-5.5 -4q-1 -2 -6 -4
q-2 -2 -5 -2h-1q-1 1 0 2l3 4l3 5l6 7l10 13q2 3 4.5 6.5t4.5 7.5l4 8q2 5 1 8q0 3 -1 3q0 2 -3 2t-4 -1l-6 -2l-6 -4l-5 -4l-5 -4q-4 -4 -6 -4l-10 -11l-4.5 -4.5l-4.5 -4.5l-5 -6l-5 -5l1 2l12 17l13 18q0 1 0.5 1t0.5 1q1 1 1 2q1 1 1 3l-3 3q-1 0 -1.5 0.5t-1.5 0.5
t-2 -0.5t-3 -0.5l-5 -3l-2 -2q-2 -1 -2 -2t-1 -2l-2 -3l-38 -65q-1 -1 -1 -2v-1q1 0 1.5 -0.5t1.5 -0.5q2 0 4 1l4 2q0 1 2 3q1 0 1 0.5t1 0.5l2 3q0 2 2 2l8 11l10 10l8 10l11 10l14 14l5 4l5 4l6 2q1 0 1 -1h-1l-2 -2q-1 -3 -4 -4l-2 -3l-6 -7q-2 -2 -3 -3.5t-3 -3.5
l-7 -11l-7 -10l-3 -9q-2 -5 0 -8q1 -3 4 -3h9q2 1 4.5 2.5t6.5 3.5zM397 418q6 0 12 4q8 4 11 8q3 2 4.5 4t3.5 4l4 9q3 4 3 9v8q0 3 -2 7l-3 8l-3 3q0 2 -2 4q0 1 -1 2v5h-4l-2 -2l-6 -4l-2 -6l-1 -1l-2 -3l-16 -22l-2 -3l-3 -5h-1v-1q-1 0 -2 -1l-2 -4l-3 -4l-7 -9
l-11 -10l-6 -3q-2 -2 -6 -2v1l4 5l3 5l4 5l3 4l4 7l5 7l2 7q1 3 1 7q-1 1 -1 4l-1 2q0 2 -1 3v11l3 5q2 3 -2 6q-2 3 -8 0q-5 -1 -8 -4q-3 -1 -5 -6q-2 -2 -2 -5q0 -4 1 -6l2 -1l2 -2l-6 -6l-11 -15l-10 -11q-2 0 -2 -2v-1l-1 -1q0 -1 -1 -1l-5 -7q-4 -3 -7 -6t-7 -5
q-6 -6 -16 -11l-10 -4q-6 -2 -9 -1q-3 0 -3 2q-1 1 -1 3q0 1 2 5l1 4l5 8q2 -1 6 -1h9q5 1 13 6q3 1 5.5 3t6.5 4l7 8q2 2 3.5 4t1.5 4l4 6q0 6 -2 7q-2 4 -4 5h-9h-4.5t-4.5 -2l-10 -4q-13 -7 -22 -14q-9 -8 -14 -17q-2 -2 -3 -4.5t-3 -5.5q-3 -4 -4 -9v-8q1 -4 5 -6
q5 -5 11 -3q7 0 13 3q5 1 8.5 3t7.5 4t7.5 4.5t7.5 6.5l12 10l7 7q0 1 2 3q0 1 1 2l2 3l8 8l7 10q3 2 5 5t4 5l3 -1l2 -3q0 -1 1 -2v-1q0 -1 -1 -2t-2 -3l-8 -8l-7 -10l-6 -9l-2 -9q-1 -1 -1 -4v-3l2 -4h4q5 0 8 1l8 5q2 2 5 4t5 5q3 2 5 4l4 4l4 6l4 5l2 2l2 3l2 2l6 8
l10 15q0 -2 0.5 -3.5t0.5 -3.5q2 -6 2 -7l2 -4q-8 -2 -12 -6l-10 -7q-2 -2 -3.5 -4.5t-2.5 -4.5q-1 -3 -1 -8q0 -3 5 -5h9zM447 440q0 -4 2 -4l5 -4h5h6q4 1 7 2l6 2l13 7l11 10l9 8l7 10l5 8l3 9q2 5 0 7q0 3 -3 5q0 2 -5 4q-1 0 -3 0.5t-4 0.5q-3 0 -9 -2q-2 0 -3 -0.5
l-3 -1.5l-6 -2l-12 -8l-11 -9l-8 -9l-6 -9q-5 -8 -6 -13v-11zM125 8q-4 3 -8 13q-2 5 -2 16v8q0 2 1 3.5t1 3.5q1 6 7 12q2 3 5 5l6 4q7 3 16 3h3q2 0 4 -0.5t4 -0.5q4 0 7 -3q7 -4 10 -9q2 -2 4 -6q0 -1 0.5 -1.5t0.5 -1.5v-2h-16v1q0 1 -2 3q-1 2 -2 2.5t-3 2.5q-3 2 -9 2
h-7l-7 -6q-5 -3 -5 -7q-2 -4 -2 -14q0 -4 0.5 -7t1.5 -7q1 -5 6 -7q3 -2 5 -3t5 -1h2q6 0 9 2q2 0 3.5 1.5l2.5 2.5q2 3 3 5t1 5h-18v13h32v-41h-10l-2 10q-3 -4 -7 -7q-2 -2 -4.5 -2.5t-4.5 -1.5q-2 0 -4.5 -0.5t-4.5 -0.5q-6 0 -12 3q-7 3 -10 8zM213 -69q3 7 7 10
q4 4 12 4q3 0 9 -2l3.5 -3.5t2.5 -3.5l1 8h12v-49q0 -5 -2 -13q-3 -5 -8 -7q-6 -3 -16 -3q-2 0 -4.5 0.5t-4.5 0.5q-3 1 -9 5q-2 2 -2 4q-1 2 -1 5h13l3 -4q1 -1 6 -1q6 0 7 1q4 3 4 4t0.5 1.5t0.5 1.5v9q-6 -7 -14 -7q-3 0 -5.5 0.5t-5.5 1.5q-5 4 -8 10q-2 3 -3 6.5
t-1 8.5q0 3 1 6zM578 49q2 -2 3 -4.5t3 -5.5q2 -6 2 -12q0 -8 -4 -15q-1 -4 -9 -10q-5 -4 -15 -4t-17 4q-3 2 -5 5l-4 6q-3 6 -3 14q0 3 0.5 5.5t1.5 5.5q1 5 5 9q5 5 10 7q3 2 12 2q8 0 12 -2q2 -2 4 -2.5t4 -2.5zM357 -56h12v-8h2q1 0 2 1l4 4l4 3q1 1 4 1q5 0 8 -2
q4 -2 6 -4q4 -4 5 -10q3 -5 3 -11q0 -2 -0.5 -3t-0.5 -3t-1 -3t-2 -3q-2 -8 -6 -11q-5 -4 -12 -4q-5 0 -7 1l-4 3q-1 1 -3 1l-1 2v-25h-13v71zM799 -56h13v-8q4 9 15 9q4 0 8 -2q3 -2 6 -6q1 4 5 6t8 2q5 0 11 -2q4 -4 5 -7q2 -4 2 -9v-35h-13v31q0 11 -8 11q-9 0 -9 -11
v-31h-13v36q0 2 -2 4t-7 2q-8 0 -8 -11v-31h-13v52zM739 -72q2 6 5 9q3 4 8 6q6 2 12 2q5 0 11 -2l4 -2t4 -3t2.5 -4.5t2.5 -4.5q1 -3 1 -11t-3 -14q-2 -7 -8 -10t-14 -3q-10 0 -15 4q-6 3 -9 10q-2 8 -2 13q0 6 1 10zM124 345l5 5l4 5l5 5q2 4 4 6l31 42l9 15l10 15
q3 4 5.5 7.5t4.5 7.5l8 16q1 2 0 3t-2 1q-4 0 -5 -1l-4 -2l-16 -20q-3 -3 -7 -9l-8 -10l-27 -39l-13 -20l-11 -21l-2 -3v-5h5zM744 -1q-3 0 -4.5 -0.5t-3.5 -0.5t-4 0.5t-4 0.5q-2 2 -3.5 3t-3.5 3q-2 4 -2 10q0 8 4 12q8 4 12 5l13 2q5 0 5 4q0 7 -9 7q-4 0 -6 -2
q-3 -1 -4 -7h-13q0 7 3 12q2 3 8 6q2 2 6 2h6q12 0 16 -2l3.5 -3.5t2.5 -3.5t1 -7v-35q0 -3 4 -3v-3h-16q-1 0 -1 1v1v1q0 2 -0.5 2.5t-0.5 1.5l-4 -4q-1 -1 -1.5 -1t-1.5 -1t-2 -1zM245 22h-38q0 -3 4 -9q3 -3 9 -3q2 0 3.5 0.5t2.5 0.5q4 4 4 5h15l-5 -10l-8 -6l-6 -1.5
t-6 -0.5q-27 0 -27 30q0 10 3 14q2 7 8 10q4 3 7.5 3.5t8.5 0.5q11 0 14 -4q6 -3 9 -11q2 -5 2 -15v-4zM494 317q3 4 3 12q0 5 -2 8q-2 6 -5 8q-2 3 -9 5q-6 3 -11 3q-10 0 -14 -4q-4 -1 -6 -3.5t-4 -4.5q-4 -5 -4 -12t2 -10q2 -2 3 -3.5t3 -3.5q3 -3 9 -5q3 -1 5.5 -1.5
t5.5 -0.5q8 0 13 3q4 2 6.5 4.5zM135 442q-2 -5 0 -8q1 -2 2 -3l3 -3l9 -3q7 0 11 1q2 0 2 1q1 1 1 2t-1 1h-2q-2 0 -2 -1q-7 -1 -14 1q-4 2 -5 4q0 2 -0.5 2.5t-0.5 2.5q0 3 1 6l3 7l8 9q2 2 5 4l6 4t5.5 3.5t6.5 3.5l12 6q4 0 7 1t7 3l14 2q8 2 13 2q3 0 11 -2q5 0 7 -3
l5 -6v-8q0 -6 -1 -10l-5 -9q-2 -3 -3.5 -5.5t-3.5 -4.5q-2 -3 -4.5 -5t-5.5 -5q-2 -3 -10 -9l-11 -7l-12 -5l-7 -3q-1 0 -2.5 -0.5t-3.5 -0.5h-2q-2 0 -3 -1q-1 0 -1 -1q-2 0 -2 -2q0 -1 1 -1h2q2 0 3 1h2l13 4l13 6l13 5l13 8l11 8l10 9l8 10q2 2 3.5 4.5t2.5 5.5q2 6 2 9
q1 5 0 9l-3 7l-7 5q-3 1 -5 1.5t-5 0.5q-4 1 -11 1q-4 0 -12 -2q-7 0 -13.5 -2t-14.5 -4q-14 -4 -26 -11q-3 -2 -6.5 -3.5t-6.5 -3.5l-6 -4t-5 -5l-4.5 -4.5l-4.5 -4.5zM502 -83q5 5 10 5l12 2q4 0 4 3q0 8 -7 8q-5 0 -6 -3q-3 -2 -3 -5h-13q0 7 3 10q3 5 7 6q2 1 5 1
q2 1 7 1t8 -0.5t6 -1.5q4 -3 6 -6q1 -2 1 -7v-27q0 -5 1 -6q0 -1 2 -3v-2h-15v1q0 1 -0.5 1t-0.5 1v3q-2 -1 -2.5 -2t-1.5 -2q-2 -1 -3 -1t-2 -1q-2 -1 -7 -1q-4 0 -7 1l-7 5q-2 4 -2 9q0 8 5 11zM38 -83q5 5 10 5l13 2q5 0 5 3q0 8 -8 8q-5 0 -6 -3q-4 -1 -4 -5h-12
q0 7 3 10q1 4 6 6q2 1 7 1q2 1 6 1q7 0 13 -2q4 -3 6 -6q1 -2 1 -7v-27q0 -5 1 -6q0 -1 2 -3v-2h-14v3q-1 1 -1 3l-4 -4q-2 -1 -3 -1t-2 -1q-2 -1 -6 -1q-6 0 -9 1q-3 2 -5 5q-3 3 -3 9q0 8 4 11zM414 -69q3 7 8 10q5 4 13 4q11 0 15 -4q5 -3 8 -11q2 -8 2 -13v-3h-35
q0 -6 3 -9t8 -3q3 0 7 2l3 4h13q-2 -8 -4 -10t-4 -3l-4 -2q-6 -2 -11 -2q-24 0 -24 28q0 8 2 12zM606 -69q3 7 8 10q5 4 14 4q10 0 14 -4q5 -3 7 -11q3 -6 3 -13v-3h-35q0 -6 3 -9t8 -3q3 0 7 2l3 4h13q-2 -8 -5 -10q-4 -4 -7 -5q-6 -2 -11 -2q-24 0 -24 28q0 4 2 12z
M644 48q2 -6 2 -10v-39h-14v34q0 4 -2 8q-3 3 -8 3q-6 0 -9 -4q-2 -2 -2 -9v-32h-15v56h14v-8q6 9 17 9q7 0 10 -2zM389 7q-3 -4 -7 -6q-6 -3 -10 -3q-10 0 -14 6q-5 4 -5 14v37h14v-34q0 -10 10 -10h5l5 5q0 1 1 2.5t1 3.5v33h13v-56h-13v8zM299 -60l-1 4h16l10 -38l10 38
h15l-17 -50l-1 -1l-4 -11l-3 -6q-3 -3 -5 -3t-3.5 -0.5t-3.5 -0.5h-7v11h8q1 0 3 2v2q1 1 1 3zM155 -56h12v-8q6 9 16 9q4 0 10 -2q3 -2 6 -6q2 -4 2 -10v-35h-14v31q0 6 -1 7q-2 4 -8 4q-4 0 -8 -4q-2 -6 -2 -8v-30h-13v52zM689 -63q6 8 19 8q5 0 11 -2q3 -1 9 -7
q4 -5 4 -11h-14l-3 6q-3 3 -6 3q-5 0 -8 -5q-3 -3 -3 -10q0 -3 0.5 -5t0.5 -4q2 -4 4 -5q1 -2 5 -2q5 0 6 2q3 1 3 6h15q-2 -6 -4 -11q-2 -2 -4 -3.5t-4 -2.5q-5 -3 -12 -3q-10 0 -17 6q-3 1 -5 8q-2 6 -2 12q0 8 5 20zM556 -63q6 8 19 8q5 0 11 -2q4 -1 8 -7q2 -3 3.5 -5.5
t1.5 -5.5h-15q0 2 -2 6q-3 3 -6 3q-5 0 -8 -5q-4 -3 -4 -10q0 -3 0.5 -5t0.5 -4l4 -5q2 -2 6 -2t6 2q3 1 3 6h13q0 -5 -3 -11l-3.5 -3.5t-3.5 -2.5q-6 -3 -12 -3q-11 0 -17 6q-3 1 -5 8q-2 6 -2 12q0 8 5 20zM337 63q-2 0 -2 -2v-6h9v-10h-9v-46h-15v46h-7v10h7v4
q0 16 17 16h7v-12h-7zM515 55h10v-10h-10v-46h-15v46h-7v10h7v4q0 16 17 16h6v-12h-6q-1 0 -2 -2v-6zM806 -1h-9q-7 0 -10 2q-3 0 -4 4q0 1 -1 2.5t-1 3.5v34h-7v10h7v14h16v-14h9v-10h-9v-34q1 0 2 -0.5t3 -0.5l2 1h2v-12zM272 69v-14h8v-10h-8v-30q0 -4 1 -4q0 -1 1 -1h4
l1 1h1v-12h-8q-7 0 -10 2q-3 0 -4 4q-1 1 -1 6v34h-8v10h8v14h15zM461 436q-2 0 -2 1v6q2 7 5 10l7 11l5 6l12 15l4.5 4.5l4.5 4.5l4 4l5 2q2 1 5 1l2 -1q1 -1 1 -4q0 -1 -2 -5l-2 -4l-3 -5l-3 -5l-10 -15l-8 -9l-10 -10q0 -1 -5 -3q-1 -2 -6 -4h-4zM623 478l4 5l3 6l4 5
l9 12l13 16l3 4l8 6q1 1 4 1q2 1 4 1l3 -2q0 -1 0.5 -1.5t0.5 -1.5q0 -2 -1 -4q0 -1 -2 -3l-8 -11l-6 -11l-8 -7l-8 -9l-5 -4l-6 -5l-5 -4q-2 0 -2.5 -1t-2.5 -1q-4 -2 -5 -1h-1q-1 1 -1 2l1 1q0 1 1 2zM685 -1h-10q-7 0 -8 2q-4 0 -5 4v40h-9v10h9v14h13v-14h10v-10h-10
v-30v-3q0 -1 1 -1q2 0 2.5 -0.5t2.5 -0.5l2 1h2v-12zM482 345q0 -2 1 -3.5t2 -4.5q0 -1 0.5 -3.5t0.5 -4.5q0 -6 -2 -12q-2 -2 -3 -4.5t-3 -4.5q-2 -1 -8 -1q-5 0 -6 1q-4 0 -6 5l-3 6q-2 6 -2 10q0 2 0.5 4t0.5 4l3 6l3 5q1 1 2 1t3 1q2 2 6 2q0 -1 1 -1h2l3 -2zM471 -66
h-8v10h8v4q0 14 15 14h6v-11h-6l-1 -1l-1 -4v-2h9v-10h-9v-42h-13v42zM273 -66h-7v10h7v13h14v-13h8v-10h-8v-27q0 -3 1 -4q0 -1 1 -1h3l2 1h1v-11h-8q-6 0 -8 1q-5 2 -5 4q-1 1 -1 6v31zM430 -1h-14v76h14v-76zM455 -1h-14v76h14v-76zM412 352h-50v-2h2q4 0 5 -2q3 0 3 -5
v-28q0 -8 -8 -8h-2v-1h50v19l-3 -6l-5 -7q-3 -3 -4 -3l-5 -1q-2 -1 -6 -1h-7v20h1q4 0 9 -3l2 -3q0 -1 0.5 -1.5t0.5 -1.5v-4h1v29h-1v-4l-2 -5q-5 -5 -9 -5h-2v21h8q8 0 11 -1l4 -3l2 -5l3 -7h2v18zM91 -56h12v-9h1l3 5q1 1 1.5 2t2.5 2q1 1 7 1h3v-14h-4q-13 0 -13 -12
v-27h-13v52zM567 352h-23v-2h4q0 -1 2 -1q3 -2 3 -4q2 -2 2 -7v-19l-32 33h-18v-2q4 0 5 -1q1 0 1.5 -0.5t1.5 -0.5q1 -2 1 -5v-26q0 -3 -1 -5l-3 -4q-2 0 -3.5 -0.5t-2.5 -0.5v-1h24v1q-3 0 -5 1h-4l-2 5q-1 1 -1 6v27l39 -40h2v32q0 4 0.5 6t1.5 4q2 2 8 2v2zM354 327
q-1 2 -6 4l-8 3h-5l-1 1q-2 1 -4 1t-3 1q-3 0 -4 1q-1 0 -3 2q-1 0 -1 2v1v4l2 2l4 2q1 0 2 0.5t3 0.5q3 0 7 -2q4 0 6 -2q4 -2 5 -4q2 -1 2.5 -3.5t2.5 -4.5h1v15h-1q-1 -3 -4 -3h-4q-8 5 -15 5q-4 0 -10 -2l-6 -4q-1 -2 -1.5 -3.5t-0.5 -4.5q0 -1 2 -5q0 -3 3 -3l6 -3
q1 -1 10 -3l4 -1q4 -2 6 -2t4 -2q1 0 1 -1q3 -2 3 -5l-2 -4q-1 -2 -4 -3h-5q-5 0 -8 1l-8 3l-5 5q-5 5 -5 10h-1v-21h1q0 3 2 3q2 2 4 2q1 0 1 -0.5t2 -0.5q1 0 1.5 -0.5t1.5 -0.5l7 -2q2 -1 7 -1q2 0 8 2q1 0 6 3q1 1 1 2t2 2v10zM568 16q3 3 3 11q0 7 -3 12t-10 5
q-8 0 -11 -5q-1 -2 -2 -5t-1 -7t1 -6.5t2 -4.5q2 -5 11 -5q8 0 10 5zM128 -56h14v-52h-14v52zM674 348q0 1 2 1q1 0 1.5 0.5t1.5 0.5h1v2h-23v-2h3q4 0 5 -1q2 -1 2 -3t-3 -5l-9 -13l-12 15l-2 4v1q0 1 1 1q0 1 3 1h4v2h-30v-2h1q5 0 7 -1l2 -2t2 -3l14 -19v-10q0 -5 -1 -6
q-4 -2 -7 -2h-3v-1h33v1h-4q-4 0 -6 2t-2 6v11l12 17l2 3q4 2 5 2zM622 326h-1q-2 -2 -2 -3t-1 -3q-2 -2 -2 -4l-2 -3q-4 -4 -6 -5q-1 0 -3 -0.5t-4 -0.5h-12v36q0 5 3 5q1 2 6 2h3v2h-31v-2h2q8 0 8 -7v-28q0 -8 -8 -8h-2v-1h52v20zM773 -71q-2 5 -9 5q-8 0 -10 -5
q-3 -5 -3 -11q0 -7 3 -11q1 -2 4 -3t6 -1q8 0 9 4q3 4 3 11q0 6 -3 11zM289 425q-3 -1 -6 -1q-5 0 -6 1l7 11l9 10l3 4l5 4l5 5l6 2q4 1 7 0v-5l-3 -4q-3 -3 -3 -5q-2 -2 -2.5 -3t-2.5 -2q0 -1 -4 -5q-1 -1 -1.5 -2t-2.5 -2l-5 -4zM373 -93q3 -4 8 -4q6 0 9 4q2 6 2 11
t-2 11q-2 2 -4 3.5t-5 1.5q-12 0 -12 -17q0 -7 4 -10zM292 310q4 3 4 9q-2 -5 -5 -8l-6 -4h-7q-6 0 -9 1q-1 0 -5 4q-2 2 -2 7v24q0 5 2 5q2 2 7 2h3v2h-31v-2q10 0 10 -7v-24q0 -4 5 -11l8 -2q2 -1 9 -1q6 0 12 2q4 2 5 3zM226 -89q0 -2 3 -5q4 -2 6 -2q12 0 12 14
q0 7 -4 11q-2 2 -4 3.5t-4 1.5q-4 0 -7 -5q-3 -3 -3 -11q0 -4 1 -7zM412 451q0 -2 0.5 -3t0.5 -2q-1 -2 -1 -4v-6l-2 -4l-4 -5l-4 -3q-1 0 -1.5 -0.5t-2.5 -0.5q-1 -1 -4 -1q-2 -2 -4 0q-1 0 -3 2v4l2 5l3 4q4 5 9 9zM733 15q0 -4 2 -4q2 -2 5 -2h4l2 1q5 2 5 3q2 4 2 7v7
q-3 -3 -6 -3l-7 -2q-3 0 -5 -2q-2 -1 -2 -5zM660 -93h15v-15h-15v15zM61 -85l-6 -1q-2 0 -6 -2q-2 -2 -2 -5q0 -2 2 -4q2 -1 3 -2t2 -1q2 0 3 2h2l5 3q2 4 2 6v6q-1 0 -5 -2zM231 33q-2 6 -4 8q-4 4 -7 4q-11 0 -11 -12h22zM524 -85l-7 -1q-2 0 -4 -2t-2 -5q0 -2 2 -4
q3 -3 4 -3q2 0 3 2h2l5 3q1 2 1 6v6zM638 -77q0 5 -3 8q-2 1 -3.5 2t-4.5 1q-8 0 -10 -11h21zM446 -77q0 5 -3 8q-2 1 -3.5 2t-4.5 1q-8 0 -10 -11h21zM128 -38h14v-12h-14v12zM769 575q-2 -4 -4 -5l14 18l6 11l13 17l1 1q0 2 2 2q0 1 1 1q0 -4 -1 -5l-4 -5l-3 -5l-3 -4
l-8 -10l-9 -10zM306 352h-23v-2h5q1 0 2 -1q6 -2 6 -11v7l5 4l1 1h4v2z" />
    <glyph glyph-name="three" unicode="3" horiz-adv-x="902" 
d="M61 517l131 29l-5 18l20 6l-4 19l20 4l-3 22l20 1v20h18l2 18l19 -3l4 20l21 -3l5 19l19 -5l8 18l19 -8l11 19l17 -9l11 17l18 -12l12 16l17 -13l13 14l13 -12l13 11l13 -14l17 11l11 -18l19 10l9 -17l18 8l8 -20l21 6l6 -19l19 5l4 -21l21 2l1 -13l197 43v-242l-90 -20
l2 -1l-12 -13l12 -14l-16 -13l11 -17l-18 -11l11 -18l-17 -10l7 -18l-19 -8l6 -21l-18 -6l3 -19l-20 -4l1 -21l-19 -2v-19h-17l-3 -18l-19 1l-4 -18l-21 3l-5 -20l-19 6l-7 -19l-21 8l-9 -19l-18 10l-11 -17l-18 11l-12 -16l-15 13l-15 -13l-13 12l-13 -12l-12 15l-17 -11
l-12 18l-18 -10l-9 17l-19 -8l-9 20l-19 -6l-6 18l-20 -4l-4 21l-21 -2l-2 20h-20v17l-17 2l2 20l-20 3l4 21l-20 6l6 18l-14 6l-120 -26v241zM595 466l11 11q-1 -1 -1 -3q0 -3 2 -7q1 -2 5 -4q3 -1 10 1q6 1 12 6l10 7l3.5 3.5l3.5 3.5l6 6v-2q0 -1 -0.5 -1.5t-0.5 -1.5v-3
q-2 -3 0 -5q0 -1 0.5 -1.5t0.5 -1.5q0 -3 3 -3h8l3 2l4 3l6 3l16 13l8 8l-2 -6q-2 -3 -2 -9v-3q1 0 2 -1q0 -1 3 -1q2 0 4 2q4 0 6 3l5 3l6 6q1 0 5 4l4.5 4.5l4.5 4.5l9 10v2q0 1 -1 1q-2 0 -4 -2l-1 -2l-6 -7l-5 -6q-5 -3 -6 -6l-7 -6l-4 -3l-4 -1l-1 -1q-1 0 -2 1h1l4 7
q2 4 4 6l3 6q2 1 4 5l31 45q5 5 6 8l8 8l18 21q5 5 8.5 10t7.5 10l5 9v4q-1 1 -4 1q-1 0 -5 -2q-2 0 -3 -1t-3 -2q-2 0 -5 -3l-4 -3l-11 -9l-8 -9q-3 -3 -5 -5.5t-4 -5.5q-1 -2 -3 -4.5t-4 -5.5l-13 -20l-13 -22l-9 -16l-4 -8h-1l-7 -7q-2 -3 -4 -5l-5 -5l-9 -8l-5 -4l-3 -2
l-2 -1l-2 -2h-5l6 10q0 1 1 2q2 4 4 7t5 6l8 14l7 10l4 6l3 5l1 1l1 1q0 1 0.5 1t0.5 1q3 2 2 4q0 1 -3 1l-5 -2l-5 -3l-9 -6l-7 -6q0 3 -1 5q0 1 -3 3q-6 1 -10 0q-8 -2 -11 -4l-12 -6l-9 -8q-13 -9 -18 -19q-7 -8 -10 -18h-2l-8 -9q-3 -2 -5.5 -4t-5.5 -4q-1 -2 -6 -4
q-2 -2 -5 -2h-1q-1 1 0 2l3 4l3 5l6 7l10 13q2 3 4.5 6.5t4.5 7.5l4 8q2 5 1 8q0 3 -1 3q0 2 -3 2t-4 -1l-6 -2l-6 -4l-5 -4l-5 -4q-4 -4 -6 -4l-10 -11l-4.5 -4.5l-4.5 -4.5l-5 -6l-5 -5l1 2l12 17l13 18q0 1 0.5 1t0.5 1q1 1 1 2q1 1 1 3l-3 3q-1 0 -1.5 0.5t-1.5 0.5
t-2 -0.5t-3 -0.5l-5 -3l-2 -2q-2 -1 -2 -2t-1 -2l-2 -3l-38 -65q-1 -1 -1 -2v-1q1 0 1.5 -0.5t1.5 -0.5q2 0 4 1l4 2q0 1 2 3q1 0 1 0.5t1 0.5l2 3q0 2 2 2l8 11l10 10l8 10l11 10l14 14l5 4l5 4l6 2q1 0 1 -1h-1l-2 -2q-1 -3 -4 -4l-2 -3l-6 -7q-2 -2 -3 -3.5t-3 -3.5
l-7 -11l-7 -10l-3 -9q-2 -5 0 -8q1 -3 4 -3h9q2 1 4.5 2.5t6.5 3.5zM397 418q6 0 12 4q8 4 11 8q3 2 4.5 4t3.5 4l4 9q3 4 3 9v8q0 3 -2 7l-3 8l-3 3q0 2 -2 4q0 1 -1 2v5h-4l-2 -2l-6 -4l-2 -6l-1 -1l-2 -3l-16 -22l-2 -3l-3 -5h-1v-1q-1 0 -2 -1l-2 -4l-3 -4l-7 -9
l-11 -10l-6 -3q-2 -2 -6 -2v1l4 5l3 5l4 5l3 4l4 7l5 7l2 7q1 3 1 7q-1 1 -1 4l-1 2q0 2 -1 3v11l3 5q2 3 -2 6q-2 3 -8 0q-5 -1 -8 -4q-3 -1 -5 -6q-2 -2 -2 -5q0 -4 1 -6l2 -1l2 -2l-6 -6l-11 -15l-10 -11q-2 0 -2 -2v-1l-1 -1q0 -1 -1 -1l-5 -7q-4 -3 -7 -6t-7 -5
q-6 -6 -16 -11l-10 -4q-6 -2 -9 -1q-3 0 -3 2q-1 1 -1 3q0 1 2 5l1 4l5 8q2 -1 6 -1h9q5 1 13 6q3 1 5.5 3t6.5 4l7 8q2 2 3.5 4t1.5 4l4 6q0 6 -2 7q-2 4 -4 5h-9h-4.5t-4.5 -2l-10 -4q-13 -7 -22 -14q-9 -8 -14 -17q-2 -2 -3 -4.5t-3 -5.5q-3 -4 -4 -9v-8q1 -4 5 -6
q5 -5 11 -3q7 0 13 3q5 1 8.5 3t7.5 4t7.5 4.5t7.5 6.5l12 10l7 7q0 1 2 3q0 1 1 2l2 3l8 8l7 10q3 2 5 5t4 5l3 -1l2 -3q0 -1 1 -2v-1q0 -1 -1 -2t-2 -3l-8 -8l-7 -10l-6 -9l-2 -9q-1 -1 -1 -4v-3l2 -4h4q5 0 8 1l8 5q2 2 5 4t5 5q3 2 5 4l4 4l4 6l4 5l2 2l2 3l2 2l6 8
l10 15q0 -2 0.5 -3.5t0.5 -3.5q2 -6 2 -7l2 -4q-8 -2 -12 -6l-10 -7q-2 -2 -3.5 -4.5t-2.5 -4.5q-1 -3 -1 -8q0 -3 5 -5h9zM447 440q0 -4 2 -4l5 -4h5h6q4 1 7 2l6 2l13 7l11 10l9 8l7 10l5 8l3 9q2 5 0 7q0 3 -3 5q0 2 -5 4q-1 0 -3 0.5t-4 0.5q-3 0 -9 -2q-2 0 -3 -0.5
l-3 -1.5l-6 -2l-12 -8l-11 -9l-8 -9l-6 -9q-5 -8 -6 -13v-11zM125 8q-4 3 -8 13q-2 5 -2 16v8q0 2 1 3.5t1 3.5q1 6 7 12q2 3 5 5l6 4q7 3 16 3h3q2 0 4 -0.5t4 -0.5q4 0 7 -3q7 -4 10 -9q2 -2 4 -6q0 -1 0.5 -1.5t0.5 -1.5v-2h-16v1q0 1 -2 3q-1 2 -2 2.5t-3 2.5q-3 2 -9 2
h-7l-7 -6q-5 -3 -5 -7q-2 -4 -2 -14q0 -4 0.5 -7t1.5 -7q1 -5 6 -7q3 -2 5 -3t5 -1h2q6 0 9 2q2 0 3.5 1.5l2.5 2.5q2 3 3 5t1 5h-18v13h32v-41h-10l-2 10q-3 -4 -7 -7q-2 -2 -4.5 -2.5t-4.5 -1.5q-2 0 -4.5 -0.5t-4.5 -0.5q-6 0 -12 3q-7 3 -10 8zM213 -69q3 7 7 10
q4 4 12 4q3 0 9 -2l3.5 -3.5t2.5 -3.5l1 8h12v-49q0 -5 -2 -13q-3 -5 -8 -7q-6 -3 -16 -3q-2 0 -4.5 0.5t-4.5 0.5q-3 1 -9 5q-2 2 -2 4q-1 2 -1 5h13l3 -4q1 -1 6 -1q6 0 7 1q4 3 4 4t0.5 1.5t0.5 1.5v9q-6 -7 -14 -7q-3 0 -5.5 0.5t-5.5 1.5q-5 4 -8 10q-2 3 -3 6.5
t-1 8.5q0 3 1 6zM578 49q2 -2 3 -4.5t3 -5.5q2 -6 2 -12q0 -8 -4 -15q-1 -4 -9 -10q-5 -4 -15 -4t-17 4q-3 2 -5 5l-4 6q-3 6 -3 14q0 3 0.5 5.5t1.5 5.5q1 5 5 9q5 5 10 7q3 2 12 2q8 0 12 -2q2 -2 4 -2.5t4 -2.5zM357 -56h12v-8h2q1 0 2 1l4 4l4 3q1 1 4 1q5 0 8 -2
q4 -2 6 -4q4 -4 5 -10q3 -5 3 -11q0 -2 -0.5 -3t-0.5 -3t-1 -3t-2 -3q-2 -8 -6 -11q-5 -4 -12 -4q-5 0 -7 1l-4 3q-1 1 -3 1l-1 2v-25h-13v71zM799 -56h13v-8q4 9 15 9q4 0 8 -2q3 -2 6 -6q1 4 5 6t8 2q5 0 11 -2q4 -4 5 -7q2 -4 2 -9v-35h-13v31q0 11 -8 11q-9 0 -9 -11
v-31h-13v36q0 2 -2 4t-7 2q-8 0 -8 -11v-31h-13v52zM739 -72q2 6 5 9q3 4 8 6q6 2 12 2q5 0 11 -2l4 -2t4 -3t2.5 -4.5t2.5 -4.5q1 -3 1 -11t-3 -14q-2 -7 -8 -10t-14 -3q-10 0 -15 4q-6 3 -9 10q-2 8 -2 13q0 6 1 10zM124 345l5 5l4 5l5 5q2 4 4 6l31 42l9 15l10 15
q3 4 5.5 7.5t4.5 7.5l8 16q1 2 0 3t-2 1q-4 0 -5 -1l-4 -2l-16 -20q-3 -3 -7 -9l-8 -10l-27 -39l-13 -20l-11 -21l-2 -3v-5h5zM744 -1q-3 0 -4.5 -0.5t-3.5 -0.5t-4 0.5t-4 0.5q-2 2 -3.5 3t-3.5 3q-2 4 -2 10q0 8 4 12q8 4 12 5l13 2q5 0 5 4q0 7 -9 7q-4 0 -6 -2
q-3 -1 -4 -7h-13q0 7 3 12q2 3 8 6q2 2 6 2h6q12 0 16 -2l3.5 -3.5t2.5 -3.5t1 -7v-35q0 -3 4 -3v-3h-16q-1 0 -1 1v1v1q0 2 -0.5 2.5t-0.5 1.5l-4 -4q-1 -1 -1.5 -1t-1.5 -1t-2 -1zM245 22h-38q0 -3 4 -9q3 -3 9 -3q2 0 3.5 0.5t2.5 0.5q4 4 4 5h15l-5 -10l-8 -6l-6 -1.5
t-6 -0.5q-27 0 -27 30q0 10 3 14q2 7 8 10q4 3 7.5 3.5t8.5 0.5q11 0 14 -4q6 -3 9 -11q2 -5 2 -15v-4zM494 317q3 4 3 12q0 5 -2 8q-2 6 -5 8q-2 3 -9 5q-6 3 -11 3q-10 0 -14 -4q-4 -1 -6 -3.5t-4 -4.5q-4 -5 -4 -12t2 -10q2 -2 3 -3.5t3 -3.5q3 -3 9 -5q3 -1 5.5 -1.5
t5.5 -0.5q8 0 13 3q4 2 6.5 4.5zM135 442q-2 -5 0 -8q1 -2 2 -3l3 -3l9 -3q7 0 11 1q2 0 2 1q1 1 1 2t-1 1h-2q-2 0 -2 -1q-7 -1 -14 1q-4 2 -5 4q0 2 -0.5 2.5t-0.5 2.5q0 3 1 6l3 7l8 9q2 2 5 4l6 4t5.5 3.5t6.5 3.5l12 6q4 0 7 1t7 3l14 2q8 2 13 2q3 0 11 -2q5 0 7 -3
l5 -6v-8q0 -6 -1 -10l-5 -9q-2 -3 -3.5 -5.5t-3.5 -4.5q-2 -3 -4.5 -5t-5.5 -5q-2 -3 -10 -9l-11 -7l-12 -5l-7 -3q-1 0 -2.5 -0.5t-3.5 -0.5h-2q-2 0 -3 -1q-1 0 -1 -1q-2 0 -2 -2q0 -1 1 -1h2q2 0 3 1h2l13 4l13 6l13 5l13 8l11 8l10 9l8 10q2 2 3.5 4.5t2.5 5.5q2 6 2 9
q1 5 0 9l-3 7l-7 5q-3 1 -5 1.5t-5 0.5q-4 1 -11 1q-4 0 -12 -2q-7 0 -13.5 -2t-14.5 -4q-14 -4 -26 -11q-3 -2 -6.5 -3.5t-6.5 -3.5l-6 -4t-5 -5l-4.5 -4.5l-4.5 -4.5zM502 -83q5 5 10 5l12 2q4 0 4 3q0 8 -7 8q-5 0 -6 -3q-3 -2 -3 -5h-13q0 7 3 10q3 5 7 6q2 1 5 1
q2 1 7 1t8 -0.5t6 -1.5q4 -3 6 -6q1 -2 1 -7v-27q0 -5 1 -6q0 -1 2 -3v-2h-15v1q0 1 -0.5 1t-0.5 1v3q-2 -1 -2.5 -2t-1.5 -2q-2 -1 -3 -1t-2 -1q-2 -1 -7 -1q-4 0 -7 1l-7 5q-2 4 -2 9q0 8 5 11zM38 -83q5 5 10 5l13 2q5 0 5 3q0 8 -8 8q-5 0 -6 -3q-4 -1 -4 -5h-12
q0 7 3 10q1 4 6 6q2 1 7 1q2 1 6 1q7 0 13 -2q4 -3 6 -6q1 -2 1 -7v-27q0 -5 1 -6q0 -1 2 -3v-2h-14v3q-1 1 -1 3l-4 -4q-2 -1 -3 -1t-2 -1q-2 -1 -6 -1q-6 0 -9 1q-3 2 -5 5q-3 3 -3 9q0 8 4 11zM414 -69q3 7 8 10q5 4 13 4q11 0 15 -4q5 -3 8 -11q2 -8 2 -13v-3h-35
q0 -6 3 -9t8 -3q3 0 7 2l3 4h13q-2 -8 -4 -10t-4 -3l-4 -2q-6 -2 -11 -2q-24 0 -24 28q0 8 2 12zM606 -69q3 7 8 10q5 4 14 4q10 0 14 -4q5 -3 7 -11q3 -6 3 -13v-3h-35q0 -6 3 -9t8 -3q3 0 7 2l3 4h13q-2 -8 -5 -10q-4 -4 -7 -5q-6 -2 -11 -2q-24 0 -24 28q0 4 2 12z
M644 48q2 -6 2 -10v-39h-14v34q0 4 -2 8q-3 3 -8 3q-6 0 -9 -4q-2 -2 -2 -9v-32h-15v56h14v-8q6 9 17 9q7 0 10 -2zM389 7q-3 -4 -7 -6q-6 -3 -10 -3q-10 0 -14 6q-5 4 -5 14v37h14v-34q0 -10 10 -10h5l5 5q0 1 1 2.5t1 3.5v33h13v-56h-13v8zM299 -60l-1 4h16l10 -38l10 38
h15l-17 -50l-1 -1l-4 -11l-3 -6q-3 -3 -5 -3t-3.5 -0.5t-3.5 -0.5h-7v11h8q1 0 3 2v2q1 1 1 3zM155 -56h12v-8q6 9 16 9q4 0 10 -2q3 -2 6 -6q2 -4 2 -10v-35h-14v31q0 6 -1 7q-2 4 -8 4q-4 0 -8 -4q-2 -6 -2 -8v-30h-13v52zM689 -63q6 8 19 8q5 0 11 -2q3 -1 9 -7
q4 -5 4 -11h-14l-3 6q-3 3 -6 3q-5 0 -8 -5q-3 -3 -3 -10q0 -3 0.5 -5t0.5 -4q2 -4 4 -5q1 -2 5 -2q5 0 6 2q3 1 3 6h15q-2 -6 -4 -11q-2 -2 -4 -3.5t-4 -2.5q-5 -3 -12 -3q-10 0 -17 6q-3 1 -5 8q-2 6 -2 12q0 8 5 20zM556 -63q6 8 19 8q5 0 11 -2q4 -1 8 -7q2 -3 3.5 -5.5
t1.5 -5.5h-15q0 2 -2 6q-3 3 -6 3q-5 0 -8 -5q-4 -3 -4 -10q0 -3 0.5 -5t0.5 -4l4 -5q2 -2 6 -2t6 2q3 1 3 6h13q0 -5 -3 -11l-3.5 -3.5t-3.5 -2.5q-6 -3 -12 -3q-11 0 -17 6q-3 1 -5 8q-2 6 -2 12q0 8 5 20zM337 63q-2 0 -2 -2v-6h9v-10h-9v-46h-15v46h-7v10h7v4
q0 16 17 16h7v-12h-7zM515 55h10v-10h-10v-46h-15v46h-7v10h7v4q0 16 17 16h6v-12h-6q-1 0 -2 -2v-6zM806 -1h-9q-7 0 -10 2q-3 0 -4 4q0 1 -1 2.5t-1 3.5v34h-7v10h7v14h16v-14h9v-10h-9v-34q1 0 2 -0.5t3 -0.5l2 1h2v-12zM272 69v-14h8v-10h-8v-30q0 -4 1 -4q0 -1 1 -1h4
l1 1h1v-12h-8q-7 0 -10 2q-3 0 -4 4q-1 1 -1 6v34h-8v10h8v14h15zM461 436q-2 0 -2 1v6q2 7 5 10l7 11l5 6l12 15l4.5 4.5l4.5 4.5l4 4l5 2q2 1 5 1l2 -1q1 -1 1 -4q0 -1 -2 -5l-2 -4l-3 -5l-3 -5l-10 -15l-8 -9l-10 -10q0 -1 -5 -3q-1 -2 -6 -4h-4zM623 478l4 5l3 6l4 5
l9 12l13 16l3 4l8 6q1 1 4 1q2 1 4 1l3 -2q0 -1 0.5 -1.5t0.5 -1.5q0 -2 -1 -4q0 -1 -2 -3l-8 -11l-6 -11l-8 -7l-8 -9l-5 -4l-6 -5l-5 -4q-2 0 -2.5 -1t-2.5 -1q-4 -2 -5 -1h-1q-1 1 -1 2l1 1q0 1 1 2zM685 -1h-10q-7 0 -8 2q-4 0 -5 4v40h-9v10h9v14h13v-14h10v-10h-10
v-30v-3q0 -1 1 -1q2 0 2.5 -0.5t2.5 -0.5l2 1h2v-12zM482 345q0 -2 1 -3.5t2 -4.5q0 -1 0.5 -3.5t0.5 -4.5q0 -6 -2 -12q-2 -2 -3 -4.5t-3 -4.5q-2 -1 -8 -1q-5 0 -6 1q-4 0 -6 5l-3 6q-2 6 -2 10q0 2 0.5 4t0.5 4l3 6l3 5q1 1 2 1t3 1q2 2 6 2q0 -1 1 -1h2l3 -2zM471 -66
h-8v10h8v4q0 14 15 14h6v-11h-6l-1 -1l-1 -4v-2h9v-10h-9v-42h-13v42zM273 -66h-7v10h7v13h14v-13h8v-10h-8v-27q0 -3 1 -4q0 -1 1 -1h3l2 1h1v-11h-8q-6 0 -8 1q-5 2 -5 4q-1 1 -1 6v31zM430 -1h-14v76h14v-76zM455 -1h-14v76h14v-76zM412 352h-50v-2h2q4 0 5 -2q3 0 3 -5
v-28q0 -8 -8 -8h-2v-1h50v19l-3 -6l-5 -7q-3 -3 -4 -3l-5 -1q-2 -1 -6 -1h-7v20h1q4 0 9 -3l2 -3q0 -1 0.5 -1.5t0.5 -1.5v-4h1v29h-1v-4l-2 -5q-5 -5 -9 -5h-2v21h8q8 0 11 -1l4 -3l2 -5l3 -7h2v18zM91 -56h12v-9h1l3 5q1 1 1.5 2t2.5 2q1 1 7 1h3v-14h-4q-13 0 -13 -12
v-27h-13v52zM567 352h-23v-2h4q0 -1 2 -1q3 -2 3 -4q2 -2 2 -7v-19l-32 33h-18v-2q4 0 5 -1q1 0 1.5 -0.5t1.5 -0.5q1 -2 1 -5v-26q0 -3 -1 -5l-3 -4q-2 0 -3.5 -0.5t-2.5 -0.5v-1h24v1q-3 0 -5 1h-4l-2 5q-1 1 -1 6v27l39 -40h2v32q0 4 0.5 6t1.5 4q2 2 8 2v2zM354 327
q-1 2 -6 4l-8 3h-5l-1 1q-2 1 -4 1t-3 1q-3 0 -4 1q-1 0 -3 2q-1 0 -1 2v1v4l2 2l4 2q1 0 2 0.5t3 0.5q3 0 7 -2q4 0 6 -2q4 -2 5 -4q2 -1 2.5 -3.5t2.5 -4.5h1v15h-1q-1 -3 -4 -3h-4q-8 5 -15 5q-4 0 -10 -2l-6 -4q-1 -2 -1.5 -3.5t-0.5 -4.5q0 -1 2 -5q0 -3 3 -3l6 -3
q1 -1 10 -3l4 -1q4 -2 6 -2t4 -2q1 0 1 -1q3 -2 3 -5l-2 -4q-1 -2 -4 -3h-5q-5 0 -8 1l-8 3l-5 5q-5 5 -5 10h-1v-21h1q0 3 2 3q2 2 4 2q1 0 1 -0.5t2 -0.5q1 0 1.5 -0.5t1.5 -0.5l7 -2q2 -1 7 -1q2 0 8 2q1 0 6 3q1 1 1 2t2 2v10zM568 16q3 3 3 11q0 7 -3 12t-10 5
q-8 0 -11 -5q-1 -2 -2 -5t-1 -7t1 -6.5t2 -4.5q2 -5 11 -5q8 0 10 5zM128 -56h14v-52h-14v52zM674 348q0 1 2 1q1 0 1.5 0.5t1.5 0.5h1v2h-23v-2h3q4 0 5 -1q2 -1 2 -3t-3 -5l-9 -13l-12 15l-2 4v1q0 1 1 1q0 1 3 1h4v2h-30v-2h1q5 0 7 -1l2 -2t2 -3l14 -19v-10q0 -5 -1 -6
q-4 -2 -7 -2h-3v-1h33v1h-4q-4 0 -6 2t-2 6v11l12 17l2 3q4 2 5 2zM622 326h-1q-2 -2 -2 -3t-1 -3q-2 -2 -2 -4l-2 -3q-4 -4 -6 -5q-1 0 -3 -0.5t-4 -0.5h-12v36q0 5 3 5q1 2 6 2h3v2h-31v-2h2q8 0 8 -7v-28q0 -8 -8 -8h-2v-1h52v20zM773 -71q-2 5 -9 5q-8 0 -10 -5
q-3 -5 -3 -11q0 -7 3 -11q1 -2 4 -3t6 -1q8 0 9 4q3 4 3 11q0 6 -3 11zM289 425q-3 -1 -6 -1q-5 0 -6 1l7 11l9 10l3 4l5 4l5 5l6 2q4 1 7 0v-5l-3 -4q-3 -3 -3 -5q-2 -2 -2.5 -3t-2.5 -2q0 -1 -4 -5q-1 -1 -1.5 -2t-2.5 -2l-5 -4zM373 -93q3 -4 8 -4q6 0 9 4q2 6 2 11
t-2 11q-2 2 -4 3.5t-5 1.5q-12 0 -12 -17q0 -7 4 -10zM292 310q4 3 4 9q-2 -5 -5 -8l-6 -4h-7q-6 0 -9 1q-1 0 -5 4q-2 2 -2 7v24q0 5 2 5q2 2 7 2h3v2h-31v-2q10 0 10 -7v-24q0 -4 5 -11l8 -2q2 -1 9 -1q6 0 12 2q4 2 5 3zM226 -89q0 -2 3 -5q4 -2 6 -2q12 0 12 14
q0 7 -4 11q-2 2 -4 3.5t-4 1.5q-4 0 -7 -5q-3 -3 -3 -11q0 -4 1 -7zM412 451q0 -2 0.5 -3t0.5 -2q-1 -2 -1 -4v-6l-2 -4l-4 -5l-4 -3q-1 0 -1.5 -0.5t-2.5 -0.5q-1 -1 -4 -1q-2 -2 -4 0q-1 0 -3 2v4l2 5l3 4q4 5 9 9zM733 15q0 -4 2 -4q2 -2 5 -2h4l2 1q5 2 5 3q2 4 2 7v7
q-3 -3 -6 -3l-7 -2q-3 0 -5 -2q-2 -1 -2 -5zM660 -93h15v-15h-15v15zM61 -85l-6 -1q-2 0 -6 -2q-2 -2 -2 -5q0 -2 2 -4q2 -1 3 -2t2 -1q2 0 3 2h2l5 3q2 4 2 6v6q-1 0 -5 -2zM231 33q-2 6 -4 8q-4 4 -7 4q-11 0 -11 -12h22zM524 -85l-7 -1q-2 0 -4 -2t-2 -5q0 -2 2 -4
q3 -3 4 -3q2 0 3 2h2l5 3q1 2 1 6v6zM638 -77q0 5 -3 8q-2 1 -3.5 2t-4.5 1q-8 0 -10 -11h21zM446 -77q0 5 -3 8q-2 1 -3.5 2t-4.5 1q-8 0 -10 -11h21zM128 -38h14v-12h-14v12zM769 575q-2 -4 -4 -5l14 18l6 11l13 17l1 1q0 2 2 2q0 1 1 1q0 -4 -1 -5l-4 -5l-3 -5l-3 -4
l-8 -10l-9 -10zM306 352h-23v-2h5q1 0 2 -1q6 -2 6 -11v7l5 4l1 1h4v2z" />
    <glyph glyph-name="four" unicode="4" horiz-adv-x="902" 
d="M61 517l131 29l-5 18l20 6l-4 19l20 4l-3 22l20 1v20h18l2 18l19 -3l4 20l21 -3l5 19l19 -5l8 18l19 -8l11 19l17 -9l11 17l18 -12l12 16l17 -13l13 14l13 -12l13 11l13 -14l17 11l11 -18l19 10l9 -17l18 8l8 -20l21 6l6 -19l19 5l4 -21l21 2l1 -13l197 43v-242l-90 -20
l2 -1l-12 -13l12 -14l-16 -13l11 -17l-18 -11l11 -18l-17 -10l7 -18l-19 -8l6 -21l-18 -6l3 -19l-20 -4l1 -21l-19 -2v-19h-17l-3 -18l-19 1l-4 -18l-21 3l-5 -20l-19 6l-7 -19l-21 8l-9 -19l-18 10l-11 -17l-18 11l-12 -16l-15 13l-15 -13l-13 12l-13 -12l-12 15l-17 -11
l-12 18l-18 -10l-9 17l-19 -8l-9 20l-19 -6l-6 18l-20 -4l-4 21l-21 -2l-2 20h-20v17l-17 2l2 20l-20 3l4 21l-20 6l6 18l-14 6l-120 -26v241zM595 466l11 11q-1 -1 -1 -3q0 -3 2 -7q1 -2 5 -4q3 -1 10 1q6 1 12 6l10 7l3.5 3.5l3.5 3.5l6 6v-2q0 -1 -0.5 -1.5t-0.5 -1.5v-3
q-2 -3 0 -5q0 -1 0.5 -1.5t0.5 -1.5q0 -3 3 -3h8l3 2l4 3l6 3l16 13l8 8l-2 -6q-2 -3 -2 -9v-3q1 0 2 -1q0 -1 3 -1q2 0 4 2q4 0 6 3l5 3l6 6q1 0 5 4l4.5 4.5l4.5 4.5l9 10v2q0 1 -1 1q-2 0 -4 -2l-1 -2l-6 -7l-5 -6q-5 -3 -6 -6l-7 -6l-4 -3l-4 -1l-1 -1q-1 0 -2 1h1l4 7
q2 4 4 6l3 6q2 1 4 5l31 45q5 5 6 8l8 8l18 21q5 5 8.5 10t7.5 10l5 9v4q-1 1 -4 1q-1 0 -5 -2q-2 0 -3 -1t-3 -2q-2 0 -5 -3l-4 -3l-11 -9l-8 -9q-3 -3 -5 -5.5t-4 -5.5q-1 -2 -3 -4.5t-4 -5.5l-13 -20l-13 -22l-9 -16l-4 -8h-1l-7 -7q-2 -3 -4 -5l-5 -5l-9 -8l-5 -4l-3 -2
l-2 -1l-2 -2h-5l6 10q0 1 1 2q2 4 4 7t5 6l8 14l7 10l4 6l3 5l1 1l1 1q0 1 0.5 1t0.5 1q3 2 2 4q0 1 -3 1l-5 -2l-5 -3l-9 -6l-7 -6q0 3 -1 5q0 1 -3 3q-6 1 -10 0q-8 -2 -11 -4l-12 -6l-9 -8q-13 -9 -18 -19q-7 -8 -10 -18h-2l-8 -9q-3 -2 -5.5 -4t-5.5 -4q-1 -2 -6 -4
q-2 -2 -5 -2h-1q-1 1 0 2l3 4l3 5l6 7l10 13q2 3 4.5 6.5t4.5 7.5l4 8q2 5 1 8q0 3 -1 3q0 2 -3 2t-4 -1l-6 -2l-6 -4l-5 -4l-5 -4q-4 -4 -6 -4l-10 -11l-4.5 -4.5l-4.5 -4.5l-5 -6l-5 -5l1 2l12 17l13 18q0 1 0.5 1t0.5 1q1 1 1 2q1 1 1 3l-3 3q-1 0 -1.5 0.5t-1.5 0.5
t-2 -0.5t-3 -0.5l-5 -3l-2 -2q-2 -1 -2 -2t-1 -2l-2 -3l-38 -65q-1 -1 -1 -2v-1q1 0 1.5 -0.5t1.5 -0.5q2 0 4 1l4 2q0 1 2 3q1 0 1 0.5t1 0.5l2 3q0 2 2 2l8 11l10 10l8 10l11 10l14 14l5 4l5 4l6 2q1 0 1 -1h-1l-2 -2q-1 -3 -4 -4l-2 -3l-6 -7q-2 -2 -3 -3.5t-3 -3.5
l-7 -11l-7 -10l-3 -9q-2 -5 0 -8q1 -3 4 -3h9q2 1 4.5 2.5t6.5 3.5zM397 418q6 0 12 4q8 4 11 8q3 2 4.5 4t3.5 4l4 9q3 4 3 9v8q0 3 -2 7l-3 8l-3 3q0 2 -2 4q0 1 -1 2v5h-4l-2 -2l-6 -4l-2 -6l-1 -1l-2 -3l-16 -22l-2 -3l-3 -5h-1v-1q-1 0 -2 -1l-2 -4l-3 -4l-7 -9
l-11 -10l-6 -3q-2 -2 -6 -2v1l4 5l3 5l4 5l3 4l4 7l5 7l2 7q1 3 1 7q-1 1 -1 4l-1 2q0 2 -1 3v11l3 5q2 3 -2 6q-2 3 -8 0q-5 -1 -8 -4q-3 -1 -5 -6q-2 -2 -2 -5q0 -4 1 -6l2 -1l2 -2l-6 -6l-11 -15l-10 -11q-2 0 -2 -2v-1l-1 -1q0 -1 -1 -1l-5 -7q-4 -3 -7 -6t-7 -5
q-6 -6 -16 -11l-10 -4q-6 -2 -9 -1q-3 0 -3 2q-1 1 -1 3q0 1 2 5l1 4l5 8q2 -1 6 -1h9q5 1 13 6q3 1 5.5 3t6.5 4l7 8q2 2 3.5 4t1.5 4l4 6q0 6 -2 7q-2 4 -4 5h-9h-4.5t-4.5 -2l-10 -4q-13 -7 -22 -14q-9 -8 -14 -17q-2 -2 -3 -4.5t-3 -5.5q-3 -4 -4 -9v-8q1 -4 5 -6
q5 -5 11 -3q7 0 13 3q5 1 8.5 3t7.5 4t7.5 4.5t7.5 6.5l12 10l7 7q0 1 2 3q0 1 1 2l2 3l8 8l7 10q3 2 5 5t4 5l3 -1l2 -3q0 -1 1 -2v-1q0 -1 -1 -2t-2 -3l-8 -8l-7 -10l-6 -9l-2 -9q-1 -1 -1 -4v-3l2 -4h4q5 0 8 1l8 5q2 2 5 4t5 5q3 2 5 4l4 4l4 6l4 5l2 2l2 3l2 2l6 8
l10 15q0 -2 0.5 -3.5t0.5 -3.5q2 -6 2 -7l2 -4q-8 -2 -12 -6l-10 -7q-2 -2 -3.5 -4.5t-2.5 -4.5q-1 -3 -1 -8q0 -3 5 -5h9zM447 440q0 -4 2 -4l5 -4h5h6q4 1 7 2l6 2l13 7l11 10l9 8l7 10l5 8l3 9q2 5 0 7q0 3 -3 5q0 2 -5 4q-1 0 -3 0.5t-4 0.5q-3 0 -9 -2q-2 0 -3 -0.5
l-3 -1.5l-6 -2l-12 -8l-11 -9l-8 -9l-6 -9q-5 -8 -6 -13v-11zM125 8q-4 3 -8 13q-2 5 -2 16v8q0 2 1 3.5t1 3.5q1 6 7 12q2 3 5 5l6 4q7 3 16 3h3q2 0 4 -0.5t4 -0.5q4 0 7 -3q7 -4 10 -9q2 -2 4 -6q0 -1 0.5 -1.5t0.5 -1.5v-2h-16v1q0 1 -2 3q-1 2 -2 2.5t-3 2.5q-3 2 -9 2
h-7l-7 -6q-5 -3 -5 -7q-2 -4 -2 -14q0 -4 0.5 -7t1.5 -7q1 -5 6 -7q3 -2 5 -3t5 -1h2q6 0 9 2q2 0 3.5 1.5l2.5 2.5q2 3 3 5t1 5h-18v13h32v-41h-10l-2 10q-3 -4 -7 -7q-2 -2 -4.5 -2.5t-4.5 -1.5q-2 0 -4.5 -0.5t-4.5 -0.5q-6 0 -12 3q-7 3 -10 8zM213 -69q3 7 7 10
q4 4 12 4q3 0 9 -2l3.5 -3.5t2.5 -3.5l1 8h12v-49q0 -5 -2 -13q-3 -5 -8 -7q-6 -3 -16 -3q-2 0 -4.5 0.5t-4.5 0.5q-3 1 -9 5q-2 2 -2 4q-1 2 -1 5h13l3 -4q1 -1 6 -1q6 0 7 1q4 3 4 4t0.5 1.5t0.5 1.5v9q-6 -7 -14 -7q-3 0 -5.5 0.5t-5.5 1.5q-5 4 -8 10q-2 3 -3 6.5
t-1 8.5q0 3 1 6zM578 49q2 -2 3 -4.5t3 -5.5q2 -6 2 -12q0 -8 -4 -15q-1 -4 -9 -10q-5 -4 -15 -4t-17 4q-3 2 -5 5l-4 6q-3 6 -3 14q0 3 0.5 5.5t1.5 5.5q1 5 5 9q5 5 10 7q3 2 12 2q8 0 12 -2q2 -2 4 -2.5t4 -2.5zM357 -56h12v-8h2q1 0 2 1l4 4l4 3q1 1 4 1q5 0 8 -2
q4 -2 6 -4q4 -4 5 -10q3 -5 3 -11q0 -2 -0.5 -3t-0.5 -3t-1 -3t-2 -3q-2 -8 -6 -11q-5 -4 -12 -4q-5 0 -7 1l-4 3q-1 1 -3 1l-1 2v-25h-13v71zM799 -56h13v-8q4 9 15 9q4 0 8 -2q3 -2 6 -6q1 4 5 6t8 2q5 0 11 -2q4 -4 5 -7q2 -4 2 -9v-35h-13v31q0 11 -8 11q-9 0 -9 -11
v-31h-13v36q0 2 -2 4t-7 2q-8 0 -8 -11v-31h-13v52zM739 -72q2 6 5 9q3 4 8 6q6 2 12 2q5 0 11 -2l4 -2t4 -3t2.5 -4.5t2.5 -4.5q1 -3 1 -11t-3 -14q-2 -7 -8 -10t-14 -3q-10 0 -15 4q-6 3 -9 10q-2 8 -2 13q0 6 1 10zM124 345l5 5l4 5l5 5q2 4 4 6l31 42l9 15l10 15
q3 4 5.5 7.5t4.5 7.5l8 16q1 2 0 3t-2 1q-4 0 -5 -1l-4 -2l-16 -20q-3 -3 -7 -9l-8 -10l-27 -39l-13 -20l-11 -21l-2 -3v-5h5zM744 -1q-3 0 -4.5 -0.5t-3.5 -0.5t-4 0.5t-4 0.5q-2 2 -3.5 3t-3.5 3q-2 4 -2 10q0 8 4 12q8 4 12 5l13 2q5 0 5 4q0 7 -9 7q-4 0 -6 -2
q-3 -1 -4 -7h-13q0 7 3 12q2 3 8 6q2 2 6 2h6q12 0 16 -2l3.5 -3.5t2.5 -3.5t1 -7v-35q0 -3 4 -3v-3h-16q-1 0 -1 1v1v1q0 2 -0.5 2.5t-0.5 1.5l-4 -4q-1 -1 -1.5 -1t-1.5 -1t-2 -1zM245 22h-38q0 -3 4 -9q3 -3 9 -3q2 0 3.5 0.5t2.5 0.5q4 4 4 5h15l-5 -10l-8 -6l-6 -1.5
t-6 -0.5q-27 0 -27 30q0 10 3 14q2 7 8 10q4 3 7.5 3.5t8.5 0.5q11 0 14 -4q6 -3 9 -11q2 -5 2 -15v-4zM494 317q3 4 3 12q0 5 -2 8q-2 6 -5 8q-2 3 -9 5q-6 3 -11 3q-10 0 -14 -4q-4 -1 -6 -3.5t-4 -4.5q-4 -5 -4 -12t2 -10q2 -2 3 -3.5t3 -3.5q3 -3 9 -5q3 -1 5.5 -1.5
t5.5 -0.5q8 0 13 3q4 2 6.5 4.5zM135 442q-2 -5 0 -8q1 -2 2 -3l3 -3l9 -3q7 0 11 1q2 0 2 1q1 1 1 2t-1 1h-2q-2 0 -2 -1q-7 -1 -14 1q-4 2 -5 4q0 2 -0.5 2.5t-0.5 2.5q0 3 1 6l3 7l8 9q2 2 5 4l6 4t5.5 3.5t6.5 3.5l12 6q4 0 7 1t7 3l14 2q8 2 13 2q3 0 11 -2q5 0 7 -3
l5 -6v-8q0 -6 -1 -10l-5 -9q-2 -3 -3.5 -5.5t-3.5 -4.5q-2 -3 -4.5 -5t-5.5 -5q-2 -3 -10 -9l-11 -7l-12 -5l-7 -3q-1 0 -2.5 -0.5t-3.5 -0.5h-2q-2 0 -3 -1q-1 0 -1 -1q-2 0 -2 -2q0 -1 1 -1h2q2 0 3 1h2l13 4l13 6l13 5l13 8l11 8l10 9l8 10q2 2 3.5 4.5t2.5 5.5q2 6 2 9
q1 5 0 9l-3 7l-7 5q-3 1 -5 1.5t-5 0.5q-4 1 -11 1q-4 0 -12 -2q-7 0 -13.5 -2t-14.5 -4q-14 -4 -26 -11q-3 -2 -6.5 -3.5t-6.5 -3.5l-6 -4t-5 -5l-4.5 -4.5l-4.5 -4.5zM502 -83q5 5 10 5l12 2q4 0 4 3q0 8 -7 8q-5 0 -6 -3q-3 -2 -3 -5h-13q0 7 3 10q3 5 7 6q2 1 5 1
q2 1 7 1t8 -0.5t6 -1.5q4 -3 6 -6q1 -2 1 -7v-27q0 -5 1 -6q0 -1 2 -3v-2h-15v1q0 1 -0.5 1t-0.5 1v3q-2 -1 -2.5 -2t-1.5 -2q-2 -1 -3 -1t-2 -1q-2 -1 -7 -1q-4 0 -7 1l-7 5q-2 4 -2 9q0 8 5 11zM38 -83q5 5 10 5l13 2q5 0 5 3q0 8 -8 8q-5 0 -6 -3q-4 -1 -4 -5h-12
q0 7 3 10q1 4 6 6q2 1 7 1q2 1 6 1q7 0 13 -2q4 -3 6 -6q1 -2 1 -7v-27q0 -5 1 -6q0 -1 2 -3v-2h-14v3q-1 1 -1 3l-4 -4q-2 -1 -3 -1t-2 -1q-2 -1 -6 -1q-6 0 -9 1q-3 2 -5 5q-3 3 -3 9q0 8 4 11zM414 -69q3 7 8 10q5 4 13 4q11 0 15 -4q5 -3 8 -11q2 -8 2 -13v-3h-35
q0 -6 3 -9t8 -3q3 0 7 2l3 4h13q-2 -8 -4 -10t-4 -3l-4 -2q-6 -2 -11 -2q-24 0 -24 28q0 8 2 12zM606 -69q3 7 8 10q5 4 14 4q10 0 14 -4q5 -3 7 -11q3 -6 3 -13v-3h-35q0 -6 3 -9t8 -3q3 0 7 2l3 4h13q-2 -8 -5 -10q-4 -4 -7 -5q-6 -2 -11 -2q-24 0 -24 28q0 4 2 12z
M644 48q2 -6 2 -10v-39h-14v34q0 4 -2 8q-3 3 -8 3q-6 0 -9 -4q-2 -2 -2 -9v-32h-15v56h14v-8q6 9 17 9q7 0 10 -2zM389 7q-3 -4 -7 -6q-6 -3 -10 -3q-10 0 -14 6q-5 4 -5 14v37h14v-34q0 -10 10 -10h5l5 5q0 1 1 2.5t1 3.5v33h13v-56h-13v8zM299 -60l-1 4h16l10 -38l10 38
h15l-17 -50l-1 -1l-4 -11l-3 -6q-3 -3 -5 -3t-3.5 -0.5t-3.5 -0.5h-7v11h8q1 0 3 2v2q1 1 1 3zM155 -56h12v-8q6 9 16 9q4 0 10 -2q3 -2 6 -6q2 -4 2 -10v-35h-14v31q0 6 -1 7q-2 4 -8 4q-4 0 -8 -4q-2 -6 -2 -8v-30h-13v52zM689 -63q6 8 19 8q5 0 11 -2q3 -1 9 -7
q4 -5 4 -11h-14l-3 6q-3 3 -6 3q-5 0 -8 -5q-3 -3 -3 -10q0 -3 0.5 -5t0.5 -4q2 -4 4 -5q1 -2 5 -2q5 0 6 2q3 1 3 6h15q-2 -6 -4 -11q-2 -2 -4 -3.5t-4 -2.5q-5 -3 -12 -3q-10 0 -17 6q-3 1 -5 8q-2 6 -2 12q0 8 5 20zM556 -63q6 8 19 8q5 0 11 -2q4 -1 8 -7q2 -3 3.5 -5.5
t1.5 -5.5h-15q0 2 -2 6q-3 3 -6 3q-5 0 -8 -5q-4 -3 -4 -10q0 -3 0.5 -5t0.5 -4l4 -5q2 -2 6 -2t6 2q3 1 3 6h13q0 -5 -3 -11l-3.5 -3.5t-3.5 -2.5q-6 -3 -12 -3q-11 0 -17 6q-3 1 -5 8q-2 6 -2 12q0 8 5 20zM337 63q-2 0 -2 -2v-6h9v-10h-9v-46h-15v46h-7v10h7v4
q0 16 17 16h7v-12h-7zM515 55h10v-10h-10v-46h-15v46h-7v10h7v4q0 16 17 16h6v-12h-6q-1 0 -2 -2v-6zM806 -1h-9q-7 0 -10 2q-3 0 -4 4q0 1 -1 2.5t-1 3.5v34h-7v10h7v14h16v-14h9v-10h-9v-34q1 0 2 -0.5t3 -0.5l2 1h2v-12zM272 69v-14h8v-10h-8v-30q0 -4 1 -4q0 -1 1 -1h4
l1 1h1v-12h-8q-7 0 -10 2q-3 0 -4 4q-1 1 -1 6v34h-8v10h8v14h15zM461 436q-2 0 -2 1v6q2 7 5 10l7 11l5 6l12 15l4.5 4.5l4.5 4.5l4 4l5 2q2 1 5 1l2 -1q1 -1 1 -4q0 -1 -2 -5l-2 -4l-3 -5l-3 -5l-10 -15l-8 -9l-10 -10q0 -1 -5 -3q-1 -2 -6 -4h-4zM623 478l4 5l3 6l4 5
l9 12l13 16l3 4l8 6q1 1 4 1q2 1 4 1l3 -2q0 -1 0.5 -1.5t0.5 -1.5q0 -2 -1 -4q0 -1 -2 -3l-8 -11l-6 -11l-8 -7l-8 -9l-5 -4l-6 -5l-5 -4q-2 0 -2.5 -1t-2.5 -1q-4 -2 -5 -1h-1q-1 1 -1 2l1 1q0 1 1 2zM685 -1h-10q-7 0 -8 2q-4 0 -5 4v40h-9v10h9v14h13v-14h10v-10h-10
v-30v-3q0 -1 1 -1q2 0 2.5 -0.5t2.5 -0.5l2 1h2v-12zM482 345q0 -2 1 -3.5t2 -4.5q0 -1 0.5 -3.5t0.5 -4.5q0 -6 -2 -12q-2 -2 -3 -4.5t-3 -4.5q-2 -1 -8 -1q-5 0 -6 1q-4 0 -6 5l-3 6q-2 6 -2 10q0 2 0.5 4t0.5 4l3 6l3 5q1 1 2 1t3 1q2 2 6 2q0 -1 1 -1h2l3 -2zM471 -66
h-8v10h8v4q0 14 15 14h6v-11h-6l-1 -1l-1 -4v-2h9v-10h-9v-42h-13v42zM273 -66h-7v10h7v13h14v-13h8v-10h-8v-27q0 -3 1 -4q0 -1 1 -1h3l2 1h1v-11h-8q-6 0 -8 1q-5 2 -5 4q-1 1 -1 6v31zM430 -1h-14v76h14v-76zM455 -1h-14v76h14v-76zM412 352h-50v-2h2q4 0 5 -2q3 0 3 -5
v-28q0 -8 -8 -8h-2v-1h50v19l-3 -6l-5 -7q-3 -3 -4 -3l-5 -1q-2 -1 -6 -1h-7v20h1q4 0 9 -3l2 -3q0 -1 0.5 -1.5t0.5 -1.5v-4h1v29h-1v-4l-2 -5q-5 -5 -9 -5h-2v21h8q8 0 11 -1l4 -3l2 -5l3 -7h2v18zM91 -56h12v-9h1l3 5q1 1 1.5 2t2.5 2q1 1 7 1h3v-14h-4q-13 0 -13 -12
v-27h-13v52zM567 352h-23v-2h4q0 -1 2 -1q3 -2 3 -4q2 -2 2 -7v-19l-32 33h-18v-2q4 0 5 -1q1 0 1.5 -0.5t1.5 -0.5q1 -2 1 -5v-26q0 -3 -1 -5l-3 -4q-2 0 -3.5 -0.5t-2.5 -0.5v-1h24v1q-3 0 -5 1h-4l-2 5q-1 1 -1 6v27l39 -40h2v32q0 4 0.5 6t1.5 4q2 2 8 2v2zM354 327
q-1 2 -6 4l-8 3h-5l-1 1q-2 1 -4 1t-3 1q-3 0 -4 1q-1 0 -3 2q-1 0 -1 2v1v4l2 2l4 2q1 0 2 0.5t3 0.5q3 0 7 -2q4 0 6 -2q4 -2 5 -4q2 -1 2.5 -3.5t2.5 -4.5h1v15h-1q-1 -3 -4 -3h-4q-8 5 -15 5q-4 0 -10 -2l-6 -4q-1 -2 -1.5 -3.5t-0.5 -4.5q0 -1 2 -5q0 -3 3 -3l6 -3
q1 -1 10 -3l4 -1q4 -2 6 -2t4 -2q1 0 1 -1q3 -2 3 -5l-2 -4q-1 -2 -4 -3h-5q-5 0 -8 1l-8 3l-5 5q-5 5 -5 10h-1v-21h1q0 3 2 3q2 2 4 2q1 0 1 -0.5t2 -0.5q1 0 1.5 -0.5t1.5 -0.5l7 -2q2 -1 7 -1q2 0 8 2q1 0 6 3q1 1 1 2t2 2v10zM568 16q3 3 3 11q0 7 -3 12t-10 5
q-8 0 -11 -5q-1 -2 -2 -5t-1 -7t1 -6.5t2 -4.5q2 -5 11 -5q8 0 10 5zM128 -56h14v-52h-14v52zM674 348q0 1 2 1q1 0 1.5 0.5t1.5 0.5h1v2h-23v-2h3q4 0 5 -1q2 -1 2 -3t-3 -5l-9 -13l-12 15l-2 4v1q0 1 1 1q0 1 3 1h4v2h-30v-2h1q5 0 7 -1l2 -2t2 -3l14 -19v-10q0 -5 -1 -6
q-4 -2 -7 -2h-3v-1h33v1h-4q-4 0 -6 2t-2 6v11l12 17l2 3q4 2 5 2zM622 326h-1q-2 -2 -2 -3t-1 -3q-2 -2 -2 -4l-2 -3q-4 -4 -6 -5q-1 0 -3 -0.5t-4 -0.5h-12v36q0 5 3 5q1 2 6 2h3v2h-31v-2h2q8 0 8 -7v-28q0 -8 -8 -8h-2v-1h52v20zM773 -71q-2 5 -9 5q-8 0 -10 -5
q-3 -5 -3 -11q0 -7 3 -11q1 -2 4 -3t6 -1q8 0 9 4q3 4 3 11q0 6 -3 11zM289 425q-3 -1 -6 -1q-5 0 -6 1l7 11l9 10l3 4l5 4l5 5l6 2q4 1 7 0v-5l-3 -4q-3 -3 -3 -5q-2 -2 -2.5 -3t-2.5 -2q0 -1 -4 -5q-1 -1 -1.5 -2t-2.5 -2l-5 -4zM373 -93q3 -4 8 -4q6 0 9 4q2 6 2 11
t-2 11q-2 2 -4 3.5t-5 1.5q-12 0 -12 -17q0 -7 4 -10zM292 310q4 3 4 9q-2 -5 -5 -8l-6 -4h-7q-6 0 -9 1q-1 0 -5 4q-2 2 -2 7v24q0 5 2 5q2 2 7 2h3v2h-31v-2q10 0 10 -7v-24q0 -4 5 -11l8 -2q2 -1 9 -1q6 0 12 2q4 2 5 3zM226 -89q0 -2 3 -5q4 -2 6 -2q12 0 12 14
q0 7 -4 11q-2 2 -4 3.5t-4 1.5q-4 0 -7 -5q-3 -3 -3 -11q0 -4 1 -7zM412 451q0 -2 0.5 -3t0.5 -2q-1 -2 -1 -4v-6l-2 -4l-4 -5l-4 -3q-1 0 -1.5 -0.5t-2.5 -0.5q-1 -1 -4 -1q-2 -2 -4 0q-1 0 -3 2v4l2 5l3 4q4 5 9 9zM733 15q0 -4 2 -4q2 -2 5 -2h4l2 1q5 2 5 3q2 4 2 7v7
q-3 -3 -6 -3l-7 -2q-3 0 -5 -2q-2 -1 -2 -5zM660 -93h15v-15h-15v15zM61 -85l-6 -1q-2 0 -6 -2q-2 -2 -2 -5q0 -2 2 -4q2 -1 3 -2t2 -1q2 0 3 2h2l5 3q2 4 2 6v6q-1 0 -5 -2zM231 33q-2 6 -4 8q-4 4 -7 4q-11 0 -11 -12h22zM524 -85l-7 -1q-2 0 -4 -2t-2 -5q0 -2 2 -4
q3 -3 4 -3q2 0 3 2h2l5 3q1 2 1 6v6zM638 -77q0 5 -3 8q-2 1 -3.5 2t-4.5 1q-8 0 -10 -11h21zM446 -77q0 5 -3 8q-2 1 -3.5 2t-4.5 1q-8 0 -10 -11h21zM128 -38h14v-12h-14v12zM769 575q-2 -4 -4 -5l14 18l6 11l13 17l1 1q0 2 2 2q0 1 1 1q0 -4 -1 -5l-4 -5l-3 -5l-3 -4
l-8 -10l-9 -10zM306 352h-23v-2h5q1 0 2 -1q6 -2 6 -11v7l5 4l1 1h4v2z" />
    <glyph glyph-name="five" unicode="5" horiz-adv-x="902" 
d="M61 517l131 29l-5 18l20 6l-4 19l20 4l-3 22l20 1v20h18l2 18l19 -3l4 20l21 -3l5 19l19 -5l8 18l19 -8l11 19l17 -9l11 17l18 -12l12 16l17 -13l13 14l13 -12l13 11l13 -14l17 11l11 -18l19 10l9 -17l18 8l8 -20l21 6l6 -19l19 5l4 -21l21 2l1 -13l197 43v-242l-90 -20
l2 -1l-12 -13l12 -14l-16 -13l11 -17l-18 -11l11 -18l-17 -10l7 -18l-19 -8l6 -21l-18 -6l3 -19l-20 -4l1 -21l-19 -2v-19h-17l-3 -18l-19 1l-4 -18l-21 3l-5 -20l-19 6l-7 -19l-21 8l-9 -19l-18 10l-11 -17l-18 11l-12 -16l-15 13l-15 -13l-13 12l-13 -12l-12 15l-17 -11
l-12 18l-18 -10l-9 17l-19 -8l-9 20l-19 -6l-6 18l-20 -4l-4 21l-21 -2l-2 20h-20v17l-17 2l2 20l-20 3l4 21l-20 6l6 18l-14 6l-120 -26v241zM595 466l11 11q-1 -1 -1 -3q0 -3 2 -7q1 -2 5 -4q3 -1 10 1q6 1 12 6l10 7l3.5 3.5l3.5 3.5l6 6v-2q0 -1 -0.5 -1.5t-0.5 -1.5v-3
q-2 -3 0 -5q0 -1 0.5 -1.5t0.5 -1.5q0 -3 3 -3h8l3 2l4 3l6 3l16 13l8 8l-2 -6q-2 -3 -2 -9v-3q1 0 2 -1q0 -1 3 -1q2 0 4 2q4 0 6 3l5 3l6 6q1 0 5 4l4.5 4.5l4.5 4.5l9 10v2q0 1 -1 1q-2 0 -4 -2l-1 -2l-6 -7l-5 -6q-5 -3 -6 -6l-7 -6l-4 -3l-4 -1l-1 -1q-1 0 -2 1h1l4 7
q2 4 4 6l3 6q2 1 4 5l31 45q5 5 6 8l8 8l18 21q5 5 8.5 10t7.5 10l5 9v4q-1 1 -4 1q-1 0 -5 -2q-2 0 -3 -1t-3 -2q-2 0 -5 -3l-4 -3l-11 -9l-8 -9q-3 -3 -5 -5.5t-4 -5.5q-1 -2 -3 -4.5t-4 -5.5l-13 -20l-13 -22l-9 -16l-4 -8h-1l-7 -7q-2 -3 -4 -5l-5 -5l-9 -8l-5 -4l-3 -2
l-2 -1l-2 -2h-5l6 10q0 1 1 2q2 4 4 7t5 6l8 14l7 10l4 6l3 5l1 1l1 1q0 1 0.5 1t0.5 1q3 2 2 4q0 1 -3 1l-5 -2l-5 -3l-9 -6l-7 -6q0 3 -1 5q0 1 -3 3q-6 1 -10 0q-8 -2 -11 -4l-12 -6l-9 -8q-13 -9 -18 -19q-7 -8 -10 -18h-2l-8 -9q-3 -2 -5.5 -4t-5.5 -4q-1 -2 -6 -4
q-2 -2 -5 -2h-1q-1 1 0 2l3 4l3 5l6 7l10 13q2 3 4.5 6.5t4.5 7.5l4 8q2 5 1 8q0 3 -1 3q0 2 -3 2t-4 -1l-6 -2l-6 -4l-5 -4l-5 -4q-4 -4 -6 -4l-10 -11l-4.5 -4.5l-4.5 -4.5l-5 -6l-5 -5l1 2l12 17l13 18q0 1 0.5 1t0.5 1q1 1 1 2q1 1 1 3l-3 3q-1 0 -1.5 0.5t-1.5 0.5
t-2 -0.5t-3 -0.5l-5 -3l-2 -2q-2 -1 -2 -2t-1 -2l-2 -3l-38 -65q-1 -1 -1 -2v-1q1 0 1.5 -0.5t1.5 -0.5q2 0 4 1l4 2q0 1 2 3q1 0 1 0.5t1 0.5l2 3q0 2 2 2l8 11l10 10l8 10l11 10l14 14l5 4l5 4l6 2q1 0 1 -1h-1l-2 -2q-1 -3 -4 -4l-2 -3l-6 -7q-2 -2 -3 -3.5t-3 -3.5
l-7 -11l-7 -10l-3 -9q-2 -5 0 -8q1 -3 4 -3h9q2 1 4.5 2.5t6.5 3.5zM397 418q6 0 12 4q8 4 11 8q3 2 4.5 4t3.5 4l4 9q3 4 3 9v8q0 3 -2 7l-3 8l-3 3q0 2 -2 4q0 1 -1 2v5h-4l-2 -2l-6 -4l-2 -6l-1 -1l-2 -3l-16 -22l-2 -3l-3 -5h-1v-1q-1 0 -2 -1l-2 -4l-3 -4l-7 -9
l-11 -10l-6 -3q-2 -2 -6 -2v1l4 5l3 5l4 5l3 4l4 7l5 7l2 7q1 3 1 7q-1 1 -1 4l-1 2q0 2 -1 3v11l3 5q2 3 -2 6q-2 3 -8 0q-5 -1 -8 -4q-3 -1 -5 -6q-2 -2 -2 -5q0 -4 1 -6l2 -1l2 -2l-6 -6l-11 -15l-10 -11q-2 0 -2 -2v-1l-1 -1q0 -1 -1 -1l-5 -7q-4 -3 -7 -6t-7 -5
q-6 -6 -16 -11l-10 -4q-6 -2 -9 -1q-3 0 -3 2q-1 1 -1 3q0 1 2 5l1 4l5 8q2 -1 6 -1h9q5 1 13 6q3 1 5.5 3t6.5 4l7 8q2 2 3.5 4t1.5 4l4 6q0 6 -2 7q-2 4 -4 5h-9h-4.5t-4.5 -2l-10 -4q-13 -7 -22 -14q-9 -8 -14 -17q-2 -2 -3 -4.5t-3 -5.5q-3 -4 -4 -9v-8q1 -4 5 -6
q5 -5 11 -3q7 0 13 3q5 1 8.5 3t7.5 4t7.5 4.5t7.5 6.5l12 10l7 7q0 1 2 3q0 1 1 2l2 3l8 8l7 10q3 2 5 5t4 5l3 -1l2 -3q0 -1 1 -2v-1q0 -1 -1 -2t-2 -3l-8 -8l-7 -10l-6 -9l-2 -9q-1 -1 -1 -4v-3l2 -4h4q5 0 8 1l8 5q2 2 5 4t5 5q3 2 5 4l4 4l4 6l4 5l2 2l2 3l2 2l6 8
l10 15q0 -2 0.5 -3.5t0.5 -3.5q2 -6 2 -7l2 -4q-8 -2 -12 -6l-10 -7q-2 -2 -3.5 -4.5t-2.5 -4.5q-1 -3 -1 -8q0 -3 5 -5h9zM447 440q0 -4 2 -4l5 -4h5h6q4 1 7 2l6 2l13 7l11 10l9 8l7 10l5 8l3 9q2 5 0 7q0 3 -3 5q0 2 -5 4q-1 0 -3 0.5t-4 0.5q-3 0 -9 -2q-2 0 -3 -0.5
l-3 -1.5l-6 -2l-12 -8l-11 -9l-8 -9l-6 -9q-5 -8 -6 -13v-11zM125 8q-4 3 -8 13q-2 5 -2 16v8q0 2 1 3.5t1 3.5q1 6 7 12q2 3 5 5l6 4q7 3 16 3h3q2 0 4 -0.5t4 -0.5q4 0 7 -3q7 -4 10 -9q2 -2 4 -6q0 -1 0.5 -1.5t0.5 -1.5v-2h-16v1q0 1 -2 3q-1 2 -2 2.5t-3 2.5q-3 2 -9 2
h-7l-7 -6q-5 -3 -5 -7q-2 -4 -2 -14q0 -4 0.5 -7t1.5 -7q1 -5 6 -7q3 -2 5 -3t5 -1h2q6 0 9 2q2 0 3.5 1.5l2.5 2.5q2 3 3 5t1 5h-18v13h32v-41h-10l-2 10q-3 -4 -7 -7q-2 -2 -4.5 -2.5t-4.5 -1.5q-2 0 -4.5 -0.5t-4.5 -0.5q-6 0 -12 3q-7 3 -10 8zM213 -69q3 7 7 10
q4 4 12 4q3 0 9 -2l3.5 -3.5t2.5 -3.5l1 8h12v-49q0 -5 -2 -13q-3 -5 -8 -7q-6 -3 -16 -3q-2 0 -4.5 0.5t-4.5 0.5q-3 1 -9 5q-2 2 -2 4q-1 2 -1 5h13l3 -4q1 -1 6 -1q6 0 7 1q4 3 4 4t0.5 1.5t0.5 1.5v9q-6 -7 -14 -7q-3 0 -5.5 0.5t-5.5 1.5q-5 4 -8 10q-2 3 -3 6.5
t-1 8.5q0 3 1 6zM578 49q2 -2 3 -4.5t3 -5.5q2 -6 2 -12q0 -8 -4 -15q-1 -4 -9 -10q-5 -4 -15 -4t-17 4q-3 2 -5 5l-4 6q-3 6 -3 14q0 3 0.5 5.5t1.5 5.5q1 5 5 9q5 5 10 7q3 2 12 2q8 0 12 -2q2 -2 4 -2.5t4 -2.5zM357 -56h12v-8h2q1 0 2 1l4 4l4 3q1 1 4 1q5 0 8 -2
q4 -2 6 -4q4 -4 5 -10q3 -5 3 -11q0 -2 -0.5 -3t-0.5 -3t-1 -3t-2 -3q-2 -8 -6 -11q-5 -4 -12 -4q-5 0 -7 1l-4 3q-1 1 -3 1l-1 2v-25h-13v71zM799 -56h13v-8q4 9 15 9q4 0 8 -2q3 -2 6 -6q1 4 5 6t8 2q5 0 11 -2q4 -4 5 -7q2 -4 2 -9v-35h-13v31q0 11 -8 11q-9 0 -9 -11
v-31h-13v36q0 2 -2 4t-7 2q-8 0 -8 -11v-31h-13v52zM739 -72q2 6 5 9q3 4 8 6q6 2 12 2q5 0 11 -2l4 -2t4 -3t2.5 -4.5t2.5 -4.5q1 -3 1 -11t-3 -14q-2 -7 -8 -10t-14 -3q-10 0 -15 4q-6 3 -9 10q-2 8 -2 13q0 6 1 10zM124 345l5 5l4 5l5 5q2 4 4 6l31 42l9 15l10 15
q3 4 5.5 7.5t4.5 7.5l8 16q1 2 0 3t-2 1q-4 0 -5 -1l-4 -2l-16 -20q-3 -3 -7 -9l-8 -10l-27 -39l-13 -20l-11 -21l-2 -3v-5h5zM744 -1q-3 0 -4.5 -0.5t-3.5 -0.5t-4 0.5t-4 0.5q-2 2 -3.5 3t-3.5 3q-2 4 -2 10q0 8 4 12q8 4 12 5l13 2q5 0 5 4q0 7 -9 7q-4 0 -6 -2
q-3 -1 -4 -7h-13q0 7 3 12q2 3 8 6q2 2 6 2h6q12 0 16 -2l3.5 -3.5t2.5 -3.5t1 -7v-35q0 -3 4 -3v-3h-16q-1 0 -1 1v1v1q0 2 -0.5 2.5t-0.5 1.5l-4 -4q-1 -1 -1.5 -1t-1.5 -1t-2 -1zM245 22h-38q0 -3 4 -9q3 -3 9 -3q2 0 3.5 0.5t2.5 0.5q4 4 4 5h15l-5 -10l-8 -6l-6 -1.5
t-6 -0.5q-27 0 -27 30q0 10 3 14q2 7 8 10q4 3 7.5 3.5t8.5 0.5q11 0 14 -4q6 -3 9 -11q2 -5 2 -15v-4zM494 317q3 4 3 12q0 5 -2 8q-2 6 -5 8q-2 3 -9 5q-6 3 -11 3q-10 0 -14 -4q-4 -1 -6 -3.5t-4 -4.5q-4 -5 -4 -12t2 -10q2 -2 3 -3.5t3 -3.5q3 -3 9 -5q3 -1 5.5 -1.5
t5.5 -0.5q8 0 13 3q4 2 6.5 4.5zM135 442q-2 -5 0 -8q1 -2 2 -3l3 -3l9 -3q7 0 11 1q2 0 2 1q1 1 1 2t-1 1h-2q-2 0 -2 -1q-7 -1 -14 1q-4 2 -5 4q0 2 -0.5 2.5t-0.5 2.5q0 3 1 6l3 7l8 9q2 2 5 4l6 4t5.5 3.5t6.5 3.5l12 6q4 0 7 1t7 3l14 2q8 2 13 2q3 0 11 -2q5 0 7 -3
l5 -6v-8q0 -6 -1 -10l-5 -9q-2 -3 -3.5 -5.5t-3.5 -4.5q-2 -3 -4.5 -5t-5.5 -5q-2 -3 -10 -9l-11 -7l-12 -5l-7 -3q-1 0 -2.5 -0.5t-3.5 -0.5h-2q-2 0 -3 -1q-1 0 -1 -1q-2 0 -2 -2q0 -1 1 -1h2q2 0 3 1h2l13 4l13 6l13 5l13 8l11 8l10 9l8 10q2 2 3.5 4.5t2.5 5.5q2 6 2 9
q1 5 0 9l-3 7l-7 5q-3 1 -5 1.5t-5 0.5q-4 1 -11 1q-4 0 -12 -2q-7 0 -13.5 -2t-14.5 -4q-14 -4 -26 -11q-3 -2 -6.5 -3.5t-6.5 -3.5l-6 -4t-5 -5l-4.5 -4.5l-4.5 -4.5zM502 -83q5 5 10 5l12 2q4 0 4 3q0 8 -7 8q-5 0 -6 -3q-3 -2 -3 -5h-13q0 7 3 10q3 5 7 6q2 1 5 1
q2 1 7 1t8 -0.5t6 -1.5q4 -3 6 -6q1 -2 1 -7v-27q0 -5 1 -6q0 -1 2 -3v-2h-15v1q0 1 -0.5 1t-0.5 1v3q-2 -1 -2.5 -2t-1.5 -2q-2 -1 -3 -1t-2 -1q-2 -1 -7 -1q-4 0 -7 1l-7 5q-2 4 -2 9q0 8 5 11zM38 -83q5 5 10 5l13 2q5 0 5 3q0 8 -8 8q-5 0 -6 -3q-4 -1 -4 -5h-12
q0 7 3 10q1 4 6 6q2 1 7 1q2 1 6 1q7 0 13 -2q4 -3 6 -6q1 -2 1 -7v-27q0 -5 1 -6q0 -1 2 -3v-2h-14v3q-1 1 -1 3l-4 -4q-2 -1 -3 -1t-2 -1q-2 -1 -6 -1q-6 0 -9 1q-3 2 -5 5q-3 3 -3 9q0 8 4 11zM414 -69q3 7 8 10q5 4 13 4q11 0 15 -4q5 -3 8 -11q2 -8 2 -13v-3h-35
q0 -6 3 -9t8 -3q3 0 7 2l3 4h13q-2 -8 -4 -10t-4 -3l-4 -2q-6 -2 -11 -2q-24 0 -24 28q0 8 2 12zM606 -69q3 7 8 10q5 4 14 4q10 0 14 -4q5 -3 7 -11q3 -6 3 -13v-3h-35q0 -6 3 -9t8 -3q3 0 7 2l3 4h13q-2 -8 -5 -10q-4 -4 -7 -5q-6 -2 -11 -2q-24 0 -24 28q0 4 2 12z
M644 48q2 -6 2 -10v-39h-14v34q0 4 -2 8q-3 3 -8 3q-6 0 -9 -4q-2 -2 -2 -9v-32h-15v56h14v-8q6 9 17 9q7 0 10 -2zM389 7q-3 -4 -7 -6q-6 -3 -10 -3q-10 0 -14 6q-5 4 -5 14v37h14v-34q0 -10 10 -10h5l5 5q0 1 1 2.5t1 3.5v33h13v-56h-13v8zM299 -60l-1 4h16l10 -38l10 38
h15l-17 -50l-1 -1l-4 -11l-3 -6q-3 -3 -5 -3t-3.5 -0.5t-3.5 -0.5h-7v11h8q1 0 3 2v2q1 1 1 3zM155 -56h12v-8q6 9 16 9q4 0 10 -2q3 -2 6 -6q2 -4 2 -10v-35h-14v31q0 6 -1 7q-2 4 -8 4q-4 0 -8 -4q-2 -6 -2 -8v-30h-13v52zM689 -63q6 8 19 8q5 0 11 -2q3 -1 9 -7
q4 -5 4 -11h-14l-3 6q-3 3 -6 3q-5 0 -8 -5q-3 -3 -3 -10q0 -3 0.5 -5t0.5 -4q2 -4 4 -5q1 -2 5 -2q5 0 6 2q3 1 3 6h15q-2 -6 -4 -11q-2 -2 -4 -3.5t-4 -2.5q-5 -3 -12 -3q-10 0 -17 6q-3 1 -5 8q-2 6 -2 12q0 8 5 20zM556 -63q6 8 19 8q5 0 11 -2q4 -1 8 -7q2 -3 3.5 -5.5
t1.5 -5.5h-15q0 2 -2 6q-3 3 -6 3q-5 0 -8 -5q-4 -3 -4 -10q0 -3 0.5 -5t0.5 -4l4 -5q2 -2 6 -2t6 2q3 1 3 6h13q0 -5 -3 -11l-3.5 -3.5t-3.5 -2.5q-6 -3 -12 -3q-11 0 -17 6q-3 1 -5 8q-2 6 -2 12q0 8 5 20zM337 63q-2 0 -2 -2v-6h9v-10h-9v-46h-15v46h-7v10h7v4
q0 16 17 16h7v-12h-7zM515 55h10v-10h-10v-46h-15v46h-7v10h7v4q0 16 17 16h6v-12h-6q-1 0 -2 -2v-6zM806 -1h-9q-7 0 -10 2q-3 0 -4 4q0 1 -1 2.5t-1 3.5v34h-7v10h7v14h16v-14h9v-10h-9v-34q1 0 2 -0.5t3 -0.5l2 1h2v-12zM272 69v-14h8v-10h-8v-30q0 -4 1 -4q0 -1 1 -1h4
l1 1h1v-12h-8q-7 0 -10 2q-3 0 -4 4q-1 1 -1 6v34h-8v10h8v14h15zM461 436q-2 0 -2 1v6q2 7 5 10l7 11l5 6l12 15l4.5 4.5l4.5 4.5l4 4l5 2q2 1 5 1l2 -1q1 -1 1 -4q0 -1 -2 -5l-2 -4l-3 -5l-3 -5l-10 -15l-8 -9l-10 -10q0 -1 -5 -3q-1 -2 -6 -4h-4zM623 478l4 5l3 6l4 5
l9 12l13 16l3 4l8 6q1 1 4 1q2 1 4 1l3 -2q0 -1 0.5 -1.5t0.5 -1.5q0 -2 -1 -4q0 -1 -2 -3l-8 -11l-6 -11l-8 -7l-8 -9l-5 -4l-6 -5l-5 -4q-2 0 -2.5 -1t-2.5 -1q-4 -2 -5 -1h-1q-1 1 -1 2l1 1q0 1 1 2zM685 -1h-10q-7 0 -8 2q-4 0 -5 4v40h-9v10h9v14h13v-14h10v-10h-10
v-30v-3q0 -1 1 -1q2 0 2.5 -0.5t2.5 -0.5l2 1h2v-12zM482 345q0 -2 1 -3.5t2 -4.5q0 -1 0.5 -3.5t0.5 -4.5q0 -6 -2 -12q-2 -2 -3 -4.5t-3 -4.5q-2 -1 -8 -1q-5 0 -6 1q-4 0 -6 5l-3 6q-2 6 -2 10q0 2 0.5 4t0.5 4l3 6l3 5q1 1 2 1t3 1q2 2 6 2q0 -1 1 -1h2l3 -2zM471 -66
h-8v10h8v4q0 14 15 14h6v-11h-6l-1 -1l-1 -4v-2h9v-10h-9v-42h-13v42zM273 -66h-7v10h7v13h14v-13h8v-10h-8v-27q0 -3 1 -4q0 -1 1 -1h3l2 1h1v-11h-8q-6 0 -8 1q-5 2 -5 4q-1 1 -1 6v31zM430 -1h-14v76h14v-76zM455 -1h-14v76h14v-76zM412 352h-50v-2h2q4 0 5 -2q3 0 3 -5
v-28q0 -8 -8 -8h-2v-1h50v19l-3 -6l-5 -7q-3 -3 -4 -3l-5 -1q-2 -1 -6 -1h-7v20h1q4 0 9 -3l2 -3q0 -1 0.5 -1.5t0.5 -1.5v-4h1v29h-1v-4l-2 -5q-5 -5 -9 -5h-2v21h8q8 0 11 -1l4 -3l2 -5l3 -7h2v18zM91 -56h12v-9h1l3 5q1 1 1.5 2t2.5 2q1 1 7 1h3v-14h-4q-13 0 -13 -12
v-27h-13v52zM567 352h-23v-2h4q0 -1 2 -1q3 -2 3 -4q2 -2 2 -7v-19l-32 33h-18v-2q4 0 5 -1q1 0 1.5 -0.5t1.5 -0.5q1 -2 1 -5v-26q0 -3 -1 -5l-3 -4q-2 0 -3.5 -0.5t-2.5 -0.5v-1h24v1q-3 0 -5 1h-4l-2 5q-1 1 -1 6v27l39 -40h2v32q0 4 0.5 6t1.5 4q2 2 8 2v2zM354 327
q-1 2 -6 4l-8 3h-5l-1 1q-2 1 -4 1t-3 1q-3 0 -4 1q-1 0 -3 2q-1 0 -1 2v1v4l2 2l4 2q1 0 2 0.5t3 0.5q3 0 7 -2q4 0 6 -2q4 -2 5 -4q2 -1 2.5 -3.5t2.5 -4.5h1v15h-1q-1 -3 -4 -3h-4q-8 5 -15 5q-4 0 -10 -2l-6 -4q-1 -2 -1.5 -3.5t-0.5 -4.5q0 -1 2 -5q0 -3 3 -3l6 -3
q1 -1 10 -3l4 -1q4 -2 6 -2t4 -2q1 0 1 -1q3 -2 3 -5l-2 -4q-1 -2 -4 -3h-5q-5 0 -8 1l-8 3l-5 5q-5 5 -5 10h-1v-21h1q0 3 2 3q2 2 4 2q1 0 1 -0.5t2 -0.5q1 0 1.5 -0.5t1.5 -0.5l7 -2q2 -1 7 -1q2 0 8 2q1 0 6 3q1 1 1 2t2 2v10zM568 16q3 3 3 11q0 7 -3 12t-10 5
q-8 0 -11 -5q-1 -2 -2 -5t-1 -7t1 -6.5t2 -4.5q2 -5 11 -5q8 0 10 5zM128 -56h14v-52h-14v52zM674 348q0 1 2 1q1 0 1.5 0.5t1.5 0.5h1v2h-23v-2h3q4 0 5 -1q2 -1 2 -3t-3 -5l-9 -13l-12 15l-2 4v1q0 1 1 1q0 1 3 1h4v2h-30v-2h1q5 0 7 -1l2 -2t2 -3l14 -19v-10q0 -5 -1 -6
q-4 -2 -7 -2h-3v-1h33v1h-4q-4 0 -6 2t-2 6v11l12 17l2 3q4 2 5 2zM622 326h-1q-2 -2 -2 -3t-1 -3q-2 -2 -2 -4l-2 -3q-4 -4 -6 -5q-1 0 -3 -0.5t-4 -0.5h-12v36q0 5 3 5q1 2 6 2h3v2h-31v-2h2q8 0 8 -7v-28q0 -8 -8 -8h-2v-1h52v20zM773 -71q-2 5 -9 5q-8 0 -10 -5
q-3 -5 -3 -11q0 -7 3 -11q1 -2 4 -3t6 -1q8 0 9 4q3 4 3 11q0 6 -3 11zM289 425q-3 -1 -6 -1q-5 0 -6 1l7 11l9 10l3 4l5 4l5 5l6 2q4 1 7 0v-5l-3 -4q-3 -3 -3 -5q-2 -2 -2.5 -3t-2.5 -2q0 -1 -4 -5q-1 -1 -1.5 -2t-2.5 -2l-5 -4zM373 -93q3 -4 8 -4q6 0 9 4q2 6 2 11
t-2 11q-2 2 -4 3.5t-5 1.5q-12 0 -12 -17q0 -7 4 -10zM292 310q4 3 4 9q-2 -5 -5 -8l-6 -4h-7q-6 0 -9 1q-1 0 -5 4q-2 2 -2 7v24q0 5 2 5q2 2 7 2h3v2h-31v-2q10 0 10 -7v-24q0 -4 5 -11l8 -2q2 -1 9 -1q6 0 12 2q4 2 5 3zM226 -89q0 -2 3 -5q4 -2 6 -2q12 0 12 14
q0 7 -4 11q-2 2 -4 3.5t-4 1.5q-4 0 -7 -5q-3 -3 -3 -11q0 -4 1 -7zM412 451q0 -2 0.5 -3t0.5 -2q-1 -2 -1 -4v-6l-2 -4l-4 -5l-4 -3q-1 0 -1.5 -0.5t-2.5 -0.5q-1 -1 -4 -1q-2 -2 -4 0q-1 0 -3 2v4l2 5l3 4q4 5 9 9zM733 15q0 -4 2 -4q2 -2 5 -2h4l2 1q5 2 5 3q2 4 2 7v7
q-3 -3 -6 -3l-7 -2q-3 0 -5 -2q-2 -1 -2 -5zM660 -93h15v-15h-15v15zM61 -85l-6 -1q-2 0 -6 -2q-2 -2 -2 -5q0 -2 2 -4q2 -1 3 -2t2 -1q2 0 3 2h2l5 3q2 4 2 6v6q-1 0 -5 -2zM231 33q-2 6 -4 8q-4 4 -7 4q-11 0 -11 -12h22zM524 -85l-7 -1q-2 0 -4 -2t-2 -5q0 -2 2 -4
q3 -3 4 -3q2 0 3 2h2l5 3q1 2 1 6v6zM638 -77q0 5 -3 8q-2 1 -3.5 2t-4.5 1q-8 0 -10 -11h21zM446 -77q0 5 -3 8q-2 1 -3.5 2t-4.5 1q-8 0 -10 -11h21zM128 -38h14v-12h-14v12zM769 575q-2 -4 -4 -5l14 18l6 11l13 17l1 1q0 2 2 2q0 1 1 1q0 -4 -1 -5l-4 -5l-3 -5l-3 -4
l-8 -10l-9 -10zM306 352h-23v-2h5q1 0 2 -1q6 -2 6 -11v7l5 4l1 1h4v2z" />
    <glyph glyph-name="six" unicode="6" horiz-adv-x="902" 
d="M61 517l131 29l-5 18l20 6l-4 19l20 4l-3 22l20 1v20h18l2 18l19 -3l4 20l21 -3l5 19l19 -5l8 18l19 -8l11 19l17 -9l11 17l18 -12l12 16l17 -13l13 14l13 -12l13 11l13 -14l17 11l11 -18l19 10l9 -17l18 8l8 -20l21 6l6 -19l19 5l4 -21l21 2l1 -13l197 43v-242l-90 -20
l2 -1l-12 -13l12 -14l-16 -13l11 -17l-18 -11l11 -18l-17 -10l7 -18l-19 -8l6 -21l-18 -6l3 -19l-20 -4l1 -21l-19 -2v-19h-17l-3 -18l-19 1l-4 -18l-21 3l-5 -20l-19 6l-7 -19l-21 8l-9 -19l-18 10l-11 -17l-18 11l-12 -16l-15 13l-15 -13l-13 12l-13 -12l-12 15l-17 -11
l-12 18l-18 -10l-9 17l-19 -8l-9 20l-19 -6l-6 18l-20 -4l-4 21l-21 -2l-2 20h-20v17l-17 2l2 20l-20 3l4 21l-20 6l6 18l-14 6l-120 -26v241zM595 466l11 11q-1 -1 -1 -3q0 -3 2 -7q1 -2 5 -4q3 -1 10 1q6 1 12 6l10 7l3.5 3.5l3.5 3.5l6 6v-2q0 -1 -0.5 -1.5t-0.5 -1.5v-3
q-2 -3 0 -5q0 -1 0.5 -1.5t0.5 -1.5q0 -3 3 -3h8l3 2l4 3l6 3l16 13l8 8l-2 -6q-2 -3 -2 -9v-3q1 0 2 -1q0 -1 3 -1q2 0 4 2q4 0 6 3l5 3l6 6q1 0 5 4l4.5 4.5l4.5 4.5l9 10v2q0 1 -1 1q-2 0 -4 -2l-1 -2l-6 -7l-5 -6q-5 -3 -6 -6l-7 -6l-4 -3l-4 -1l-1 -1q-1 0 -2 1h1l4 7
q2 4 4 6l3 6q2 1 4 5l31 45q5 5 6 8l8 8l18 21q5 5 8.5 10t7.5 10l5 9v4q-1 1 -4 1q-1 0 -5 -2q-2 0 -3 -1t-3 -2q-2 0 -5 -3l-4 -3l-11 -9l-8 -9q-3 -3 -5 -5.5t-4 -5.5q-1 -2 -3 -4.5t-4 -5.5l-13 -20l-13 -22l-9 -16l-4 -8h-1l-7 -7q-2 -3 -4 -5l-5 -5l-9 -8l-5 -4l-3 -2
l-2 -1l-2 -2h-5l6 10q0 1 1 2q2 4 4 7t5 6l8 14l7 10l4 6l3 5l1 1l1 1q0 1 0.5 1t0.5 1q3 2 2 4q0 1 -3 1l-5 -2l-5 -3l-9 -6l-7 -6q0 3 -1 5q0 1 -3 3q-6 1 -10 0q-8 -2 -11 -4l-12 -6l-9 -8q-13 -9 -18 -19q-7 -8 -10 -18h-2l-8 -9q-3 -2 -5.5 -4t-5.5 -4q-1 -2 -6 -4
q-2 -2 -5 -2h-1q-1 1 0 2l3 4l3 5l6 7l10 13q2 3 4.5 6.5t4.5 7.5l4 8q2 5 1 8q0 3 -1 3q0 2 -3 2t-4 -1l-6 -2l-6 -4l-5 -4l-5 -4q-4 -4 -6 -4l-10 -11l-4.5 -4.5l-4.5 -4.5l-5 -6l-5 -5l1 2l12 17l13 18q0 1 0.5 1t0.5 1q1 1 1 2q1 1 1 3l-3 3q-1 0 -1.5 0.5t-1.5 0.5
t-2 -0.5t-3 -0.5l-5 -3l-2 -2q-2 -1 -2 -2t-1 -2l-2 -3l-38 -65q-1 -1 -1 -2v-1q1 0 1.5 -0.5t1.5 -0.5q2 0 4 1l4 2q0 1 2 3q1 0 1 0.5t1 0.5l2 3q0 2 2 2l8 11l10 10l8 10l11 10l14 14l5 4l5 4l6 2q1 0 1 -1h-1l-2 -2q-1 -3 -4 -4l-2 -3l-6 -7q-2 -2 -3 -3.5t-3 -3.5
l-7 -11l-7 -10l-3 -9q-2 -5 0 -8q1 -3 4 -3h9q2 1 4.5 2.5t6.5 3.5zM397 418q6 0 12 4q8 4 11 8q3 2 4.5 4t3.5 4l4 9q3 4 3 9v8q0 3 -2 7l-3 8l-3 3q0 2 -2 4q0 1 -1 2v5h-4l-2 -2l-6 -4l-2 -6l-1 -1l-2 -3l-16 -22l-2 -3l-3 -5h-1v-1q-1 0 -2 -1l-2 -4l-3 -4l-7 -9
l-11 -10l-6 -3q-2 -2 -6 -2v1l4 5l3 5l4 5l3 4l4 7l5 7l2 7q1 3 1 7q-1 1 -1 4l-1 2q0 2 -1 3v11l3 5q2 3 -2 6q-2 3 -8 0q-5 -1 -8 -4q-3 -1 -5 -6q-2 -2 -2 -5q0 -4 1 -6l2 -1l2 -2l-6 -6l-11 -15l-10 -11q-2 0 -2 -2v-1l-1 -1q0 -1 -1 -1l-5 -7q-4 -3 -7 -6t-7 -5
q-6 -6 -16 -11l-10 -4q-6 -2 -9 -1q-3 0 -3 2q-1 1 -1 3q0 1 2 5l1 4l5 8q2 -1 6 -1h9q5 1 13 6q3 1 5.5 3t6.5 4l7 8q2 2 3.5 4t1.5 4l4 6q0 6 -2 7q-2 4 -4 5h-9h-4.5t-4.5 -2l-10 -4q-13 -7 -22 -14q-9 -8 -14 -17q-2 -2 -3 -4.5t-3 -5.5q-3 -4 -4 -9v-8q1 -4 5 -6
q5 -5 11 -3q7 0 13 3q5 1 8.5 3t7.5 4t7.5 4.5t7.5 6.5l12 10l7 7q0 1 2 3q0 1 1 2l2 3l8 8l7 10q3 2 5 5t4 5l3 -1l2 -3q0 -1 1 -2v-1q0 -1 -1 -2t-2 -3l-8 -8l-7 -10l-6 -9l-2 -9q-1 -1 -1 -4v-3l2 -4h4q5 0 8 1l8 5q2 2 5 4t5 5q3 2 5 4l4 4l4 6l4 5l2 2l2 3l2 2l6 8
l10 15q0 -2 0.5 -3.5t0.5 -3.5q2 -6 2 -7l2 -4q-8 -2 -12 -6l-10 -7q-2 -2 -3.5 -4.5t-2.5 -4.5q-1 -3 -1 -8q0 -3 5 -5h9zM447 440q0 -4 2 -4l5 -4h5h6q4 1 7 2l6 2l13 7l11 10l9 8l7 10l5 8l3 9q2 5 0 7q0 3 -3 5q0 2 -5 4q-1 0 -3 0.5t-4 0.5q-3 0 -9 -2q-2 0 -3 -0.5
l-3 -1.5l-6 -2l-12 -8l-11 -9l-8 -9l-6 -9q-5 -8 -6 -13v-11zM125 8q-4 3 -8 13q-2 5 -2 16v8q0 2 1 3.5t1 3.5q1 6 7 12q2 3 5 5l6 4q7 3 16 3h3q2 0 4 -0.5t4 -0.5q4 0 7 -3q7 -4 10 -9q2 -2 4 -6q0 -1 0.5 -1.5t0.5 -1.5v-2h-16v1q0 1 -2 3q-1 2 -2 2.5t-3 2.5q-3 2 -9 2
h-7l-7 -6q-5 -3 -5 -7q-2 -4 -2 -14q0 -4 0.5 -7t1.5 -7q1 -5 6 -7q3 -2 5 -3t5 -1h2q6 0 9 2q2 0 3.5 1.5l2.5 2.5q2 3 3 5t1 5h-18v13h32v-41h-10l-2 10q-3 -4 -7 -7q-2 -2 -4.5 -2.5t-4.5 -1.5q-2 0 -4.5 -0.5t-4.5 -0.5q-6 0 -12 3q-7 3 -10 8zM213 -69q3 7 7 10
q4 4 12 4q3 0 9 -2l3.5 -3.5t2.5 -3.5l1 8h12v-49q0 -5 -2 -13q-3 -5 -8 -7q-6 -3 -16 -3q-2 0 -4.5 0.5t-4.5 0.5q-3 1 -9 5q-2 2 -2 4q-1 2 -1 5h13l3 -4q1 -1 6 -1q6 0 7 1q4 3 4 4t0.5 1.5t0.5 1.5v9q-6 -7 -14 -7q-3 0 -5.5 0.5t-5.5 1.5q-5 4 -8 10q-2 3 -3 6.5
t-1 8.5q0 3 1 6zM578 49q2 -2 3 -4.5t3 -5.5q2 -6 2 -12q0 -8 -4 -15q-1 -4 -9 -10q-5 -4 -15 -4t-17 4q-3 2 -5 5l-4 6q-3 6 -3 14q0 3 0.5 5.5t1.5 5.5q1 5 5 9q5 5 10 7q3 2 12 2q8 0 12 -2q2 -2 4 -2.5t4 -2.5zM357 -56h12v-8h2q1 0 2 1l4 4l4 3q1 1 4 1q5 0 8 -2
q4 -2 6 -4q4 -4 5 -10q3 -5 3 -11q0 -2 -0.5 -3t-0.5 -3t-1 -3t-2 -3q-2 -8 -6 -11q-5 -4 -12 -4q-5 0 -7 1l-4 3q-1 1 -3 1l-1 2v-25h-13v71zM799 -56h13v-8q4 9 15 9q4 0 8 -2q3 -2 6 -6q1 4 5 6t8 2q5 0 11 -2q4 -4 5 -7q2 -4 2 -9v-35h-13v31q0 11 -8 11q-9 0 -9 -11
v-31h-13v36q0 2 -2 4t-7 2q-8 0 -8 -11v-31h-13v52zM739 -72q2 6 5 9q3 4 8 6q6 2 12 2q5 0 11 -2l4 -2t4 -3t2.5 -4.5t2.5 -4.5q1 -3 1 -11t-3 -14q-2 -7 -8 -10t-14 -3q-10 0 -15 4q-6 3 -9 10q-2 8 -2 13q0 6 1 10zM124 345l5 5l4 5l5 5q2 4 4 6l31 42l9 15l10 15
q3 4 5.5 7.5t4.5 7.5l8 16q1 2 0 3t-2 1q-4 0 -5 -1l-4 -2l-16 -20q-3 -3 -7 -9l-8 -10l-27 -39l-13 -20l-11 -21l-2 -3v-5h5zM744 -1q-3 0 -4.5 -0.5t-3.5 -0.5t-4 0.5t-4 0.5q-2 2 -3.5 3t-3.5 3q-2 4 -2 10q0 8 4 12q8 4 12 5l13 2q5 0 5 4q0 7 -9 7q-4 0 -6 -2
q-3 -1 -4 -7h-13q0 7 3 12q2 3 8 6q2 2 6 2h6q12 0 16 -2l3.5 -3.5t2.5 -3.5t1 -7v-35q0 -3 4 -3v-3h-16q-1 0 -1 1v1v1q0 2 -0.5 2.5t-0.5 1.5l-4 -4q-1 -1 -1.5 -1t-1.5 -1t-2 -1zM245 22h-38q0 -3 4 -9q3 -3 9 -3q2 0 3.5 0.5t2.5 0.5q4 4 4 5h15l-5 -10l-8 -6l-6 -1.5
t-6 -0.5q-27 0 -27 30q0 10 3 14q2 7 8 10q4 3 7.5 3.5t8.5 0.5q11 0 14 -4q6 -3 9 -11q2 -5 2 -15v-4zM494 317q3 4 3 12q0 5 -2 8q-2 6 -5 8q-2 3 -9 5q-6 3 -11 3q-10 0 -14 -4q-4 -1 -6 -3.5t-4 -4.5q-4 -5 -4 -12t2 -10q2 -2 3 -3.5t3 -3.5q3 -3 9 -5q3 -1 5.5 -1.5
t5.5 -0.5q8 0 13 3q4 2 6.5 4.5zM135 442q-2 -5 0 -8q1 -2 2 -3l3 -3l9 -3q7 0 11 1q2 0 2 1q1 1 1 2t-1 1h-2q-2 0 -2 -1q-7 -1 -14 1q-4 2 -5 4q0 2 -0.5 2.5t-0.5 2.5q0 3 1 6l3 7l8 9q2 2 5 4l6 4t5.5 3.5t6.5 3.5l12 6q4 0 7 1t7 3l14 2q8 2 13 2q3 0 11 -2q5 0 7 -3
l5 -6v-8q0 -6 -1 -10l-5 -9q-2 -3 -3.5 -5.5t-3.5 -4.5q-2 -3 -4.5 -5t-5.5 -5q-2 -3 -10 -9l-11 -7l-12 -5l-7 -3q-1 0 -2.5 -0.5t-3.5 -0.5h-2q-2 0 -3 -1q-1 0 -1 -1q-2 0 -2 -2q0 -1 1 -1h2q2 0 3 1h2l13 4l13 6l13 5l13 8l11 8l10 9l8 10q2 2 3.5 4.5t2.5 5.5q2 6 2 9
q1 5 0 9l-3 7l-7 5q-3 1 -5 1.5t-5 0.5q-4 1 -11 1q-4 0 -12 -2q-7 0 -13.5 -2t-14.5 -4q-14 -4 -26 -11q-3 -2 -6.5 -3.5t-6.5 -3.5l-6 -4t-5 -5l-4.5 -4.5l-4.5 -4.5zM502 -83q5 5 10 5l12 2q4 0 4 3q0 8 -7 8q-5 0 -6 -3q-3 -2 -3 -5h-13q0 7 3 10q3 5 7 6q2 1 5 1
q2 1 7 1t8 -0.5t6 -1.5q4 -3 6 -6q1 -2 1 -7v-27q0 -5 1 -6q0 -1 2 -3v-2h-15v1q0 1 -0.5 1t-0.5 1v3q-2 -1 -2.5 -2t-1.5 -2q-2 -1 -3 -1t-2 -1q-2 -1 -7 -1q-4 0 -7 1l-7 5q-2 4 -2 9q0 8 5 11zM38 -83q5 5 10 5l13 2q5 0 5 3q0 8 -8 8q-5 0 -6 -3q-4 -1 -4 -5h-12
q0 7 3 10q1 4 6 6q2 1 7 1q2 1 6 1q7 0 13 -2q4 -3 6 -6q1 -2 1 -7v-27q0 -5 1 -6q0 -1 2 -3v-2h-14v3q-1 1 -1 3l-4 -4q-2 -1 -3 -1t-2 -1q-2 -1 -6 -1q-6 0 -9 1q-3 2 -5 5q-3 3 -3 9q0 8 4 11zM414 -69q3 7 8 10q5 4 13 4q11 0 15 -4q5 -3 8 -11q2 -8 2 -13v-3h-35
q0 -6 3 -9t8 -3q3 0 7 2l3 4h13q-2 -8 -4 -10t-4 -3l-4 -2q-6 -2 -11 -2q-24 0 -24 28q0 8 2 12zM606 -69q3 7 8 10q5 4 14 4q10 0 14 -4q5 -3 7 -11q3 -6 3 -13v-3h-35q0 -6 3 -9t8 -3q3 0 7 2l3 4h13q-2 -8 -5 -10q-4 -4 -7 -5q-6 -2 -11 -2q-24 0 -24 28q0 4 2 12z
M644 48q2 -6 2 -10v-39h-14v34q0 4 -2 8q-3 3 -8 3q-6 0 -9 -4q-2 -2 -2 -9v-32h-15v56h14v-8q6 9 17 9q7 0 10 -2zM389 7q-3 -4 -7 -6q-6 -3 -10 -3q-10 0 -14 6q-5 4 -5 14v37h14v-34q0 -10 10 -10h5l5 5q0 1 1 2.5t1 3.5v33h13v-56h-13v8zM299 -60l-1 4h16l10 -38l10 38
h15l-17 -50l-1 -1l-4 -11l-3 -6q-3 -3 -5 -3t-3.5 -0.5t-3.5 -0.5h-7v11h8q1 0 3 2v2q1 1 1 3zM155 -56h12v-8q6 9 16 9q4 0 10 -2q3 -2 6 -6q2 -4 2 -10v-35h-14v31q0 6 -1 7q-2 4 -8 4q-4 0 -8 -4q-2 -6 -2 -8v-30h-13v52zM689 -63q6 8 19 8q5 0 11 -2q3 -1 9 -7
q4 -5 4 -11h-14l-3 6q-3 3 -6 3q-5 0 -8 -5q-3 -3 -3 -10q0 -3 0.5 -5t0.5 -4q2 -4 4 -5q1 -2 5 -2q5 0 6 2q3 1 3 6h15q-2 -6 -4 -11q-2 -2 -4 -3.5t-4 -2.5q-5 -3 -12 -3q-10 0 -17 6q-3 1 -5 8q-2 6 -2 12q0 8 5 20zM556 -63q6 8 19 8q5 0 11 -2q4 -1 8 -7q2 -3 3.5 -5.5
t1.5 -5.5h-15q0 2 -2 6q-3 3 -6 3q-5 0 -8 -5q-4 -3 -4 -10q0 -3 0.5 -5t0.5 -4l4 -5q2 -2 6 -2t6 2q3 1 3 6h13q0 -5 -3 -11l-3.5 -3.5t-3.5 -2.5q-6 -3 -12 -3q-11 0 -17 6q-3 1 -5 8q-2 6 -2 12q0 8 5 20zM337 63q-2 0 -2 -2v-6h9v-10h-9v-46h-15v46h-7v10h7v4
q0 16 17 16h7v-12h-7zM515 55h10v-10h-10v-46h-15v46h-7v10h7v4q0 16 17 16h6v-12h-6q-1 0 -2 -2v-6zM806 -1h-9q-7 0 -10 2q-3 0 -4 4q0 1 -1 2.5t-1 3.5v34h-7v10h7v14h16v-14h9v-10h-9v-34q1 0 2 -0.5t3 -0.5l2 1h2v-12zM272 69v-14h8v-10h-8v-30q0 -4 1 -4q0 -1 1 -1h4
l1 1h1v-12h-8q-7 0 -10 2q-3 0 -4 4q-1 1 -1 6v34h-8v10h8v14h15zM461 436q-2 0 -2 1v6q2 7 5 10l7 11l5 6l12 15l4.5 4.5l4.5 4.5l4 4l5 2q2 1 5 1l2 -1q1 -1 1 -4q0 -1 -2 -5l-2 -4l-3 -5l-3 -5l-10 -15l-8 -9l-10 -10q0 -1 -5 -3q-1 -2 -6 -4h-4zM623 478l4 5l3 6l4 5
l9 12l13 16l3 4l8 6q1 1 4 1q2 1 4 1l3 -2q0 -1 0.5 -1.5t0.5 -1.5q0 -2 -1 -4q0 -1 -2 -3l-8 -11l-6 -11l-8 -7l-8 -9l-5 -4l-6 -5l-5 -4q-2 0 -2.5 -1t-2.5 -1q-4 -2 -5 -1h-1q-1 1 -1 2l1 1q0 1 1 2zM685 -1h-10q-7 0 -8 2q-4 0 -5 4v40h-9v10h9v14h13v-14h10v-10h-10
v-30v-3q0 -1 1 -1q2 0 2.5 -0.5t2.5 -0.5l2 1h2v-12zM482 345q0 -2 1 -3.5t2 -4.5q0 -1 0.5 -3.5t0.5 -4.5q0 -6 -2 -12q-2 -2 -3 -4.5t-3 -4.5q-2 -1 -8 -1q-5 0 -6 1q-4 0 -6 5l-3 6q-2 6 -2 10q0 2 0.5 4t0.5 4l3 6l3 5q1 1 2 1t3 1q2 2 6 2q0 -1 1 -1h2l3 -2zM471 -66
h-8v10h8v4q0 14 15 14h6v-11h-6l-1 -1l-1 -4v-2h9v-10h-9v-42h-13v42zM273 -66h-7v10h7v13h14v-13h8v-10h-8v-27q0 -3 1 -4q0 -1 1 -1h3l2 1h1v-11h-8q-6 0 -8 1q-5 2 -5 4q-1 1 -1 6v31zM430 -1h-14v76h14v-76zM455 -1h-14v76h14v-76zM412 352h-50v-2h2q4 0 5 -2q3 0 3 -5
v-28q0 -8 -8 -8h-2v-1h50v19l-3 -6l-5 -7q-3 -3 -4 -3l-5 -1q-2 -1 -6 -1h-7v20h1q4 0 9 -3l2 -3q0 -1 0.5 -1.5t0.5 -1.5v-4h1v29h-1v-4l-2 -5q-5 -5 -9 -5h-2v21h8q8 0 11 -1l4 -3l2 -5l3 -7h2v18zM91 -56h12v-9h1l3 5q1 1 1.5 2t2.5 2q1 1 7 1h3v-14h-4q-13 0 -13 -12
v-27h-13v52zM567 352h-23v-2h4q0 -1 2 -1q3 -2 3 -4q2 -2 2 -7v-19l-32 33h-18v-2q4 0 5 -1q1 0 1.5 -0.5t1.5 -0.5q1 -2 1 -5v-26q0 -3 -1 -5l-3 -4q-2 0 -3.5 -0.5t-2.5 -0.5v-1h24v1q-3 0 -5 1h-4l-2 5q-1 1 -1 6v27l39 -40h2v32q0 4 0.5 6t1.5 4q2 2 8 2v2zM354 327
q-1 2 -6 4l-8 3h-5l-1 1q-2 1 -4 1t-3 1q-3 0 -4 1q-1 0 -3 2q-1 0 -1 2v1v4l2 2l4 2q1 0 2 0.5t3 0.5q3 0 7 -2q4 0 6 -2q4 -2 5 -4q2 -1 2.5 -3.5t2.5 -4.5h1v15h-1q-1 -3 -4 -3h-4q-8 5 -15 5q-4 0 -10 -2l-6 -4q-1 -2 -1.5 -3.5t-0.5 -4.5q0 -1 2 -5q0 -3 3 -3l6 -3
q1 -1 10 -3l4 -1q4 -2 6 -2t4 -2q1 0 1 -1q3 -2 3 -5l-2 -4q-1 -2 -4 -3h-5q-5 0 -8 1l-8 3l-5 5q-5 5 -5 10h-1v-21h1q0 3 2 3q2 2 4 2q1 0 1 -0.5t2 -0.5q1 0 1.5 -0.5t1.5 -0.5l7 -2q2 -1 7 -1q2 0 8 2q1 0 6 3q1 1 1 2t2 2v10zM568 16q3 3 3 11q0 7 -3 12t-10 5
q-8 0 -11 -5q-1 -2 -2 -5t-1 -7t1 -6.5t2 -4.5q2 -5 11 -5q8 0 10 5zM128 -56h14v-52h-14v52zM674 348q0 1 2 1q1 0 1.5 0.5t1.5 0.5h1v2h-23v-2h3q4 0 5 -1q2 -1 2 -3t-3 -5l-9 -13l-12 15l-2 4v1q0 1 1 1q0 1 3 1h4v2h-30v-2h1q5 0 7 -1l2 -2t2 -3l14 -19v-10q0 -5 -1 -6
q-4 -2 -7 -2h-3v-1h33v1h-4q-4 0 -6 2t-2 6v11l12 17l2 3q4 2 5 2zM622 326h-1q-2 -2 -2 -3t-1 -3q-2 -2 -2 -4l-2 -3q-4 -4 -6 -5q-1 0 -3 -0.5t-4 -0.5h-12v36q0 5 3 5q1 2 6 2h3v2h-31v-2h2q8 0 8 -7v-28q0 -8 -8 -8h-2v-1h52v20zM773 -71q-2 5 -9 5q-8 0 -10 -5
q-3 -5 -3 -11q0 -7 3 -11q1 -2 4 -3t6 -1q8 0 9 4q3 4 3 11q0 6 -3 11zM289 425q-3 -1 -6 -1q-5 0 -6 1l7 11l9 10l3 4l5 4l5 5l6 2q4 1 7 0v-5l-3 -4q-3 -3 -3 -5q-2 -2 -2.5 -3t-2.5 -2q0 -1 -4 -5q-1 -1 -1.5 -2t-2.5 -2l-5 -4zM373 -93q3 -4 8 -4q6 0 9 4q2 6 2 11
t-2 11q-2 2 -4 3.5t-5 1.5q-12 0 -12 -17q0 -7 4 -10zM292 310q4 3 4 9q-2 -5 -5 -8l-6 -4h-7q-6 0 -9 1q-1 0 -5 4q-2 2 -2 7v24q0 5 2 5q2 2 7 2h3v2h-31v-2q10 0 10 -7v-24q0 -4 5 -11l8 -2q2 -1 9 -1q6 0 12 2q4 2 5 3zM226 -89q0 -2 3 -5q4 -2 6 -2q12 0 12 14
q0 7 -4 11q-2 2 -4 3.5t-4 1.5q-4 0 -7 -5q-3 -3 -3 -11q0 -4 1 -7zM412 451q0 -2 0.5 -3t0.5 -2q-1 -2 -1 -4v-6l-2 -4l-4 -5l-4 -3q-1 0 -1.5 -0.5t-2.5 -0.5q-1 -1 -4 -1q-2 -2 -4 0q-1 0 -3 2v4l2 5l3 4q4 5 9 9zM733 15q0 -4 2 -4q2 -2 5 -2h4l2 1q5 2 5 3q2 4 2 7v7
q-3 -3 -6 -3l-7 -2q-3 0 -5 -2q-2 -1 -2 -5zM660 -93h15v-15h-15v15zM61 -85l-6 -1q-2 0 -6 -2q-2 -2 -2 -5q0 -2 2 -4q2 -1 3 -2t2 -1q2 0 3 2h2l5 3q2 4 2 6v6q-1 0 -5 -2zM231 33q-2 6 -4 8q-4 4 -7 4q-11 0 -11 -12h22zM524 -85l-7 -1q-2 0 -4 -2t-2 -5q0 -2 2 -4
q3 -3 4 -3q2 0 3 2h2l5 3q1 2 1 6v6zM638 -77q0 5 -3 8q-2 1 -3.5 2t-4.5 1q-8 0 -10 -11h21zM446 -77q0 5 -3 8q-2 1 -3.5 2t-4.5 1q-8 0 -10 -11h21zM128 -38h14v-12h-14v12zM769 575q-2 -4 -4 -5l14 18l6 11l13 17l1 1q0 2 2 2q0 1 1 1q0 -4 -1 -5l-4 -5l-3 -5l-3 -4
l-8 -10l-9 -10zM306 352h-23v-2h5q1 0 2 -1q6 -2 6 -11v7l5 4l1 1h4v2z" />
    <glyph glyph-name="seven" unicode="7" horiz-adv-x="902" 
d="M61 517l131 29l-5 18l20 6l-4 19l20 4l-3 22l20 1v20h18l2 18l19 -3l4 20l21 -3l5 19l19 -5l8 18l19 -8l11 19l17 -9l11 17l18 -12l12 16l17 -13l13 14l13 -12l13 11l13 -14l17 11l11 -18l19 10l9 -17l18 8l8 -20l21 6l6 -19l19 5l4 -21l21 2l1 -13l197 43v-242l-90 -20
l2 -1l-12 -13l12 -14l-16 -13l11 -17l-18 -11l11 -18l-17 -10l7 -18l-19 -8l6 -21l-18 -6l3 -19l-20 -4l1 -21l-19 -2v-19h-17l-3 -18l-19 1l-4 -18l-21 3l-5 -20l-19 6l-7 -19l-21 8l-9 -19l-18 10l-11 -17l-18 11l-12 -16l-15 13l-15 -13l-13 12l-13 -12l-12 15l-17 -11
l-12 18l-18 -10l-9 17l-19 -8l-9 20l-19 -6l-6 18l-20 -4l-4 21l-21 -2l-2 20h-20v17l-17 2l2 20l-20 3l4 21l-20 6l6 18l-14 6l-120 -26v241zM595 466l11 11q-1 -1 -1 -3q0 -3 2 -7q1 -2 5 -4q3 -1 10 1q6 1 12 6l10 7l3.5 3.5l3.5 3.5l6 6v-2q0 -1 -0.5 -1.5t-0.5 -1.5v-3
q-2 -3 0 -5q0 -1 0.5 -1.5t0.5 -1.5q0 -3 3 -3h8l3 2l4 3l6 3l16 13l8 8l-2 -6q-2 -3 -2 -9v-3q1 0 2 -1q0 -1 3 -1q2 0 4 2q4 0 6 3l5 3l6 6q1 0 5 4l4.5 4.5l4.5 4.5l9 10v2q0 1 -1 1q-2 0 -4 -2l-1 -2l-6 -7l-5 -6q-5 -3 -6 -6l-7 -6l-4 -3l-4 -1l-1 -1q-1 0 -2 1h1l4 7
q2 4 4 6l3 6q2 1 4 5l31 45q5 5 6 8l8 8l18 21q5 5 8.5 10t7.5 10l5 9v4q-1 1 -4 1q-1 0 -5 -2q-2 0 -3 -1t-3 -2q-2 0 -5 -3l-4 -3l-11 -9l-8 -9q-3 -3 -5 -5.5t-4 -5.5q-1 -2 -3 -4.5t-4 -5.5l-13 -20l-13 -22l-9 -16l-4 -8h-1l-7 -7q-2 -3 -4 -5l-5 -5l-9 -8l-5 -4l-3 -2
l-2 -1l-2 -2h-5l6 10q0 1 1 2q2 4 4 7t5 6l8 14l7 10l4 6l3 5l1 1l1 1q0 1 0.5 1t0.5 1q3 2 2 4q0 1 -3 1l-5 -2l-5 -3l-9 -6l-7 -6q0 3 -1 5q0 1 -3 3q-6 1 -10 0q-8 -2 -11 -4l-12 -6l-9 -8q-13 -9 -18 -19q-7 -8 -10 -18h-2l-8 -9q-3 -2 -5.5 -4t-5.5 -4q-1 -2 -6 -4
q-2 -2 -5 -2h-1q-1 1 0 2l3 4l3 5l6 7l10 13q2 3 4.5 6.5t4.5 7.5l4 8q2 5 1 8q0 3 -1 3q0 2 -3 2t-4 -1l-6 -2l-6 -4l-5 -4l-5 -4q-4 -4 -6 -4l-10 -11l-4.5 -4.5l-4.5 -4.5l-5 -6l-5 -5l1 2l12 17l13 18q0 1 0.5 1t0.5 1q1 1 1 2q1 1 1 3l-3 3q-1 0 -1.5 0.5t-1.5 0.5
t-2 -0.5t-3 -0.5l-5 -3l-2 -2q-2 -1 -2 -2t-1 -2l-2 -3l-38 -65q-1 -1 -1 -2v-1q1 0 1.5 -0.5t1.5 -0.5q2 0 4 1l4 2q0 1 2 3q1 0 1 0.5t1 0.5l2 3q0 2 2 2l8 11l10 10l8 10l11 10l14 14l5 4l5 4l6 2q1 0 1 -1h-1l-2 -2q-1 -3 -4 -4l-2 -3l-6 -7q-2 -2 -3 -3.5t-3 -3.5
l-7 -11l-7 -10l-3 -9q-2 -5 0 -8q1 -3 4 -3h9q2 1 4.5 2.5t6.5 3.5zM397 418q6 0 12 4q8 4 11 8q3 2 4.5 4t3.5 4l4 9q3 4 3 9v8q0 3 -2 7l-3 8l-3 3q0 2 -2 4q0 1 -1 2v5h-4l-2 -2l-6 -4l-2 -6l-1 -1l-2 -3l-16 -22l-2 -3l-3 -5h-1v-1q-1 0 -2 -1l-2 -4l-3 -4l-7 -9
l-11 -10l-6 -3q-2 -2 -6 -2v1l4 5l3 5l4 5l3 4l4 7l5 7l2 7q1 3 1 7q-1 1 -1 4l-1 2q0 2 -1 3v11l3 5q2 3 -2 6q-2 3 -8 0q-5 -1 -8 -4q-3 -1 -5 -6q-2 -2 -2 -5q0 -4 1 -6l2 -1l2 -2l-6 -6l-11 -15l-10 -11q-2 0 -2 -2v-1l-1 -1q0 -1 -1 -1l-5 -7q-4 -3 -7 -6t-7 -5
q-6 -6 -16 -11l-10 -4q-6 -2 -9 -1q-3 0 -3 2q-1 1 -1 3q0 1 2 5l1 4l5 8q2 -1 6 -1h9q5 1 13 6q3 1 5.5 3t6.5 4l7 8q2 2 3.5 4t1.5 4l4 6q0 6 -2 7q-2 4 -4 5h-9h-4.5t-4.5 -2l-10 -4q-13 -7 -22 -14q-9 -8 -14 -17q-2 -2 -3 -4.5t-3 -5.5q-3 -4 -4 -9v-8q1 -4 5 -6
q5 -5 11 -3q7 0 13 3q5 1 8.5 3t7.5 4t7.5 4.5t7.5 6.5l12 10l7 7q0 1 2 3q0 1 1 2l2 3l8 8l7 10q3 2 5 5t4 5l3 -1l2 -3q0 -1 1 -2v-1q0 -1 -1 -2t-2 -3l-8 -8l-7 -10l-6 -9l-2 -9q-1 -1 -1 -4v-3l2 -4h4q5 0 8 1l8 5q2 2 5 4t5 5q3 2 5 4l4 4l4 6l4 5l2 2l2 3l2 2l6 8
l10 15q0 -2 0.5 -3.5t0.5 -3.5q2 -6 2 -7l2 -4q-8 -2 -12 -6l-10 -7q-2 -2 -3.5 -4.5t-2.5 -4.5q-1 -3 -1 -8q0 -3 5 -5h9zM447 440q0 -4 2 -4l5 -4h5h6q4 1 7 2l6 2l13 7l11 10l9 8l7 10l5 8l3 9q2 5 0 7q0 3 -3 5q0 2 -5 4q-1 0 -3 0.5t-4 0.5q-3 0 -9 -2q-2 0 -3 -0.5
l-3 -1.5l-6 -2l-12 -8l-11 -9l-8 -9l-6 -9q-5 -8 -6 -13v-11zM125 8q-4 3 -8 13q-2 5 -2 16v8q0 2 1 3.5t1 3.5q1 6 7 12q2 3 5 5l6 4q7 3 16 3h3q2 0 4 -0.5t4 -0.5q4 0 7 -3q7 -4 10 -9q2 -2 4 -6q0 -1 0.5 -1.5t0.5 -1.5v-2h-16v1q0 1 -2 3q-1 2 -2 2.5t-3 2.5q-3 2 -9 2
h-7l-7 -6q-5 -3 -5 -7q-2 -4 -2 -14q0 -4 0.5 -7t1.5 -7q1 -5 6 -7q3 -2 5 -3t5 -1h2q6 0 9 2q2 0 3.5 1.5l2.5 2.5q2 3 3 5t1 5h-18v13h32v-41h-10l-2 10q-3 -4 -7 -7q-2 -2 -4.5 -2.5t-4.5 -1.5q-2 0 -4.5 -0.5t-4.5 -0.5q-6 0 -12 3q-7 3 -10 8zM213 -69q3 7 7 10
q4 4 12 4q3 0 9 -2l3.5 -3.5t2.5 -3.5l1 8h12v-49q0 -5 -2 -13q-3 -5 -8 -7q-6 -3 -16 -3q-2 0 -4.5 0.5t-4.5 0.5q-3 1 -9 5q-2 2 -2 4q-1 2 -1 5h13l3 -4q1 -1 6 -1q6 0 7 1q4 3 4 4t0.5 1.5t0.5 1.5v9q-6 -7 -14 -7q-3 0 -5.5 0.5t-5.5 1.5q-5 4 -8 10q-2 3 -3 6.5
t-1 8.5q0 3 1 6zM578 49q2 -2 3 -4.5t3 -5.5q2 -6 2 -12q0 -8 -4 -15q-1 -4 -9 -10q-5 -4 -15 -4t-17 4q-3 2 -5 5l-4 6q-3 6 -3 14q0 3 0.5 5.5t1.5 5.5q1 5 5 9q5 5 10 7q3 2 12 2q8 0 12 -2q2 -2 4 -2.5t4 -2.5zM357 -56h12v-8h2q1 0 2 1l4 4l4 3q1 1 4 1q5 0 8 -2
q4 -2 6 -4q4 -4 5 -10q3 -5 3 -11q0 -2 -0.5 -3t-0.5 -3t-1 -3t-2 -3q-2 -8 -6 -11q-5 -4 -12 -4q-5 0 -7 1l-4 3q-1 1 -3 1l-1 2v-25h-13v71zM799 -56h13v-8q4 9 15 9q4 0 8 -2q3 -2 6 -6q1 4 5 6t8 2q5 0 11 -2q4 -4 5 -7q2 -4 2 -9v-35h-13v31q0 11 -8 11q-9 0 -9 -11
v-31h-13v36q0 2 -2 4t-7 2q-8 0 -8 -11v-31h-13v52zM739 -72q2 6 5 9q3 4 8 6q6 2 12 2q5 0 11 -2l4 -2t4 -3t2.5 -4.5t2.5 -4.5q1 -3 1 -11t-3 -14q-2 -7 -8 -10t-14 -3q-10 0 -15 4q-6 3 -9 10q-2 8 -2 13q0 6 1 10zM124 345l5 5l4 5l5 5q2 4 4 6l31 42l9 15l10 15
q3 4 5.5 7.5t4.5 7.5l8 16q1 2 0 3t-2 1q-4 0 -5 -1l-4 -2l-16 -20q-3 -3 -7 -9l-8 -10l-27 -39l-13 -20l-11 -21l-2 -3v-5h5zM744 -1q-3 0 -4.5 -0.5t-3.5 -0.5t-4 0.5t-4 0.5q-2 2 -3.5 3t-3.5 3q-2 4 -2 10q0 8 4 12q8 4 12 5l13 2q5 0 5 4q0 7 -9 7q-4 0 -6 -2
q-3 -1 -4 -7h-13q0 7 3 12q2 3 8 6q2 2 6 2h6q12 0 16 -2l3.5 -3.5t2.5 -3.5t1 -7v-35q0 -3 4 -3v-3h-16q-1 0 -1 1v1v1q0 2 -0.5 2.5t-0.5 1.5l-4 -4q-1 -1 -1.5 -1t-1.5 -1t-2 -1zM245 22h-38q0 -3 4 -9q3 -3 9 -3q2 0 3.5 0.5t2.5 0.5q4 4 4 5h15l-5 -10l-8 -6l-6 -1.5
t-6 -0.5q-27 0 -27 30q0 10 3 14q2 7 8 10q4 3 7.5 3.5t8.5 0.5q11 0 14 -4q6 -3 9 -11q2 -5 2 -15v-4zM494 317q3 4 3 12q0 5 -2 8q-2 6 -5 8q-2 3 -9 5q-6 3 -11 3q-10 0 -14 -4q-4 -1 -6 -3.5t-4 -4.5q-4 -5 -4 -12t2 -10q2 -2 3 -3.5t3 -3.5q3 -3 9 -5q3 -1 5.5 -1.5
t5.5 -0.5q8 0 13 3q4 2 6.5 4.5zM135 442q-2 -5 0 -8q1 -2 2 -3l3 -3l9 -3q7 0 11 1q2 0 2 1q1 1 1 2t-1 1h-2q-2 0 -2 -1q-7 -1 -14 1q-4 2 -5 4q0 2 -0.5 2.5t-0.5 2.5q0 3 1 6l3 7l8 9q2 2 5 4l6 4t5.5 3.5t6.5 3.5l12 6q4 0 7 1t7 3l14 2q8 2 13 2q3 0 11 -2q5 0 7 -3
l5 -6v-8q0 -6 -1 -10l-5 -9q-2 -3 -3.5 -5.5t-3.5 -4.5q-2 -3 -4.5 -5t-5.5 -5q-2 -3 -10 -9l-11 -7l-12 -5l-7 -3q-1 0 -2.5 -0.5t-3.5 -0.5h-2q-2 0 -3 -1q-1 0 -1 -1q-2 0 -2 -2q0 -1 1 -1h2q2 0 3 1h2l13 4l13 6l13 5l13 8l11 8l10 9l8 10q2 2 3.5 4.5t2.5 5.5q2 6 2 9
q1 5 0 9l-3 7l-7 5q-3 1 -5 1.5t-5 0.5q-4 1 -11 1q-4 0 -12 -2q-7 0 -13.5 -2t-14.5 -4q-14 -4 -26 -11q-3 -2 -6.5 -3.5t-6.5 -3.5l-6 -4t-5 -5l-4.5 -4.5l-4.5 -4.5zM502 -83q5 5 10 5l12 2q4 0 4 3q0 8 -7 8q-5 0 -6 -3q-3 -2 -3 -5h-13q0 7 3 10q3 5 7 6q2 1 5 1
q2 1 7 1t8 -0.5t6 -1.5q4 -3 6 -6q1 -2 1 -7v-27q0 -5 1 -6q0 -1 2 -3v-2h-15v1q0 1 -0.5 1t-0.5 1v3q-2 -1 -2.5 -2t-1.5 -2q-2 -1 -3 -1t-2 -1q-2 -1 -7 -1q-4 0 -7 1l-7 5q-2 4 -2 9q0 8 5 11zM38 -83q5 5 10 5l13 2q5 0 5 3q0 8 -8 8q-5 0 -6 -3q-4 -1 -4 -5h-12
q0 7 3 10q1 4 6 6q2 1 7 1q2 1 6 1q7 0 13 -2q4 -3 6 -6q1 -2 1 -7v-27q0 -5 1 -6q0 -1 2 -3v-2h-14v3q-1 1 -1 3l-4 -4q-2 -1 -3 -1t-2 -1q-2 -1 -6 -1q-6 0 -9 1q-3 2 -5 5q-3 3 -3 9q0 8 4 11zM414 -69q3 7 8 10q5 4 13 4q11 0 15 -4q5 -3 8 -11q2 -8 2 -13v-3h-35
q0 -6 3 -9t8 -3q3 0 7 2l3 4h13q-2 -8 -4 -10t-4 -3l-4 -2q-6 -2 -11 -2q-24 0 -24 28q0 8 2 12zM606 -69q3 7 8 10q5 4 14 4q10 0 14 -4q5 -3 7 -11q3 -6 3 -13v-3h-35q0 -6 3 -9t8 -3q3 0 7 2l3 4h13q-2 -8 -5 -10q-4 -4 -7 -5q-6 -2 -11 -2q-24 0 -24 28q0 4 2 12z
M644 48q2 -6 2 -10v-39h-14v34q0 4 -2 8q-3 3 -8 3q-6 0 -9 -4q-2 -2 -2 -9v-32h-15v56h14v-8q6 9 17 9q7 0 10 -2zM389 7q-3 -4 -7 -6q-6 -3 -10 -3q-10 0 -14 6q-5 4 -5 14v37h14v-34q0 -10 10 -10h5l5 5q0 1 1 2.5t1 3.5v33h13v-56h-13v8zM299 -60l-1 4h16l10 -38l10 38
h15l-17 -50l-1 -1l-4 -11l-3 -6q-3 -3 -5 -3t-3.5 -0.5t-3.5 -0.5h-7v11h8q1 0 3 2v2q1 1 1 3zM155 -56h12v-8q6 9 16 9q4 0 10 -2q3 -2 6 -6q2 -4 2 -10v-35h-14v31q0 6 -1 7q-2 4 -8 4q-4 0 -8 -4q-2 -6 -2 -8v-30h-13v52zM689 -63q6 8 19 8q5 0 11 -2q3 -1 9 -7
q4 -5 4 -11h-14l-3 6q-3 3 -6 3q-5 0 -8 -5q-3 -3 -3 -10q0 -3 0.5 -5t0.5 -4q2 -4 4 -5q1 -2 5 -2q5 0 6 2q3 1 3 6h15q-2 -6 -4 -11q-2 -2 -4 -3.5t-4 -2.5q-5 -3 -12 -3q-10 0 -17 6q-3 1 -5 8q-2 6 -2 12q0 8 5 20zM556 -63q6 8 19 8q5 0 11 -2q4 -1 8 -7q2 -3 3.5 -5.5
t1.5 -5.5h-15q0 2 -2 6q-3 3 -6 3q-5 0 -8 -5q-4 -3 -4 -10q0 -3 0.5 -5t0.5 -4l4 -5q2 -2 6 -2t6 2q3 1 3 6h13q0 -5 -3 -11l-3.5 -3.5t-3.5 -2.5q-6 -3 -12 -3q-11 0 -17 6q-3 1 -5 8q-2 6 -2 12q0 8 5 20zM337 63q-2 0 -2 -2v-6h9v-10h-9v-46h-15v46h-7v10h7v4
q0 16 17 16h7v-12h-7zM515 55h10v-10h-10v-46h-15v46h-7v10h7v4q0 16 17 16h6v-12h-6q-1 0 -2 -2v-6zM806 -1h-9q-7 0 -10 2q-3 0 -4 4q0 1 -1 2.5t-1 3.5v34h-7v10h7v14h16v-14h9v-10h-9v-34q1 0 2 -0.5t3 -0.5l2 1h2v-12zM272 69v-14h8v-10h-8v-30q0 -4 1 -4q0 -1 1 -1h4
l1 1h1v-12h-8q-7 0 -10 2q-3 0 -4 4q-1 1 -1 6v34h-8v10h8v14h15zM461 436q-2 0 -2 1v6q2 7 5 10l7 11l5 6l12 15l4.5 4.5l4.5 4.5l4 4l5 2q2 1 5 1l2 -1q1 -1 1 -4q0 -1 -2 -5l-2 -4l-3 -5l-3 -5l-10 -15l-8 -9l-10 -10q0 -1 -5 -3q-1 -2 -6 -4h-4zM623 478l4 5l3 6l4 5
l9 12l13 16l3 4l8 6q1 1 4 1q2 1 4 1l3 -2q0 -1 0.5 -1.5t0.5 -1.5q0 -2 -1 -4q0 -1 -2 -3l-8 -11l-6 -11l-8 -7l-8 -9l-5 -4l-6 -5l-5 -4q-2 0 -2.5 -1t-2.5 -1q-4 -2 -5 -1h-1q-1 1 -1 2l1 1q0 1 1 2zM685 -1h-10q-7 0 -8 2q-4 0 -5 4v40h-9v10h9v14h13v-14h10v-10h-10
v-30v-3q0 -1 1 -1q2 0 2.5 -0.5t2.5 -0.5l2 1h2v-12zM482 345q0 -2 1 -3.5t2 -4.5q0 -1 0.5 -3.5t0.5 -4.5q0 -6 -2 -12q-2 -2 -3 -4.5t-3 -4.5q-2 -1 -8 -1q-5 0 -6 1q-4 0 -6 5l-3 6q-2 6 -2 10q0 2 0.5 4t0.5 4l3 6l3 5q1 1 2 1t3 1q2 2 6 2q0 -1 1 -1h2l3 -2zM471 -66
h-8v10h8v4q0 14 15 14h6v-11h-6l-1 -1l-1 -4v-2h9v-10h-9v-42h-13v42zM273 -66h-7v10h7v13h14v-13h8v-10h-8v-27q0 -3 1 -4q0 -1 1 -1h3l2 1h1v-11h-8q-6 0 -8 1q-5 2 -5 4q-1 1 -1 6v31zM430 -1h-14v76h14v-76zM455 -1h-14v76h14v-76zM412 352h-50v-2h2q4 0 5 -2q3 0 3 -5
v-28q0 -8 -8 -8h-2v-1h50v19l-3 -6l-5 -7q-3 -3 -4 -3l-5 -1q-2 -1 -6 -1h-7v20h1q4 0 9 -3l2 -3q0 -1 0.5 -1.5t0.5 -1.5v-4h1v29h-1v-4l-2 -5q-5 -5 -9 -5h-2v21h8q8 0 11 -1l4 -3l2 -5l3 -7h2v18zM91 -56h12v-9h1l3 5q1 1 1.5 2t2.5 2q1 1 7 1h3v-14h-4q-13 0 -13 -12
v-27h-13v52zM567 352h-23v-2h4q0 -1 2 -1q3 -2 3 -4q2 -2 2 -7v-19l-32 33h-18v-2q4 0 5 -1q1 0 1.5 -0.5t1.5 -0.5q1 -2 1 -5v-26q0 -3 -1 -5l-3 -4q-2 0 -3.5 -0.5t-2.5 -0.5v-1h24v1q-3 0 -5 1h-4l-2 5q-1 1 -1 6v27l39 -40h2v32q0 4 0.5 6t1.5 4q2 2 8 2v2zM354 327
q-1 2 -6 4l-8 3h-5l-1 1q-2 1 -4 1t-3 1q-3 0 -4 1q-1 0 -3 2q-1 0 -1 2v1v4l2 2l4 2q1 0 2 0.5t3 0.5q3 0 7 -2q4 0 6 -2q4 -2 5 -4q2 -1 2.5 -3.5t2.5 -4.5h1v15h-1q-1 -3 -4 -3h-4q-8 5 -15 5q-4 0 -10 -2l-6 -4q-1 -2 -1.5 -3.5t-0.5 -4.5q0 -1 2 -5q0 -3 3 -3l6 -3
q1 -1 10 -3l4 -1q4 -2 6 -2t4 -2q1 0 1 -1q3 -2 3 -5l-2 -4q-1 -2 -4 -3h-5q-5 0 -8 1l-8 3l-5 5q-5 5 -5 10h-1v-21h1q0 3 2 3q2 2 4 2q1 0 1 -0.5t2 -0.5q1 0 1.5 -0.5t1.5 -0.5l7 -2q2 -1 7 -1q2 0 8 2q1 0 6 3q1 1 1 2t2 2v10zM568 16q3 3 3 11q0 7 -3 12t-10 5
q-8 0 -11 -5q-1 -2 -2 -5t-1 -7t1 -6.5t2 -4.5q2 -5 11 -5q8 0 10 5zM128 -56h14v-52h-14v52zM674 348q0 1 2 1q1 0 1.5 0.5t1.5 0.5h1v2h-23v-2h3q4 0 5 -1q2 -1 2 -3t-3 -5l-9 -13l-12 15l-2 4v1q0 1 1 1q0 1 3 1h4v2h-30v-2h1q5 0 7 -1l2 -2t2 -3l14 -19v-10q0 -5 -1 -6
q-4 -2 -7 -2h-3v-1h33v1h-4q-4 0 -6 2t-2 6v11l12 17l2 3q4 2 5 2zM622 326h-1q-2 -2 -2 -3t-1 -3q-2 -2 -2 -4l-2 -3q-4 -4 -6 -5q-1 0 -3 -0.5t-4 -0.5h-12v36q0 5 3 5q1 2 6 2h3v2h-31v-2h2q8 0 8 -7v-28q0 -8 -8 -8h-2v-1h52v20zM773 -71q-2 5 -9 5q-8 0 -10 -5
q-3 -5 -3 -11q0 -7 3 -11q1 -2 4 -3t6 -1q8 0 9 4q3 4 3 11q0 6 -3 11zM289 425q-3 -1 -6 -1q-5 0 -6 1l7 11l9 10l3 4l5 4l5 5l6 2q4 1 7 0v-5l-3 -4q-3 -3 -3 -5q-2 -2 -2.5 -3t-2.5 -2q0 -1 -4 -5q-1 -1 -1.5 -2t-2.5 -2l-5 -4zM373 -93q3 -4 8 -4q6 0 9 4q2 6 2 11
t-2 11q-2 2 -4 3.5t-5 1.5q-12 0 -12 -17q0 -7 4 -10zM292 310q4 3 4 9q-2 -5 -5 -8l-6 -4h-7q-6 0 -9 1q-1 0 -5 4q-2 2 -2 7v24q0 5 2 5q2 2 7 2h3v2h-31v-2q10 0 10 -7v-24q0 -4 5 -11l8 -2q2 -1 9 -1q6 0 12 2q4 2 5 3zM226 -89q0 -2 3 -5q4 -2 6 -2q12 0 12 14
q0 7 -4 11q-2 2 -4 3.5t-4 1.5q-4 0 -7 -5q-3 -3 -3 -11q0 -4 1 -7zM412 451q0 -2 0.5 -3t0.5 -2q-1 -2 -1 -4v-6l-2 -4l-4 -5l-4 -3q-1 0 -1.5 -0.5t-2.5 -0.5q-1 -1 -4 -1q-2 -2 -4 0q-1 0 -3 2v4l2 5l3 4q4 5 9 9zM733 15q0 -4 2 -4q2 -2 5 -2h4l2 1q5 2 5 3q2 4 2 7v7
q-3 -3 -6 -3l-7 -2q-3 0 -5 -2q-2 -1 -2 -5zM660 -93h15v-15h-15v15zM61 -85l-6 -1q-2 0 -6 -2q-2 -2 -2 -5q0 -2 2 -4q2 -1 3 -2t2 -1q2 0 3 2h2l5 3q2 4 2 6v6q-1 0 -5 -2zM231 33q-2 6 -4 8q-4 4 -7 4q-11 0 -11 -12h22zM524 -85l-7 -1q-2 0 -4 -2t-2 -5q0 -2 2 -4
q3 -3 4 -3q2 0 3 2h2l5 3q1 2 1 6v6zM638 -77q0 5 -3 8q-2 1 -3.5 2t-4.5 1q-8 0 -10 -11h21zM446 -77q0 5 -3 8q-2 1 -3.5 2t-4.5 1q-8 0 -10 -11h21zM128 -38h14v-12h-14v12zM769 575q-2 -4 -4 -5l14 18l6 11l13 17l1 1q0 2 2 2q0 1 1 1q0 -4 -1 -5l-4 -5l-3 -5l-3 -4
l-8 -10l-9 -10zM306 352h-23v-2h5q1 0 2 -1q6 -2 6 -11v7l5 4l1 1h4v2z" />
    <glyph glyph-name="eight" unicode="8" horiz-adv-x="902" 
d="M61 517l131 29l-5 18l20 6l-4 19l20 4l-3 22l20 1v20h18l2 18l19 -3l4 20l21 -3l5 19l19 -5l8 18l19 -8l11 19l17 -9l11 17l18 -12l12 16l17 -13l13 14l13 -12l13 11l13 -14l17 11l11 -18l19 10l9 -17l18 8l8 -20l21 6l6 -19l19 5l4 -21l21 2l1 -13l197 43v-242l-90 -20
l2 -1l-12 -13l12 -14l-16 -13l11 -17l-18 -11l11 -18l-17 -10l7 -18l-19 -8l6 -21l-18 -6l3 -19l-20 -4l1 -21l-19 -2v-19h-17l-3 -18l-19 1l-4 -18l-21 3l-5 -20l-19 6l-7 -19l-21 8l-9 -19l-18 10l-11 -17l-18 11l-12 -16l-15 13l-15 -13l-13 12l-13 -12l-12 15l-17 -11
l-12 18l-18 -10l-9 17l-19 -8l-9 20l-19 -6l-6 18l-20 -4l-4 21l-21 -2l-2 20h-20v17l-17 2l2 20l-20 3l4 21l-20 6l6 18l-14 6l-120 -26v241zM595 466l11 11q-1 -1 -1 -3q0 -3 2 -7q1 -2 5 -4q3 -1 10 1q6 1 12 6l10 7l3.5 3.5l3.5 3.5l6 6v-2q0 -1 -0.5 -1.5t-0.5 -1.5v-3
q-2 -3 0 -5q0 -1 0.5 -1.5t0.5 -1.5q0 -3 3 -3h8l3 2l4 3l6 3l16 13l8 8l-2 -6q-2 -3 -2 -9v-3q1 0 2 -1q0 -1 3 -1q2 0 4 2q4 0 6 3l5 3l6 6q1 0 5 4l4.5 4.5l4.5 4.5l9 10v2q0 1 -1 1q-2 0 -4 -2l-1 -2l-6 -7l-5 -6q-5 -3 -6 -6l-7 -6l-4 -3l-4 -1l-1 -1q-1 0 -2 1h1l4 7
q2 4 4 6l3 6q2 1 4 5l31 45q5 5 6 8l8 8l18 21q5 5 8.5 10t7.5 10l5 9v4q-1 1 -4 1q-1 0 -5 -2q-2 0 -3 -1t-3 -2q-2 0 -5 -3l-4 -3l-11 -9l-8 -9q-3 -3 -5 -5.5t-4 -5.5q-1 -2 -3 -4.5t-4 -5.5l-13 -20l-13 -22l-9 -16l-4 -8h-1l-7 -7q-2 -3 -4 -5l-5 -5l-9 -8l-5 -4l-3 -2
l-2 -1l-2 -2h-5l6 10q0 1 1 2q2 4 4 7t5 6l8 14l7 10l4 6l3 5l1 1l1 1q0 1 0.5 1t0.5 1q3 2 2 4q0 1 -3 1l-5 -2l-5 -3l-9 -6l-7 -6q0 3 -1 5q0 1 -3 3q-6 1 -10 0q-8 -2 -11 -4l-12 -6l-9 -8q-13 -9 -18 -19q-7 -8 -10 -18h-2l-8 -9q-3 -2 -5.5 -4t-5.5 -4q-1 -2 -6 -4
q-2 -2 -5 -2h-1q-1 1 0 2l3 4l3 5l6 7l10 13q2 3 4.5 6.5t4.5 7.5l4 8q2 5 1 8q0 3 -1 3q0 2 -3 2t-4 -1l-6 -2l-6 -4l-5 -4l-5 -4q-4 -4 -6 -4l-10 -11l-4.5 -4.5l-4.5 -4.5l-5 -6l-5 -5l1 2l12 17l13 18q0 1 0.5 1t0.5 1q1 1 1 2q1 1 1 3l-3 3q-1 0 -1.5 0.5t-1.5 0.5
t-2 -0.5t-3 -0.5l-5 -3l-2 -2q-2 -1 -2 -2t-1 -2l-2 -3l-38 -65q-1 -1 -1 -2v-1q1 0 1.5 -0.5t1.5 -0.5q2 0 4 1l4 2q0 1 2 3q1 0 1 0.5t1 0.5l2 3q0 2 2 2l8 11l10 10l8 10l11 10l14 14l5 4l5 4l6 2q1 0 1 -1h-1l-2 -2q-1 -3 -4 -4l-2 -3l-6 -7q-2 -2 -3 -3.5t-3 -3.5
l-7 -11l-7 -10l-3 -9q-2 -5 0 -8q1 -3 4 -3h9q2 1 4.5 2.5t6.5 3.5zM397 418q6 0 12 4q8 4 11 8q3 2 4.5 4t3.5 4l4 9q3 4 3 9v8q0 3 -2 7l-3 8l-3 3q0 2 -2 4q0 1 -1 2v5h-4l-2 -2l-6 -4l-2 -6l-1 -1l-2 -3l-16 -22l-2 -3l-3 -5h-1v-1q-1 0 -2 -1l-2 -4l-3 -4l-7 -9
l-11 -10l-6 -3q-2 -2 -6 -2v1l4 5l3 5l4 5l3 4l4 7l5 7l2 7q1 3 1 7q-1 1 -1 4l-1 2q0 2 -1 3v11l3 5q2 3 -2 6q-2 3 -8 0q-5 -1 -8 -4q-3 -1 -5 -6q-2 -2 -2 -5q0 -4 1 -6l2 -1l2 -2l-6 -6l-11 -15l-10 -11q-2 0 -2 -2v-1l-1 -1q0 -1 -1 -1l-5 -7q-4 -3 -7 -6t-7 -5
q-6 -6 -16 -11l-10 -4q-6 -2 -9 -1q-3 0 -3 2q-1 1 -1 3q0 1 2 5l1 4l5 8q2 -1 6 -1h9q5 1 13 6q3 1 5.5 3t6.5 4l7 8q2 2 3.5 4t1.5 4l4 6q0 6 -2 7q-2 4 -4 5h-9h-4.5t-4.5 -2l-10 -4q-13 -7 -22 -14q-9 -8 -14 -17q-2 -2 -3 -4.5t-3 -5.5q-3 -4 -4 -9v-8q1 -4 5 -6
q5 -5 11 -3q7 0 13 3q5 1 8.5 3t7.5 4t7.5 4.5t7.5 6.5l12 10l7 7q0 1 2 3q0 1 1 2l2 3l8 8l7 10q3 2 5 5t4 5l3 -1l2 -3q0 -1 1 -2v-1q0 -1 -1 -2t-2 -3l-8 -8l-7 -10l-6 -9l-2 -9q-1 -1 -1 -4v-3l2 -4h4q5 0 8 1l8 5q2 2 5 4t5 5q3 2 5 4l4 4l4 6l4 5l2 2l2 3l2 2l6 8
l10 15q0 -2 0.5 -3.5t0.5 -3.5q2 -6 2 -7l2 -4q-8 -2 -12 -6l-10 -7q-2 -2 -3.5 -4.5t-2.5 -4.5q-1 -3 -1 -8q0 -3 5 -5h9zM447 440q0 -4 2 -4l5 -4h5h6q4 1 7 2l6 2l13 7l11 10l9 8l7 10l5 8l3 9q2 5 0 7q0 3 -3 5q0 2 -5 4q-1 0 -3 0.5t-4 0.5q-3 0 -9 -2q-2 0 -3 -0.5
l-3 -1.5l-6 -2l-12 -8l-11 -9l-8 -9l-6 -9q-5 -8 -6 -13v-11zM125 8q-4 3 -8 13q-2 5 -2 16v8q0 2 1 3.5t1 3.5q1 6 7 12q2 3 5 5l6 4q7 3 16 3h3q2 0 4 -0.5t4 -0.5q4 0 7 -3q7 -4 10 -9q2 -2 4 -6q0 -1 0.5 -1.5t0.5 -1.5v-2h-16v1q0 1 -2 3q-1 2 -2 2.5t-3 2.5q-3 2 -9 2
h-7l-7 -6q-5 -3 -5 -7q-2 -4 -2 -14q0 -4 0.5 -7t1.5 -7q1 -5 6 -7q3 -2 5 -3t5 -1h2q6 0 9 2q2 0 3.5 1.5l2.5 2.5q2 3 3 5t1 5h-18v13h32v-41h-10l-2 10q-3 -4 -7 -7q-2 -2 -4.5 -2.5t-4.5 -1.5q-2 0 -4.5 -0.5t-4.5 -0.5q-6 0 -12 3q-7 3 -10 8zM213 -69q3 7 7 10
q4 4 12 4q3 0 9 -2l3.5 -3.5t2.5 -3.5l1 8h12v-49q0 -5 -2 -13q-3 -5 -8 -7q-6 -3 -16 -3q-2 0 -4.5 0.5t-4.5 0.5q-3 1 -9 5q-2 2 -2 4q-1 2 -1 5h13l3 -4q1 -1 6 -1q6 0 7 1q4 3 4 4t0.5 1.5t0.5 1.5v9q-6 -7 -14 -7q-3 0 -5.5 0.5t-5.5 1.5q-5 4 -8 10q-2 3 -3 6.5
t-1 8.5q0 3 1 6zM578 49q2 -2 3 -4.5t3 -5.5q2 -6 2 -12q0 -8 -4 -15q-1 -4 -9 -10q-5 -4 -15 -4t-17 4q-3 2 -5 5l-4 6q-3 6 -3 14q0 3 0.5 5.5t1.5 5.5q1 5 5 9q5 5 10 7q3 2 12 2q8 0 12 -2q2 -2 4 -2.5t4 -2.5zM357 -56h12v-8h2q1 0 2 1l4 4l4 3q1 1 4 1q5 0 8 -2
q4 -2 6 -4q4 -4 5 -10q3 -5 3 -11q0 -2 -0.5 -3t-0.5 -3t-1 -3t-2 -3q-2 -8 -6 -11q-5 -4 -12 -4q-5 0 -7 1l-4 3q-1 1 -3 1l-1 2v-25h-13v71zM799 -56h13v-8q4 9 15 9q4 0 8 -2q3 -2 6 -6q1 4 5 6t8 2q5 0 11 -2q4 -4 5 -7q2 -4 2 -9v-35h-13v31q0 11 -8 11q-9 0 -9 -11
v-31h-13v36q0 2 -2 4t-7 2q-8 0 -8 -11v-31h-13v52zM739 -72q2 6 5 9q3 4 8 6q6 2 12 2q5 0 11 -2l4 -2t4 -3t2.5 -4.5t2.5 -4.5q1 -3 1 -11t-3 -14q-2 -7 -8 -10t-14 -3q-10 0 -15 4q-6 3 -9 10q-2 8 -2 13q0 6 1 10zM124 345l5 5l4 5l5 5q2 4 4 6l31 42l9 15l10 15
q3 4 5.5 7.5t4.5 7.5l8 16q1 2 0 3t-2 1q-4 0 -5 -1l-4 -2l-16 -20q-3 -3 -7 -9l-8 -10l-27 -39l-13 -20l-11 -21l-2 -3v-5h5zM744 -1q-3 0 -4.5 -0.5t-3.5 -0.5t-4 0.5t-4 0.5q-2 2 -3.5 3t-3.5 3q-2 4 -2 10q0 8 4 12q8 4 12 5l13 2q5 0 5 4q0 7 -9 7q-4 0 -6 -2
q-3 -1 -4 -7h-13q0 7 3 12q2 3 8 6q2 2 6 2h6q12 0 16 -2l3.5 -3.5t2.5 -3.5t1 -7v-35q0 -3 4 -3v-3h-16q-1 0 -1 1v1v1q0 2 -0.5 2.5t-0.5 1.5l-4 -4q-1 -1 -1.5 -1t-1.5 -1t-2 -1zM245 22h-38q0 -3 4 -9q3 -3 9 -3q2 0 3.5 0.5t2.5 0.5q4 4 4 5h15l-5 -10l-8 -6l-6 -1.5
t-6 -0.5q-27 0 -27 30q0 10 3 14q2 7 8 10q4 3 7.5 3.5t8.5 0.5q11 0 14 -4q6 -3 9 -11q2 -5 2 -15v-4zM494 317q3 4 3 12q0 5 -2 8q-2 6 -5 8q-2 3 -9 5q-6 3 -11 3q-10 0 -14 -4q-4 -1 -6 -3.5t-4 -4.5q-4 -5 -4 -12t2 -10q2 -2 3 -3.5t3 -3.5q3 -3 9 -5q3 -1 5.5 -1.5
t5.5 -0.5q8 0 13 3q4 2 6.5 4.5zM135 442q-2 -5 0 -8q1 -2 2 -3l3 -3l9 -3q7 0 11 1q2 0 2 1q1 1 1 2t-1 1h-2q-2 0 -2 -1q-7 -1 -14 1q-4 2 -5 4q0 2 -0.5 2.5t-0.5 2.5q0 3 1 6l3 7l8 9q2 2 5 4l6 4t5.5 3.5t6.5 3.5l12 6q4 0 7 1t7 3l14 2q8 2 13 2q3 0 11 -2q5 0 7 -3
l5 -6v-8q0 -6 -1 -10l-5 -9q-2 -3 -3.5 -5.5t-3.5 -4.5q-2 -3 -4.5 -5t-5.5 -5q-2 -3 -10 -9l-11 -7l-12 -5l-7 -3q-1 0 -2.5 -0.5t-3.5 -0.5h-2q-2 0 -3 -1q-1 0 -1 -1q-2 0 -2 -2q0 -1 1 -1h2q2 0 3 1h2l13 4l13 6l13 5l13 8l11 8l10 9l8 10q2 2 3.5 4.5t2.5 5.5q2 6 2 9
q1 5 0 9l-3 7l-7 5q-3 1 -5 1.5t-5 0.5q-4 1 -11 1q-4 0 -12 -2q-7 0 -13.5 -2t-14.5 -4q-14 -4 -26 -11q-3 -2 -6.5 -3.5t-6.5 -3.5l-6 -4t-5 -5l-4.5 -4.5l-4.5 -4.5zM502 -83q5 5 10 5l12 2q4 0 4 3q0 8 -7 8q-5 0 -6 -3q-3 -2 -3 -5h-13q0 7 3 10q3 5 7 6q2 1 5 1
q2 1 7 1t8 -0.5t6 -1.5q4 -3 6 -6q1 -2 1 -7v-27q0 -5 1 -6q0 -1 2 -3v-2h-15v1q0 1 -0.5 1t-0.5 1v3q-2 -1 -2.5 -2t-1.5 -2q-2 -1 -3 -1t-2 -1q-2 -1 -7 -1q-4 0 -7 1l-7 5q-2 4 -2 9q0 8 5 11zM38 -83q5 5 10 5l13 2q5 0 5 3q0 8 -8 8q-5 0 -6 -3q-4 -1 -4 -5h-12
q0 7 3 10q1 4 6 6q2 1 7 1q2 1 6 1q7 0 13 -2q4 -3 6 -6q1 -2 1 -7v-27q0 -5 1 -6q0 -1 2 -3v-2h-14v3q-1 1 -1 3l-4 -4q-2 -1 -3 -1t-2 -1q-2 -1 -6 -1q-6 0 -9 1q-3 2 -5 5q-3 3 -3 9q0 8 4 11zM414 -69q3 7 8 10q5 4 13 4q11 0 15 -4q5 -3 8 -11q2 -8 2 -13v-3h-35
q0 -6 3 -9t8 -3q3 0 7 2l3 4h13q-2 -8 -4 -10t-4 -3l-4 -2q-6 -2 -11 -2q-24 0 -24 28q0 8 2 12zM606 -69q3 7 8 10q5 4 14 4q10 0 14 -4q5 -3 7 -11q3 -6 3 -13v-3h-35q0 -6 3 -9t8 -3q3 0 7 2l3 4h13q-2 -8 -5 -10q-4 -4 -7 -5q-6 -2 -11 -2q-24 0 -24 28q0 4 2 12z
M644 48q2 -6 2 -10v-39h-14v34q0 4 -2 8q-3 3 -8 3q-6 0 -9 -4q-2 -2 -2 -9v-32h-15v56h14v-8q6 9 17 9q7 0 10 -2zM389 7q-3 -4 -7 -6q-6 -3 -10 -3q-10 0 -14 6q-5 4 -5 14v37h14v-34q0 -10 10 -10h5l5 5q0 1 1 2.5t1 3.5v33h13v-56h-13v8zM299 -60l-1 4h16l10 -38l10 38
h15l-17 -50l-1 -1l-4 -11l-3 -6q-3 -3 -5 -3t-3.5 -0.5t-3.5 -0.5h-7v11h8q1 0 3 2v2q1 1 1 3zM155 -56h12v-8q6 9 16 9q4 0 10 -2q3 -2 6 -6q2 -4 2 -10v-35h-14v31q0 6 -1 7q-2 4 -8 4q-4 0 -8 -4q-2 -6 -2 -8v-30h-13v52zM689 -63q6 8 19 8q5 0 11 -2q3 -1 9 -7
q4 -5 4 -11h-14l-3 6q-3 3 -6 3q-5 0 -8 -5q-3 -3 -3 -10q0 -3 0.5 -5t0.5 -4q2 -4 4 -5q1 -2 5 -2q5 0 6 2q3 1 3 6h15q-2 -6 -4 -11q-2 -2 -4 -3.5t-4 -2.5q-5 -3 -12 -3q-10 0 -17 6q-3 1 -5 8q-2 6 -2 12q0 8 5 20zM556 -63q6 8 19 8q5 0 11 -2q4 -1 8 -7q2 -3 3.5 -5.5
t1.5 -5.5h-15q0 2 -2 6q-3 3 -6 3q-5 0 -8 -5q-4 -3 -4 -10q0 -3 0.5 -5t0.5 -4l4 -5q2 -2 6 -2t6 2q3 1 3 6h13q0 -5 -3 -11l-3.5 -3.5t-3.5 -2.5q-6 -3 -12 -3q-11 0 -17 6q-3 1 -5 8q-2 6 -2 12q0 8 5 20zM337 63q-2 0 -2 -2v-6h9v-10h-9v-46h-15v46h-7v10h7v4
q0 16 17 16h7v-12h-7zM515 55h10v-10h-10v-46h-15v46h-7v10h7v4q0 16 17 16h6v-12h-6q-1 0 -2 -2v-6zM806 -1h-9q-7 0 -10 2q-3 0 -4 4q0 1 -1 2.5t-1 3.5v34h-7v10h7v14h16v-14h9v-10h-9v-34q1 0 2 -0.5t3 -0.5l2 1h2v-12zM272 69v-14h8v-10h-8v-30q0 -4 1 -4q0 -1 1 -1h4
l1 1h1v-12h-8q-7 0 -10 2q-3 0 -4 4q-1 1 -1 6v34h-8v10h8v14h15zM461 436q-2 0 -2 1v6q2 7 5 10l7 11l5 6l12 15l4.5 4.5l4.5 4.5l4 4l5 2q2 1 5 1l2 -1q1 -1 1 -4q0 -1 -2 -5l-2 -4l-3 -5l-3 -5l-10 -15l-8 -9l-10 -10q0 -1 -5 -3q-1 -2 -6 -4h-4zM623 478l4 5l3 6l4 5
l9 12l13 16l3 4l8 6q1 1 4 1q2 1 4 1l3 -2q0 -1 0.5 -1.5t0.5 -1.5q0 -2 -1 -4q0 -1 -2 -3l-8 -11l-6 -11l-8 -7l-8 -9l-5 -4l-6 -5l-5 -4q-2 0 -2.5 -1t-2.5 -1q-4 -2 -5 -1h-1q-1 1 -1 2l1 1q0 1 1 2zM685 -1h-10q-7 0 -8 2q-4 0 -5 4v40h-9v10h9v14h13v-14h10v-10h-10
v-30v-3q0 -1 1 -1q2 0 2.5 -0.5t2.5 -0.5l2 1h2v-12zM482 345q0 -2 1 -3.5t2 -4.5q0 -1 0.5 -3.5t0.5 -4.5q0 -6 -2 -12q-2 -2 -3 -4.5t-3 -4.5q-2 -1 -8 -1q-5 0 -6 1q-4 0 -6 5l-3 6q-2 6 -2 10q0 2 0.5 4t0.5 4l3 6l3 5q1 1 2 1t3 1q2 2 6 2q0 -1 1 -1h2l3 -2zM471 -66
h-8v10h8v4q0 14 15 14h6v-11h-6l-1 -1l-1 -4v-2h9v-10h-9v-42h-13v42zM273 -66h-7v10h7v13h14v-13h8v-10h-8v-27q0 -3 1 -4q0 -1 1 -1h3l2 1h1v-11h-8q-6 0 -8 1q-5 2 -5 4q-1 1 -1 6v31zM430 -1h-14v76h14v-76zM455 -1h-14v76h14v-76zM412 352h-50v-2h2q4 0 5 -2q3 0 3 -5
v-28q0 -8 -8 -8h-2v-1h50v19l-3 -6l-5 -7q-3 -3 -4 -3l-5 -1q-2 -1 -6 -1h-7v20h1q4 0 9 -3l2 -3q0 -1 0.5 -1.5t0.5 -1.5v-4h1v29h-1v-4l-2 -5q-5 -5 -9 -5h-2v21h8q8 0 11 -1l4 -3l2 -5l3 -7h2v18zM91 -56h12v-9h1l3 5q1 1 1.5 2t2.5 2q1 1 7 1h3v-14h-4q-13 0 -13 -12
v-27h-13v52zM567 352h-23v-2h4q0 -1 2 -1q3 -2 3 -4q2 -2 2 -7v-19l-32 33h-18v-2q4 0 5 -1q1 0 1.5 -0.5t1.5 -0.5q1 -2 1 -5v-26q0 -3 -1 -5l-3 -4q-2 0 -3.5 -0.5t-2.5 -0.5v-1h24v1q-3 0 -5 1h-4l-2 5q-1 1 -1 6v27l39 -40h2v32q0 4 0.5 6t1.5 4q2 2 8 2v2zM354 327
q-1 2 -6 4l-8 3h-5l-1 1q-2 1 -4 1t-3 1q-3 0 -4 1q-1 0 -3 2q-1 0 -1 2v1v4l2 2l4 2q1 0 2 0.5t3 0.5q3 0 7 -2q4 0 6 -2q4 -2 5 -4q2 -1 2.5 -3.5t2.5 -4.5h1v15h-1q-1 -3 -4 -3h-4q-8 5 -15 5q-4 0 -10 -2l-6 -4q-1 -2 -1.5 -3.5t-0.5 -4.5q0 -1 2 -5q0 -3 3 -3l6 -3
q1 -1 10 -3l4 -1q4 -2 6 -2t4 -2q1 0 1 -1q3 -2 3 -5l-2 -4q-1 -2 -4 -3h-5q-5 0 -8 1l-8 3l-5 5q-5 5 -5 10h-1v-21h1q0 3 2 3q2 2 4 2q1 0 1 -0.5t2 -0.5q1 0 1.5 -0.5t1.5 -0.5l7 -2q2 -1 7 -1q2 0 8 2q1 0 6 3q1 1 1 2t2 2v10zM568 16q3 3 3 11q0 7 -3 12t-10 5
q-8 0 -11 -5q-1 -2 -2 -5t-1 -7t1 -6.5t2 -4.5q2 -5 11 -5q8 0 10 5zM128 -56h14v-52h-14v52zM674 348q0 1 2 1q1 0 1.5 0.5t1.5 0.5h1v2h-23v-2h3q4 0 5 -1q2 -1 2 -3t-3 -5l-9 -13l-12 15l-2 4v1q0 1 1 1q0 1 3 1h4v2h-30v-2h1q5 0 7 -1l2 -2t2 -3l14 -19v-10q0 -5 -1 -6
q-4 -2 -7 -2h-3v-1h33v1h-4q-4 0 -6 2t-2 6v11l12 17l2 3q4 2 5 2zM622 326h-1q-2 -2 -2 -3t-1 -3q-2 -2 -2 -4l-2 -3q-4 -4 -6 -5q-1 0 -3 -0.5t-4 -0.5h-12v36q0 5 3 5q1 2 6 2h3v2h-31v-2h2q8 0 8 -7v-28q0 -8 -8 -8h-2v-1h52v20zM773 -71q-2 5 -9 5q-8 0 -10 -5
q-3 -5 -3 -11q0 -7 3 -11q1 -2 4 -3t6 -1q8 0 9 4q3 4 3 11q0 6 -3 11zM289 425q-3 -1 -6 -1q-5 0 -6 1l7 11l9 10l3 4l5 4l5 5l6 2q4 1 7 0v-5l-3 -4q-3 -3 -3 -5q-2 -2 -2.5 -3t-2.5 -2q0 -1 -4 -5q-1 -1 -1.5 -2t-2.5 -2l-5 -4zM373 -93q3 -4 8 -4q6 0 9 4q2 6 2 11
t-2 11q-2 2 -4 3.5t-5 1.5q-12 0 -12 -17q0 -7 4 -10zM292 310q4 3 4 9q-2 -5 -5 -8l-6 -4h-7q-6 0 -9 1q-1 0 -5 4q-2 2 -2 7v24q0 5 2 5q2 2 7 2h3v2h-31v-2q10 0 10 -7v-24q0 -4 5 -11l8 -2q2 -1 9 -1q6 0 12 2q4 2 5 3zM226 -89q0 -2 3 -5q4 -2 6 -2q12 0 12 14
q0 7 -4 11q-2 2 -4 3.5t-4 1.5q-4 0 -7 -5q-3 -3 -3 -11q0 -4 1 -7zM412 451q0 -2 0.5 -3t0.5 -2q-1 -2 -1 -4v-6l-2 -4l-4 -5l-4 -3q-1 0 -1.5 -0.5t-2.5 -0.5q-1 -1 -4 -1q-2 -2 -4 0q-1 0 -3 2v4l2 5l3 4q4 5 9 9zM733 15q0 -4 2 -4q2 -2 5 -2h4l2 1q5 2 5 3q2 4 2 7v7
q-3 -3 -6 -3l-7 -2q-3 0 -5 -2q-2 -1 -2 -5zM660 -93h15v-15h-15v15zM61 -85l-6 -1q-2 0 -6 -2q-2 -2 -2 -5q0 -2 2 -4q2 -1 3 -2t2 -1q2 0 3 2h2l5 3q2 4 2 6v6q-1 0 -5 -2zM231 33q-2 6 -4 8q-4 4 -7 4q-11 0 -11 -12h22zM524 -85l-7 -1q-2 0 -4 -2t-2 -5q0 -2 2 -4
q3 -3 4 -3q2 0 3 2h2l5 3q1 2 1 6v6zM638 -77q0 5 -3 8q-2 1 -3.5 2t-4.5 1q-8 0 -10 -11h21zM446 -77q0 5 -3 8q-2 1 -3.5 2t-4.5 1q-8 0 -10 -11h21zM128 -38h14v-12h-14v12zM769 575q-2 -4 -4 -5l14 18l6 11l13 17l1 1q0 2 2 2q0 1 1 1q0 -4 -1 -5l-4 -5l-3 -5l-3 -4
l-8 -10l-9 -10zM306 352h-23v-2h5q1 0 2 -1q6 -2 6 -11v7l5 4l1 1h4v2z" />
    <glyph glyph-name="nine" unicode="9" horiz-adv-x="902" 
d="M61 517l131 29l-5 18l20 6l-4 19l20 4l-3 22l20 1v20h18l2 18l19 -3l4 20l21 -3l5 19l19 -5l8 18l19 -8l11 19l17 -9l11 17l18 -12l12 16l17 -13l13 14l13 -12l13 11l13 -14l17 11l11 -18l19 10l9 -17l18 8l8 -20l21 6l6 -19l19 5l4 -21l21 2l1 -13l197 43v-242l-90 -20
l2 -1l-12 -13l12 -14l-16 -13l11 -17l-18 -11l11 -18l-17 -10l7 -18l-19 -8l6 -21l-18 -6l3 -19l-20 -4l1 -21l-19 -2v-19h-17l-3 -18l-19 1l-4 -18l-21 3l-5 -20l-19 6l-7 -19l-21 8l-9 -19l-18 10l-11 -17l-18 11l-12 -16l-15 13l-15 -13l-13 12l-13 -12l-12 15l-17 -11
l-12 18l-18 -10l-9 17l-19 -8l-9 20l-19 -6l-6 18l-20 -4l-4 21l-21 -2l-2 20h-20v17l-17 2l2 20l-20 3l4 21l-20 6l6 18l-14 6l-120 -26v241zM595 466l11 11q-1 -1 -1 -3q0 -3 2 -7q1 -2 5 -4q3 -1 10 1q6 1 12 6l10 7l3.5 3.5l3.5 3.5l6 6v-2q0 -1 -0.5 -1.5t-0.5 -1.5v-3
q-2 -3 0 -5q0 -1 0.5 -1.5t0.5 -1.5q0 -3 3 -3h8l3 2l4 3l6 3l16 13l8 8l-2 -6q-2 -3 -2 -9v-3q1 0 2 -1q0 -1 3 -1q2 0 4 2q4 0 6 3l5 3l6 6q1 0 5 4l4.5 4.5l4.5 4.5l9 10v2q0 1 -1 1q-2 0 -4 -2l-1 -2l-6 -7l-5 -6q-5 -3 -6 -6l-7 -6l-4 -3l-4 -1l-1 -1q-1 0 -2 1h1l4 7
q2 4 4 6l3 6q2 1 4 5l31 45q5 5 6 8l8 8l18 21q5 5 8.5 10t7.5 10l5 9v4q-1 1 -4 1q-1 0 -5 -2q-2 0 -3 -1t-3 -2q-2 0 -5 -3l-4 -3l-11 -9l-8 -9q-3 -3 -5 -5.5t-4 -5.5q-1 -2 -3 -4.5t-4 -5.5l-13 -20l-13 -22l-9 -16l-4 -8h-1l-7 -7q-2 -3 -4 -5l-5 -5l-9 -8l-5 -4l-3 -2
l-2 -1l-2 -2h-5l6 10q0 1 1 2q2 4 4 7t5 6l8 14l7 10l4 6l3 5l1 1l1 1q0 1 0.5 1t0.5 1q3 2 2 4q0 1 -3 1l-5 -2l-5 -3l-9 -6l-7 -6q0 3 -1 5q0 1 -3 3q-6 1 -10 0q-8 -2 -11 -4l-12 -6l-9 -8q-13 -9 -18 -19q-7 -8 -10 -18h-2l-8 -9q-3 -2 -5.5 -4t-5.5 -4q-1 -2 -6 -4
q-2 -2 -5 -2h-1q-1 1 0 2l3 4l3 5l6 7l10 13q2 3 4.5 6.5t4.5 7.5l4 8q2 5 1 8q0 3 -1 3q0 2 -3 2t-4 -1l-6 -2l-6 -4l-5 -4l-5 -4q-4 -4 -6 -4l-10 -11l-4.5 -4.5l-4.5 -4.5l-5 -6l-5 -5l1 2l12 17l13 18q0 1 0.5 1t0.5 1q1 1 1 2q1 1 1 3l-3 3q-1 0 -1.5 0.5t-1.5 0.5
t-2 -0.5t-3 -0.5l-5 -3l-2 -2q-2 -1 -2 -2t-1 -2l-2 -3l-38 -65q-1 -1 -1 -2v-1q1 0 1.5 -0.5t1.5 -0.5q2 0 4 1l4 2q0 1 2 3q1 0 1 0.5t1 0.5l2 3q0 2 2 2l8 11l10 10l8 10l11 10l14 14l5 4l5 4l6 2q1 0 1 -1h-1l-2 -2q-1 -3 -4 -4l-2 -3l-6 -7q-2 -2 -3 -3.5t-3 -3.5
l-7 -11l-7 -10l-3 -9q-2 -5 0 -8q1 -3 4 -3h9q2 1 4.5 2.5t6.5 3.5zM397 418q6 0 12 4q8 4 11 8q3 2 4.5 4t3.5 4l4 9q3 4 3 9v8q0 3 -2 7l-3 8l-3 3q0 2 -2 4q0 1 -1 2v5h-4l-2 -2l-6 -4l-2 -6l-1 -1l-2 -3l-16 -22l-2 -3l-3 -5h-1v-1q-1 0 -2 -1l-2 -4l-3 -4l-7 -9
l-11 -10l-6 -3q-2 -2 -6 -2v1l4 5l3 5l4 5l3 4l4 7l5 7l2 7q1 3 1 7q-1 1 -1 4l-1 2q0 2 -1 3v11l3 5q2 3 -2 6q-2 3 -8 0q-5 -1 -8 -4q-3 -1 -5 -6q-2 -2 -2 -5q0 -4 1 -6l2 -1l2 -2l-6 -6l-11 -15l-10 -11q-2 0 -2 -2v-1l-1 -1q0 -1 -1 -1l-5 -7q-4 -3 -7 -6t-7 -5
q-6 -6 -16 -11l-10 -4q-6 -2 -9 -1q-3 0 -3 2q-1 1 -1 3q0 1 2 5l1 4l5 8q2 -1 6 -1h9q5 1 13 6q3 1 5.5 3t6.5 4l7 8q2 2 3.5 4t1.5 4l4 6q0 6 -2 7q-2 4 -4 5h-9h-4.5t-4.5 -2l-10 -4q-13 -7 -22 -14q-9 -8 -14 -17q-2 -2 -3 -4.5t-3 -5.5q-3 -4 -4 -9v-8q1 -4 5 -6
q5 -5 11 -3q7 0 13 3q5 1 8.5 3t7.5 4t7.5 4.5t7.5 6.5l12 10l7 7q0 1 2 3q0 1 1 2l2 3l8 8l7 10q3 2 5 5t4 5l3 -1l2 -3q0 -1 1 -2v-1q0 -1 -1 -2t-2 -3l-8 -8l-7 -10l-6 -9l-2 -9q-1 -1 -1 -4v-3l2 -4h4q5 0 8 1l8 5q2 2 5 4t5 5q3 2 5 4l4 4l4 6l4 5l2 2l2 3l2 2l6 8
l10 15q0 -2 0.5 -3.5t0.5 -3.5q2 -6 2 -7l2 -4q-8 -2 -12 -6l-10 -7q-2 -2 -3.5 -4.5t-2.5 -4.5q-1 -3 -1 -8q0 -3 5 -5h9zM447 440q0 -4 2 -4l5 -4h5h6q4 1 7 2l6 2l13 7l11 10l9 8l7 10l5 8l3 9q2 5 0 7q0 3 -3 5q0 2 -5 4q-1 0 -3 0.5t-4 0.5q-3 0 -9 -2q-2 0 -3 -0.5
l-3 -1.5l-6 -2l-12 -8l-11 -9l-8 -9l-6 -9q-5 -8 -6 -13v-11zM125 8q-4 3 -8 13q-2 5 -2 16v8q0 2 1 3.5t1 3.5q1 6 7 12q2 3 5 5l6 4q7 3 16 3h3q2 0 4 -0.5t4 -0.5q4 0 7 -3q7 -4 10 -9q2 -2 4 -6q0 -1 0.5 -1.5t0.5 -1.5v-2h-16v1q0 1 -2 3q-1 2 -2 2.5t-3 2.5q-3 2 -9 2
h-7l-7 -6q-5 -3 -5 -7q-2 -4 -2 -14q0 -4 0.5 -7t1.5 -7q1 -5 6 -7q3 -2 5 -3t5 -1h2q6 0 9 2q2 0 3.5 1.5l2.5 2.5q2 3 3 5t1 5h-18v13h32v-41h-10l-2 10q-3 -4 -7 -7q-2 -2 -4.5 -2.5t-4.5 -1.5q-2 0 -4.5 -0.5t-4.5 -0.5q-6 0 -12 3q-7 3 -10 8zM213 -69q3 7 7 10
q4 4 12 4q3 0 9 -2l3.5 -3.5t2.5 -3.5l1 8h12v-49q0 -5 -2 -13q-3 -5 -8 -7q-6 -3 -16 -3q-2 0 -4.5 0.5t-4.5 0.5q-3 1 -9 5q-2 2 -2 4q-1 2 -1 5h13l3 -4q1 -1 6 -1q6 0 7 1q4 3 4 4t0.5 1.5t0.5 1.5v9q-6 -7 -14 -7q-3 0 -5.5 0.5t-5.5 1.5q-5 4 -8 10q-2 3 -3 6.5
t-1 8.5q0 3 1 6zM578 49q2 -2 3 -4.5t3 -5.5q2 -6 2 -12q0 -8 -4 -15q-1 -4 -9 -10q-5 -4 -15 -4t-17 4q-3 2 -5 5l-4 6q-3 6 -3 14q0 3 0.5 5.5t1.5 5.5q1 5 5 9q5 5 10 7q3 2 12 2q8 0 12 -2q2 -2 4 -2.5t4 -2.5zM357 -56h12v-8h2q1 0 2 1l4 4l4 3q1 1 4 1q5 0 8 -2
q4 -2 6 -4q4 -4 5 -10q3 -5 3 -11q0 -2 -0.5 -3t-0.5 -3t-1 -3t-2 -3q-2 -8 -6 -11q-5 -4 -12 -4q-5 0 -7 1l-4 3q-1 1 -3 1l-1 2v-25h-13v71zM799 -56h13v-8q4 9 15 9q4 0 8 -2q3 -2 6 -6q1 4 5 6t8 2q5 0 11 -2q4 -4 5 -7q2 -4 2 -9v-35h-13v31q0 11 -8 11q-9 0 -9 -11
v-31h-13v36q0 2 -2 4t-7 2q-8 0 -8 -11v-31h-13v52zM739 -72q2 6 5 9q3 4 8 6q6 2 12 2q5 0 11 -2l4 -2t4 -3t2.5 -4.5t2.5 -4.5q1 -3 1 -11t-3 -14q-2 -7 -8 -10t-14 -3q-10 0 -15 4q-6 3 -9 10q-2 8 -2 13q0 6 1 10zM124 345l5 5l4 5l5 5q2 4 4 6l31 42l9 15l10 15
q3 4 5.5 7.5t4.5 7.5l8 16q1 2 0 3t-2 1q-4 0 -5 -1l-4 -2l-16 -20q-3 -3 -7 -9l-8 -10l-27 -39l-13 -20l-11 -21l-2 -3v-5h5zM744 -1q-3 0 -4.5 -0.5t-3.5 -0.5t-4 0.5t-4 0.5q-2 2 -3.5 3t-3.5 3q-2 4 -2 10q0 8 4 12q8 4 12 5l13 2q5 0 5 4q0 7 -9 7q-4 0 -6 -2
q-3 -1 -4 -7h-13q0 7 3 12q2 3 8 6q2 2 6 2h6q12 0 16 -2l3.5 -3.5t2.5 -3.5t1 -7v-35q0 -3 4 -3v-3h-16q-1 0 -1 1v1v1q0 2 -0.5 2.5t-0.5 1.5l-4 -4q-1 -1 -1.5 -1t-1.5 -1t-2 -1zM245 22h-38q0 -3 4 -9q3 -3 9 -3q2 0 3.5 0.5t2.5 0.5q4 4 4 5h15l-5 -10l-8 -6l-6 -1.5
t-6 -0.5q-27 0 -27 30q0 10 3 14q2 7 8 10q4 3 7.5 3.5t8.5 0.5q11 0 14 -4q6 -3 9 -11q2 -5 2 -15v-4zM494 317q3 4 3 12q0 5 -2 8q-2 6 -5 8q-2 3 -9 5q-6 3 -11 3q-10 0 -14 -4q-4 -1 -6 -3.5t-4 -4.5q-4 -5 -4 -12t2 -10q2 -2 3 -3.5t3 -3.5q3 -3 9 -5q3 -1 5.5 -1.5
t5.5 -0.5q8 0 13 3q4 2 6.5 4.5zM135 442q-2 -5 0 -8q1 -2 2 -3l3 -3l9 -3q7 0 11 1q2 0 2 1q1 1 1 2t-1 1h-2q-2 0 -2 -1q-7 -1 -14 1q-4 2 -5 4q0 2 -0.5 2.5t-0.5 2.5q0 3 1 6l3 7l8 9q2 2 5 4l6 4t5.5 3.5t6.5 3.5l12 6q4 0 7 1t7 3l14 2q8 2 13 2q3 0 11 -2q5 0 7 -3
l5 -6v-8q0 -6 -1 -10l-5 -9q-2 -3 -3.5 -5.5t-3.5 -4.5q-2 -3 -4.5 -5t-5.5 -5q-2 -3 -10 -9l-11 -7l-12 -5l-7 -3q-1 0 -2.5 -0.5t-3.5 -0.5h-2q-2 0 -3 -1q-1 0 -1 -1q-2 0 -2 -2q0 -1 1 -1h2q2 0 3 1h2l13 4l13 6l13 5l13 8l11 8l10 9l8 10q2 2 3.5 4.5t2.5 5.5q2 6 2 9
q1 5 0 9l-3 7l-7 5q-3 1 -5 1.5t-5 0.5q-4 1 -11 1q-4 0 -12 -2q-7 0 -13.5 -2t-14.5 -4q-14 -4 -26 -11q-3 -2 -6.5 -3.5t-6.5 -3.5l-6 -4t-5 -5l-4.5 -4.5l-4.5 -4.5zM502 -83q5 5 10 5l12 2q4 0 4 3q0 8 -7 8q-5 0 -6 -3q-3 -2 -3 -5h-13q0 7 3 10q3 5 7 6q2 1 5 1
q2 1 7 1t8 -0.5t6 -1.5q4 -3 6 -6q1 -2 1 -7v-27q0 -5 1 -6q0 -1 2 -3v-2h-15v1q0 1 -0.5 1t-0.5 1v3q-2 -1 -2.5 -2t-1.5 -2q-2 -1 -3 -1t-2 -1q-2 -1 -7 -1q-4 0 -7 1l-7 5q-2 4 -2 9q0 8 5 11zM38 -83q5 5 10 5l13 2q5 0 5 3q0 8 -8 8q-5 0 -6 -3q-4 -1 -4 -5h-12
q0 7 3 10q1 4 6 6q2 1 7 1q2 1 6 1q7 0 13 -2q4 -3 6 -6q1 -2 1 -7v-27q0 -5 1 -6q0 -1 2 -3v-2h-14v3q-1 1 -1 3l-4 -4q-2 -1 -3 -1t-2 -1q-2 -1 -6 -1q-6 0 -9 1q-3 2 -5 5q-3 3 -3 9q0 8 4 11zM414 -69q3 7 8 10q5 4 13 4q11 0 15 -4q5 -3 8 -11q2 -8 2 -13v-3h-35
q0 -6 3 -9t8 -3q3 0 7 2l3 4h13q-2 -8 -4 -10t-4 -3l-4 -2q-6 -2 -11 -2q-24 0 -24 28q0 8 2 12zM606 -69q3 7 8 10q5 4 14 4q10 0 14 -4q5 -3 7 -11q3 -6 3 -13v-3h-35q0 -6 3 -9t8 -3q3 0 7 2l3 4h13q-2 -8 -5 -10q-4 -4 -7 -5q-6 -2 -11 -2q-24 0 -24 28q0 4 2 12z
M644 48q2 -6 2 -10v-39h-14v34q0 4 -2 8q-3 3 -8 3q-6 0 -9 -4q-2 -2 -2 -9v-32h-15v56h14v-8q6 9 17 9q7 0 10 -2zM389 7q-3 -4 -7 -6q-6 -3 -10 -3q-10 0 -14 6q-5 4 -5 14v37h14v-34q0 -10 10 -10h5l5 5q0 1 1 2.5t1 3.5v33h13v-56h-13v8zM299 -60l-1 4h16l10 -38l10 38
h15l-17 -50l-1 -1l-4 -11l-3 -6q-3 -3 -5 -3t-3.5 -0.5t-3.5 -0.5h-7v11h8q1 0 3 2v2q1 1 1 3zM155 -56h12v-8q6 9 16 9q4 0 10 -2q3 -2 6 -6q2 -4 2 -10v-35h-14v31q0 6 -1 7q-2 4 -8 4q-4 0 -8 -4q-2 -6 -2 -8v-30h-13v52zM689 -63q6 8 19 8q5 0 11 -2q3 -1 9 -7
q4 -5 4 -11h-14l-3 6q-3 3 -6 3q-5 0 -8 -5q-3 -3 -3 -10q0 -3 0.5 -5t0.5 -4q2 -4 4 -5q1 -2 5 -2q5 0 6 2q3 1 3 6h15q-2 -6 -4 -11q-2 -2 -4 -3.5t-4 -2.5q-5 -3 -12 -3q-10 0 -17 6q-3 1 -5 8q-2 6 -2 12q0 8 5 20zM556 -63q6 8 19 8q5 0 11 -2q4 -1 8 -7q2 -3 3.5 -5.5
t1.5 -5.5h-15q0 2 -2 6q-3 3 -6 3q-5 0 -8 -5q-4 -3 -4 -10q0 -3 0.5 -5t0.5 -4l4 -5q2 -2 6 -2t6 2q3 1 3 6h13q0 -5 -3 -11l-3.5 -3.5t-3.5 -2.5q-6 -3 -12 -3q-11 0 -17 6q-3 1 -5 8q-2 6 -2 12q0 8 5 20zM337 63q-2 0 -2 -2v-6h9v-10h-9v-46h-15v46h-7v10h7v4
q0 16 17 16h7v-12h-7zM515 55h10v-10h-10v-46h-15v46h-7v10h7v4q0 16 17 16h6v-12h-6q-1 0 -2 -2v-6zM806 -1h-9q-7 0 -10 2q-3 0 -4 4q0 1 -1 2.5t-1 3.5v34h-7v10h7v14h16v-14h9v-10h-9v-34q1 0 2 -0.5t3 -0.5l2 1h2v-12zM272 69v-14h8v-10h-8v-30q0 -4 1 -4q0 -1 1 -1h4
l1 1h1v-12h-8q-7 0 -10 2q-3 0 -4 4q-1 1 -1 6v34h-8v10h8v14h15zM461 436q-2 0 -2 1v6q2 7 5 10l7 11l5 6l12 15l4.5 4.5l4.5 4.5l4 4l5 2q2 1 5 1l2 -1q1 -1 1 -4q0 -1 -2 -5l-2 -4l-3 -5l-3 -5l-10 -15l-8 -9l-10 -10q0 -1 -5 -3q-1 -2 -6 -4h-4zM623 478l4 5l3 6l4 5
l9 12l13 16l3 4l8 6q1 1 4 1q2 1 4 1l3 -2q0 -1 0.5 -1.5t0.5 -1.5q0 -2 -1 -4q0 -1 -2 -3l-8 -11l-6 -11l-8 -7l-8 -9l-5 -4l-6 -5l-5 -4q-2 0 -2.5 -1t-2.5 -1q-4 -2 -5 -1h-1q-1 1 -1 2l1 1q0 1 1 2zM685 -1h-10q-7 0 -8 2q-4 0 -5 4v40h-9v10h9v14h13v-14h10v-10h-10
v-30v-3q0 -1 1 -1q2 0 2.5 -0.5t2.5 -0.5l2 1h2v-12zM482 345q0 -2 1 -3.5t2 -4.5q0 -1 0.5 -3.5t0.5 -4.5q0 -6 -2 -12q-2 -2 -3 -4.5t-3 -4.5q-2 -1 -8 -1q-5 0 -6 1q-4 0 -6 5l-3 6q-2 6 -2 10q0 2 0.5 4t0.5 4l3 6l3 5q1 1 2 1t3 1q2 2 6 2q0 -1 1 -1h2l3 -2zM471 -66
h-8v10h8v4q0 14 15 14h6v-11h-6l-1 -1l-1 -4v-2h9v-10h-9v-42h-13v42zM273 -66h-7v10h7v13h14v-13h8v-10h-8v-27q0 -3 1 -4q0 -1 1 -1h3l2 1h1v-11h-8q-6 0 -8 1q-5 2 -5 4q-1 1 -1 6v31zM430 -1h-14v76h14v-76zM455 -1h-14v76h14v-76zM412 352h-50v-2h2q4 0 5 -2q3 0 3 -5
v-28q0 -8 -8 -8h-2v-1h50v19l-3 -6l-5 -7q-3 -3 -4 -3l-5 -1q-2 -1 -6 -1h-7v20h1q4 0 9 -3l2 -3q0 -1 0.5 -1.5t0.5 -1.5v-4h1v29h-1v-4l-2 -5q-5 -5 -9 -5h-2v21h8q8 0 11 -1l4 -3l2 -5l3 -7h2v18zM91 -56h12v-9h1l3 5q1 1 1.5 2t2.5 2q1 1 7 1h3v-14h-4q-13 0 -13 -12
v-27h-13v52zM567 352h-23v-2h4q0 -1 2 -1q3 -2 3 -4q2 -2 2 -7v-19l-32 33h-18v-2q4 0 5 -1q1 0 1.5 -0.5t1.5 -0.5q1 -2 1 -5v-26q0 -3 -1 -5l-3 -4q-2 0 -3.5 -0.5t-2.5 -0.5v-1h24v1q-3 0 -5 1h-4l-2 5q-1 1 -1 6v27l39 -40h2v32q0 4 0.5 6t1.5 4q2 2 8 2v2zM354 327
q-1 2 -6 4l-8 3h-5l-1 1q-2 1 -4 1t-3 1q-3 0 -4 1q-1 0 -3 2q-1 0 -1 2v1v4l2 2l4 2q1 0 2 0.5t3 0.5q3 0 7 -2q4 0 6 -2q4 -2 5 -4q2 -1 2.5 -3.5t2.5 -4.5h1v15h-1q-1 -3 -4 -3h-4q-8 5 -15 5q-4 0 -10 -2l-6 -4q-1 -2 -1.5 -3.5t-0.5 -4.5q0 -1 2 -5q0 -3 3 -3l6 -3
q1 -1 10 -3l4 -1q4 -2 6 -2t4 -2q1 0 1 -1q3 -2 3 -5l-2 -4q-1 -2 -4 -3h-5q-5 0 -8 1l-8 3l-5 5q-5 5 -5 10h-1v-21h1q0 3 2 3q2 2 4 2q1 0 1 -0.5t2 -0.5q1 0 1.5 -0.5t1.5 -0.5l7 -2q2 -1 7 -1q2 0 8 2q1 0 6 3q1 1 1 2t2 2v10zM568 16q3 3 3 11q0 7 -3 12t-10 5
q-8 0 -11 -5q-1 -2 -2 -5t-1 -7t1 -6.5t2 -4.5q2 -5 11 -5q8 0 10 5zM128 -56h14v-52h-14v52zM674 348q0 1 2 1q1 0 1.5 0.5t1.5 0.5h1v2h-23v-2h3q4 0 5 -1q2 -1 2 -3t-3 -5l-9 -13l-12 15l-2 4v1q0 1 1 1q0 1 3 1h4v2h-30v-2h1q5 0 7 -1l2 -2t2 -3l14 -19v-10q0 -5 -1 -6
q-4 -2 -7 -2h-3v-1h33v1h-4q-4 0 -6 2t-2 6v11l12 17l2 3q4 2 5 2zM622 326h-1q-2 -2 -2 -3t-1 -3q-2 -2 -2 -4l-2 -3q-4 -4 -6 -5q-1 0 -3 -0.5t-4 -0.5h-12v36q0 5 3 5q1 2 6 2h3v2h-31v-2h2q8 0 8 -7v-28q0 -8 -8 -8h-2v-1h52v20zM773 -71q-2 5 -9 5q-8 0 -10 -5
q-3 -5 -3 -11q0 -7 3 -11q1 -2 4 -3t6 -1q8 0 9 4q3 4 3 11q0 6 -3 11zM289 425q-3 -1 -6 -1q-5 0 -6 1l7 11l9 10l3 4l5 4l5 5l6 2q4 1 7 0v-5l-3 -4q-3 -3 -3 -5q-2 -2 -2.5 -3t-2.5 -2q0 -1 -4 -5q-1 -1 -1.5 -2t-2.5 -2l-5 -4zM373 -93q3 -4 8 -4q6 0 9 4q2 6 2 11
t-2 11q-2 2 -4 3.5t-5 1.5q-12 0 -12 -17q0 -7 4 -10zM292 310q4 3 4 9q-2 -5 -5 -8l-6 -4h-7q-6 0 -9 1q-1 0 -5 4q-2 2 -2 7v24q0 5 2 5q2 2 7 2h3v2h-31v-2q10 0 10 -7v-24q0 -4 5 -11l8 -2q2 -1 9 -1q6 0 12 2q4 2 5 3zM226 -89q0 -2 3 -5q4 -2 6 -2q12 0 12 14
q0 7 -4 11q-2 2 -4 3.5t-4 1.5q-4 0 -7 -5q-3 -3 -3 -11q0 -4 1 -7zM412 451q0 -2 0.5 -3t0.5 -2q-1 -2 -1 -4v-6l-2 -4l-4 -5l-4 -3q-1 0 -1.5 -0.5t-2.5 -0.5q-1 -1 -4 -1q-2 -2 -4 0q-1 0 -3 2v4l2 5l3 4q4 5 9 9zM733 15q0 -4 2 -4q2 -2 5 -2h4l2 1q5 2 5 3q2 4 2 7v7
q-3 -3 -6 -3l-7 -2q-3 0 -5 -2q-2 -1 -2 -5zM660 -93h15v-15h-15v15zM61 -85l-6 -1q-2 0 -6 -2q-2 -2 -2 -5q0 -2 2 -4q2 -1 3 -2t2 -1q2 0 3 2h2l5 3q2 4 2 6v6q-1 0 -5 -2zM231 33q-2 6 -4 8q-4 4 -7 4q-11 0 -11 -12h22zM524 -85l-7 -1q-2 0 -4 -2t-2 -5q0 -2 2 -4
q3 -3 4 -3q2 0 3 2h2l5 3q1 2 1 6v6zM638 -77q0 5 -3 8q-2 1 -3.5 2t-4.5 1q-8 0 -10 -11h21zM446 -77q0 5 -3 8q-2 1 -3.5 2t-4.5 1q-8 0 -10 -11h21zM128 -38h14v-12h-14v12zM769 575q-2 -4 -4 -5l14 18l6 11l13 17l1 1q0 2 2 2q0 1 1 1q0 -4 -1 -5l-4 -5l-3 -5l-3 -4
l-8 -10l-9 -10zM306 352h-23v-2h5q1 0 2 -1q6 -2 6 -11v7l5 4l1 1h4v2z" />
    <glyph glyph-name="colon" unicode=":" horiz-adv-x="185" 
d="M131 145q8 -12 -1 -35.5t-27.5 -47.5t-43.5 -44.5t-49 -27.5q-47 -14 -76.5 -4.5t-34.5 38.5q-2 15 -0.5 32.5t6 33.5t10.5 29.5t13 21.5q23 24 54.5 32.5t61.5 6.5t54.5 -12t32.5 -23zM335 436q10 -15 -3 -44t-38.5 -59.5t-58.5 -56t-64 -34.5q-59 -17 -96.5 -5
t-42.5 47q-3 19 1 41t11.5 42.5t17 37.5t18.5 26q29 31 68.5 41.5t77.5 8t68 -15.5t41 -29z" />
    <glyph glyph-name="semicolon" unicode=";" horiz-adv-x="185" 
d="M335 436q10 -15 -3 -44t-38.5 -59.5t-58.5 -56t-64 -34.5q-59 -17 -96.5 -5t-42.5 47q-3 19 1 41t11.5 42.5t17 37.5t18.5 26q29 31 68.5 41.5t77.5 8t68 -15.5t41 -29zM123 123q6 -11 -2 -27t-24.5 -35.5t-39 -40.5t-44.5 -41q-18 -17 -36 -38t-35.5 -39.5t-33 -32
t-28.5 -13.5q-13 -1 -16 15t0.5 41t12 56t20 61t23.5 54t23 36q19 20 47 27t55 5.5t49 -10t29 -18.5z" />
    <glyph glyph-name="less" unicode="&#x3c;" horiz-adv-x="456" 
d="M492 348q-33 -11 -80 -32t-91.5 -45.5t-79 -48.5t-41.5 -42q-6 -16 -3 -39.5t10.5 -48.5t17.5 -47.5t18 -36.5q14 -25 8.5 -39t-23.5 -16t-44 8.5t-54 34.5t-50 58.5t-37 69.5t-22.5 67t-6.5 51q1 23 22.5 53t51 59.5t61 53t53.5 34.5q37 18 85 22t95.5 -1.5t87.5 -18
t60 -29t13.5 -34.5t-51.5 -33z" />
    <glyph glyph-name="equal" unicode="=" horiz-adv-x="480" 
d="M396 379q16 -11 14 -31.5t-16 -41.5t-37.5 -39t-49.5 -24q18 -7 24 -14q10 -14 5.5 -30t-16.5 -30.5t-28.5 -25.5t-30.5 -15q-13 -4 -33 -4.5t-43.5 1.5t-47.5 6t-45 8.5t-36 10t-20 10.5q-8 7 -8.5 17.5t3 21.5t10.5 21t14 17q15 13 55 18q-30 8 -37 15q-8 7 -7 22
t6 31.5t13.5 31t15.5 21.5q9 9 32.5 14t53 7.5t63 2t63 -3t52 -7t31.5 -10.5z" />
    <glyph glyph-name="greater" unicode="&#x3e;" horiz-adv-x="416" 
d="M74 371q-33 34 -31 56t26 32.5t63.5 9.5t82.5 -13t83 -34.5t64 -54.5q14 -19 26 -54.5t19.5 -74.5t8.5 -75t-8 -57q-8 -18 -44 -42.5t-83.5 -48.5t-97 -43.5t-85.5 -27.5q-35 -8 -63 -5t-42.5 13t-13 25t25.5 30q9 6 28 14.5t42 19.5t47.5 23t45 24.5t34 25t14.5 23.5
q2 19 -11 48.5t-34.5 62.5t-47 65.5t-49.5 57.5z" />
    <glyph glyph-name="question" unicode="?" horiz-adv-x="203" 
d="M94 564q36 22 81.5 32.5t90 11t83 -7t61.5 -20.5q21 -12 34 -28t17.5 -34.5t0.5 -37.5t-19 -37q-32 -38 -80.5 -62t-97 -43.5t-87 -40.5t-50.5 -53q-5 -15 -18 -22t-27.5 -6t-26.5 9t-15 23q-3 14 2 36t19 45.5t39 45.5t61 36q-8 7 -28.5 3.5t-43.5 -9.5t-42.5 -10
t-26.5 3q-12 12 -12.5 33t9.5 45t29.5 47.5t46.5 40.5zM131 145q8 -12 -1 -35.5t-27.5 -47.5t-43.5 -44.5t-49 -27.5q-47 -14 -76.5 -4.5t-34.5 38.5q-2 15 -0.5 32.5t6 33.5t10.5 29.5t13 21.5q23 24 54.5 32.5t61.5 6.5t54.5 -12t32.5 -23z" />
    <glyph glyph-name="at" unicode="@" horiz-adv-x="832" 
d="M662 534q-94 9 -181.5 -18t-162 -76t-133 -113t-96 -129t-50.5 -124t4 -99q5 -11 4 -23.5t-7.5 -19t-18.5 -3t-29 24.5q-38 47 -51.5 105t-6.5 119.5t33 123.5t67 118.5t95 104t118 80.5q62 32 128.5 49.5t130.5 21.5t123 -5.5t107 -32t81.5 -58t47.5 -82.5
q15 -55 12 -113.5t-22 -115t-51.5 -107.5t-75.5 -92t-95.5 -69t-109.5 -38q-75 -13 -101.5 5.5t-12.5 53.5q6 15 12 31t13 31q-32 -5 -74.5 -5.5t-80.5 4.5q-22 -17 -44.5 -32.5t-43 -27t-39 -18t-32.5 -6.5q-24 0 -27 19.5t8 51t34 70t50.5 77t58 72.5t56.5 55
q30 24 69 45.5t80.5 37.5t83 27t76 14t59.5 -1.5t35 -19.5q9 -14 7 -41.5t-11.5 -63.5t-25 -77t-34 -81t-38.5 -76.5t-38 -63.5q49 23 91 67t72 97t45.5 108.5t10 102t-34 78.5t-85.5 37zM427 167q8 -2 15.5 -8.5t14.5 -14.5q7 32 1 49.5t-21 17.5q-3 0 -17.5 -12.5
t-37.5 -31.5q14 2 25.5 2t19.5 -2z" />
    <glyph glyph-name="A" unicode="A" horiz-adv-x="561" 
d="M633 586q13 -21 8.5 -60.5t-21.5 -89.5t-44 -105t-58.5 -107.5t-65 -97t-63.5 -72.5q-27 -27 -54.5 -41t-46 -13t-23 17t13.5 51q4 6 7 12.5t6 12.5q-25 -4 -55 -5t-60.5 0.5t-59 5t-50.5 9.5q-31 -21 -61.5 -40.5t-57.5 -33.5t-49 -22t-37 -8q-26 0 -24 30.5t22.5 79
t55 107t74 114.5t78.5 102t68 70q33 27 80 48t98.5 36t104 23t96.5 8t75.5 -7.5t42.5 -23.5zM285 186q19 -7 34 -27q9 26 13 49t4 40t-4.5 27t-13.5 10q-2 0 -15 -9t-33 -24.5t-47 -35.5t-57 -42q38 8 70 12.5t49 -0.5z" />
    <glyph glyph-name="B" unicode="B" horiz-adv-x="733" 
d="M770 477q14 -56 -4 -108.5t-58.5 -96.5t-99.5 -76t-128 -47q13 -24 14.5 -47.5t-11 -43.5t-39.5 -35t-70 -21q-53 -8 -109.5 -8t-108.5 12.5t-94.5 39.5t-65.5 75q-10 21 -14 52t-0.5 67.5t14.5 76t30.5 77t48.5 71t68 58.5q57 36 122 58t131.5 30.5t129 3.5t113.5 -22
t85.5 -46t45.5 -70zM330 84q29 5 38.5 18.5t-4 27t-52.5 22.5t-107 5q-2 -3 -5.5 -9.5t-8 -14.5l-9 -16t-7.5 -14q19 -13 62.5 -20t92.5 1zM253 236q14 -7 38.5 -10t54 -2.5t60 4.5t54.5 11t38 16t12 21q-3 16 -21.5 24t-44 9.5t-56 -3t-58 -14.5t-48.5 -24t-29 -32z" />
    <glyph glyph-name="C" unicode="C" horiz-adv-x="760" 
d="M476 135q31 14 57 9t39 -19.5t7 -34t-40 -34.5q-80 -35 -166.5 -49t-163.5 -1t-136.5 55.5t-85.5 120.5q-26 80 -7.5 147t68 118.5t122 88t153.5 57t163.5 24t151.5 -10.5t117 -46t61 -83q9 -33 1.5 -68.5t-23.5 -69.5t-38.5 -63.5t-43.5 -49.5q-23 -20 -47 -24t-41.5 4
t-24 25.5t6.5 38.5q6 11 -0.5 19.5t-20 14t-31.5 8.5t-36 2q-27 -1 -58.5 -9.5t-62 -22t-58.5 -31t-47 -37t-27 -39.5t0 -39q7 -17 29.5 -25t52.5 -7.5t64 8.5t65 23z" />
    <glyph glyph-name="D" unicode="D" 
d="M728 466q18 -66 -2.5 -138t-69.5 -136t-121.5 -113t-158.5 -70q-51 -12 -117 -15.5t-128.5 2.5t-111 22t-64.5 43q-11 18 -12 51.5t7.5 75.5t25.5 89.5t42.5 93.5t58.5 87t74 71q50 37 109 58t119.5 27.5t118.5 -0.5t105.5 -26.5t80.5 -50t44 -71.5zM346 105
q34 10 70.5 29.5t64.5 43t42 48.5t5 46q-10 20 -38.5 27.5t-65.5 2.5t-77.5 -21.5t-73.5 -43.5q-22 -18 -40 -38.5t-31.5 -40t-22 -34.5t-11.5 -21q9 -6 29.5 -9.5t45.5 -3t52 4t51 10.5z" />
    <glyph glyph-name="E" unicode="E" horiz-adv-x="653" 
d="M760 571q16 -15 14.5 -40t-16 -53.5t-39.5 -58.5t-55.5 -55.5t-64 -44.5t-65.5 -26q-38 -9 -74.5 -4.5t-69.5 10.5t-63 7.5t-56 -13.5q-20 -11 -39.5 -26.5t-36.5 -32.5q22 6 48 10.5t52.5 7t51 3t45.5 -1.5q27 -3 37.5 -17.5t7 -32t-18.5 -34.5t-39 -24q-20 -6 -46.5 -4
t-56 7.5t-60.5 12.5t-58 13q-4 0 -10 2q-17 -25 -17 -42q-1 -15 14 -27.5t40 -19t57 -5t66 14.5q33 13 54.5 10t29 -15.5t-1.5 -31t-36 -35.5q-16 -11 -48.5 -20t-72 -15t-82 -7t-80.5 5t-66 20t-39 38q-11 25 -12 60t5 75t18.5 82t28.5 81t34 72t36 55q31 37 64 60.5
t69.5 38t77.5 23t88 16.5q31 5 69 7t77 1t77 -4.5t70.5 -9.5t56.5 -14t35 -18z" />
    <glyph glyph-name="F" unicode="F" horiz-adv-x="658" 
d="M758 571q16 -15 14.5 -40t-16 -53.5t-39.5 -58.5t-55 -55.5t-63.5 -44.5t-64.5 -26q-37 -9 -71.5 -5t-66 9.5t-60.5 8.5t-55 -7q-19 -8 -43.5 -36t-51.5 -65l63 10.5t64 9t56 4t37 -5.5q17 -8 24 -24t3 -34t-20 -35t-44 -27q-26 -11 -59.5 -12t-66.5 5t-62 16.5t-45 23.5
q-18 -25 -36 -48t-34.5 -40.5t-30.5 -28.5t-26 -12q-24 -3 -34 24t-10 70.5t9 98t24 107.5t33.5 99t38.5 72q19 25 42 48t59 41.5t89.5 32t131.5 20.5q50 5 107.5 4.5t110 -6t92.5 -15.5t56 -25z" />
    <glyph glyph-name="G" unicode="G" horiz-adv-x="760" 
d="M687 197q20 -7 27 -21t2 -29t-21 -27.5t-42 -16.5q-8 -1 -18 -1.5t-21 0.5q-27 -21 -72 -41q-81 -35 -167.5 -51t-163.5 -5.5t-136.5 51t-85.5 118.5q-26 80 -8 147t67 119.5t120.5 90t151.5 59t161.5 26t150.5 -8.5t117.5 -44t62.5 -82q16 -55 2 -110.5t-58 -94.5
q-21 -20 -45 -24.5t-42 3t-24.5 24.5t6.5 39q6 11 -2 16t-24.5 7t-37.5 1.5t-40 -1.5q-27 -1 -60 -11.5t-67 -27t-65 -37.5t-53.5 -43.5t-32.5 -44.5t-2 -41q6 -15 24 -22t42.5 -8t53.5 4.5t58 15.5q-20 5 -37 11t-28 12q-20 12 -18 29t32 23q25 6 65.5 9t84 3t82.5 -3.5
t61 -12.5z" />
    <glyph glyph-name="H" unicode="H" horiz-adv-x="717" 
d="M433 593q15 -22 6 -57.5t-34 -78.5t-62.5 -89.5t-79.5 -91.5q-17 -17 -34 -37.5t-34 -41.5q42 9 81 16t65 5q14 37 30.5 74.5t33 71t33 61.5t30.5 46q23 30 57.5 55t73 44t78.5 30.5t74.5 15t59 -2t33.5 -20.5q13 -22 0.5 -57.5t-40.5 -78.5t-67 -89.5t-79 -91.5
q-22 -24 -50.5 -53.5t-59.5 -59.5t-63.5 -59t-61.5 -51.5t-53.5 -37t-40.5 -15.5q-25 -2 -29.5 24t4.5 70q-45 -1 -92 3.5t-84 12.5q-36 -45 -69 -76.5t-60 -33.5q-26 -3 -37.5 24t-11.5 71t9.5 98.5t25 107.5t35.5 98.5t41 71.5q24 30 59 55t73 44t77 30.5t72.5 15t57.5 -2
t33 -20.5z" />
    <glyph glyph-name="I" unicode="I" horiz-adv-x="415" 
d="M530 588q12 -24 -6.5 -60t-54.5 -78t-82 -87.5t-89 -90.5q-35 -36 -73 -83t-74 -89t-68 -71t-57 -29q-25 -1 -36.5 27.5t-12 74.5t7.5 102t23 111t34 101.5t41 72.5q25 30 66 54t88 40.5t95.5 25.5t89.5 9.5t70.5 -7t37.5 -23.5z" />
    <glyph glyph-name="J" unicode="J" horiz-adv-x="599" 
d="M520 186q-39 -44 -79.5 -78.5t-85.5 -58.5t-95.5 -36.5t-109.5 -12.5q-71 0 -119.5 18t-74.5 48.5t-28.5 70.5t20.5 85q11 23 33.5 36.5t47.5 18t50 1.5t42.5 -11.5t24 -22.5t-5.5 -30q-9 -13 -14.5 -31t-4 -35t10 -31.5t27.5 -19.5q22 -5 48 -0.5t50.5 14.5t46.5 24
t37 29q40 39 58.5 72t18.5 56.5t-19 37t-54 13.5q-42 0 -83.5 -13.5t-79 -25t-70 -14t-56.5 19.5q-28 26 -34 63.5t5 75.5t36 71.5t58 50.5q31 16 75.5 26.5t95 15.5t102.5 5t97 -6q45 -5 75.5 -15.5t50 -25.5t29 -35.5t12.5 -46.5q2 -25 -5 -59.5t-24 -75t-44.5 -83.5
t-64.5 -85z" />
    <glyph glyph-name="K" unicode="K" 
d="M468 61q-2 -39 -23.5 -54t-66.5 2q-24 8 -52.5 28t-58 43.5l-59 47t-55.5 38.5q-23 -31 -45 -60t-42.5 -52.5t-39.5 -38t-35 -15.5q-25 -3 -35.5 24t-10.5 71t8.5 98.5t23.5 107.5t34 98.5t39 71.5q23 30 55.5 55t69 44t73.5 30.5t68.5 14.5t54.5 -2.5t32 -20.5
q13 -22 4 -57.5t-32.5 -78t-59 -89t-75.5 -91.5q37 18 68.5 48t59.5 64.5t53 70t51 64.5q29 34 67 54t78.5 30t80 10.5t71 -6.5t52 -19.5t23.5 -28.5q3 -24 -18.5 -52.5t-58.5 -57t-84.5 -56t-95.5 -50.5q-29 -14 -79.5 -37t-106.5 -48q17 -21 29.5 -47t21 -53t12.5 -53
t4 -48z" />
    <glyph glyph-name="L" unicode="L" horiz-adv-x="492" 
d="M342 242q44 12 72.5 4t42 -29.5t12.5 -51.5t-15 -60.5t-41 -57.5t-65 -42q-22 -9 -59 -14t-80.5 -7t-89.5 -1t-86 4t-70 7.5t-41 10.5q-6 4 -10 11q-9 16 -5.5 49.5t16 76.5t31.5 91.5t40 93.5t42.5 83t39.5 61q23 30 59 55t78 44t85 30.5t80 14.5t63.5 -2.5t35.5 -20.5
q13 -22 2.5 -52t-38.5 -66.5t-70 -77.5t-92 -86q-12 -11 -33 -29.5t-46.5 -41t-52.5 -47.5t-52.5 -48t-46 -43t-32.5 -33q66 17 115 43.5t87 53t67.5 48t56.5 29.5z" />
    <glyph glyph-name="M" unicode="M" horiz-adv-x="965" 
d="M91 0q-35 0 -57 27.5t-32 71.5t-10.5 98t6.5 106t20 97t29 71q19 30 57 56t85.5 45t99 31t96.5 14.5t78.5 -5.5t45.5 -28q10 -16 5.5 -48t-16 -72t-27.5 -83.5t-29.5 -84t-22 -73t-4.5 -49.5q12 15 28.5 43t35.5 63t40 73t42 72.5t41.5 62.5t39.5 42q21 17 54.5 33
t73.5 27.5t84 18.5t85 6.5t76.5 -10.5t59.5 -31q19 -17 13.5 -51t-29 -79t-62 -96.5t-85.5 -102.5t-99 -97t-103.5 -80.5t-98.5 -53t-84 -13.5q-20 2 -17 21.5t19 47.5t39 60.5t43.5 62t33 51.5t6.5 28q-16 -19 -41 -45.5t-54 -54t-60.5 -54t-60 -46t-53 -30t-39.5 -6.5
q-24 6 -39 31t-21.5 58t-6 68t6.5 62q-27 -21 -46 -48.5t-33 -56t-25.5 -55.5t-23.5 -48.5t-27 -34.5t-37 -12z" />
    <glyph glyph-name="N" unicode="N" horiz-adv-x="815" 
d="M935 570q16 -17 5 -51.5t-42.5 -79.5t-79 -96.5t-103 -102.5t-115.5 -97t-116.5 -79.5t-106 -51t-83.5 -11.5q-16 3 -26 19t-15.5 40t-6.5 53t0 57.5t4 53t6 40.5q-30 -21 -52.5 -49t-40.5 -57.5t-33 -58t-30.5 -50.5t-32 -36t-38.5 -13q-35 0 -53 27.5t-22.5 71.5
t2.5 98t21.5 106t33.5 97t39 71q23 30 60.5 56t81.5 45t90 30.5t85 14t67.5 -5.5t37.5 -28q7 -16 -0.5 -51.5t-22 -81t-33.5 -96t-34.5 -96.5t-24 -83t-2.5 -54q9 9 20 22.5t22 28.5t21.5 31t17.5 31q28 56 47 96t33.5 72t28 61t31.5 63q12 23 38 41t59 30t70 17t72.5 2.5
t67 -14t52.5 -32.5z" />
    <glyph glyph-name="O" unicode="O" horiz-adv-x="788" 
d="M817 451q17 -69 -4 -133t-68.5 -118t-115.5 -96.5t-144 -68t-154 -33t-145.5 8t-119 56t-74.5 111.5q-28 85 -10 154.5t66 122t120 88.5t153 54.5t163 19t151.5 -17.5t118.5 -55t63 -93zM270 136q9 -19 36 -25t62 -1.5t73 18t69.5 33t51 43t17.5 49.5q-3 30 -30.5 41
t-66 7t-81 -20t-76 -39t-51 -51t-4.5 -55z" />
    <glyph glyph-name="P" unicode="P" horiz-adv-x="658" 
d="M715 471q14 -55 -5 -109.5t-62.5 -102.5t-105.5 -85.5t-133.5 -60.5t-146.5 -27.5t-144 15.5q-9 -13 -15 -25.5t-12 -25.5q-13 -31 -32 -43t-39 -7.5t-37.5 24.5t-27.5 52q-11 32 -8.5 86t18.5 115t46 120.5t75 101.5q49 46 112.5 73t130 37.5t131.5 5.5t118.5 -23.5
t90 -49t46.5 -71.5zM170 190q13 -7 40 -8.5t59.5 2.5t66.5 12.5t61 20.5t42.5 27t11.5 32q-3 11 -21 17t-45 5.5t-59.5 -7.5t-62.5 -20t-55 -33.5t-38 -47.5z" />
    <glyph glyph-name="Q" unicode="Q" horiz-adv-x="780" 
d="M505 -19q-27 12 -50 43q-72 -21 -144.5 -24t-135.5 14.5t-111 58.5t-71 109q-29 85 -12 153.5t65 121t120 88t153 53.5t164 18t152.5 -18t118.5 -55t63 -93q13 -54 3 -105.5t-38.5 -97.5t-72.5 -85.5t-97 -70.5l17 -18q17 -23 9 -43.5t-29.5 -34.5t-50.5 -18.5t-53 4.5z
M271 136q10 -23 46 -27.5t81 5.5q-7 12 -13 24t-13 23q-9 14 -8.5 25t6.5 18t17 9.5t24 -0.5q21 -6 49 -19t57 -31q29 20 47 42.5t16 47.5q-3 30 -30.5 41t-66 7t-81 -20t-76 -39t-51 -51t-4.5 -55z" />
    <glyph glyph-name="R" unicode="R" horiz-adv-x="678" 
d="M513 61q0 -39 -21.5 -54t-66.5 2q-29 10 -67 27.5t-78 35.5t-76.5 34t-62.5 22q-9 -9 -16 -19.5t-12.5 -21.5t-9.5 -21t-6 -16q-13 -31 -32.5 -43t-40 -7.5t-38 24.5t-27.5 52t-8 87t18 116.5t46 122t75 102.5q49 46 112.5 72t130 35.5t131.5 3t118.5 -26t90.5 -50.5
t48 -72q13 -51 -1 -96.5t-48 -84.5t-84 -70.5t-110 -53.5q17 -24 26.5 -51.5t8.5 -48.5zM191 218q17 -2 46 -1.5t61.5 4t65 10.5t58 17t40 24t10.5 31q-2 12 -20.5 17.5t-45 5t-59 -7t-63 -20t-55.5 -33.5t-38 -47z" />
    <glyph glyph-name="S" unicode="S" horiz-adv-x="682" 
d="M54 266q-33 47 -36 92t17.5 84.5t60.5 72t91 55.5t110.5 35.5t118.5 11.5q58 -1 111.5 -11.5t96.5 -31.5t73 -52t40 -72q11 -46 -9.5 -90t-55.5 -76q-29 -26 -54.5 -35t-43.5 -5t-25 20t2 39q6 13 4 28q-2 19 -24.5 29t-54 12t-67 -3.5t-63.5 -15.5t-43.5 -25t-7.5 -33
q6 -12 26.5 -22.5t48.5 -21t59.5 -22.5t58 -26.5t44 -32.5t19.5 -42q1 -31 -23 -55t-64.5 -40.5t-92 -25t-106.5 -7.5q-49 0 -98 6t-90 21t-69.5 40t-37.5 63q-5 24 11.5 41.5t40 24.5t47.5 1.5t33 -27.5q10 -22 28 -36.5t40.5 -23.5t47.5 -13t49 -5q21 -1 40.5 0.5t34 5
t22.5 8.5t8 11q-1 10 -19 17t-46.5 14t-63.5 15.5t-70.5 21.5t-67 32.5t-51.5 48.5z" />
    <glyph glyph-name="T" unicode="T" horiz-adv-x="686" 
d="M820 565q11 -15 7 -38t-19.5 -49.5t-40 -53t-54 -49.5t-62 -39.5t-63.5 -21.5q-26 -5 -63.5 -7.5t-82.5 -4.5l-24 -26q-33 -36 -75.5 -83.5t-85.5 -90.5t-82 -72.5t-63 -29.5q-23 0 -26.5 28.5t6 73.5t28.5 100.5t40 109.5q-41 5 -69 12.5t-39 18.5q-19 17 -22 45.5
t4.5 59.5t23 58.5t32.5 43.5q18 16 56 28t89.5 20.5t112 14t121.5 6.5t119.5 -1.5t106.5 -9t81 -17.5t44 -26z" />
    <glyph glyph-name="U" unicode="U" horiz-adv-x="745" 
d="M850 593q13 -22 5 -58.5t-31 -80.5t-57.5 -91.5t-74.5 -92.5q-33 -37 -78.5 -86t-109.5 -92t-147.5 -70.5t-192.5 -21.5q-72 4 -114 33t-60.5 73t-18 96.5t13 104t33 95t41.5 69.5q24 30 61 55t79 44t85.5 30.5t80.5 15t64 -2t36 -20.5q14 -22 4.5 -55t-31 -70.5
t-49.5 -75.5t-52 -70q-50 -66 -80 -109.5t-42.5 -69.5t-9 -37.5t20.5 -13.5q28 -4 53.5 14.5t49 52t45.5 76.5t43.5 86.5t43 83t43.5 66.5q24 30 56.5 55t68 43.5t71 30.5t66 15.5t53 -2t31.5 -20.5z" />
    <glyph glyph-name="V" unicode="V" horiz-adv-x="741" 
d="M864 593q13 -22 0.5 -57.5t-40.5 -78.5t-67 -89.5t-80 -91.5q-21 -24 -54 -54.5t-73.5 -62.5t-87 -61.5t-95.5 -52.5t-98 -35.5t-95 -9.5q-45 2 -77 31.5t-51.5 74t-27 99.5t-4.5 108t15.5 98t33.5 72q24 30 60 54.5t76.5 41.5t82 27t77 12t61 -4.5t34.5 -21.5
q14 -22 4 -55t-32 -70t-50.5 -75.5t-51.5 -71.5q-23 -32 -44.5 -70t-34.5 -70.5t-14 -54.5t16 -22q25 0 47 20t41.5 52t37.5 72t36 81t37 78.5t41 64.5q24 30 59 55t74 43.5t78.5 30.5t73.5 15.5t58.5 -2t33.5 -20.5z" />
    <glyph glyph-name="W" unicode="W" horiz-adv-x="984" 
d="M1090 594q14 -22 11.5 -59.5t-21.5 -84t-54 -99t-87 -104.5q-23 -23 -56 -52.5t-74 -58.5t-87.5 -56t-95 -46t-97.5 -28t-94 -2q-31 4 -47.5 24.5t-22.5 52.5q-44 -45 -89.5 -65t-105.5 -16q-46 2 -83 24t-62 58t-38 83t-10.5 100t21 109t55.5 109q22 32 57.5 56.5t76 42
t82.5 27t78 11t62 -5.5t35 -22q15 -22 5 -55t-31.5 -70t-50 -75.5t-51.5 -71.5q-24 -32 -45 -70t-33.5 -70.5t-13 -54.5t16.5 -22q16 0 37 14t41 36.5t36.5 51t23.5 57.5l4 14q14 54 32 102t35 80q28 56 63 93t68 53.5t60 13.5t41 -26q14 -22 9 -55.5t-22.5 -71t-42.5 -76
t-51 -69.5q-28 -35 -53 -72.5t-40.5 -68.5t-17.5 -51.5t15 -20.5q26 0 47.5 19.5t40.5 51t36 71.5t35 80.5t36.5 77.5t40.5 64q24 30 59 55t74 43.5t78.5 30.5t73 16t57.5 -1.5t33 -20.5z" />
    <glyph glyph-name="X" unicode="X" horiz-adv-x="717" 
d="M852 593q13 -22 5.5 -52t-28.5 -62.5t-51.5 -66t-63.5 -61.5q-44 -38 -104.5 -74t-133.5 -60q18 -36 26.5 -77t6.5 -77q-2 -39 -20.5 -56t-56.5 4q-21 12 -42.5 30.5t-43.5 39.5t-44 41.5t-44 35.5q-76 -23 -140.5 -58.5t-118.5 -80.5q-22 -17 -36 -19t-21 6.5t-6.5 24
t7.5 32.5q8 19 23.5 44t36.5 51.5t45.5 53t51.5 48.5q-26 25 -42.5 56t-22 62.5t0.5 61.5t26 54q24 31 59.5 54t74.5 38.5t79 23.5t74 8t59 -8t34 -23q14 -22 12 -42.5t-15 -42.5t-34 -47.5t-44 -57.5q-47 -67 -60 -107.5t1 -40.5q12 0 28.5 19.5t37.5 51t48 71.5t60 80
q24 30 59 55t73.5 43.5t78.5 30.5t73.5 15.5t58 -2t33.5 -20.5z" />
    <glyph glyph-name="Y" unicode="Y" horiz-adv-x="717" 
d="M845 592q13 -22 5.5 -52t-28 -62.5t-51.5 -65.5t-64 -61q-49 -43 -119 -82.5t-154 -61.5q-36 -35 -76.5 -72t-79.5 -67t-72 -49t-52 -19q-18 0 -26.5 19t-10 50.5t4.5 72t18 82.5q-39 23 -66 57t-39 71.5t-8 75t28 66.5q24 31 59.5 54t74.5 38.5t78.5 23.5t73.5 8
t58.5 -8t33.5 -23q14 -22 12.5 -42.5t-14 -42.5t-33 -47.5t-43.5 -57.5q-48 -67 -60.5 -107.5t0.5 -40.5q12 0 28.5 19.5t38 51t48.5 71.5t60 80q24 30 58.5 54.5t73.5 43.5t78.5 30.5t73.5 15t58 -2t33 -20.5z" />
    <glyph glyph-name="Z" unicode="Z" horiz-adv-x="584" 
d="M264 170q-17 -8 -40 -17t-48 -19.5t-50 -21.5t-45 -21q57 -1 104 12.5t86 30t72 31t61 15.5q24 1 31.5 -18t0 -45t-31 -53t-62.5 -43q-25 -10 -61.5 -17.5t-78.5 -12t-86.5 -5t-86 3t-77 12.5t-59.5 24q-11 5 -17 15t-5.5 21.5t6.5 23.5t19 21q19 14 51 31.5t71.5 37
t83 39.5t85.5 39q109 49 160.5 72t47.5 35q-2 6 -22.5 0.5t-51.5 -16t-68 -23t-72.5 -20t-65 -7.5t-44.5 15q-29 26 -35 63.5t5 75.5t36 71.5t57 50.5q31 16 75.5 26.5t95 15.5t102.5 5t97 -6q45 -5 75.5 -15.5t50 -25.5t29 -35.5t12.5 -46.5q4 -50 -21.5 -88.5t-77 -74.5
t-129.5 -73t-179 -83z" />
    <glyph glyph-name="bracketleft" unicode="[" horiz-adv-x="456" 
d="M520 457q-22 -3 -55 -33t-69 -74.5t-71 -96.5t-60.5 -99t-37.5 -81.5t-2 -44.5q17 -17 15.5 -29t-14.5 -18.5t-35.5 -7t-47.5 6.5t-50 22t-44 39q-12 16 -13 55.5t7.5 91t25 109.5t38.5 109t48 90t54 54q32 17 73.5 23.5t84 5t84 -9t74.5 -19t54.5 -25t24 -26.5
t-16.5 -24t-67 -18z" />
    <glyph glyph-name="backslash" unicode="\" horiz-adv-x="435" 
d="M257 575q7 -8 19 -37.5t26 -73t30 -97t31 -109t28.5 -109t22.5 -97.5t13 -75t1 -40q-7 -18 -21.5 -23.5t-33.5 4.5q-6 3 -26.5 31t-49 72.5t-62.5 100t-68.5 114.5t-66.5 117t-56 106t-37 82t-10 45q4 17 21.5 26.5t42.5 12.5t54.5 0.5t57 -9t50 -17.5t34.5 -24z" />
    <glyph glyph-name="bracketright" unicode="]" horiz-adv-x="342" 
d="M90 542q-26 25 -28 42t13.5 26t44.5 11t64 -3.5t72.5 -17.5t70 -30t56 -42.5t31.5 -54.5q7 -28 -16 -78t-64 -109t-92.5 -120.5t-102 -111.5t-93 -82t-64.5 -33q-33 -1 -63 7.5t-52.5 22t-37.5 29t-18 28.5t6.5 21t35.5 7q11 -1 30 17.5t41 49t46.5 71t46.5 83.5t40.5 86
t29.5 79.5t12.5 63.5t-9.5 38z" />
    <glyph glyph-name="asciicircum" unicode="^" horiz-adv-x="497" 
d="M430 333q-10 4 -15 14.5t-6.5 23t-0.5 24.5t3 20q-10 -2 -24.5 -8.5t-30 -15t-30 -18.5t-24.5 -20q-17 -17 -47.5 -26.5t-61.5 -10t-56 10t-32 34.5q-3 10 6 28.5t25 41t36 46.5t40.5 44.5t39 35.5t29.5 20q15 7 41.5 8t56 -3t58.5 -13.5t49 -24.5q16 -12 27 -32
t17 -42.5t9 -45.5t5 -41q1 -17 -8 -31t-25.5 -21.5t-37.5 -8t-43 10.5z" />
    <glyph glyph-name="underscore" unicode="_" horiz-adv-x="454" 
d="M322 -29q10 -14 7 -34.5t-15.5 -41t-33.5 -37.5t-47 -23q-13 -3 -40.5 -4.5t-62 -2t-71.5 0.5t-68.5 3.5t-54 6t-27.5 8.5q-8 7 -9 24.5t3 36.5t10.5 36t13.5 24q9 9 40.5 15t73.5 9t89 3.5t87.5 -2t69.5 -8.5t35 -14z" />
    <glyph glyph-name="grave" unicode="`" horiz-adv-x="376" 
d="M50 703q7 8 24.5 4t40 -14.5t48 -25.5t50.5 -30q20 -12 43.5 -22.5t44 -21t35.5 -21t20 -21.5t-13.5 -19t-50 -12.5t-71 -5t-77 2t-67 9t-41.5 17.5q-20 18 -23.5 42t2.5 47.5t16.5 42.5t18.5 28z" />
    <glyph glyph-name="a" unicode="a" horiz-adv-x="502" 
d="M567 527q12 -19 8 -54.5t-19.5 -80t-40 -94.5t-53 -97t-58.5 -87t-57 -65q-25 -24 -49.5 -37t-41 -12.5t-21 15.5t12.5 46l12 23q-22 -3 -49 -4.5t-55 0t-54 4.5t-45 9q-28 -20 -55.5 -37t-51.5 -30t-44 -20t-33 -7q-24 0 -22 27.5t20.5 71t49.5 96t66.5 103t70.5 92.5
t61 63q30 24 72.5 43t89 32.5t93.5 20.5t87 7.5t68 -6.5t38 -22zM253 167q18 -7 31 -24q7 23 11 43.5t4 36t-4 24.5t-12 9q-2 0 -13.5 -8t-29.5 -21.5l-42 -31.5t-51 -38q34 7 63 11t43 -1z" />
    <glyph glyph-name="b" unicode="b" horiz-adv-x="660" 
d="M693 429q12 -50 -3.5 -97.5t-52 -87t-90 -68.5t-115.5 -42q12 -21 13 -42.5t-10.5 -39.5t-35.5 -31.5t-62 -18.5q-47 -7 -98.5 -7t-98.5 11t-85 35.5t-59 67.5q-14 28 -14.5 75.5t14.5 100t47.5 103t85.5 83.5q51 32 110 52t118 27.5t115.5 3t102.5 -20t77 -41.5t41 -63z
M297 76q26 4 34.5 16t-3.5 24t-47.5 20t-96.5 5q-1 -3 -4.5 -8.5t-7.5 -12.5t-8 -14.5t-7 -12.5q9 -6 23.5 -11t33 -7.5t40 -2.5t43.5 4zM228 212q18 -10 57.5 -11t79.5 4t68.5 16.5t25.5 26.5q-3 14 -19.5 21.5t-39.5 9t-50.5 -3t-52 -13t-43.5 -21.5t-26 -29z" />
    <glyph glyph-name="c" unicode="c" horiz-adv-x="684" 
d="M428 121q28 13 51.5 8.5t35 -17.5t6 -31t-35.5 -31q-72 -32 -150 -44t-147.5 -0.5t-123 50t-76.5 108.5q-24 72 -7 132t61.5 106.5t110 79.5t138 51t147 21.5t136.5 -9t105 -41.5t55 -75q8 -29 1.5 -61t-21 -62.5t-34.5 -57.5t-39 -45q-20 -18 -42 -21t-37.5 4
t-21.5 22.5t5 34.5q6 10 0 17.5t-18 12.5t-28.5 7.5t-32.5 2.5q-36 -2 -80 -17.5t-80.5 -39t-57.5 -51.5t-10 -53q7 -15 27 -22t47 -7t58 7.5t58 20.5z" />
    <glyph glyph-name="d" unicode="d" horiz-adv-x="638" 
d="M655 419q16 -60 -2.5 -124.5t-62.5 -122t-109 -101.5t-143 -63q-30 -7 -67.5 -11t-76.5 -4.5t-77 3t-70 11.5t-55.5 19.5t-32.5 28.5q-15 25 -9.5 78.5t28.5 116.5t63 124.5t95 101.5q45 33 98 52t107.5 25t106.5 -0.5t95 -24t72.5 -45t39.5 -64.5zM311 94q31 9 64 27
t58 39t38 43.5t4 41.5q-9 18 -34.5 24.5t-58.5 2t-69.5 -19t-66.5 -39.5q-20 -16 -36 -34.5t-28 -36t-20 -31t-11 -18.5q9 -6 27 -9t40.5 -3t47 3.5t45.5 9.5z" />
    <glyph glyph-name="e" unicode="e" horiz-adv-x="587" 
d="M684 514q22 -21 9 -59t-46 -77.5t-78 -72t-88 -41.5q-35 -8 -67.5 -4t-62.5 9.5t-57 6.5t-50 -12q-19 -11 -36.5 -24.5t-32.5 -28.5q41 11 90.5 16.5t87.5 0.5q24 -3 33.5 -16t6.5 -29t-17 -31t-35 -22q-18 -5 -42 -3.5t-50.5 6.5t-54 12t-52.5 12q-5 0 -9 2
q-7 -11 -11 -20.5t-4 -17.5q-1 -14 12.5 -25t36 -17t51.5 -4.5t59 12.5q30 12 49 9t26 -14t-1 -27.5t-32 -32.5q-15 -9 -44 -17.5t-64.5 -13.5t-74 -6t-72.5 4.5t-59.5 17.5t-35.5 34t-11 53.5t5 68t17 74.5t25 73t30.5 64.5t32.5 49.5q28 34 57.5 55t62.5 34t70 20.5
t79 14.5q43 7 97 7.5t104.5 -4t90.5 -14.5t55 -23z" />
    <glyph glyph-name="f" unicode="f" horiz-adv-x="592" 
d="M682 514q14 -14 13 -36t-14 -48t-35.5 -53t-49.5 -50t-57 -40t-58 -23q-33 -8 -64.5 -5t-60 8.5t-54.5 8t-49 -6.5q-17 -7 -39 -32.5t-47 -59.5q27 5 57 10t57.5 8.5t50 3.5t33.5 -5q16 -7 22 -21.5t2.5 -30.5t-18 -31.5t-39.5 -24.5q-24 -10 -54 -11t-59.5 4t-55.5 15
t-41 22q-17 -23 -32.5 -43.5t-30.5 -36.5t-28 -25.5t-23 -10.5q-21 -2 -30 22t-9 63t8 88t21 97t30 89t35 65q17 23 38 43.5t53.5 37t80 29t118.5 18.5q45 4 96.5 4t98.5 -5t83.5 -14.5t50.5 -22.5z" />
    <glyph glyph-name="g" unicode="g" horiz-adv-x="684" 
d="M618 177q18 -6 24.5 -19t2 -26t-19 -24.5t-37.5 -14.5q-8 -1 -16.5 -1.5t-18.5 0.5q-12 -9 -28 -18.5t-37 -18.5q-73 -32 -151 -46.5t-147.5 -4.5t-123 46.5t-76.5 106.5q-24 72 -7.5 132.5t60.5 107.5t108.5 81t136.5 53t145.5 23t135.5 -7.5t105.5 -39.5t56.5 -74
q14 -50 1.5 -100t-52.5 -85q-19 -18 -40.5 -21.5t-37.5 3t-22 21.5t6 35q6 10 -2 14.5t-22.5 6.5t-33.5 1.5t-36 -1.5q-24 -1 -54 -10.5t-60.5 -24.5t-58.5 -33.5t-48 -39t-29 -40.5t-2 -37q6 -14 22 -20t38 -7t48 4t52 14q-18 5 -33 10.5t-25 10.5q-17 11 -15.5 26.5
t28.5 20.5q22 5 58.5 8t75.5 3t74 -3.5t55 -11.5z" />
    <glyph glyph-name="h" unicode="h" horiz-adv-x="645" 
d="M390 534q13 -20 5 -52t-30.5 -70.5t-56 -81t-71.5 -82.5q-15 -16 -30.5 -34t-31.5 -38q38 9 73 15.5t59 4.5q12 34 27 67.5t30 64t30 55.5t27 41q21 27 52 49.5t66 39.5t71 27.5t66.5 13.5t53 -1.5t30.5 -18.5q11 -20 0 -52t-36.5 -70.5t-60.5 -81t-71 -82.5
q-19 -21 -45 -47.5t-54 -54t-57 -53.5t-55.5 -46t-48.5 -33t-36 -14q-22 -2 -26.5 22t3.5 63q-41 -1 -83 2.5t-75 11.5q-32 -40 -62 -68.5t-54 -30.5q-23 -2 -33.5 22t-10.5 63.5t8.5 88.5t22.5 97t32 89t37 64q22 27 53 49.5t65.5 39.5t69.5 27.5t65 13.5t52 -1.5t30 -18.5
z" />
    <glyph glyph-name="i" unicode="i" horiz-adv-x="373" 
d="M487 529q11 -22 -5.5 -54t-49 -69.5t-74 -79t-80.5 -81.5q-32 -33 -65.5 -75t-66 -79.5t-62 -64t-51.5 -26.5q-22 -1 -32.5 24.5t-11 66.5t7 92t20.5 100t30.5 91t37.5 66q23 27 59.5 48.5t78.5 36.5t86 23t81 9t63 -6t34 -22z" />
    <glyph glyph-name="j" unicode="j" horiz-adv-x="539" 
d="M468 167q-35 -39 -71.5 -70t-77 -52.5t-86 -33t-98.5 -11.5q-63 0 -107.5 16t-67.5 43.5t-25.5 64t18.5 76.5q11 21 30.5 32.5t42.5 16t45.5 1.5t38 -10.5t21.5 -19.5t-5 -27q-9 -12 -13.5 -28t-3.5 -32t9 -28.5t25 -17.5q20 -4 43 0t45.5 13t42 21.5t33.5 26.5
q36 35 52.5 64.5t16.5 51t-17 33.5t-49 12q-37 0 -74.5 -12t-71.5 -22.5t-63.5 -13t-50.5 17.5q-25 23 -30 57t5 68t32 64t52 46q28 14 68 23.5t85.5 14t92 4.5t87.5 -5q80 -10 112.5 -37.5t37.5 -73.5q2 -22 -4.5 -53.5t-21.5 -67.5t-39.5 -75.5t-58.5 -76.5z" />
    <glyph glyph-name="k" unicode="k" horiz-adv-x="638" 
d="M421 55q-2 -35 -21.5 -49t-59.5 2q-21 7 -46.5 25t-52 39t-53 42.5t-50.5 35.5q-20 -28 -40 -54.5t-39 -47.5t-36 -34t-31 -14q-22 -2 -31.5 22t-10 63.5t7.5 88.5t21 97t30.5 89t35.5 64q31 41 80 71t98 45.5t88.5 14.5t51.5 -22q11 -20 3 -52t-29 -70t-52.5 -80
t-67.5 -82q34 16 62 43.5t53 58.5t47.5 62.5t45.5 57.5q26 30 60.5 48.5t70.5 27t71.5 9t64 -5.5t47 -17.5t21.5 -25.5q3 -22 -16.5 -47.5t-53 -51.5t-76.5 -50.5t-86 -45.5q-26 -13 -71 -33.5t-96 -42.5q16 -19 27 -42t18.5 -47.5t11 -48.5t3.5 -43z" />
    <glyph glyph-name="l" unicode="l" horiz-adv-x="443" 
d="M308 218q40 11 65.5 3.5t37.5 -26.5t11 -46.5t-13.5 -55t-37 -51.5t-58.5 -38q-20 -8 -53.5 -12.5t-72.5 -6t-80 -0.5t-77 3.5t-63 6.5t-37 9q-7 4 -9 11q-8 14 -4.5 44.5t14.5 69t28 82t36 84t38 74.5t35 55q21 27 53.5 49.5t70 39.5t76.5 27.5t72 13.5t57 -2t32 -19
q12 -20 2.5 -47t-34.5 -59.5t-63 -70t-83 -77.5q-17 -15 -49.5 -44t-68.5 -62t-69 -63.5t-49 -48.5q60 15 104 39t78 48t60.5 43.5t50.5 26.5z" />
    <glyph glyph-name="m" unicode="m" horiz-adv-x="868" 
d="M82 0q-32 0 -51.5 25t-28.5 64.5t-9.5 88t5.5 95.5t17.5 87.5t26.5 63.5q17 27 51.5 50.5t77 40.5t89 28t87 13t70.5 -5t41 -25q9 -15 5 -43.5t-14.5 -64.5t-25 -75.5t-26.5 -75.5t-19.5 -65.5t-4.5 -44.5q11 13 26 38.5t32 57t36 65.5t38 65t37.5 56t35.5 38
q19 15 49 29.5t66 25t75.5 17t76.5 5.5t68.5 -9.5t53.5 -27.5q17 -15 12.5 -46t-26 -71.5t-56 -87t-76.5 -92t-89.5 -87.5t-93.5 -72.5t-88.5 -47t-75.5 -12.5q-18 2 -15.5 19.5t17 42.5t35.5 54.5t39.5 56t29.5 46t6 25.5q-15 -18 -37.5 -41.5t-48.5 -48.5t-54 -48.5
t-54 -41.5t-47.5 -27.5t-35.5 -5.5q-22 6 -35.5 28.5t-19.5 52t-5.5 61t6.5 55.5q-24 -19 -41 -43.5t-30 -50t-23 -50t-21 -44t-25 -31t-33 -10.5z" />
    <glyph glyph-name="n" unicode="n" horiz-adv-x="733" 
d="M841 513q15 -15 5 -46t-38 -71.5t-71 -87t-93 -92.5t-104 -87t-105 -71.5t-95 -46.5t-75 -10q-15 2 -24 17t-13.5 36.5t-6 47.5t0 51.5t3.5 48t5 36.5q-27 -19 -47.5 -44t-36.5 -52t-29.5 -52.5t-27 -45.5t-29 -32.5t-34.5 -11.5q-32 0 -48 25t-20 64.5t2.5 88t19 95.5
t30 87.5t35.5 63.5q21 27 55 50.5t73.5 40.5t80.5 27.5t76.5 13t61 -5t33.5 -25.5q6 -14 -0.5 -46t-20 -73t-30.5 -86.5t-31 -87t-21.5 -74.5t-2.5 -49q16 16 38 45.5t35 56.5q26 50 42.5 86t29.5 65t25 55t29 56q17 31 59 51.5t91.5 27.5t97 -2t75.5 -37z" />
    <glyph glyph-name="o" unicode="o" 
d="M735 406q16 -62 -3.5 -119.5t-62 -106t-103.5 -86.5t-129.5 -61.5t-138.5 -30.5t-131 7t-107 51t-67 100q-25 77 -9 139t59.5 109.5t108 80t137.5 49t147 17t136 -15.5t106 -49t57 -84zM243 122q8 -17 32 -22.5t55.5 -1.5t66 16.5t63 30t46 39t15.5 44.5
q-3 27 -27.5 36.5t-59.5 6t-73 -18t-68 -35.5t-45.5 -46t-4.5 -49z" />
    <glyph glyph-name="p" unicode="p" horiz-adv-x="592" 
d="M643 424q13 -50 -4 -99t-56 -92t-95 -77t-120 -54.5t-132 -24.5t-130 14q-8 -11 -13.5 -23t-10.5 -23q-12 -28 -29 -39t-35 -6.5t-34 22t-25 46.5q-10 29 -8 77.5t16.5 103.5t41.5 108.5t68 91.5q45 41 101.5 65.5t116.5 34t118.5 5t106.5 -21t81 -44t42 -64.5zM153 171
q11 -7 35.5 -8t53.5 2.5t60 11t55 18t38 24t11 29.5q-3 10 -19.5 15.5t-40.5 5t-53 -6.5t-56 -18t-50 -30.5t-34 -42.5z" />
    <glyph glyph-name="q" unicode="q" horiz-adv-x="702" 
d="M454 -17q-12 5 -23 15t-22 23q-65 -18 -130 -21t-121.5 13t-99.5 53t-64 98q-26 76 -11 138t58.5 109t108 79t137.5 48.5t147.5 16.5t137 -16.5t107 -49.5t56.5 -84q12 -49 2.5 -95t-35 -87t-64.5 -77t-87 -64l15 -16q15 -20 8 -39t-26.5 -31.5t-45.5 -17t-48 4.5z
M244 122q9 -21 41.5 -24.5t73.5 5.5l-24 42q-16 26 -2.5 39t37.5 8q19 -5 44.5 -17t51.5 -28q26 17 42 37.5t14 43.5q-3 27 -27.5 36.5t-59.5 6t-73 -18t-68 -35.5t-45.5 -46t-4.5 -49z" />
    <glyph glyph-name="r" unicode="r" horiz-adv-x="610" 
d="M462 55q0 -35 -19.5 -49t-60.5 2q-26 9 -60.5 24.5t-70 32t-68.5 30.5t-56 20q-16 -16 -26 -37.5t-14 -32.5q-12 -28 -29.5 -39t-35.5 -6.5t-34 22t-25 46.5t-7 78.5t16 105t41 110t68 92.5q44 41 101 64.5t117 32t118.5 2.5t107 -23.5t81.5 -45.5t43 -65
q11 -45 -1.5 -86.5t-43 -76.5t-75.5 -63.5t-99 -47.5q14 -21 23 -45.5t9 -44.5zM172 196q15 -2 41 -1.5t55.5 4t58.5 9.5t52 15.5t36 21.5t10 28q-2 10 -18.5 15t-40.5 4.5t-53 -6.5t-56.5 -18t-50.5 -30t-34 -42z" />
    <glyph glyph-name="s" unicode="s" horiz-adv-x="614" 
d="M49 239q-30 43 -32.5 83t16 75.5t54 65t81.5 50.5t99.5 32t106.5 10q52 -1 100.5 -10.5t87.5 -28t65.5 -46.5t35.5 -65q5 -21 2.5 -41.5t-10.5 -40t-21 -36.5t-29 -31q-26 -24 -49.5 -32t-39 -4t-22 18t1.5 35q5 12 3 25q-2 17 -22 26t-48.5 10.5t-60 -3t-57 -14
t-39.5 -23t-7 -29.5q5 -11 24 -20t44 -18.5t53 -20t52 -24t40 -30t18 -37.5q1 -28 -21 -49.5t-58 -36.5t-83 -22.5t-96 -6.5q-44 0 -88 5.5t-80.5 19t-62.5 36t-34 56.5q-5 21 10 37t36 22.5t42.5 1.5t30.5 -25t25 -33t36 -21t42.5 -11.5t44.5 -4.5q39 -2 67.5 4.5
t27.5 17.5q0 9 -16.5 15.5t-42.5 12.5t-57.5 13.5t-63 19.5t-60 29.5t-46.5 43.5z" />
    <glyph glyph-name="t" unicode="t" horiz-adv-x="617" 
d="M738 508q10 -14 6.5 -34.5t-17.5 -44t-36 -47.5t-48.5 -44.5t-56 -35.5t-57.5 -19q-23 -5 -57 -7t-74 -4l-22 -24q-29 -32 -67.5 -75t-77.5 -81.5t-73.5 -65t-56.5 -26.5q-21 0 -24 26t5.5 66.5t25.5 90.5t36 98q-36 5 -62 11.5t-35 16.5q-17 15 -19.5 41t4 53.5
t20.5 52.5t29 39q21 19 74.5 32t122.5 20.5t144.5 9.5t141.5 -3t113.5 -16.5t60.5 -29.5z" />
    <glyph glyph-name="u" unicode="u" horiz-adv-x="670" 
d="M765 534q12 -20 4.5 -53t-28 -72.5t-51.5 -82.5t-67 -83q-30 -33 -71 -77t-98 -82.5t-132.5 -63.5t-173.5 -20q-65 3 -103 29.5t-54.5 65.5t-16 87t11.5 94t29.5 85.5t37.5 62.5q22 27 55 49.5t71 39.5t77 27.5t72.5 13.5t57.5 -1.5t32 -18.5q13 -20 4.5 -49.5t-28 -63.5
t-45 -68t-46.5 -63q-45 -59 -71.5 -98.5t-38 -63t-8.5 -34t18 -11.5q25 -4 48 13t44.5 47t41 68.5t39 78t39 75t39.5 59.5q32 40 80 70t95.5 45.5t85.5 15.5t50 -21z" />
    <glyph glyph-name="v" unicode="v" horiz-adv-x="667" 
d="M778 534q11 -20 0 -52t-36.5 -70.5t-60.5 -81t-72 -82.5q-29 -32 -80 -76.5t-113 -84t-129.5 -65.5t-129.5 -22q-41 2 -69.5 28.5t-46 66.5t-24.5 89.5t-4.5 97t14 88.5t30.5 65q22 27 54.5 49t68.5 37.5t73.5 24.5t69 11t55 -4t31.5 -20q12 -20 3 -49.5t-29 -63
t-45.5 -68t-45.5 -64.5q-21 -29 -40 -63t-31 -63.5t-13 -49t14 -19.5q23 0 42.5 18t37 46.5t34 65l33 73t33.5 70.5t36 58q22 27 53.5 49t66.5 39t70.5 27.5t66 14t53 -1t30.5 -18.5z" />
    <glyph glyph-name="w" unicode="w" horiz-adv-x="886" 
d="M981 535q12 -20 10 -54t-19 -75.5t-49 -89t-78 -94.5q-20 -21 -50 -47t-67 -52.5t-79 -50.5t-85.5 -41t-87.5 -25t-85 -2q-27 4 -42 22t-21 47q-38 -41 -79.5 -58.5t-95.5 -14.5q-62 3 -105 44.5t-60 104t-3.5 138.5t63.5 148q20 28 52 50.5t68 38t74 24t70 10t56 -4.5
t32 -20q13 -20 4.5 -49.5t-28.5 -63t-45.5 -68t-46.5 -64.5q-21 -29 -40 -63t-30.5 -63.5t-12 -49t15.5 -19.5q15 0 33.5 12.5t36.5 32.5t33 46t21 52q1 5 2 8l2 6q13 48 29 90.5t31 71.5q25 51 56 84t61 48t55 12.5t37 -23.5q13 -20 8 -50t-20.5 -64t-38 -68.5t-46.5 -62.5
q-25 -31 -47.5 -65t-36 -62t-15.5 -46.5t13 -18.5q23 0 42.5 17.5t36.5 46t32.5 64.5t31.5 72.5t32.5 70t36.5 57.5q33 40 85.5 70t105 46t94 16t53.5 -21z" />
    <glyph glyph-name="x" unicode="x" horiz-adv-x="645" 
d="M767 534q12 -20 5 -47t-26 -56.5t-46 -59.5t-57 -55q-40 -35 -94.5 -67t-119.5 -54q16 -32 23.5 -69t5.5 -69q-2 -35 -18.5 -50.5t-50.5 3.5q-18 10 -37.5 27t-40 35.5t-40.5 37t-40 32.5q-68 -21 -126 -53t-106 -72q-20 -15 -32.5 -17t-18.5 5.5t-5.5 21.5t6.5 30
q7 17 21.5 39.5t33 46t40.5 47t46 43.5q-24 23 -39 51t-20 56.5t1 55.5t24 49q22 27 53.5 48t66.5 35t71 21t66.5 7t53 -7t31.5 -21q13 -20 11 -38t-14 -38t-30.5 -43t-39.5 -52q-43 -60 -54 -96.5t1 -36.5q11 0 25.5 17.5t33.5 46l43 64.5t54 72q22 27 53 49t66 39t71 27.5
t66.5 14t52.5 -1t30 -18.5z" />
    <glyph glyph-name="y" unicode="y" horiz-adv-x="645" 
d="M760 533q12 -20 5.5 -47t-25.5 -56t-46.5 -59t-57.5 -55q-44 -39 -107 -74.5t-139 -55.5q-32 -32 -68.5 -65t-71.5 -60t-64.5 -44t-46.5 -17q-16 0 -24 17t-9 45.5t4 64.5t16 74q-35 21 -59.5 52t-35.5 64.5t-7 67t25 60.5q22 27 53.5 48t67 35t71 21t66 7t53 -7
t30.5 -21q13 -20 11 -38t-13 -38t-29.5 -43t-39.5 -52q-43 -60 -54 -96.5t0 -36.5t26 17.5t34.5 46t43.5 64.5t54 72q21 27 52.5 49t66 39t70.5 27.5t66.5 14t52 -1.5t29.5 -19z" />
    <glyph glyph-name="z" unicode="z" horiz-adv-x="526" 
d="M238 153q-15 -7 -35.5 -15.5t-43 -18l-45 -19t-40.5 -18.5q51 0 93 12t77 26.5t64.5 27.5t55.5 14q21 1 28 -16t0 -40.5t-28 -48t-56 -38.5q-23 -9 -56 -15.5t-71 -11t-78 -5t-77.5 3t-69.5 11.5t-53 22q-20 10 -20 32.5t23 39.5q17 13 46 29t64.5 33.5t74.5 35.5t77 35
q98 44 144.5 64.5t42.5 31.5q-2 6 -20.5 1t-46 -14.5t-61 -21t-65 -18.5t-58 -6.5t-40.5 13.5q-26 23 -31 57t4.5 68t32 64t51.5 46q27 14 67.5 23.5t85.5 14t92 4.5t88 -5q80 -10 112.5 -37.5t37.5 -73.5q3 -45 -19.5 -80t-69 -67t-116.5 -65t-161 -75z" />
    <glyph glyph-name="braceleft" unicode="{" horiz-adv-x="456" 
d="M534 473q-27 -9 -54 -28.5t-53.5 -43t-52 -48t-49 -43t-45.5 -28t-42 -3.5q14 -13 16.5 -33t-1 -44.5t-11 -50t-13.5 -49t-8.5 -43.5t4.5 -31q18 -31 11 -48.5t-29.5 -20.5t-55.5 10t-68 43q-24 20 -32.5 49t-10 60.5t1.5 63t2 57.5t-8.5 43.5t-28.5 21.5q-16 3 -22 17
t-2.5 30t16.5 27.5t35 9.5q24 -3 45.5 17.5t41.5 49t41.5 58t45.5 46.5q46 31 104 42t113 7.5t100 -18.5t66 -35.5t10.5 -43t-67.5 -41.5z" />
    <glyph glyph-name="bar" unicode="|" horiz-adv-x="435" 
d="M174 573q11 14 33 26t49.5 20t56.5 11.5t54.5 1.5t43.5 -10.5t23 -25.5q3 -11 -8.5 -45.5t-33.5 -83.5t-51.5 -108t-61 -119.5t-63.5 -118t-58.5 -102.5t-46 -74t-25.5 -33q-19 -11 -33.5 -6t-22.5 23q-4 9 -1 40t10.5 75.5t18.5 98.5t23.5 110t26 110t26 98t23 74
t17.5 38z" />
    <glyph glyph-name="braceright" unicode="}" horiz-adv-x="342" 
d="M80 541q-15 23 -1.5 43.5t43.5 33t71 14.5t81.5 -10.5t75 -43t52.5 -83.5q9 -28 3 -58.5t-20 -61t-30.5 -59.5t-28.5 -52.5t-15 -41t12 -24.5q19 -10 20 -27t-9 -32t-27 -23.5t-32 -1.5q-20 9 -47.5 2t-60 -22t-69 -36t-72.5 -41t-71 -35t-66 -19q-46 -6 -76 -0.5
t-41.5 17.5t-3 28.5t40.5 33.5q12 6 30.5 20.5t41 33t47.5 38.5t49.5 37.5t47.5 30t42 15.5q-20 6 -22.5 26t4 48t17.5 62t19 68t9 65t-14 55z" />
    <glyph glyph-name="asciitilde" unicode="~" horiz-adv-x="503" 
d="M468 284q6 -16 -5.5 -34.5t-29 -35.5t-36 -31t-27.5 -21q-20 -14 -52.5 -19.5t-58.5 8.5q-6 3 -11.5 10.5t-10.5 15.5t-10 14t-9 6q-13 0 -30.5 -10t-31.5 -22q-11 -11 -25 -17t-28 -6.5t-25 6.5t-15 22q-3 10 3 31t16.5 43.5t22.5 41t23 23.5q10 4 28 6t39 0.5t41 -6.5
t33 -14q6 -5 12 -17.5t11 -25t10.5 -21t10.5 -4.5q7 5 9 13.5t2 17.5v18t3 14q8 12 29.5 17t45 3.5t43 -8.5t23.5 -18z" />
    <glyph glyph-name="exclamdown" unicode="&#xa1;" horiz-adv-x="253" 
d="M171 40q-11 -14 -33 -26t-49.5 -20t-56.5 -11.5t-54.5 -1.5t-43.5 10.5t-23 25.5q-4 15 15.5 46.5t52.5 70.5t73 81t77.5 78t65.5 61t37 30q19 11 33.5 6t22.5 -23q5 -12 0.5 -38.5t-14.5 -59t-24 -68.5t-28.5 -68t-28 -57t-22.5 -36zM214 468q-8 12 1 35.5t27.5 47.5
t43.5 44.5t49 27.5q47 14 76.5 4.5t34.5 -38.5q2 -15 0.5 -32.5t-6 -33.5t-10.5 -30t-13 -21q-23 -24 -54.5 -32.5t-61.5 -6.5t-54.5 12t-32.5 23z" />
    <glyph glyph-name="cent" unicode="&#xa2;" horiz-adv-x="684" 
d="M497 560q16 21 50.5 37.5t70 23.5t65 0.5t37.5 -31.5q2 -9 -9 -32t-31 -55q42 -30 54 -74q8 -29 1.5 -61t-21 -62.5t-34.5 -57.5t-39 -45q-20 -18 -42 -21t-37.5 4t-21.5 22.5t5 34.5q6 11 2.5 23.5t-19.5 23.5q-35 -47 -72 -93t-72 -89q22 3 44 13q28 13 51.5 8.5
t35 -17.5t6 -31t-35.5 -31q-94 -41 -189 -49q-35 -42 -59.5 -68.5t-30.5 -30.5q-19 -11 -33.5 -6t-22.5 23q-3 8 5 31t23 57q-66 13 -116.5 50.5t-73.5 106.5q-21 65 -9.5 120t47 99t89.5 77.5t117 55t130.5 31.5t130.5 7zM202 152q6 -16 35 -29q21 40 45 82.5t48 84.5
q-29 -12 -55.5 -28.5t-45 -35t-27 -37.5t-0.5 -37z" />
    <glyph glyph-name="sterling" unicode="&#xa3;" horiz-adv-x="630" 
d="M485 370q16 -13 4.5 -33.5t-42.5 -36.5q9 -10 4 -23.5t-20 -26t-39 -23t-54 -13.5q-6 -1 -14 -2t-18 -2q-16 -28 -30 -55.5t-28 -53.5q42 19 75.5 41.5t61 42.5t50.5 35.5t45 21.5q44 12 72.5 4t42 -29.5t12.5 -51.5t-15 -60.5t-41 -57.5t-65 -42q-22 -9 -59 -14
t-80.5 -7t-89.5 -1t-86 4t-70 7.5t-41 10.5q-13 7 -10 20q-6 17 -8.5 64t5.5 108q-23 0 -38.5 1.5t-20.5 4.5q-9 5 -10 16.5t3 24t12 23.5t16 16l9 3q-2 17 8.5 36.5t23.5 26.5q5 2 15 5t24 5q10 24 22.5 47t29.5 44q45 58 101.5 94.5t116.5 53.5t119.5 17t110 -14t88 -41
t54 -63.5t7.5 -80.5t-51 -93q-20 -23 -43.5 -27t-41.5 4.5t-25.5 26.5t4.5 40q6 11 2 21t-15 18t-27 12.5t-34 3.5q-21 -1 -42 -12.5t-41 -30.5q24 -1 40 -3t21 -6z" />
    <glyph glyph-name="currency" unicode="&#xa4;" horiz-adv-x="713" 
d="M30 358q-1 11 13.5 32t37 40.5t50 32.5t52.5 10q20 -4 40.5 -29.5t34.5 -56.5q27 13 56.5 19t58.5 7.5t56 -2t50 -10.5q23 28 50.5 50t47.5 26q25 3 52.5 -10t50 -32.5t37 -40.5t13.5 -32t-11.5 -17.5t-27.5 -10t-39.5 -5.5t-48.5 -4l-48 -8q2 -29 -11 -63.5t-45 -64.5
q10 -2 20 -3.5t19 -2.5q19 -1 29.5 -4t16 -7.5t7 -10.5t2.5 -14t-10 -23.5t-27.5 -29.5t-37 -24t-38.5 -8q-9 2 -17.5 9.5t-17 19t-15 25t-10.5 26.5l-19 -6q-41 -11 -81.5 -10.5t-74.5 10.5q-20 -21 -44 -39t-39 -20q-18 -3 -38.5 7t-37 24t-27.5 29.5t-10 23.5t11.5 13
t26.5 8t35.5 4.5t38.5 3.5h2q-14 26 -12 54t14 54q-16 3 -31 5.5t-29 4.5q-26 2 -40.5 6t-22 10t-9.5 14.5t-3 19.5zM428 256q-9 15 -25.5 18.5t-32 -2t-26 -19t-8.5 -32.5q3 -17 21 -19.5t36.5 4t30.5 20t4 30.5z" />
    <glyph glyph-name="yen" unicode="&#xa5;" horiz-adv-x="717" 
d="M435 168q12 -14 6.5 -30t-20 -30.5t-34.5 -26t-37 -15.5q-14 -4 -34.5 -4.5t-45.5 0.5q-36 -28 -66.5 -45t-49.5 -17q-20 0 -28.5 23t-7.5 60q-37 8 -45 15q-9 8 -10 18.5t3.5 22t13 21.5t17.5 16q9 7 35 13q2 8 4 17l4 18q-39 23 -66 57t-39 71.5t-8 75t28 66.5
q24 31 59.5 54t74.5 38.5t78.5 23.5t73.5 8t58.5 -8t33.5 -23q14 -22 12.5 -42.5t-14 -42.5t-33 -47.5t-43.5 -57.5q-48 -67 -60.5 -107.5t0.5 -40.5q12 0 28.5 19.5t38 51t48.5 71.5t60 80q24 30 58.5 54.5t73.5 43.5t78.5 30.5t73.5 15t58 -2t33 -20.5q13 -22 5.5 -52
t-28 -62.5t-51.5 -65.5t-64 -61q-49 -43 -119 -82.5t-154 -61.5l-27 -26q21 -6 28 -13z" />
    <glyph glyph-name="brokenbar" unicode="&#xa6;" horiz-adv-x="435" 
d="M67 188q6 26 24 40t40 18t44.5 -2.5t38 -20.5t19.5 -35t-11 -48q-22 -40 -44.5 -79.5t-41 -71.5t-32.5 -53t-18 -24q-19 -11 -33.5 -6t-22.5 23q-3 8 -1.5 32t7 58.5t13.5 78t18 90.5zM105 357q9 29 19 64.5t20 67.5t18 55.5t12 28.5q11 14 33 26t49.5 20t56.5 11.5
t54.5 1.5t43.5 -10.5t23 -25.5q3 -8 -10.5 -41.5t-35.5 -79t-48.5 -96t-50.5 -93.5q-9 -16 -28 -24t-42 -8.5t-46.5 6t-41 19.5t-26 32.5t-0.5 45.5z" />
    <glyph glyph-name="section" unicode="&#xa7;" horiz-adv-x="614" 
d="M71 203q-15 21 -17.5 42t3.5 41.5t19 39t31 33.5q-26 54 -6.5 102t67.5 84t115 56t136 19q48 0 92 -9t79 -26t59.5 -42t32.5 -59q10 -38 -7 -74t-46 -62q-24 -21 -45 -28.5t-35.5 -4t-20 16.5t1.5 32q5 11 3 22q-2 16 -20 24t-44 9.5t-55 -2.5t-52 -13t-36 -21t-6 -27
q5 -10 22 -18.5t40 -17t48.5 -18t47 -21.5t36.5 -27t16 -34q1 -26 -20.5 -46.5t-56.5 -34.5q18 -19 19 -39q1 -25 -19 -44.5t-53 -33t-75.5 -20.5t-87.5 -6q-40 0 -80 5t-73.5 17t-57 32.5t-30.5 51.5q-5 19 8.5 33.5t33 20.5t39 1.5t27.5 -22.5t23 -30t33 -19.5t38.5 -10.5
t40.5 -4q35 -1 61 5t25 15q0 9 -14.5 14t-37 9.5t-51 10t-56.5 15t-53.5 24.5t-41.5 39zM168 251q4 -8 21 -15t41.5 -13.5t54.5 -13.5t60 -16q17 2 28 7t11 11q-1 10 -21 16t-50 13t-66 17t-67 27q-9 -8 -13 -16t1 -17z" />
    <glyph glyph-name="dieresis" unicode="&#xa8;" horiz-adv-x="424" 
d="M399 634q7 -10 -1 -29t-24.5 -38.5t-39.5 -36.5t-45 -23q-42 -11 -69 -3t-32 31q-1 4 -1.5 8.5t0.5 9.5q-16 -16 -35 -28.5t-37 -17.5q-42 -11 -69 -3t-32 31q-2 12 -0.5 26t5.5 27.5t10 25t12 17.5q19 19 46 26t53.5 5.5t49 -8.5t32.5 -17q21 17 49 22.5t54 3
t46.5 -10.5t27.5 -18z" />
    <glyph glyph-name="copyright" unicode="&#xa9;" horiz-adv-x="903" 
d="M367 -153q-44 -7 -92.5 -3t-94.5 18t-85.5 37t-65.5 55q-38 47 -52 104.5t-6.5 119t33 123.5t67 118.5t95.5 104.5t118 81q62 32 128.5 49.5t130.5 21.5t123 -5.5t107 -32t81.5 -58t47.5 -82.5q10 -37 11 -79t-6.5 -84.5t-22.5 -83.5t-36 -75q-49 -80 -102.5 -137
t-113 -96t-125.5 -61.5t-140 -34.5zM697 518q-82 8 -160.5 -9.5t-147 -51.5t-125 -80.5t-95 -98.5t-56.5 -105.5t-10 -99.5q9 -53 44.5 -83.5t83.5 -43.5t101.5 -11.5t98.5 10.5q42 9 86 29.5t87 55t84 83t77 113.5q27 49 40.5 98.5t8.5 91t-33 69.5t-84 33zM503 125
q21 10 39.5 6.5t27.5 -14t5 -24.5t-28 -25q-38 -17 -78.5 -32.5t-79.5 -26t-75 -13.5t-64 5t-47 30t-24 61q-8 59 12 111.5t58 96t90 77t108 55.5t111 31t99 4t73 -25.5t33 -58.5q6 -24 -2.5 -51t-24 -53.5t-34.5 -49.5t-34 -38t-32 -17.5t-29.5 3.5t-17.5 18.5t4 28.5
q4 7 0 13.5t-13.5 10.5t-22.5 6t-25 2q-28 -1 -64 -16t-66 -37t-48 -46.5t-10 -45.5q6 -12 23.5 -15.5t40.5 -0.5t48.5 11t46.5 19z" />
    <glyph glyph-name="ordfeminine" unicode="&#xaa;" horiz-adv-x="505" 
d="M545 596q8 -13 5 -38.5t-14 -58t-28.5 -68t-38 -69.5t-42 -63t-40.5 -47q-18 -17 -36 -26.5t-29.5 -9t-14.5 11t9 33.5l9 17q-16 -3 -35.5 -4t-39.5 0t-39 3t-33 6q-41 -28 -77 -48t-55 -19q-17 0 -16 20t14.5 51t36 69t47.5 74.5t50.5 66.5t44.5 45q22 18 52.5 31.5
t64 23t67 14.5t62 5t49 -5t27.5 -15zM319 337q13 -5 23 -18q11 34 10.5 58t-11.5 24q-3 0 -31 -21t-67 -50q24 5 44.5 7.5t31.5 -0.5z" />
    <glyph glyph-name="guillemotleft" unicode="&#xab;" horiz-adv-x="699" 
d="M722 338q-33 -11 -80 -32t-91.5 -45.5t-79 -48.5t-41.5 -42q-6 -16 -3 -39.5t10.5 -48.5t17.5 -47.5t18 -36.5q14 -25 8.5 -39t-23.5 -16t-44 8.5t-54 34.5q-27 23 -48.5 55t-36.5 66t-23 65t-8 52q-17 -13 -28.5 -24t-15.5 -20q-6 -16 -3 -39.5t10.5 -48.5t17.5 -47.5
t18 -36.5q14 -25 8.5 -39t-23.5 -16t-44 8.5t-54 34.5t-50 58.5t-37 69.5t-22.5 67t-6.5 51q1 23 22.5 53t51 59.5t61 53t53.5 34.5q27 13 61.5 18.5t70 5t70.5 -6t64 -14.5q39 11 85 11t88 -7.5t75.5 -20.5t48.5 -28t7 -31.5t-50 -30.5z" />
    <glyph glyph-name="logicalnot" unicode="&#xac;" horiz-adv-x="355" 
d="M320 280q9 -13 7 -34t-10 -45t-21 -49t-27 -46.5t-27.5 -36t-22.5 -17.5t-22.5 -1t-26 8.5t-21 15.5t-7.5 20q0 2 2.5 7.5t5.5 12.5t5.5 13t3.5 9q-24 0 -48.5 1t-46 3t-37 6t-20.5 9q-8 7 -9 24.5t3 36.5t10.5 36t13.5 24q9 9 33 15t55 9t65 3.5t63.5 -2t51 -8
t27.5 -14.5z" />
    <glyph glyph-name="uni00AD" unicode="&#xad;" horiz-adv-x="355" 
d="M320 280q10 -14 7 -34.5t-15.5 -41t-33.5 -37.5t-47 -23q-20 -5 -54.5 -6.5t-69.5 0t-64 6t-36 12.5q-8 7 -9 24.5t3 36.5t10.5 36t13.5 24q9 9 33 15t55 9t65 3.5t63.5 -2t51 -8.5t27.5 -14z" />
    <glyph glyph-name="registered" unicode="&#xae;" horiz-adv-x="903" 
d="M367 -153q-44 -7 -92.5 -3t-94.5 18t-85.5 37t-65.5 55q-38 47 -52 104.5t-6.5 119t33 123.5t67 118.5t95.5 104.5t118 81q62 32 128.5 49.5t130.5 21.5t123 -5.5t107 -32t81.5 -58t47.5 -82.5q10 -37 11 -79t-6.5 -84.5t-22.5 -83.5t-36 -75q-49 -80 -102.5 -137
t-113 -96t-125.5 -61.5t-140 -34.5zM697 518q-82 8 -160.5 -9.5t-147 -51.5t-125 -80.5t-95 -98.5t-56.5 -105.5t-10 -99.5q9 -53 44.5 -83.5t83.5 -43.5t101.5 -11.5t98.5 10.5q42 9 86 29.5t87 55t84 83t77 113.5q27 49 40.5 98.5t8.5 91t-33 69.5t-84 33zM558 40
q5 -14 1.5 -24t-13 -15.5t-24 -6t-31.5 6.5q-22 7 -46.5 17.5t-49.5 21t-48.5 19.5t-42.5 14q-14 -14 -22.5 -31.5t-11.5 -27.5q-10 -24 -24.5 -33t-30 -5.5t-29.5 18.5t-21 39q-5 16 -3.5 43t8.5 59t20 66.5t30.5 67t40 60t48.5 45.5q86 57 164 79.5t138 19.5t98 -26.5
t45 -57.5q4 -21 -1 -48.5t-19 -57.5t-35 -60.5t-48 -57t-60 -46.5t-70 -29q12 -17 22 -26.5t15 -23.5zM341 141q20 -2 57.5 0.5t74 10.5t61.5 21t21 33q-3 13 -31 16t-64 -4.5t-70 -26.5t-49 -50z" />
    <glyph glyph-name="macron" unicode="&#xaf;" horiz-adv-x="355" 
d="M384 628q8 -11 4 -26.5t-15.5 -30.5t-26.5 -26t-30 -13q-20 -3 -57.5 -4t-76.5 0.5t-71 5t-39 11.5q-8 7 -9 18t2.5 22.5t10 22t13.5 17.5q9 9 33 15t55 9t65 3.5t63.5 -2t51 -8.5t27.5 -14z" />
    <glyph glyph-name="degree" unicode="&#xb0;" horiz-adv-x="355" 
d="M390 550q10 -14 11 -38t-10 -50t-37 -50t-70 -36q-29 -8 -57.5 -8t-53.5 6t-43.5 17t-25.5 25q-9 17 -9.5 35t5 35t16.5 32.5t26 27.5q30 24 69 33t75.5 7.5t65 -12t38.5 -24.5zM304 467q-7 11 -19 14t-24 -1.5t-20.5 -14.5t-6.5 -25q3 -12 16.5 -14.5t27.5 2.5t23 15.5
t3 23.5z" />
    <glyph glyph-name="plusminus" unicode="&#xb1;" horiz-adv-x="471" 
d="M441 292q10 -11 7 -27t-16.5 -31.5t-36.5 -29t-51 -17.5q-13 -2 -37.5 -3.5t-54.5 -2.5q-32 -29 -59.5 -49.5t-37.5 -24.5q-19 -8 -32 -2t-18 23q-2 8 -1.5 23t3.5 33q-35 2 -59.5 4.5t-30.5 7.5q-9 6 -9.5 19t3 28t10.5 28.5t15 18.5q10 6 39 10.5t68 7.5
q9 23 19.5 41.5t20.5 26.5q18 16 52 23.5t68 6t60.5 -13.5t29.5 -34q2 -9 -4.5 -22t-17.5 -29q28 -2 46.5 -6t23.5 -9zM353 64q10 -11 7 -27t-16.5 -31.5t-36.5 -29t-51 -17.5q-14 -3 -42.5 -4t-63 -1.5t-71.5 0t-68.5 2.5t-54 5t-27.5 7q-9 6 -9.5 19t3 28t10.5 28.5
t15 18.5q10 7 42.5 11.5t75.5 7t90.5 3t89 -2t71 -6.5t36.5 -11z" />
    <glyph glyph-name="twosuperior" unicode="&#xb2;" horiz-adv-x="440" 
d="M202 393q-17 -5 -43.5 -14t-49.5 -20q19 -2 40.5 -0.5t42.5 5t39.5 8.5t32.5 11q13 6 19.5 0t5 -16.5t-11.5 -23t-29 -20.5q-14 -5 -35.5 -8.5t-45.5 -5t-47 -1t-38 2.5t-25 11t-14 20.5t-0.5 24t16.5 21.5q18 12 44 22t55 18q62 18 91.5 31.5t21.5 30.5q-4 10 -17 10.5
t-30 -4.5t-36.5 -13.5t-37 -16t-31 -12.5t-18.5 -2q-18 8 -21.5 28.5t2.5 43t19.5 42.5t29.5 29q14 7 37 12.5t50 8.5t54.5 1.5t51 -8.5t39.5 -21.5t20 -37.5q4 -50 -37.5 -89.5t-143.5 -67.5z" />
    <glyph glyph-name="threesuperior" unicode="&#xb3;" horiz-adv-x="457" 
d="M191 400h-4h-5q-15 1 -23 7.5t-8 14t8 14.5t24 10q63 13 92.5 25.5t27.5 19.5q-5 14 -30.5 11t-56.5 -11t-59 -15.5t-36 -3.5q-19 9 -23 29t3 42t21.5 42t32.5 29q23 11 66.5 19t88 5.5t79.5 -19t41 -54.5q8 -94 -151 -145q19 -15 22 -36t-9 -39.5t-39 -31.5t-68 -13
q-49 0 -77.5 11t-42 27t-15 34t4.5 32q6 13 18 17t24 2t20 -9t5 -15q-3 -9 -2 -17.5t7 -16t19 -12t34 -5.5q27 -1 41.5 7t16 18t-10 18.5t-34.5 8.5h-2z" />
    <glyph glyph-name="acute" unicode="&#xb4;" horiz-adv-x="380" 
d="M363 573q-3 -11 -19.5 -16t-41 -7t-54.5 -2t-59 1q-23 0 -50 -2.5t-51.5 -4t-44.5 0t-29 8.5q-10 7 -1.5 19t28 26t46.5 28t54.5 26t52.5 20t40 9q27 1 51.5 -11t42.5 -29.5t27.5 -36t7.5 -29.5z" />
    <glyph glyph-name="mu" unicode="&#xb5;" horiz-adv-x="670" 
d="M765 534q12 -20 4.5 -53t-28 -72.5t-51.5 -82.5t-67 -83q-30 -33 -71 -77t-98 -82.5t-132.5 -63.5t-173.5 -20q-25 1 -45 5.5t-37 12.5q-38 -47 -65.5 -78t-36.5 -35q-43 -17 -54 23q-3 12 2 45.5t15 78.5t24 95.5t29 97.5q9 55 29.5 103.5t43.5 75.5q22 27 55 49.5
t71 39.5t77 27.5t72.5 13.5t57.5 -1.5t32 -18.5q13 -20 4.5 -49.5t-28 -63.5t-45 -68t-46.5 -63q-45 -59 -71.5 -98.5t-38 -63t-8.5 -34t18 -11.5q25 -4 48 13t44.5 47t41 68.5t39 78t39 75t39.5 59.5q32 40 80 70t95.5 45.5t85.5 15.5t50 -21z" />
    <glyph glyph-name="paragraph" unicode="&#xb6;" horiz-adv-x="535" 
d="M652 580q8 -12 7 -28.5t-8.5 -33.5t-21.5 -33t-33 -27q-21 -45 -50.5 -102.5t-62.5 -116.5t-66.5 -116t-62 -102.5t-49 -75t-26.5 -33.5q-19 -11 -33.5 -6t-22.5 23q-4 10 4 41t23 74.5t36 96.5t43.5 106t45 102.5t41.5 87.5h-22q-22 -47 -52 -103t-62 -113t-64 -111
t-59 -97t-46 -70t-25 -31q-19 -11 -33.5 -6t-22.5 23q-5 11 0 50t16 94t26 119t31 125q-38 4 -63 8.5t-30 10.5q-15 14 -16.5 46t5 67t19 66.5t25.5 43.5q14 13 65 22.5t125 16.5q102 9 178 11t127 -1.5t79 -11t35 -16.5z" />
    <glyph glyph-name="periodcentered" unicode="&#xb7;" horiz-adv-x="236" 
d="M220 310q7 -10 -1 -29t-25 -38.5t-39.5 -36.5t-44.5 -23q-42 -11 -69 -3t-32 31q-2 12 -0.5 26t5.5 27.5t10 25t12 17.5q21 20 49.5 27t56 5t49 -10.5t29.5 -18.5z" />
    <glyph glyph-name="cedilla" unicode="&#xb8;" horiz-adv-x="250" 
d="M52 -50q-23 3 -25 19t11 33.5t37.5 30t55.5 8.5q36 -4 59 -25t31.5 -50t2 -60.5t-29.5 -57t-63 -40t-98 -8.5q-18 2 -27 17t-8.5 32t9.5 29.5t26 9.5q22 -5 43.5 2t29.5 18.5t-2.5 23.5t-51.5 18z" />
    <glyph glyph-name="onesuperior" unicode="&#xb9;" horiz-adv-x="424" 
d="M363 603q6 -12 -3.5 -30.5t-28 -40t-42.5 -45t-46 -46.5q-18 -18 -37.5 -42t-38.5 -45.5t-35.5 -36.5t-29.5 -15q-11 0 -17 11.5t-7.5 31t1 44t8.5 50.5q-11 3 -19 8t-9 12q-2 10 7.5 25.5t24 32t32 32t32.5 24.5q25 17 58.5 28t65 15.5t55 1t29.5 -14.5z" />
    <glyph glyph-name="ordmasculine" unicode="&#xba;" horiz-adv-x="550" 
d="M478 525q12 -46 -10 -86.5t-62 -71t-92 -48t-101 -17.5t-88.5 20.5t-54.5 67.5q-18 56 2.5 98.5t62.5 70t97.5 39.5t107 8t90.5 -24t48 -57zM208 369q6 -14 31.5 -14t53 10t48.5 26.5t20 35.5q-2 15 -15.5 20.5t-32.5 3.5t-40 -10t-37.5 -19.5t-25 -25.5t-2.5 -27z" />
    <glyph glyph-name="guillemotright" unicode="&#xbb;" horiz-adv-x="697" 
d="M74 371q-30 31 -30.5 52.5t18.5 32.5t52.5 12.5t72.5 -6t78 -24.5t69 -42q-17 27 -7.5 44t36 24t65 4t78.5 -15.5t76.5 -34t59.5 -51.5q14 -19 26 -54.5t19.5 -74.5t8.5 -75t-8 -57q-8 -18 -44 -42.5t-83.5 -48.5t-97 -43.5t-85.5 -27.5q-35 -8 -63 -5t-42.5 13t-13 25
t25.5 30q9 6 28 14.5t42 19.5t47.5 23t45 24.5t34 25t14.5 23.5q1 17 -9.5 43t-29 56t-41.5 60t-45 56q12 -23 22.5 -57t16.5 -70t6 -68t-8 -51q-8 -18 -44 -42.5t-83.5 -48.5t-97 -43.5t-85.5 -27.5q-35 -8 -63 -5t-42.5 13t-13 25t25.5 30q9 6 28 14.5t42 19.5t47.5 23
t45 24.5t34 25t14.5 23.5q2 19 -11 48.5t-34.5 62.5t-47 65.5t-49.5 57.5z" />
    <glyph glyph-name="onequarter" unicode="&#xbc;" horiz-adv-x="764" 
d="M354 573q6 -12 -3.5 -30.5t-28 -40t-42.5 -45t-46 -46.5q-18 -18 -37.5 -42t-38.5 -45.5t-35.5 -36.5t-29.5 -15q-11 0 -17 11.5t-7.5 31t1 44t8.5 50.5q-11 3 -19 8t-9 12q-2 10 7.5 25.5t24 32t32 32t32.5 24.5q25 17 58.5 28t65 15.5t55 1t29.5 -14.5zM434 570
q23 13 55.5 15.5t61 -4.5t47.5 -23.5t16 -42.5q-1 -12 -22.5 -40t-55.5 -66.5t-78 -84t-90.5 -91t-92 -88t-83 -75.5t-63.5 -53.5t-33 -21.5q-21 -3 -33 7t-12 30q0 10 15 37.5t39 65.5t55 83.5t64.5 92t67 91t62 80.5t50 59.5t30.5 28.5zM619 140q12 -4 12 -16.5t-7.5 -26
t-21.5 -25t-29 -13.5q-5 -1 -13.5 -1.5t-19.5 -0.5q-21 -24 -40 -40.5t-33 -16.5q-7 0 -10.5 5.5t-4.5 14.5t0 19.5t3 21.5q-11 -1 -28.5 -1.5t-35.5 -0.5t-33.5 1.5t-21.5 4.5q-10 4 -13 12t-2 16t4.5 15.5t6.5 11.5q16 20 38 44.5t46 48.5t48 46.5t45 39.5q25 25 65.5 41
t81 23t72 4t38.5 -17q7 -15 -4 -36t-32 -46t-48.5 -52t-52.5 -54l-19 -20zM462 115q1 4 4 12t6.5 16.5t7.5 17t7 14.5q-5 -3 -16.5 -12.5t-24.5 -20t-24.5 -20t-16.5 -12.5q9 2 28 2.5t29 2.5z" />
    <glyph glyph-name="onehalf" unicode="&#xbd;" horiz-adv-x="722" 
d="M354 573q6 -12 -3.5 -30.5t-28 -40t-42.5 -45t-46 -46.5q-18 -18 -37.5 -42t-38.5 -45.5t-35.5 -36.5t-29.5 -15q-11 0 -17 11.5t-7.5 31t1 44t8.5 50.5q-11 3 -19 8t-9 12q-2 10 7.5 25.5t24 32t32 32t32.5 24.5q25 17 58.5 28t65 15.5t55 1t29.5 -14.5zM434 570
q23 13 55.5 15.5t61 -4.5t47.5 -23.5t16 -42.5q-1 -12 -22.5 -40t-55.5 -66.5t-78 -84t-90.5 -91t-92 -88t-83 -75.5t-63.5 -53.5t-33 -21.5q-21 -3 -33 7t-12 30q0 10 15 37.5t39 65.5t55 83.5t64.5 92t67 91t62 80.5t50 59.5t30.5 28.5zM562 84q-20 -6 -49.5 -16.5
t-55.5 -21.5q21 -2 45.5 -0.5t48 5t45 9.5t36.5 12t22.5 -0.5t5.5 -18.5t-13 -25.5t-33 -22.5q-15 -6 -39.5 -10t-51.5 -5.5t-53 -1t-44 2.5q-16 2 -27.5 12t-15.5 23.5t0 27.5t19 24q20 14 49 25t62 21q69 20 102 34.5t25 34.5q-5 11 -19.5 12t-34 -5t-41 -15.5t-41.5 -18
t-35 -14t-21 -2.5q-20 9 -23.5 32t3 48.5t21.5 48.5t33 33q16 8 42 14t56 9.5t61.5 2t58 -10t44.5 -24.5t23 -42q4 -57 -43 -101t-162 -76z" />
    <glyph glyph-name="threequarters" unicode="&#xbe;" horiz-adv-x="775" 
d="M511 570q23 13 55.5 15.5t61 -4.5t47.5 -23.5t16 -42.5q-1 -12 -22.5 -40t-55.5 -66.5t-78 -84t-90.5 -91t-92 -88t-83 -75.5t-63.5 -53.5t-33 -21.5q-21 -3 -33 7t-12 30q0 10 15 37.5t39 65.5t55 83.5t64.5 92t67 91t62 80.5t50 59.5t30.5 28.5zM659 140
q12 -4 12 -16.5t-7.5 -26t-21.5 -25t-29 -13.5q-5 -1 -13.5 -1.5t-19.5 -0.5q-21 -24 -40 -40.5t-33 -16.5q-7 0 -10.5 5.5t-4.5 14.5t0 19.5t3 21.5q-11 -1 -28.5 -1.5t-35.5 -0.5t-33.5 1.5t-21.5 4.5q-10 4 -13 12t-2 16t4.5 15.5t6.5 11.5q16 20 38 44.5t46 48.5
t48 46.5t45 39.5q25 25 65.5 41t81 23t72 4t38.5 -17q7 -15 -4 -36t-32 -46t-48.5 -52t-52.5 -54l-19 -20zM154 353q-15 1 -23 7.5t-8 14t8 14.5t24 10q63 13 92.5 25.5t27.5 19.5q-5 14 -30.5 11t-56.5 -11t-59 -15.5t-36 -3.5q-19 9 -23 29t3 42t21.5 42t32.5 29
q23 11 66.5 19t88 5.5t79.5 -19t41 -54.5q8 -94 -151 -145q19 -15 22 -36t-9 -39.5t-39 -31.5t-68 -13q-49 0 -77.5 11t-42 27t-15 34t4.5 32q6 13 18 17t24 2t20 -9t5 -15q-3 -9 -2 -17.5t7 -16t19 -12t34 -5.5q27 -1 41.5 7t16 18t-10 18.5t-34.5 8.5h-11zM502 115
q1 4 4 12t6.5 16.5t7.5 17t7 14.5q-5 -3 -16.5 -12.5t-24.5 -20t-24.5 -20t-16.5 -12.5q9 2 28 2.5t29 2.5z" />
    <glyph glyph-name="questiondown" unicode="&#xbf;" horiz-adv-x="376" 
d="M281 32q-36 -23 -81.5 -33t-90 -10.5t-83 7t-61.5 20.5q-21 12 -34 28t-17.5 34.5t-0.5 37.5t19 37q21 25 50.5 44t62 34t65 27.5t60.5 26.5t48.5 30t28.5 37q5 15 18 22t27.5 6t26.5 -9t15 -23q3 -14 -2 -36t-19 -45.5t-39 -45.5t-61 -36q8 -7 28.5 -3.5t43.5 9.5
t42.5 10t26.5 -3q12 -12 12.5 -33t-9.5 -45t-29.5 -47.5t-46.5 -40.5zM244 451q-8 12 1 35.5t27.5 47.5t43.5 44.5t49 27.5q47 14 76.5 4.5t34.5 -38.5q2 -15 0.5 -32.5t-6 -33.5t-10.5 -30t-13 -21q-23 -24 -54.5 -32.5t-61.5 -6.5t-54.5 12t-32.5 23z" />
    <glyph glyph-name="Agrave" unicode="&#xc0;" horiz-adv-x="561" 
d="M633 586q13 -21 8.5 -60.5t-21.5 -89.5t-44 -105t-58.5 -107.5t-65 -97t-63.5 -72.5q-27 -27 -54.5 -41t-46 -13t-23 17t13.5 51q4 6 7 12.5t6 12.5q-25 -4 -55 -5t-60.5 0.5t-59 5t-50.5 9.5q-31 -21 -61.5 -40.5t-57.5 -33.5t-49 -22t-37 -8q-26 0 -24 30.5t22.5 79
t55 107t74 114.5t78.5 102t68 70q39 31 95 54.5t117 38.5q-14 5 -19 10q-20 18 -23.5 42t2.5 47.5t16.5 42.5t18.5 28q7 8 24.5 4t40 -14.5t48 -25.5t50.5 -30q20 -12 43.5 -22.5t44 -21t35.5 -21t20 -21.5q4 -13 -21 -22zM285 186q19 -7 34 -27q9 26 13 49t4 40t-4.5 27
t-13.5 10q-2 0 -15 -9t-33 -24.5t-47 -35.5t-57 -42q38 8 70 12.5t49 -0.5z" />
    <glyph glyph-name="Aacute" unicode="&#xc1;" horiz-adv-x="561" 
d="M633 586q13 -21 8.5 -60.5t-21.5 -89.5t-44 -105t-58.5 -107.5t-65 -97t-63.5 -72.5q-27 -27 -54.5 -41t-46 -13t-23 17t13.5 51q4 6 7 12.5t6 12.5q-25 -4 -55 -5t-60.5 0.5t-59 5t-50.5 9.5q-31 -21 -61.5 -40.5t-57.5 -33.5t-49 -22t-37 -8q-26 0 -24 30.5t22.5 79
t55 107t74 114.5t78.5 102t68 70q23 18 52.5 34t63.5 29t70 23t72 17q-25 -2 -45 -1t-29 9q-10 7 -1.5 19t28 26t46.5 28t54.5 26t52.5 20t40 9q27 1 51.5 -11t42.5 -29.5t27.5 -36t7.5 -29.5q-3 -13 -26 -18t-56 -7q34 -8 46 -24zM285 186q19 -7 34 -27q9 26 13 49t4 40
t-4.5 27t-13.5 10q-2 0 -15 -9t-33 -24.5t-47 -35.5t-57 -42q38 8 70 12.5t49 -0.5z" />
    <glyph glyph-name="Acircumflex" unicode="&#xc2;" horiz-adv-x="561" 
d="M633 586q13 -21 8.5 -60.5t-21.5 -89.5t-44 -105t-58.5 -107.5t-65 -97t-63.5 -72.5q-27 -27 -54.5 -41t-46 -13t-23 17t13.5 51q4 6 7 12.5t6 12.5q-25 -4 -55 -5t-60.5 0.5t-59 5t-50.5 9.5q-31 -21 -61.5 -40.5t-57.5 -33.5t-49 -22t-37 -8q-26 0 -24 30.5t22.5 79
t55 107t74 114.5t78.5 102t68 70q41 33 101 57.5t124 38.5q-13 8 -16 21q-3 11 12 35t37 49.5t45 46.5t35 27q11 5 30 6t41 -2t43 -10t36 -18q12 -9 19.5 -23.5t12 -31.5t7 -33.5t3.5 -29.5q2 -17 -9.5 -28.5t-28.5 -14.5zM285 186q19 -7 34 -27q9 26 13 49t4 40t-4.5 27
t-13.5 10q-2 0 -15 -9t-33 -24.5t-47 -35.5t-57 -42q38 8 70 12.5t49 -0.5zM492 616q22 2 41.5 0.5t36.5 -3.5q-5 11 -4 24t3 21q-14 -3 -37.5 -16t-39.5 -26z" />
    <glyph glyph-name="Atilde" unicode="&#xc3;" horiz-adv-x="561" 
d="M633 586q13 -21 8.5 -60.5t-21.5 -89.5t-44 -105t-58.5 -107.5t-65 -97t-63.5 -72.5q-27 -27 -54.5 -41t-46 -13t-23 17t13.5 51q4 6 7 12.5t6 12.5q-25 -4 -55 -5t-60.5 0.5t-59 5t-50.5 9.5q-31 -21 -61.5 -40.5t-57.5 -33.5t-49 -22t-37 -8q-26 0 -24 30.5t22.5 79
t55 107t74 114.5t78.5 102t68 70q38 30 91 53t112 37q-6 8 -7 15q-3 10 3 31t16.5 43.5t22.5 41t23 23.5q10 4 28 6t39 0.5t41 -6.5t33 -14q6 -5 12 -17.5t11 -25t10.5 -21t10.5 -4.5q7 5 9 13.5t2 17.5v18t3 14q8 12 29.5 17t45 3.5t43 -8.5t23.5 -18q6 -16 -5.5 -34.5
t-29 -35.5t-36 -31t-27.5 -21l-11 -7zM285 186q19 -7 34 -27q9 26 13 49t4 40t-4.5 27t-13.5 10q-2 0 -15 -9t-33 -24.5t-47 -35.5t-57 -42q38 8 70 12.5t49 -0.5zM436 611q36 4 68 6q-5 7 -9 12t-8 5q-11 0 -24.5 -6.5t-26.5 -16.5z" />
    <glyph glyph-name="Adieresis" unicode="&#xc4;" horiz-adv-x="561" 
d="M633 586q13 -21 8.5 -60.5t-21.5 -89.5t-44 -105t-58.5 -107.5t-65 -97t-63.5 -72.5q-27 -27 -54.5 -41t-46 -13t-23 17t13.5 51q4 6 7 12.5t6 12.5q-25 -4 -55 -5t-60.5 0.5t-59 5t-50.5 9.5q-31 -21 -61.5 -40.5t-57.5 -33.5t-49 -22t-37 -8q-26 0 -24 30.5t22.5 79
t55 107t74 114.5t78.5 102t68 70q35 28 83.5 49.5t102.5 36.5q-3 4 -3 9q-2 12 -0.5 26t5.5 27.5t10 25t12 17.5q19 19 46 26t53.5 5.5t49 -8.5t32.5 -17q21 17 49 22.5t54 3t46.5 -10.5t27.5 -18q6 -8 2 -22t-14.5 -29.5t-26 -30.5t-33.5 -27q0 -1 1 -1zM285 186
q19 -7 34 -27q9 26 13 49t4 40t-4.5 27t-13.5 10q-2 0 -15 -9t-33 -24.5t-47 -35.5t-57 -42q38 8 70 12.5t49 -0.5z" />
    <glyph glyph-name="Aring" unicode="&#xc5;" horiz-adv-x="561" 
d="M633 586q13 -21 8.5 -60.5t-21.5 -89.5t-44 -105t-58.5 -107.5t-65 -97t-63.5 -72.5q-27 -27 -54.5 -41t-46 -13t-23 17t13.5 51q4 6 7 12.5t6 12.5q-25 -4 -55 -5t-60.5 0.5t-59 5t-50.5 9.5q-31 -21 -61.5 -40.5t-57.5 -33.5t-49 -22t-37 -8q-26 0 -24 30.5t22.5 79
t55 107t74 114.5t78.5 102t68 70q40 32 98 56t121 39q-7 16 -6.5 33t6.5 33.5t17 31t25 25.5q30 24 69 33t75.5 7.5t65 -12t38.5 -24.5q7 -9 9.5 -24t0.5 -32.5t-10.5 -36t-23.5 -34.5q7 -4 12 -11zM285 186q19 -7 34 -27q9 26 13 49t4 40t-4.5 27t-13.5 10q-2 0 -15 -9
t-33 -24.5t-47 -35.5t-57 -42q38 8 70 12.5t49 -0.5zM559 641q-7 11 -19 13.5t-23.5 -1.5t-20 -13.5t-7.5 -23.5q17 2 33.5 1.5t31.5 -2.5q12 12 5 26z" />
    <glyph glyph-name="AE" unicode="&#xc6;" horiz-adv-x="1040" 
d="M751 145q-20 -6 -46.5 -4t-56 7.5t-60.5 12.5t-58 13q-4 0 -10 2q-17 -25 -17 -42q-1 -15 14 -27.5t40 -19t57 -5t66 14.5q33 13 54.5 10t29 -15.5t-1.5 -31t-36 -35.5q-15 -10 -43.5 -18.5t-64 -14t-74.5 -8t-75.5 1t-67 13t-48.5 26.5q-23 -15 -43 -21t-32 -1.5
t-13 20.5t14 45q4 6 7 12.5t6 12.5q-25 -4 -55 -5t-60.5 0.5t-59 5t-50.5 9.5q-31 -21 -61.5 -40.5t-57.5 -33.5t-49 -22t-37 -8q-26 0 -24 30.5t22.5 79t55 107t74 114.5t78.5 102t68 70q33 27 79.5 48t98 35.5t103.5 22.5t96 8.5t76 -7t43 -23.5q26 8 54.5 13t60.5 10
q31 5 69 7t77 1t77 -4.5t70.5 -9.5t56.5 -14t35 -18q16 -15 14.5 -40t-16 -53.5t-39.5 -58.5t-55.5 -55.5t-64 -44.5t-65.5 -26q-38 -9 -74.5 -4.5t-69.5 10.5t-63 7.5t-56 -13.5q-20 -11 -39.5 -26.5t-36.5 -32.5q22 6 48 10.5t52.5 7t51 3t45.5 -1.5q27 -3 37.5 -17.5
t7 -32t-18.5 -34.5t-39 -24zM285 186q19 -7 34 -27q9 26 13 49t4 40t-4.5 27t-13.5 10q-2 0 -15 -9t-33 -24.5t-47 -35.5t-57 -42q38 8 70 12.5t49 -0.5z" />
    <glyph glyph-name="Ccedilla" unicode="&#xc7;" horiz-adv-x="760" 
d="M184 -36q-23 4 -25 19t10 32q-64 18 -111.5 58.5t-70.5 108.5q-26 80 -7.5 147t68 118.5t122 88t153.5 57t163.5 24t151.5 -10.5t117 -46t61 -83q9 -33 1.5 -68.5t-23.5 -69.5t-38.5 -63.5t-43.5 -49.5q-23 -20 -47 -24t-41.5 4t-24 25.5t6.5 38.5q6 11 -0.5 19.5t-20 14
t-31.5 8.5t-36 2q-27 -1 -58.5 -9.5t-62 -22t-58.5 -31t-47 -37t-27 -39.5t0 -39q7 -17 29.5 -25t52.5 -7.5t64 8.5t65 23q31 14 57 9t39 -19.5t7 -34t-40 -34.5q-95 -42 -196 -53q16 -29 14.5 -64t-23 -65t-63.5 -48t-106 -12q-18 2 -27 17t-8.5 32t9.5 29.5t26 9.5
q22 -5 43.5 2t29.5 18.5t-2.5 23.5t-51.5 18z" />
    <glyph glyph-name="Egrave" unicode="&#xc8;" horiz-adv-x="662" 
d="M760 571q16 -15 14.5 -40t-16 -53.5t-39.5 -58.5t-55.5 -55.5t-64 -44.5t-65.5 -26q-38 -9 -74.5 -4.5t-69.5 10.5t-63 7.5t-56 -13.5q-20 -11 -39.5 -26.5t-36.5 -32.5q22 6 48 10.5t52.5 7t51 3t45.5 -1.5q27 -3 37.5 -17.5t7 -32t-18.5 -34.5t-39 -24q-20 -6 -46.5 -4
t-56 7.5t-60.5 12.5t-58 13q-4 0 -10 2q-17 -25 -17 -42q-1 -15 14 -27.5t40 -19t57 -5t66 14.5q33 13 54.5 10t29 -15.5t-1.5 -31t-36 -35.5q-16 -11 -48.5 -20t-72 -15t-82 -7t-80.5 5t-66 20t-39 38q-11 25 -12 60t5 75t18.5 82t28.5 81t34 72t36 55q30 36 61.5 59
t66.5 37.5t74 23t84 16.5q-19 18 -22 41.5t3 46.5t16.5 42t18.5 28q7 8 24.5 4t40 -14.5t48 -25.5t50.5 -30q20 -12 43.5 -22.5t44 -21t35.5 -21t20 -21.5q3 -8 -3 -12q28 -6 48.5 -13.5t30.5 -16.5z" />
    <glyph glyph-name="Eacute" unicode="&#xc9;" horiz-adv-x="662" 
d="M760 571q16 -15 14.5 -40t-16 -53.5t-39.5 -58.5t-55.5 -55.5t-64 -44.5t-65.5 -26q-38 -9 -74.5 -4.5t-69.5 10.5t-63 7.5t-56 -13.5q-20 -11 -39.5 -26.5t-36.5 -32.5q22 6 48 10.5t52.5 7t51 3t45.5 -1.5q27 -3 37.5 -17.5t7 -32t-18.5 -34.5t-39 -24q-20 -6 -46.5 -4
t-56 7.5t-60.5 12.5t-58 13q-4 0 -10 2q-17 -25 -17 -42q-1 -15 14 -27.5t40 -19t57 -5t66 14.5q33 13 54.5 10t29 -15.5t-1.5 -31t-36 -35.5q-16 -11 -48.5 -20t-72 -15t-82 -7t-80.5 5t-66 20t-39 38q-11 25 -12 60t5 75t18.5 82t28.5 81t34 72t36 55q29 35 60 58t65 37.5
t71.5 23t80.5 15.5q-15 3 -21 8q-10 7 -1.5 19t28 26t46.5 28t54.5 26t52.5 20t40 9q27 1 51.5 -11t42.5 -29.5t27.5 -36t7.5 -29.5q-3 -11 -21.5 -16.5t-45.5 -7.5q51 -6 90.5 -16t55.5 -24z" />
    </font>
</defs>
</svg>
